<svg width="46" height="48" viewBox="0 0 46 48" fill="none" xmlns="http://www.w3.org/2000/svg">
<g clip-path="url(#clip0_65_24264)">
<path d="M38.0056 48H5.14873C5.02182 47.9417 4.90139 47.8588 4.76931 47.8291C1.86862 47.1725 0.0103596 44.94 0.00776971 41.9966C-0.00517981 29.9989 0.00388486 18.0011 0 6.0021C0 4.06097 0.747188 2.4371 2.29207 1.31438C3.12343 0.710929 4.18917 0.427334 5.14873 0C11.4785 0 17.8082 0 24.1379 0C24.3658 0.297839 24.5652 0.625462 24.8268 0.888337C29.0367 5.11377 33.2453 9.34308 37.485 13.5387C38.091 14.1383 38.3254 14.7443 38.3189 15.5912C38.2814 20.3838 38.3008 25.1778 38.3008 29.9717V31.2446C38.6893 31.3547 38.9923 31.4414 39.2966 31.5256C45.4593 33.2233 47.5727 40.6991 43.2229 45.3738C41.8011 46.9019 39.9817 47.5947 38.0056 48V48ZM35.922 15.5873C33.5224 15.5873 31.185 15.6016 28.8489 15.5835C25.4005 15.5576 22.8559 13.0544 22.7989 9.61243C22.7653 7.58713 22.795 5.56053 22.7873 3.53393C22.786 3.16227 22.7458 2.79192 22.7212 2.37365C17.184 2.37365 11.7815 2.36976 6.38023 2.37494C3.79551 2.37753 2.35552 3.81363 2.35422 6.40095C2.34904 18.1319 2.34775 29.8629 2.35422 41.5939C2.35552 44.1864 3.7981 45.6225 6.37764 45.6251C14.3053 45.6302 22.2343 45.6276 30.162 45.6251C30.4573 45.6251 30.7538 45.5836 31.1371 45.5538C30.9882 45.3285 30.9183 45.2068 30.8341 45.098C26.7939 39.891 28.9279 33.2647 35.268 31.4609C36.0204 31.2472 35.9764 30.8315 35.9764 30.2954C35.9738 25.7812 35.9764 21.2657 35.9725 16.7515C35.9725 16.4032 35.9427 16.0561 35.9207 15.5873H35.922ZM37.1587 45.423C40.453 45.4205 43.0623 42.8072 43.039 39.5336C43.017 36.3299 40.3934 33.7607 37.147 33.7646C33.8682 33.7685 31.2342 36.4076 31.2666 39.6553C31.299 42.8772 33.9031 45.4256 37.1574 45.423H37.1587ZM33.244 13.1451C30.5557 10.4852 27.8415 7.80079 25.2153 5.20441C25.2153 6.65735 25.1532 8.32395 25.2334 9.98538C25.3098 11.5846 26.6048 12.9961 28.2092 13.1166C29.9212 13.2448 31.6499 13.1451 33.244 13.1451Z" fill="black"/>
<path d="M35.919 15.5877C35.941 16.0552 35.9708 16.4035 35.9708 16.7519C35.9734 21.2661 35.9708 25.7816 35.9747 30.2958C35.9747 30.8306 36.0187 31.2463 35.2663 31.4613C28.9262 33.2651 26.7909 39.8914 30.8324 45.0984C30.9166 45.2072 30.9865 45.3276 31.1354 45.5542C30.7521 45.5827 30.4569 45.6254 30.1603 45.6254C22.2326 45.6293 14.3036 45.6319 6.37593 45.6254C3.79768 45.6241 2.35381 44.1867 2.35251 41.5943C2.34604 29.8633 2.34604 18.1323 2.35251 6.40133C2.35251 3.81402 3.79509 2.37792 6.37852 2.37533C11.7811 2.36885 17.1823 2.37403 22.7195 2.37403C22.7441 2.7923 22.7843 3.16266 22.7856 3.53431C22.7933 5.56091 22.7636 7.58751 22.7972 9.61282C22.8542 13.0548 25.3988 15.5592 28.8472 15.5838C31.1833 15.6007 33.5207 15.5877 35.9203 15.5877H35.919ZM17.945 29.9772C20.2151 29.9772 22.4838 29.9721 24.7539 29.9798C25.5827 29.9824 26.2871 29.8076 26.2936 28.8027C26.3001 27.7862 25.5762 27.6243 24.7578 27.6243C20.219 27.6243 15.6789 27.6243 11.1401 27.6243C10.3255 27.6243 9.59389 27.7771 9.60036 28.7962C9.60684 29.7946 10.3022 29.9824 11.1362 29.9798C13.4062 29.9708 15.675 29.9772 17.945 29.9772V29.9772ZM17.8596 34.788C20.1685 34.788 22.4774 34.7789 24.785 34.7932C25.5995 34.7983 26.2392 34.5381 26.2664 33.6484C26.2962 32.6837 25.6228 32.4117 24.7681 32.413C20.2216 32.4182 15.6763 32.4195 11.1297 32.413C10.288 32.413 9.59518 32.6267 9.60425 33.6122C9.61202 34.5924 10.3048 34.8009 11.1465 34.7958C13.3842 34.7828 15.6219 34.7919 17.8596 34.7906V34.788ZM14.4266 25.1859C15.5597 25.1859 16.6941 25.1924 17.8272 25.1833C18.5718 25.1781 19.0652 24.8285 19.0924 24.0541C19.1209 23.2228 18.6262 22.8239 17.8298 22.8187C15.5274 22.8071 13.2236 22.8097 10.9212 22.8162C10.1417 22.8187 9.59777 23.158 9.60036 23.9997C9.60295 24.835 10.1352 25.1807 10.9199 25.1859C12.0893 25.1924 13.2586 25.1872 14.4266 25.1859V25.1859Z" fill="#EFEFEF"/>
<path d="M37.1567 45.4221C33.9025 45.4247 31.2983 42.8763 31.2659 39.6544C31.2323 36.4067 33.8675 33.7676 37.1463 33.7637C40.3928 33.7598 43.015 36.329 43.0384 39.5327C43.0617 42.8063 40.4523 45.4195 37.158 45.4221H37.1567ZM36.3823 39.8992C36.0249 39.6764 35.819 39.5495 35.6131 39.42C34.9138 38.9784 34.2456 39.0031 33.7302 39.6738C33.2304 40.3239 33.4337 40.9481 34.0022 41.4622C34.5007 41.9128 35.0174 42.3466 35.5406 42.7701C36.5908 43.6183 37.2745 43.5237 37.9803 42.3894C38.8233 41.0361 39.6378 39.6661 40.4446 38.2908C41.0428 37.2704 40.9379 36.4766 40.1908 36.07C39.4539 35.6686 38.7443 35.9832 38.1305 36.9946C37.5633 37.9269 37.0039 38.8645 36.381 39.8992H36.3823Z" fill="#F97408"/>
<path d="M33.2464 13.1457C31.6536 13.1457 29.9236 13.2454 28.2116 13.1172C26.6072 12.9968 25.3122 11.5853 25.2358 9.98604C25.1568 8.32591 25.2177 6.65801 25.2177 5.20508C27.8426 7.80146 30.5568 10.4859 33.2464 13.1457V13.1457Z" fill="#D1D1D1"/>
<path d="M17.9463 29.976C15.6762 29.976 13.4075 29.9695 11.1374 29.9786C10.3048 29.9825 9.60808 29.7934 9.60161 28.795C9.59513 27.7746 10.3281 27.623 11.1413 27.623C15.6801 27.623 20.2202 27.623 24.759 27.623C25.5761 27.623 26.3013 27.7849 26.2948 28.8015C26.2884 29.805 25.5839 29.9812 24.7551 29.9786C22.4851 29.9708 20.2163 29.976 17.9463 29.976V29.976Z" fill="black"/>
<path d="M17.8648 34.7877C15.6271 34.7877 13.3894 34.7786 11.1517 34.7929C10.31 34.7981 9.61721 34.5896 9.60944 33.6093C9.60167 32.6251 10.2945 32.4089 11.1349 32.4102C15.6815 32.4166 20.2268 32.4166 24.7733 32.4102C25.628 32.4102 26.3001 32.6808 26.2716 33.6455C26.2444 34.5365 25.6047 34.7955 24.7902 34.7903C22.4813 34.7773 20.1724 34.7851 17.8648 34.7851V34.7877Z" fill="black"/>
<path d="M14.4279 25.1858C13.2585 25.1858 12.0892 25.191 10.9211 25.1858C10.1364 25.1819 9.60416 24.8362 9.60157 23.9996C9.59898 23.1579 10.1429 22.8186 10.9224 22.8161C13.2248 22.8096 15.5286 22.807 17.831 22.8186C18.6287 22.8225 19.1234 23.2227 19.0936 24.054C19.0664 24.8284 18.573 25.178 17.8284 25.1832C16.6953 25.1923 15.5609 25.1858 14.4279 25.1858V25.1858Z" fill="black"/>
<path d="M36.384 39.8997C37.0069 38.8651 37.5663 37.9288 38.1335 36.9952C38.7473 35.9838 39.4569 35.6691 40.1938 36.0706C40.941 36.4772 41.0458 37.271 40.4476 38.2914C39.6408 39.6667 38.8263 41.0367 37.9833 42.3899C37.2775 43.523 36.5938 43.6189 35.5436 42.7707C35.0204 42.3472 34.5037 41.9134 34.0052 41.4628C33.4367 40.9487 33.2334 40.3245 33.7333 39.6744C34.2486 39.0036 34.9168 38.979 35.6161 39.4206C35.822 39.5501 36.0279 39.677 36.3853 39.8997H36.384Z" fill="white"/>
</g>
<defs>
<clipPath id="clip0_65_24264">
<rect width="45.5202" height="48" fill="white"/>
</clipPath>
</defs>
</svg>
