<svg width="475" height="111" viewBox="0 0 475 111" fill="none" xmlns="http://www.w3.org/2000/svg">
<path fill-rule="evenodd" clip-rule="evenodd" d="M106.521 108.018C105.278 79.725 81.947 57.1683 53.3471 57.1683C24.7473 57.1683 1.41591 79.725 0.172851 108.018C0.431348 109.372 1.62108 110.395 3.04971 110.395L103.645 110.395C105.073 110.395 106.263 109.372 106.521 108.018Z" fill="#FE8A02"/>
<path fill-rule="evenodd" clip-rule="evenodd" d="M1.03863e-07 2.77065C0.258504 1.41735 1.44823 0.394531 2.87685 0.394531L103.472 0.394527C104.9 0.394527 106.09 1.41736 106.349 2.77068C105.106 31.0641 81.7741 53.6207 53.1743 53.6207C24.5745 53.6207 1.24305 31.0641 1.03863e-07 2.77065Z" fill="#FE8A02"/>
<path fill-rule="evenodd" clip-rule="evenodd" d="M477.873 1.12548C449.195 2.3626 426.325 26.0032 426.325 54.9853C426.325 83.9562 449.177 107.59 477.839 108.844C479.202 108.593 480.235 107.399 480.235 105.963L480.235 3.99965C480.235 2.57593 479.219 1.38947 477.873 1.12548Z" fill="#FE8A02"/>
<path fill-rule="evenodd" clip-rule="evenodd" d="M368.819 1.24883L368.819 109.07C398.592 109.07 422.728 84.9332 422.728 55.1596C422.728 25.3952 398.607 1.26449 368.847 1.24883C368.837 1.24883 368.828 1.24883 368.819 1.24883Z" fill="#FE8A02"/>
<path fill-rule="evenodd" clip-rule="evenodd" d="M125.748 110.302C154.08 108.047 176.37 84.3407 176.37 55.4283C176.37 26.5158 154.08 2.80933 125.748 0.554688C123.203 1.19241 121.318 3.4947 121.318 6.23716L121.318 104.619C121.318 107.362 123.203 109.664 125.748 110.302Z" fill="#FE8A02"/>
<path fill-rule="evenodd" clip-rule="evenodd" d="M230.115 110.302C201.782 108.047 179.493 84.3407 179.493 55.4283C179.493 26.5158 201.782 2.80933 230.115 0.554687C232.659 1.19241 234.544 3.4947 234.544 6.23716L234.544 104.619C234.544 107.362 232.659 109.664 230.115 110.302Z" fill="#FE8A02"/>
<path fill-rule="evenodd" clip-rule="evenodd" d="M355.884 108.018C354.641 79.7251 331.309 57.1684 302.709 57.1684C274.11 57.1684 250.778 79.7251 249.535 108.018C249.794 109.372 250.983 110.395 252.412 110.395L353.007 110.395C354.435 110.395 355.625 109.372 355.884 108.018Z" fill="#FE8A02"/>
<path fill-rule="evenodd" clip-rule="evenodd" d="M355.726 0.394527L249.273 0.394531C249.274 29.7896 273.104 53.6187 302.499 53.6187C331.895 53.6187 355.724 29.7896 355.726 0.394527Z" fill="#FE8A02"/>
</svg>
