<svg width="1254" height="360" viewBox="0 0 1254 360" xmlns="http://www.w3.org/2000/svg">
<path fill-rule="evenodd" clip-rule="evenodd" d="M1102.51 2.87069C1064.96 12.9958 1033.33 39.073 1017.27 73.14C1009.28 90.1077 1006.69 101.794 1006.61 121.304C1006.53 142.364 1009.71 156.846 1018.19 174.039C1033.71 205.479 1061.88 228.873 1097.61 239.993C1115.03 245.417 1146.47 245.381 1164.08 239.916C1204.38 227.409 1235.67 197.327 1249.5 157.813C1253.71 145.783 1254.04 143.049 1254 120.493C1253.95 98.3198 1253.56 95.0421 1249.59 83.6708C1236.56 46.3651 1208.47 18.8616 1170 5.73137C1157.12 1.33731 1152.49 0.60064 1134.9 0.13657C1118.46 -0.29667 1112.34 0.219324 1102.51 2.87069ZM27.1565 3.97083C4.55905 4.45599 0 4.95576 0 6.94834C0 8.8825 2.80806 9.34333 14.5916 9.34333H29.1831V122.116V234.888H14.5916C3.45658 234.888 0 235.404 0 237.069C0 238.829 10.6551 239.454 55.529 240.32C111.449 241.399 129.364 240.559 149.306 235.918C197.722 224.652 230.898 194.593 240.931 152.9C245.211 135.113 244.6 102.983 239.665 86.3968C227.332 44.9485 197.039 19.4344 145.916 7.43188C134.52 4.75617 125.398 4.1266 93.2238 3.79234C71.8229 3.57004 42.0934 3.64955 27.1565 3.97083ZM831.313 3.97569C801.509 4.45112 796.05 4.91032 796.05 6.94185C796.05 8.89386 798.933 9.34333 811.453 9.34333H826.855V122.116V234.888H811.453C798.842 234.888 796.05 235.329 796.05 237.322C796.05 239.438 803.255 239.756 851.174 239.756C899.093 239.756 906.298 239.438 906.298 237.322C906.298 235.329 903.506 234.888 890.895 234.888H875.493V175.662V116.436H888.384C905.871 116.436 915.896 118.846 923.089 124.781C934.729 134.383 937.747 144.307 940.312 181.388C942.558 213.867 944.79 221.644 954.721 231.582C965.465 242.336 974.606 245.164 996.041 244.37C1010.28 243.841 1013.53 243.176 1019.81 239.491C1029.96 233.538 1033.52 229.428 1030.61 227.013C1028.89 225.58 1027.69 225.933 1025.31 228.569C1018.07 236.574 1006 238.941 1000.5 233.435C996.3 229.23 994.426 219.098 992.219 188.643C989.904 156.685 986.759 145.687 976.754 134.551C968.073 124.889 958.646 120.569 935.752 115.766L918.827 112.216L932.371 109.303C955.943 104.234 972.701 93.2475 979.408 78.4686C983.245 70.0115 983.481 51.7505 979.888 41.1986C974.886 26.5042 957.488 13.0348 935.268 6.6514C925.607 3.87509 891.872 3.00699 831.313 3.97569ZM239.95 6.90939C239.95 8.90197 242.742 9.34333 255.352 9.34333H270.754V122.116V234.888H255.352C242.742 234.888 239.95 235.329 239.95 237.322C239.95 239.438 247.155 239.756 295.074 239.756C342.992 239.756 350.197 239.438 350.197 237.322C350.197 235.329 347.405 234.888 334.795 234.888H319.393V122.116V9.34333H334.795C347.405 9.34333 350.197 8.90197 350.197 6.90939C350.197 4.79349 342.992 4.47546 295.074 4.47546C247.155 4.47546 239.95 4.79349 239.95 6.90939ZM351.819 6.90939C351.819 8.90197 354.61 9.34333 367.221 9.34333H382.623V122.116V234.888H367.221C354.61 234.888 351.819 235.329 351.819 237.322C351.819 239.408 356.682 239.756 385.866 239.756C415.049 239.756 419.913 239.408 419.913 237.322C419.913 235.329 417.121 234.888 404.51 234.888H389.108L389.162 132.257C389.214 35.0278 389.363 29.8046 391.999 33.0255C393.529 34.8964 426.884 82.1455 466.119 138.025C535.32 236.582 537.613 239.624 542.725 239.689L547.994 239.756V124.549V9.34333H563.396C576.006 9.34333 578.798 8.90197 578.798 6.90939C578.798 4.8227 573.934 4.47546 544.751 4.47546C515.568 4.47546 510.704 4.8227 510.704 6.90939C510.704 8.90197 513.496 9.34333 526.107 9.34333H541.509V85.0321V160.721L506.246 110.455C486.852 82.8091 462.228 47.668 451.528 32.3651L432.072 4.54037L391.945 4.50791C357.344 4.48033 351.819 4.81134 351.819 6.90939ZM580.42 6.90939C580.42 8.89224 583.122 9.34333 595.011 9.34333H609.603V122.116V234.888H595.011C583.122 234.888 580.42 235.339 580.42 237.322C580.42 239.46 593.299 239.756 686.614 239.756H792.808V203.128C792.808 170.218 792.54 166.553 790.18 167.025C788.547 167.349 785.917 172.183 783.244 179.772C777.389 196.388 772.07 204.978 761.353 215.121C751.308 224.63 739.464 230.773 726.4 233.252C721.663 234.153 704.753 234.888 688.825 234.888H659.863V175.482V116.078L677.291 116.675C692.912 117.21 695.532 117.749 702.548 121.864C712.112 127.477 718.702 137.341 723.571 153.336C726.227 162.063 727.875 165.089 729.983 165.1C732.626 165.113 732.82 161.566 732.82 113.191C732.82 63.9754 732.666 61.2672 729.857 61.2672C727.65 61.2672 726.436 63.2403 725.111 68.9747C720.679 88.1654 712.475 100.129 699.65 106.105C692.844 109.277 688.833 109.917 675.67 109.93L659.863 109.946V59.6446V9.34333H687.204C717.068 9.34333 728.042 10.7826 739.249 16.1729C750.565 21.6152 762.148 34.5167 768.589 48.8558C772.456 57.4622 775.032 61.264 777 61.2656C779.594 61.2672 779.838 58.8333 779.838 32.8713V4.47546H680.129C592.579 4.47546 580.42 4.7724 580.42 6.90939ZM1159.46 9.24435C1177.48 16.0415 1189.22 31.1579 1196.07 56.3994C1200.33 72.069 1200.32 166.519 1196.07 184.656C1188.24 217.985 1172.67 233.927 1143.98 237.995C1130.45 239.911 1107.99 237.675 1098.54 233.473C1081.11 225.717 1070.37 208.303 1065.09 179.214C1059.98 151.099 1060.57 84.0602 1066.14 59.4629C1073 29.1409 1088.59 11.1639 1112.41 6.11593C1124.05 3.64955 1149.03 5.31111 1159.46 9.24435ZM128.519 11.727C157.372 17.8459 176.209 36.9457 183.784 67.7577C185.211 73.5586 187.2 89.053 188.207 102.19C192.232 154.743 182.829 193.835 161.462 213.378C145.154 228.297 125.53 234.824 96.8717 234.863L79.4429 234.888V122.116V9.34333L98.493 9.37091C108.971 9.38714 122.482 10.4467 128.519 11.727ZM906.653 11.0373C914.978 13.3512 922.389 20.0348 926.304 28.7612C928.868 34.4761 929.763 40.6048 930.314 56.2355C931.23 82.1796 929.182 91.9104 921.106 99.9927C913.653 107.452 905.528 109.946 888.681 109.946H875.493V59.6446V9.34333L888.058 9.35306C894.97 9.35793 903.337 10.1157 906.653 11.0373ZM1018.98 278.489C1007.59 281.507 1000.07 287.545 994.481 298.17C992.184 302.533 991.493 307.421 991.493 319.264C991.496 350.415 1002.88 360.891 1035.31 359.596C1061.65 358.545 1070.05 350.071 1070.05 324.549V311.05L1050.19 311.506L1030.33 311.962L1029.83 319.67L1029.34 327.377H1040.78C1051.95 327.377 1052.21 327.473 1052.21 331.507C1052.21 333.778 1050.42 337.429 1048.23 339.62C1044.81 343.044 1042.75 343.603 1033.56 343.603C1015.14 343.603 1010.06 338.275 1010.06 318.941C1010.06 307.075 1013.38 300.273 1020.65 297.231C1028.72 293.859 1040.6 294.324 1048.02 298.305L1054.32 301.683L1059.98 296.018C1063.32 292.677 1065.27 289.379 1064.73 287.98C1064.23 286.674 1060.47 283.982 1056.38 281.997C1048.28 278.074 1027.8 276.153 1018.98 278.489ZM582.041 319.264V359.83H612.845H643.65V351.717V343.603H622.573H601.496V334.679V325.755H621.762H642.028V317.641V309.528H621.762H601.496V302.227V294.925H622.573H643.65V286.812V278.699H612.845H582.041V319.264ZM655.728 280.761C655.292 281.895 655.133 299.966 655.373 320.921L655.809 359.018H664.726H673.643L674.454 333.926L675.265 308.834L693.91 334.38L712.554 359.925L720.661 359.473L728.767 359.018L729.2 318.858L729.635 278.699H720.732H711.828L711.38 302.905L710.933 327.111L693.375 302.905L675.818 278.699H666.168C659.859 278.699 656.244 279.412 655.728 280.761ZM774.974 319.264V359.83H783.891H792.808V319.264V278.699H783.891H774.974V319.264ZM809.021 319.348V360L817.532 359.508L826.044 359.018L826.855 335.586L827.665 312.152L837.14 335.992L846.615 359.83H853.489H860.364L869.955 335.531L879.547 311.234L880.357 335.125L881.168 359.018H890.085H899.002L899.436 318.79L899.869 278.561L887.327 279.036L874.783 279.51L866.255 301.415C861.565 313.463 856.912 325.146 855.915 327.377C854.248 331.108 853.253 329.31 843.554 305.066L833.006 278.699H821.013H809.021V319.348ZM923.474 318.026C914.918 339.737 907.919 358.024 907.919 358.665C907.919 359.306 911.821 359.83 916.59 359.83C925.2 359.83 925.28 359.784 927.809 353.339L930.356 346.849H948.145H965.933L968.527 353.339C971.115 359.812 971.147 359.83 980.053 359.83C986.195 359.83 988.983 359.185 988.983 357.767C988.983 356.633 982.127 338.562 973.746 317.607L958.509 279.51L948.769 279.031L939.027 278.551L923.474 318.026ZM1081.4 319.264V359.83H1111.39H1141.38V351.717V343.603H1120.31H1099.23V334.679V325.755H1119.5H1139.76V317.641V309.528H1119.5H1099.23V302.227V294.925H1120.31H1141.38V286.812V278.699H1111.39H1081.4V319.264ZM1154.35 319.264V359.83H1163.23H1172.11L1172.55 333.915L1173 308L1191.68 333.509L1210.36 359.018L1218.84 359.508L1227.31 360V319.348V278.699H1218.44H1209.56L1209.12 302.548L1208.67 326.397L1191.64 302.626L1174.62 278.853L1164.49 278.776L1154.35 278.699V319.264ZM954.32 316.424L959.306 329.811L948.822 330.295C943.057 330.561 938.041 330.48 937.674 330.113C936.771 329.209 947.078 303.038 948.336 303.038C948.886 303.038 951.577 309.063 954.32 316.424Z" />
</svg>
