<svg width="1254" height="315" viewBox="0 0 1254 315" xmlns="http://www.w3.org/2000/svg">
<path fill-rule="evenodd" clip-rule="evenodd" d="M712.527 0.10919C712.321 0.190049 699.189 2.70903 683.345 5.70716C651.32 11.7671 648.412 12.3185 630.128 15.804C623.081 17.1471 617.147 18.2462 616.94 18.2462C616.71 18.2462 616.565 20.0296 616.565 22.8727V27.4996L622.832 28.3232C626.278 28.7765 630.024 29.4047 631.156 29.7191C637.249 31.4134 640.556 35.1516 642.869 42.9593C644.935 49.9349 645.612 54.7115 646.129 65.9752C647.251 90.3907 647.434 103.856 647.414 160.684C647.387 240.323 647.076 272.304 646.117 293.882C645.872 299.403 645.77 304.02 645.89 304.14C646.569 304.82 672.652 309.683 685.403 311.508C703.57 314.108 717.046 315.113 730.858 314.899C762.372 314.411 786.786 306.847 806.923 291.333C811.89 287.506 820.555 279.024 824.325 274.298C841.11 253.257 849.544 227.703 850.167 195.999C850.703 168.777 844.863 146.473 832.246 127.555C818.94 107.605 801.763 95.3743 781.001 91.0664C769.247 88.6275 755.399 88.8342 742.269 91.6444C734.068 93.3997 724.057 96.7265 715.234 100.629L711.106 102.455L711.332 74.6693C711.58 44.1999 711.993 29.6562 713.328 4.48903C713.559 0.13465 713.485 -0.267401 712.527 0.10919ZM0.0175825 12.8182C0.0175825 18.9069 0.0658431 19.3692 0.6996 19.3692C2.37341 19.3692 13.4832 20.5495 15.1694 20.9067C23.4314 22.6556 31.5704 27.1882 34.7324 31.8008C38.0176 36.5932 40.3427 43.5332 41.5137 52.0436C42.3154 57.8672 44.3712 91.2551 45.3682 114.64C46.0185 129.887 46.017 192.177 45.366 206.354C44.6241 222.512 43.6907 237.647 42.6533 250.34C41.5051 264.384 39.4579 274.072 36.1032 281.338C35.0901 283.531 34.1698 284.772 31.9086 286.994C26.6994 292.114 22.085 293.862 8.80937 295.746L0.204642 296.967L0.102133 303.414L0 309.861H81.7535H163.507V303.504C163.507 297.213 163.499 297.145 162.666 296.974C162.203 296.879 158.012 296.53 153.354 296.2C143.296 295.487 140.017 294.792 134.859 292.28C125.26 287.607 120.639 279.953 118.434 265.081C117.551 259.127 115.691 229.939 115.072 212.344C114.585 198.473 114.499 195.199 114.27 181.687L114.03 167.502L130.444 167.749C152.287 168.078 153.603 168.202 159.392 170.466C170.557 174.834 179.416 187.413 184.223 205.725L185.47 210.472L191.885 210.575L198.3 210.677V158.813V106.948L191.883 107.051L185.466 107.153L184.58 110.522C178.394 134.042 167.687 146.389 151.662 148.482C150.049 148.693 140.921 148.981 131.378 149.122L114.026 149.378L114.276 125.645C114.554 99.2642 115.06 74.7289 115.63 59.9857C115.964 51.3252 116.176 47.0154 116.954 33.0328C117.068 30.9739 117.241 28.9019 117.338 28.4284L117.514 27.5674L147.152 27.7018L176.789 27.8362L181.465 28.8623C197.351 32.3474 209.17 39.856 219.651 53.122C227.207 62.6865 234.242 76.5583 239.078 91.4306C239.747 93.4895 240.427 95.3193 240.589 95.4968C240.823 95.7521 255.348 91.8619 255.862 91.4063C256.042 91.2461 253.673 9.02459 253.443 7.48379L253.262 6.26717H126.64H0.0175825V12.8182ZM323.817 87.1863C296.028 89.4163 273.797 99.1249 256.279 116.681C246.877 126.104 240.989 134.232 235.52 145.336C227.823 160.967 224.183 176.616 223.506 196.996C223.008 212.009 224.92 227.974 228.827 241.428C232.665 254.642 239.015 267.324 247.254 278.229C260.703 296.03 277.686 306.681 300.946 311.901C319.209 315.999 342.618 315.997 360.939 311.895C382.239 307.127 399.786 297.089 413.904 281.598C430.793 263.065 439.849 242.143 442.663 215.152C443.297 209.071 443.296 191.281 442.662 185.204C439.623 156.081 428.887 131.895 410.99 113.851C399.601 102.369 386.279 95.003 369.086 90.6804C355.621 87.2952 338.716 85.9906 323.817 87.1863ZM530.331 88.8641C519.111 91.1263 501.306 94.6526 468.227 101.164C456.087 103.555 445.86 105.596 445.499 105.701C444.923 105.87 444.845 106.427 444.845 110.333V114.773L446.809 114.967C447.889 115.073 450.717 115.328 453.092 115.532C458.002 115.954 460.815 116.836 463.925 118.928C468.904 122.277 472.66 129.318 474.02 137.849C474.952 143.699 476.39 163.051 477.01 178.091C477.492 189.791 477.493 218.124 477.011 230.5C476.225 250.708 474.766 270.178 473.604 275.973C471.833 284.803 467.6 291.155 461.493 294.146C458.561 295.582 456.189 296.163 449.967 296.971L444.845 297.636V303.748V309.861H512.186H579.527V303.86C579.527 299.39 579.408 297.819 579.06 297.704C578.803 297.619 574.804 297.276 570.174 296.943C565.545 296.609 560.704 296.097 559.419 295.804C551.14 293.921 545.547 287.287 543.239 276.612C542.853 274.824 542.193 269.825 541.772 265.501C538.484 231.719 537.931 197.453 540.105 162.182C540.781 151.203 540.75 151.314 544.04 148.354C547.45 145.286 552.931 142.98 560.26 141.53C565.374 140.519 575.791 140.618 581.024 141.728C589.532 143.533 597.676 146.605 605.074 150.799C606.513 151.615 607.74 152.233 607.8 152.173C607.86 152.112 613.164 138.857 619.585 122.716C630.564 95.122 631.22 93.3394 630.577 92.8688C629.172 91.8405 622.218 89.4054 618.062 88.4857C601.798 84.8874 589.908 86.7146 576.128 94.9307C561.891 103.419 551.953 114.332 543.954 130.26L540.895 136.352L541.155 111.552C541.369 91.1746 541.328 86.758 540.924 86.7895C540.653 86.8105 535.886 87.7441 530.331 88.8641ZM1166.89 86.9714C1144.08 88.9027 1128.57 94.27 1114.62 105.053C1094.94 120.271 1086.08 140.163 1088.34 164.034C1089.62 177.492 1094.47 188.404 1102.93 196.821C1109.79 203.647 1120.47 210.307 1133.97 216.18C1136.34 217.209 1142.57 219.662 1147.82 221.631C1176.29 232.311 1185.69 238.524 1191.1 250.236C1194.51 257.632 1194.35 268.124 1190.7 275.908C1188.92 279.716 1187.65 281.429 1183.67 285.44C1176.58 292.586 1170.3 295.139 1158.85 295.535C1135.5 296.344 1117.28 283.397 1102.91 255.799C1100.32 250.841 1096.62 242.438 1095.05 237.987C1094.58 236.648 1094.08 235.418 1093.93 235.252C1093.79 235.087 1091.29 235.66 1088.38 236.526L1083.09 238.1L1083.08 240.383C1083.08 243.658 1085.35 300.983 1085.51 301.473C1085.72 302.122 1100.93 307.024 1108.53 308.893C1139.24 316.444 1176.02 317.05 1199.38 310.392C1211.68 306.886 1222.4 301.233 1231.8 293.299C1245.81 281.48 1253.25 264.971 1253.95 244.163C1254.62 224.226 1249.04 209.53 1236.67 198.618C1227.78 190.781 1215.11 183.833 1197.2 176.981C1159.91 162.714 1148.49 153.483 1147.21 136.562C1146.18 122.796 1152.77 110.047 1163.59 104.906C1167.62 102.993 1170.99 102.364 1177.18 102.376C1183.1 102.387 1187.37 103.129 1192.74 105.078C1208.44 110.776 1221.4 126.968 1229.91 151.5C1230.87 154.272 1231.69 156.582 1231.74 156.633C1231.79 156.683 1234.27 155.995 1237.24 155.104L1242.64 153.484L1242.53 150.721C1242.47 149.2 1241.93 137.344 1241.32 124.373C1240.72 111.402 1240.22 100.339 1240.22 99.7894C1240.22 98.8561 1239.9 98.6637 1235.45 96.9159C1223.57 92.2508 1210.44 89.2175 1195.51 87.6887C1189.93 87.1167 1170.83 86.6379 1166.89 86.9714ZM966.74 87.8931C934.274 90.9387 909.821 104.052 891.732 128.116C876.703 148.111 869.264 170.738 868.472 198.868C867.494 233.602 877.837 261.662 899.652 283.453C918.449 302.229 941.297 312.472 969.359 314.702C975.066 315.155 987.848 314.887 993.677 314.191C1006.72 312.634 1017.89 309.354 1028.87 303.853C1040.24 298.16 1049.51 291.886 1056.99 284.831C1059.95 282.043 1065.88 275.097 1065.88 274.417C1065.88 273.97 1060.03 266.811 1059.66 266.811C1059.55 266.811 1057.43 268.17 1054.95 269.83C1045.19 276.358 1034.7 280.196 1022.11 281.841C1017.65 282.424 1004.75 282.415 1000.04 281.826C978.583 279.145 963.809 270.96 951.895 255.154C943.158 243.565 937.806 230.486 935.526 215.152C934.715 209.702 934.034 197.179 934.36 193.703L934.63 190.819H1002.31H1070V189.035C1070 185.741 1069.23 175.327 1068.65 170.792C1066.26 151.977 1060.41 135.877 1050.87 121.916C1038.07 103.157 1019.83 92.1243 995.474 88.3943C990.925 87.6976 972.287 87.3727 966.74 87.8931ZM341.588 102.773C350.689 105.784 358.424 114.616 364.199 128.587C369.681 141.853 372.834 156.587 374.513 176.781C375.631 190.235 375.34 218.914 373.933 233.869C370.201 273.535 359.469 295.438 341.588 299.882C326.927 303.527 314.058 296.275 305.509 279.553C295.465 259.905 290.935 232.152 291.576 194.188C291.887 175.769 292.701 165.33 294.831 152.437C299.775 122.515 310.148 105.849 326.062 102.258C329.605 101.459 338.51 101.754 341.588 102.773ZM979.945 102.477C991.54 106.061 998.547 120.921 1001.34 147.844C1001.9 153.247 1002.84 173.536 1002.55 173.83C1002.19 174.185 998.598 174.323 984.511 174.519C966.651 174.768 953.146 175.027 943.035 175.314L935.604 175.525L935.849 172.035C937.12 153.913 939.561 141.552 944.188 129.801C950.508 113.749 958.409 104.665 968.088 102.321C971.474 101.502 977.024 101.575 979.945 102.477ZM743.204 115.562C749.499 117.18 756.457 121.524 761.225 126.814C770.139 136.702 777.01 152.285 780.04 169.482C783.155 187.161 782.926 211.367 779.453 231.623C774.12 262.731 760.45 287.871 744.296 296.28C737.826 299.648 731.199 300.733 725.04 299.433C723.076 299.018 719.655 298.467 717.44 298.21C714.519 297.87 713.329 297.581 713.106 297.156C712.754 296.487 712.111 279.624 711.585 257.265C711.029 233.609 710.656 191.621 710.656 152.642V117.272L713.019 116.634C722.211 114.151 735.834 113.667 743.204 115.562Z" />
</svg>
