<svg width="1254" height="184" viewBox="0 0 1254 184" xmlns="http://www.w3.org/2000/svg">
<path fill-rule="evenodd" clip-rule="evenodd" d="M381.882 36.738V73.476H391.006H400.13L400.785 50.5216L401.441 27.5696L418.626 38.979C437.994 51.8396 433.39 52.2713 458.969 35.1858L470.474 27.4984L471.13 50.4872L471.786 73.476H480.91H490.034V36.4923C490.034 4.11236 489.592 -0.321457 486.485 0.867935C484.534 1.61418 472.762 9.47381 460.326 18.3346C447.891 27.193 436.784 34.4419 435.645 34.4419C434.506 34.4419 422.738 26.6924 409.495 17.2209C396.252 7.74942 384.623 0 383.649 0C382.678 0 381.882 16.5321 381.882 36.738ZM575.674 3.58425C567.139 9.54729 563.669 19.1336 563.669 36.738C563.669 68.8286 570.354 73.476 616.514 73.476H648.877L657.301 65.7725C664.885 58.8359 665.827 56.6684 666.742 44.0374C668.16 24.4974 665.875 15.0855 657.75 6.97792L650.757 0H615.78C587.808 0 579.774 0.718687 575.674 3.58425ZM750.454 13.2027C782.794 57.0174 794.474 72.3853 795.77 72.8285C796.573 73.1063 809.39 56.8314 824.248 36.6645L851.266 0H842.146C833.225 0 832.634 0.530405 815.262 24.1093C805.492 37.3694 796.884 48.2186 796.131 48.2186C795.379 48.2186 786.676 37.3694 776.793 24.1093C759.279 0.615361 758.589 0 749.764 0H740.709L750.454 13.2027ZM927.243 36.738V73.476H977.868H1028.49V66.5876V59.6992H987.072H945.652V51.7363V43.771L972.69 43.1258L999.728 42.4783L1000.46 36.164L1001.18 29.8496H973.417H945.652V21.8132V13.7767H987.072H1028.49V6.88837V0H977.868H927.243V36.738ZM1115.14 4.89763C1112.81 6.25005 1109.43 10.8676 1107.63 15.159C1104.86 21.781 1104.84 24.0909 1107.49 30.4237C1113.17 43.9846 1115.36 44.6665 1157.1 45.9225C1192.13 46.9764 1195.34 47.4265 1196.1 51.3873C1196.55 53.7615 1195.53 56.588 1193.82 57.6672C1192.12 58.7463 1171.31 59.6441 1147.57 59.6648L1104.43 59.6992V66.5876V73.476H1151.7C1198.62 73.476 1199.03 73.4324 1204.54 67.9331C1211.79 60.6958 1213.79 52.0922 1210.22 43.4932C1205.61 32.3914 1200.81 31.0941 1159.68 29.8496C1124.87 28.7957 1121.67 28.3457 1120.91 24.3848C1120.46 22.0107 1121.48 19.1841 1123.19 18.1049C1124.89 17.0258 1145.71 16.128 1169.43 16.1073L1212.58 16.0729V9.1845V2.29612L1165.98 2.36501C1137.14 2.40863 1117.77 3.37301 1115.14 4.89763ZM646.902 17.5768C650.193 20.548 651.111 24.7798 651.111 36.963C651.111 58.3078 648.93 59.6992 615.444 59.6992C581.544 59.6992 579.777 58.503 579.777 35.5739C579.777 21.827 580.543 18.1509 583.804 16.2566C586.02 14.9684 600.176 13.8847 615.262 13.8456C637.626 13.7905 643.471 14.4794 646.902 17.5768ZM80.4857 25.5237C77.347 26.7728 73.205 29.1516 71.2813 30.8094C69.3553 32.4672 62.7695 34.4717 56.6417 35.2662C41.2059 37.2638 27.5074 43.7825 17.2606 54.0094C4.71036 66.5325 0 78.4218 0 97.5853C0 122.519 10.4125 140.775 31.7805 153.312C41.2887 158.887 44.7611 159.581 63.2274 159.581C96.2137 159.581 104.024 154.761 165.3 96.598C219.691 44.9719 230.377 37.5531 253.842 35.1376C287.716 31.6475 312.849 53.215 312.849 85.774C312.849 114.714 289.251 137.767 259.627 137.767C245.581 137.767 228.44 133.237 219.442 127.143C214.833 124.023 210.65 121.878 210.148 122.379C207.741 124.778 220.515 136.613 230.485 141.221C242.378 146.72 241.241 149.285 226.944 149.211C210.475 149.124 194.004 133.109 189.793 113.084L188.223 105.622L207.392 105.75C232.342 105.92 241.13 109.038 248.4 120.303C253.471 128.16 254.26 128.643 254.912 124.273C256.055 116.611 248.045 102.563 240.364 98.7586C235.419 96.311 225.628 95.3351 205.848 95.3144L178.234 95.2892L177.509 102.8C177.111 106.931 178.457 116.051 180.501 123.065C184.912 138.206 199.285 153.999 212.663 158.403C224.376 162.26 242.534 160.242 250.774 154.164C254.438 151.459 260.545 149.248 264.346 149.248C276.066 149.248 295.867 140.371 305.968 130.592C319.336 117.647 324.246 105.718 324.281 86.1047C324.327 60.2664 312.154 40.2166 289.249 28.3985C278.24 22.7179 254.106 21.6525 238.56 26.162C219.613 31.659 203.293 44.3152 152.848 92.6303C104.026 139.393 94.0921 146.114 70.1491 148.58C36.5484 152.04 11.4043 130.356 11.4043 97.9159C11.4043 68.9756 35.0021 45.9225 64.6265 45.9225C78.6724 45.9225 95.8133 50.4527 104.811 56.5467C109.42 59.6671 113.603 61.8117 114.105 61.3111C116.542 58.8818 103.676 47.0499 93.4685 42.3291C82.3059 37.1697 82.1563 36.9722 88.2358 35.4499C109.054 30.2354 128.961 45.3898 134.414 70.6058L136.03 78.0682L116.862 77.9397C91.9107 77.7697 83.1228 74.6516 75.8536 63.3868C70.7819 55.5295 69.9927 55.0473 69.3414 59.4168C68.1978 67.079 76.2079 81.1267 83.889 84.9314C88.8341 87.379 98.6253 88.3549 118.406 88.3755L146.019 88.4008L146.744 80.8902C147.814 69.7999 141.398 50.54 133.446 40.9629C120.792 25.7281 97.2285 18.8581 80.4857 25.5237ZM515.346 65.4396C515.346 73.0925 515.73 73.476 523.4 73.476C531.069 73.476 531.454 73.0925 531.454 65.4396C531.454 57.7866 531.069 57.4031 523.4 57.4031C515.73 57.4031 515.346 57.7866 515.346 65.4396ZM696.367 58.9346C695.522 59.775 694.832 63.3914 694.832 66.9711C694.832 72.8744 695.578 73.476 702.886 73.476C710.555 73.476 710.94 73.0925 710.94 65.4396C710.94 58.1471 710.337 57.4031 704.421 57.4031C700.833 57.4031 697.209 58.092 696.367 58.9346ZM878.92 65.2949C878.92 73.1408 879.256 73.476 887.119 73.476C894.984 73.476 895.29 73.1706 894.598 66.0136C893.965 59.4513 892.975 58.4639 886.399 57.8325C879.226 57.1414 878.92 57.4467 878.92 65.2949ZM1058.41 65.2949C1058.41 73.1408 1058.74 73.476 1066.61 73.476C1074.47 73.476 1074.78 73.1706 1074.08 66.0136C1073.45 59.4513 1072.46 58.4639 1065.88 57.8325C1058.71 57.1414 1058.41 57.4467 1058.41 65.2949ZM1239.43 58.9346C1238.58 59.775 1237.89 63.3914 1237.89 66.9711C1237.89 72.8744 1238.64 73.476 1245.95 73.476C1253.62 73.476 1254 73.0925 1254 65.4396C1254 58.1471 1253.4 57.4031 1247.48 57.4031C1243.89 57.4031 1240.27 58.092 1239.43 58.9346ZM381.882 154.988C381.882 157.395 384.312 158.433 389.936 158.433H397.99V171.061C397.99 182.158 398.546 183.69 402.592 183.69C406.637 183.69 407.194 182.158 407.194 171.061V158.433H415.248C420.872 158.433 423.302 157.395 423.302 154.988C423.302 152.183 419.466 151.544 402.592 151.544C385.718 151.544 381.882 152.183 381.882 154.988ZM448.614 167.449C448.614 182.158 449.049 183.69 453.216 183.69C456.592 183.69 457.818 182.158 457.818 177.95C457.818 172.522 458.509 172.209 470.474 172.209C482.44 172.209 483.13 172.522 483.13 177.95C483.13 181.522 484.435 183.69 486.582 183.69C489.32 183.69 490.034 180.374 490.034 167.617C490.034 154.86 489.32 151.544 486.582 151.544C484.281 151.544 483.13 153.84 483.13 158.433C483.13 165.241 482.985 165.321 470.626 165.321C458.709 165.321 458.09 165.027 457.395 159.027C456.958 155.23 455.068 152.428 452.641 151.969C449.113 151.303 448.614 153.22 448.614 167.449ZM515.346 167.53V183.69H537.397C554.014 183.69 559.216 182.983 558.498 180.82C557.886 178.969 551.692 177.711 541.049 177.275C522.574 176.519 518.738 172.838 535.301 171.762C550.654 170.763 551.452 165.321 536.247 165.321C527.383 165.321 524.55 164.487 524.55 161.877C524.55 159.119 528.023 158.433 542 158.433C554.934 158.433 559.203 157.691 558.496 155.562C557.85 153.611 550.785 152.481 536.445 152.031L515.346 151.372V167.53ZM609.691 154.068C609.691 155.457 613.463 162.69 618.072 170.141C627.656 185.632 634.845 188.094 640.282 177.741L643.405 171.791L647.312 177.741C653.495 187.159 659.331 185.316 668.473 171.054C679.569 153.746 680.234 151.544 674.368 151.544C670.93 151.544 667.677 154.878 663.192 162.993C659.71 169.289 656.157 174.455 655.292 174.473C651.53 174.551 650.98 164.715 654.452 159.427C657.892 154.187 657.885 153.647 654.349 152.293C651.898 151.354 649.173 152.612 646.773 155.787C643.046 160.717 643.007 160.72 640.144 156.146C638.561 153.615 635.721 151.544 633.834 151.544C629.593 151.544 629.573 152.47 633.639 160.318C636.184 165.227 636.301 167.645 634.186 171.587C631.63 176.354 631.151 175.975 624.699 164.076C620.382 156.109 616.41 151.544 613.799 151.544C611.539 151.544 609.691 152.681 609.691 154.068ZM736.252 153.664C736.252 157.314 748.006 169.913 751.414 169.913C753.487 169.913 754.661 172.402 754.661 176.802C754.661 182.158 755.682 183.69 759.263 183.69C762.843 183.69 763.865 182.158 763.865 176.802C763.865 172.402 765.039 169.913 767.112 169.913C770.52 169.913 782.274 157.314 782.274 153.664C782.274 149.618 775.55 151.574 769.827 157.285C766.663 160.442 761.909 163.025 759.263 163.025C756.617 163.025 751.862 160.442 748.698 157.285C742.976 151.574 736.252 149.618 736.252 153.664ZM835.199 153.11C835.199 153.971 839.084 161.186 843.828 169.142C853.601 185.527 859.6 187.775 866.308 177.562L870.33 171.433L873.549 177.562C879.084 188.103 886.208 185.731 895.852 170.141C905.431 154.655 906.069 151.544 899.669 151.544C896.489 151.544 893.293 155.115 889.123 163.326C883.792 173.821 882.761 174.73 879.673 171.647C876.582 168.565 876.605 167.417 879.864 161.128C884.512 152.16 884.461 151.544 879.074 151.544C876.516 151.544 873.948 153.687 873.023 156.591L871.416 161.638L867.12 156.343C864.43 153.03 861.436 151.579 859.117 152.467C855.725 153.767 855.734 154.38 859.234 159.709C862.766 165.089 862.382 174.508 858.631 174.503C857.766 174.501 854.153 169.335 850.598 163.023C846.309 155.402 842.636 151.544 839.668 151.544C837.21 151.544 835.199 152.249 835.199 153.11ZM921.875 153.076C921.03 153.916 920.34 161.149 920.34 169.149V183.69H942.201C960.099 183.69 964.061 183.065 964.061 180.246C964.061 177.49 960.609 176.802 946.803 176.802C936.832 176.802 929.544 175.833 929.544 174.505C929.544 173.243 934.722 172.209 941.05 172.209C949.744 172.209 952.556 171.367 952.556 168.765C952.556 166.164 949.744 165.321 941.05 165.321C932.356 165.321 929.544 164.478 929.544 161.877C929.544 159.121 932.996 158.433 946.803 158.433C960.609 158.433 964.061 157.744 964.061 154.988C964.061 152.187 960.269 151.544 943.735 151.544C932.554 151.544 922.717 152.233 921.875 153.076ZM1090.62 156.136C1085.62 161.128 1084.57 172.097 1088.4 179.249C1090.42 183.015 1093.33 183.69 1107.5 183.69C1117.43 183.69 1125.34 182.572 1126.98 180.935C1131.36 176.563 1130.41 159.748 1125.53 155.344C1119.18 149.606 1096.65 150.118 1090.62 156.136ZM1148.15 154.015C1148.15 157.064 1168.52 183.738 1170.72 183.566C1172.87 183.398 1191.87 156.665 1191.87 153.811C1191.87 148.366 1185.16 152.359 1178.31 161.877C1174.22 167.56 1170.49 172.209 1170.01 172.209C1169.53 172.209 1165.8 167.56 1161.71 161.877C1154.75 152.212 1148.15 148.382 1148.15 154.015ZM1212.58 167.617V183.69H1233.29C1250.16 183.69 1254 183.052 1254 180.246C1254 177.49 1250.55 176.802 1236.74 176.802C1217.19 176.802 1213.1 172.816 1231.56 171.755C1246.85 170.878 1246.36 166.696 1230.87 165.769C1212.78 164.687 1217.58 159.721 1237.5 158.906C1250.1 158.391 1254 157.441 1254 154.887C1254 152.208 1249.89 151.544 1233.29 151.544H1212.58V167.617ZM691.9 168.859C682.938 180.962 681.706 183.69 685.216 183.69C687.581 183.69 691.392 181.623 693.681 179.098C696.187 176.333 700.769 174.505 705.187 174.505C709.605 174.505 714.187 176.333 716.692 179.098C720.607 183.414 727.047 185.394 727.047 182.278C727.047 179.389 707.401 153.976 705.187 154.001C703.921 154.017 697.943 160.703 691.9 168.859ZM1021.59 168.765C1021.59 180.501 1022.33 183.69 1025.04 183.69C1027.53 183.69 1028.49 181.148 1028.49 174.584V165.475L1036.49 170.186L1044.49 174.896L1051.45 169.952L1058.41 165.009V174.349C1058.41 182.158 1059.16 183.69 1063.01 183.69C1067.14 183.69 1067.61 182.158 1067.61 168.765C1067.61 151.514 1066.16 150.718 1052.94 160.703L1044.02 167.438L1034.12 160.639C1028.67 156.901 1023.62 153.84 1022.9 153.84C1022.18 153.84 1021.59 160.557 1021.59 168.765ZM1122.84 168.875V177.02L1108.48 176.338C1096.77 175.78 1093.97 174.887 1093.33 171.502C1091.65 162.717 1094.53 160.729 1108.96 160.729H1122.84V168.875ZM707.488 167.617C708.27 168.88 707.235 169.913 705.187 169.913C703.139 169.913 702.103 168.88 702.886 167.617C703.668 166.354 704.704 165.321 705.187 165.321C705.67 165.321 706.706 166.354 707.488 167.617Z" />
</svg>
