<svg width="1255" height="262" viewBox="0 0 1255 262" xmlns="http://www.w3.org/2000/svg">
<path fill-rule="evenodd" clip-rule="evenodd" d="M0 50C0 22.3857 22.3857 0 50 0H211.05C238.664 0 261.05 22.3857 261.05 50V211.05C261.05 238.664 238.664 261.05 211.05 261.05H50C22.3857 261.05 0 238.664 0 211.05V50ZM92.3076 52.1528C84.7656 54.9136 79.9473 58.9531 76.6963 65.2407C73.5049 71.4087 73.1943 205.982 76.3633 209.151C79.1172 211.905 93.6387 211.734 95.9756 208.919C97.2549 207.376 97.9795 186.126 98.2822 141.253L98.7227 75.8354H131.505H164.288L164.775 96.0093C164.836 98.5073 164.91 100.782 164.978 102.854C165.314 113.259 165.486 118.533 162.934 121.185C160.312 123.911 154.812 123.869 143.659 123.783C141.497 123.767 139.123 123.749 136.517 123.749H109.65V136.494V149.238L139.49 148.682C172.828 148.06 177.357 146.753 184.877 135.597C188.461 130.276 188.665 128.34 188.665 99.3716C188.665 70.4038 188.461 68.4668 184.877 63.146C177.088 51.5879 173.459 50.665 134.027 50.2109C107.151 49.8999 97.1914 50.3643 92.3076 52.1528ZM679.665 259.256L679.591 177.139L679.516 95.0225L660.986 95.0391L642.457 95.0562L642.531 177.173L642.606 259.29L661.136 259.273L679.665 259.256ZM465.76 130.7C460.342 120.405 446.788 109.961 435.019 107.013C429.512 105.635 408.792 104.52 388.973 104.538L352.939 104.571L353.01 182.062L353.08 259.553L371.609 259.536L390.14 259.519L390.114 232.076L390.09 204.634L411.514 203.394C441.009 201.686 455.918 194.459 464.82 177.559C471.075 165.688 471.556 141.708 465.76 130.7ZM558.781 138.913C563.595 141.361 568.896 144.999 570.56 146.998C575.167 152.532 577.654 151.371 577.646 143.691L577.641 136.752L596.17 136.735L614.7 136.718L614.756 198.017L614.812 259.315L596.281 259.332L577.752 259.349L577.746 252.409C577.742 248.593 577.248 245.47 576.648 245.471C576.049 245.472 570.757 248.86 564.887 253C555.427 259.672 552.458 260.528 538.767 260.541C526.016 260.552 521.395 259.425 512.264 254.076C500.567 247.224 491.201 235.329 487.188 222.231C482.775 207.826 484.062 180.426 489.777 167.126C495.442 153.939 509.533 140.234 520.801 136.951C533.152 133.352 549.506 134.198 558.781 138.913ZM824.799 191.002C822.255 164.061 809.001 145.764 786.229 137.766C769.038 131.725 742.555 134.146 728.478 143.045C710.128 154.644 701.769 171.88 701.853 197.938C701.92 218.95 705.196 228.452 716.998 241.851C741.705 269.903 791.494 266.7 814.002 235.612C824.679 220.863 823.846 219.802 801.589 219.822C785.265 219.837 781.615 220.553 778.114 224.424C767.949 235.661 747.027 231.119 740.823 216.329C739.786 213.855 738.856 211.458 738.25 209.731C737.796 208.439 737.523 207.522 737.523 207.232C737.522 206.554 757.476 205.983 781.866 205.961L826.207 205.921L824.799 191.002ZM947.043 141.02C951.546 143.794 958.093 150.915 961.591 156.845C967.853 167.459 967.962 168.333 968.779 213.31L969.609 258.994L950.87 259.011L932.132 259.028L932.088 221.438C932.051 188.289 931.514 182.979 927.535 176.478C921.261 166.22 908.639 162.8 897.403 168.316C884.755 174.525 883.49 179.36 883.492 221.483L883.491 259.072L864.962 259.088L846.432 259.105L846.377 197.807L846.32 136.508L864.851 136.492L883.38 136.475L883.387 143.816L883.394 151.161L888.702 146.169C902.104 133.576 930.836 131.037 947.043 141.02ZM1107.94 172.791C1103.41 157.054 1089.87 143.278 1073.17 137.41C1062.96 133.823 1041.44 133.19 1031.6 136.188C1013.34 141.753 997.458 157.037 992.354 173.946C987.683 189.425 988.716 212.354 994.709 226.232C1006.57 253.691 1038.19 267.095 1069.56 257.959C1085.8 253.226 1097.95 242.833 1104.98 227.66L1110.36 216.073L1090.97 215.427C1072.09 214.796 1071.41 214.958 1064.56 221.812C1052.55 233.828 1035.46 229.789 1029.23 213.46C1023.49 198.428 1028.52 174.115 1038.47 168.788C1048.91 163.192 1068.71 168.513 1068.71 176.919C1068.72 179.579 1072.92 180.253 1089.4 180.238L1110.08 180.219L1107.94 172.791ZM1196.72 137.074C1200.82 138.831 1206.48 142.469 1209.3 145.159C1216.03 151.6 1216.93 151.358 1216.92 143.112L1216.91 136.172L1235.44 136.155L1253.97 136.139L1254.03 197.438L1254.08 258.736L1235.55 258.752L1217.02 258.769L1217.02 250.433L1217.01 242.098L1208.97 249.159C1190.6 265.296 1163.64 264.747 1144.88 247.852C1131.31 235.632 1126.08 223.889 1124.8 202.75C1123.51 181.509 1126.84 167.583 1136.33 154.471C1148.79 137.268 1177.71 128.938 1196.72 137.074ZM390.044 154.27L390.062 173.932L404.805 173.918C424.59 173.901 431.749 168.667 431.735 154.232C431.723 139.798 424.554 134.577 404.769 134.595L390.026 134.609L390.044 154.27ZM530.311 220.146C517.337 206.649 520.416 178.875 535.852 170.129C544.246 165.375 560.357 167.315 567.423 173.931C574.348 180.417 578.532 194.716 576.398 204.607C571.285 228.301 546.257 236.741 530.311 220.146ZM747.208 170.111C743.444 173.281 739.82 177.969 739.15 180.527C737.991 184.972 739.029 185.182 762.041 185.161C783.479 185.141 786.134 184.693 786.065 181.091C785.776 165.915 760.632 158.811 747.208 170.111ZM1164.73 211.42C1158.26 196.007 1161.86 180.952 1174.36 171.112C1191.05 157.981 1216.95 173.275 1216.97 196.273C1216.98 212.972 1203.52 228.694 1189.2 228.708C1180.36 228.716 1168.45 220.304 1164.73 211.42Z" />
</svg>
