<svg width="278" height="501" viewBox="0 0 278 501" fill="none" xmlns="http://www.w3.org/2000/svg">
<g opacity="0.2">
<path d="M543.799 104.037C546.608 83.7302 552.84 53.2526 525.718 33.2537C498.597 13.2549 442.367 31.747 423.601 40.1369C423.43 40.2054 423.293 40.3081 423.156 40.4108C384.288 14.0768 334.531 -1.43599 273.233 0.105018C211.936 -1.43599 162.213 14.0768 123.311 40.4108C123.174 40.3424 123.003 40.2054 122.866 40.1369C104.1 31.747 47.8358 13.2549 20.7484 33.2537C-6.37332 53.2526 -0.140812 83.7302 2.66724 104.037C5.50954 124.344 24.1386 160.78 27.2206 175.197C27.2206 175.197 27.4945 175.129 27.8712 174.992C11.6736 228.585 10.8517 286.835 24.1386 337.927C61.4309 481.275 273.268 501 273.268 501C273.268 501 485.104 481.275 522.362 337.927C535.649 286.835 534.793 228.619 518.63 175.026C519.006 175.129 519.28 175.232 519.28 175.232C522.362 160.815 540.991 124.378 543.799 104.037Z" fill="#222222"/>
<path d="M426.033 175.945C419.423 147.419 393.569 128.653 368.741 134.372C353.297 137.934 341.654 150.227 336.654 165.946C325.97 172.623 309.875 182.109 302.889 183.102C301.725 183.273 301.006 183.65 300.561 184.232C294.294 176.459 285.698 170.363 273.233 170.363C260.768 170.363 252.173 176.493 245.906 184.232C245.461 183.684 244.742 183.273 243.578 183.102C235.496 181.938 215.463 169.61 205.429 163.172C200.019 148.823 188.889 137.762 174.232 134.407C149.234 128.619 123.585 147.248 116.941 175.979C110.298 204.711 125.16 232.688 150.159 238.476C166.801 242.311 183.718 235.325 195.122 221.73C195.19 222.107 195.259 222.483 195.361 222.86C202.279 252.687 176.561 281.521 169.781 305.424C163 329.326 168.103 338.881 178.034 350.524C187.28 361.345 185.396 367.68 189.06 346.209C190.67 358.434 192.998 370.488 194.437 380.693C197.861 405.178 206.148 408.397 215.634 408.774C218.339 408.877 220.6 408.842 222.551 408.637L251.591 424.15C265.665 428.636 280.767 428.704 294.876 424.321L324.737 408.705C326.484 408.842 328.436 408.877 330.764 408.774C340.25 408.397 348.537 405.178 351.962 380.693C353.4 370.488 355.728 358.4 357.338 346.209C361.002 367.68 359.119 361.345 368.365 350.524C378.296 338.881 383.398 329.326 376.618 305.424C370.008 282.069 345.352 253.988 350.729 224.846C362.029 236.318 377.611 242.003 392.781 238.476C417.608 232.688 432.607 204.505 426.033 175.945Z" fill="white"/>
<path d="M73.6804 131.841C87.5604 126.57 92.3844 105.369 84.4551 84.4875C76.5258 63.6056 58.8459 50.9501 44.9659 56.2206C31.0859 61.4911 26.2619 82.6918 34.1912 103.574C42.1205 124.455 59.8004 137.111 73.6804 131.841Z" fill="white"/>
<path d="M190.159 190.445C193.337 183.6 187.806 174.287 177.806 169.643C167.805 164.999 157.121 166.782 153.943 173.627C150.764 180.471 156.295 189.784 166.295 194.428C176.296 199.073 186.98 197.289 190.159 190.445Z" fill="black"/>
<path d="M170.597 175.243C167.583 176.818 165.494 179.969 165.494 183.599C165.494 188.804 169.706 193.016 174.911 193.016C180.117 193.016 184.329 188.804 184.329 183.599C184.329 181.27 183.473 179.113 182.034 177.469C177.788 175.551 173.644 175.072 170.597 175.243Z" fill="white"/>
<path d="M180.392 183.117C180.392 185.753 178.269 187.911 175.598 187.911C172.961 187.911 170.838 185.788 170.838 183.117C170.838 180.48 172.961 178.322 175.598 178.322C178.235 178.357 180.392 180.48 180.392 183.117Z" fill="black"/>
<path d="M174.121 179.179C174.121 180.343 173.197 181.268 172.032 181.268C170.868 181.268 169.943 180.343 169.943 179.179C169.943 178.014 170.868 177.09 172.032 177.09C173.197 177.09 174.121 178.014 174.121 179.179Z" fill="white"/>
<path d="M333.922 340.909C335.12 334.642 328.545 290.432 312.108 290.432C300.636 290.432 283.685 298.446 274.131 299.781C273.515 299.884 272.967 299.884 272.35 299.781C262.522 298.24 241.051 286.802 230.195 290.432C216.737 294.918 211.361 334.642 212.559 340.909C212.593 341.012 212.628 341.114 212.628 341.251C212.559 342.039 212.456 342.826 212.456 343.614C212.456 365.976 239.681 384.125 273.241 384.125C306.8 384.125 334.025 365.976 334.025 343.614C334.025 342.861 333.922 342.107 333.853 341.354C333.853 341.183 333.888 341.046 333.922 340.909Z" fill="black"/>
</g>
</svg>
