<svg width="454" height="111" viewBox="0 0 454 111" fill="none" xmlns="http://www.w3.org/2000/svg">
<path fill-rule="evenodd" clip-rule="evenodd" d="M79.5214 108.018C78.2784 79.725 54.947 57.1683 26.3471 57.1683C-2.25267 57.1683 -25.5841 79.725 -26.8271 108.018C-26.5687 109.372 -25.3789 110.395 -23.9503 110.395L76.6446 110.395C78.0732 110.395 79.2629 109.372 79.5214 108.018Z" fill="#FBFBFB"/>
<path fill-rule="evenodd" clip-rule="evenodd" d="M-27 2.77065C-26.7415 1.41735 -25.5518 0.394531 -24.1231 0.394531L76.4717 0.394527C77.9004 0.394527 79.0901 1.41736 79.3486 2.77068C78.1055 31.0641 54.7741 53.6207 26.1743 53.6207C-2.42553 53.6207 -25.757 31.0641 -27 2.77065Z" fill="#FBFBFB"/>
<path fill-rule="evenodd" clip-rule="evenodd" d="M450.873 1.12548C422.196 2.3626 399.326 26.0032 399.326 54.9853C399.326 83.9562 422.178 107.59 450.84 108.844C452.203 108.593 453.235 107.399 453.235 105.963L453.235 3.99965C453.235 2.57593 452.22 1.38947 450.873 1.12548Z" fill="#FBFBFB"/>
<path fill-rule="evenodd" clip-rule="evenodd" d="M341.819 1.24883L341.819 109.07C371.593 109.07 395.729 84.9332 395.729 55.1596C395.729 25.3952 371.608 1.26449 341.847 1.24883C341.838 1.24883 341.829 1.24883 341.819 1.24883Z" fill="#FBFBFB"/>
<path fill-rule="evenodd" clip-rule="evenodd" d="M98.7477 110.302C127.08 108.047 149.37 84.3407 149.37 55.4283C149.37 26.5158 127.08 2.80933 98.7477 0.554688C96.2029 1.19241 94.3184 3.4947 94.3184 6.23716L94.3184 104.619C94.3184 107.362 96.2029 109.664 98.7477 110.302Z" fill="#FBFBFB"/>
<path fill-rule="evenodd" clip-rule="evenodd" d="M203.115 110.302C174.782 108.047 152.493 84.3407 152.493 55.4283C152.493 26.5158 174.782 2.80933 203.115 0.554687C205.659 1.19241 207.544 3.4947 207.544 6.23716L207.544 104.619C207.544 107.362 205.659 109.664 203.115 110.302Z" fill="#FBFBFB"/>
<path fill-rule="evenodd" clip-rule="evenodd" d="M328.884 108.018C327.641 79.7251 304.309 57.1684 275.709 57.1684C247.11 57.1684 223.778 79.7251 222.535 108.018C222.794 109.372 223.983 110.395 225.412 110.395L326.007 110.395C327.435 110.395 328.625 109.372 328.884 108.018Z" fill="#FBFBFB"/>
<path fill-rule="evenodd" clip-rule="evenodd" d="M328.726 0.394527L222.273 0.394531C222.275 29.7896 246.104 53.6187 275.5 53.6187C304.895 53.6187 328.725 29.7896 328.726 0.394527Z" fill="#FBFBFB"/>
</svg>
