<svg width="541" height="30" viewBox="0 0 541 30" fill="none" xmlns="http://www.w3.org/2000/svg">
<path d="M12.0574 15.184C11.8654 13.568 10.7454 12.192 8.53744 12.192C5.60944 12.192 4.44144 14.432 4.44144 18.064C4.44144 21.568 5.25744 24.032 8.68144 24.032C11.2094 24.032 12.4574 22.304 12.4574 20.192C12.4574 17.76 11.0014 16.336 8.84144 16.336C7.46544 16.336 6.20144 16.976 5.70544 18.112C5.68944 14.672 6.68144 13.408 8.52144 13.408C9.83344 13.408 10.4894 14.064 10.7134 15.184H12.0574ZM8.53744 17.568C10.2014 17.568 11.0494 18.608 11.0494 20.24C11.0494 21.808 10.1054 22.816 8.60144 22.816C6.77744 22.816 5.88144 21.616 5.88144 20.08C5.88144 18.352 7.20944 17.568 8.53744 17.568ZM22.2137 15.184C22.0217 13.568 20.9017 12.192 18.6937 12.192C15.7657 12.192 14.5977 14.432 14.5977 18.064C14.5977 21.568 15.4137 24.032 18.8377 24.032C21.3657 24.032 22.6137 22.304 22.6137 20.192C22.6137 17.76 21.1577 16.336 18.9977 16.336C17.6217 16.336 16.3577 16.976 15.8617 18.112C15.8457 14.672 16.8377 13.408 18.6777 13.408C19.9897 13.408 20.6457 14.064 20.8697 15.184H22.2137ZM18.6937 17.568C20.3577 17.568 21.2057 18.608 21.2057 20.24C21.2057 21.808 20.2617 22.816 18.7577 22.816C16.9337 22.816 16.0377 21.616 16.0377 20.08C16.0377 18.352 17.3657 17.568 18.6937 17.568ZM24.2579 15.04C24.2579 16.544 25.2659 17.44 26.5939 17.44C27.9379 17.44 28.9299 16.544 28.9299 15.04C28.9299 13.552 27.9379 12.656 26.5939 12.656C25.2659 12.656 24.2579 13.552 24.2579 15.04ZM26.5939 13.552C27.2979 13.552 27.7779 14.032 27.7779 15.04C27.7779 16.032 27.2979 16.544 26.5939 16.544C25.8899 16.544 25.4259 16.032 25.4259 15.04C25.4259 14.032 25.8899 13.552 26.5939 13.552ZM25.6819 24H27.1219L33.6019 12.832H32.1619L25.6819 24ZM30.3859 21.792C30.3859 23.28 31.3779 24.192 32.7219 24.192C34.0499 24.192 35.0419 23.28 35.0419 21.792C35.0419 20.288 34.0499 19.392 32.7219 19.392C31.3779 19.392 30.3859 20.288 30.3859 21.792ZM32.7059 20.304C33.4099 20.304 33.8899 20.784 33.8899 21.792C33.8899 22.784 33.4099 23.264 32.7059 23.264C32.0019 23.264 31.5219 22.784 31.5219 21.792C31.5219 20.784 32.0019 20.304 32.7059 20.304Z" fill="#232323"/>
<path d="M502.464 24H503.936V12.432H500.928V13.76H502.464V24ZM506.437 18.096C506.437 21.456 507.269 24 510.469 24C513.653 24 514.485 21.456 514.485 18.096C514.485 14.784 513.653 12.256 510.469 12.256C507.269 12.256 506.437 14.784 506.437 18.096ZM513.045 18.096C513.045 20.592 512.741 22.672 510.469 22.672C508.181 22.672 507.877 20.592 507.877 18.096C507.877 15.696 508.181 13.584 510.469 13.584C512.741 13.584 513.045 15.696 513.045 18.096ZM516.484 18.096C516.484 21.456 517.316 24 520.516 24C523.7 24 524.532 21.456 524.532 18.096C524.532 14.784 523.7 12.256 520.516 12.256C517.316 12.256 516.484 14.784 516.484 18.096ZM523.092 18.096C523.092 20.592 522.788 22.672 520.516 22.672C518.228 22.672 517.924 20.592 517.924 18.096C517.924 15.696 518.228 13.584 520.516 13.584C522.788 13.584 523.092 15.696 523.092 18.096ZM526.211 15.04C526.211 16.544 527.219 17.44 528.547 17.44C529.891 17.44 530.883 16.544 530.883 15.04C530.883 13.552 529.891 12.656 528.547 12.656C527.219 12.656 526.211 13.552 526.211 15.04ZM528.547 13.552C529.251 13.552 529.731 14.032 529.731 15.04C529.731 16.032 529.251 16.544 528.547 16.544C527.843 16.544 527.379 16.032 527.379 15.04C527.379 14.032 527.843 13.552 528.547 13.552ZM527.635 24H529.075L535.555 12.832H534.115L527.635 24ZM532.339 21.792C532.339 23.28 533.331 24.192 534.675 24.192C536.003 24.192 536.995 23.28 536.995 21.792C536.995 20.288 536.003 19.392 534.675 19.392C533.331 19.392 532.339 20.288 532.339 21.792ZM534.659 20.304C535.363 20.304 535.843 20.784 535.843 21.792C535.843 22.784 535.363 23.264 534.659 23.264C533.955 23.264 533.475 22.784 533.475 21.792C533.475 20.784 533.955 20.304 534.659 20.304Z" fill="#232323"/>
<rect x="45" y="15" width="439" height="7" rx="3.5" fill="#C7CCD1"/>
<rect x="45" y="15" width="227" height="7" rx="3.5" fill="#FE8A02"/>
<path d="M283.25 20.625L272 20L264.5 11.25V7.5C264.5 8.125 265 9.375 267 9.375C268.25 10 268.25 10 269.5 11.25C270.75 12.5 270.75 11.25 272 11.25C273.25 11.25 273.25 10.625 273.875 10C274.5 9.375 274.5 8.75 275.125 8.125C275.75 7.5 275.75 7.5 275.75 6.875C275.75 6.25 277.625 6.875 278.25 6.875C278.75 6.875 280.542 7.70833 281.375 8.125L283.25 7.5L282.625 5L289.5 8.125V12.5L283.25 20.625Z" fill="#FE8A02" stroke="#FE8A02"/>
<circle cx="268.875" cy="20.625" r="5.625" fill="#353535"/>
<circle cx="285.125" cy="20.625" r="5.625" fill="#353535"/>
<path d="M282 3.75C281.753 3.75005 281.511 3.82339 281.306 3.96075C281.1 4.0981 280.94 4.29331 280.845 4.52168C280.751 4.75006 280.726 5.00135 280.774 5.24379C280.822 5.48623 280.941 5.70894 281.116 5.88375C281.471 6.17513 281.729 6.56749 281.855 7.00875C280.937 6.32921 279.876 5.86981 278.752 5.66607C277.628 5.46233 276.473 5.5197 275.375 5.83375C274.774 6.0397 274.25 6.42243 273.871 6.93171C273.492 7.44099 273.275 8.05303 273.25 8.6875C273.188 9.97 272.824 10 272.274 10.0575C270.868 10.1494 269.479 9.71543 268.375 8.84L265.25 6.5C265.064 6.36072 264.843 6.2759 264.612 6.25505C264.381 6.2342 264.149 6.27815 263.941 6.38197C263.733 6.48578 263.559 6.64537 263.437 6.84284C263.315 7.04031 263.25 7.26786 263.25 7.5V11.25C263.25 11.4968 263.323 11.7381 263.46 11.9438L265.601 15.155C264.82 15.783 264.202 16.59 263.799 17.5075C263.396 18.4251 263.221 19.4263 263.287 20.4263C263.353 21.4262 263.659 22.3955 264.179 23.2521C264.699 24.1086 265.418 24.8272 266.275 25.3469C267.132 25.8666 268.101 26.1722 269.101 26.2377C270.101 26.3033 271.102 26.1269 272.02 25.7234C272.937 25.32 273.744 24.7015 274.371 23.9201C274.999 23.1388 275.429 22.2178 275.625 21.235C276.542 21.2761 277.46 21.2577 278.375 21.18C278.558 22.1418 278.964 23.0472 279.56 23.8234C280.157 24.5995 280.928 25.2246 281.81 25.6483C282.693 26.0721 283.662 26.2825 284.641 26.2628C285.62 26.2431 286.58 25.9937 287.445 25.5348C288.31 25.0759 289.055 24.4203 289.62 23.6208C290.185 22.8212 290.554 21.9002 290.698 20.9318C290.841 19.9635 290.756 18.9749 290.447 18.0457C290.139 17.1166 289.617 16.2728 288.923 15.5825C290.75 14.02 290.75 11.1375 290.75 10C290.75 5.05625 285.026 3.75 282 3.75ZM269.5 23.75C268.758 23.75 268.033 23.5301 267.417 23.118C266.8 22.706 266.319 22.1203 266.035 21.4351C265.752 20.7498 265.677 19.9958 265.822 19.2684C265.967 18.541 266.324 17.8728 266.848 17.3483C267.373 16.8239 268.041 16.4667 268.768 16.3221C269.496 16.1774 270.25 16.2516 270.935 16.5355C271.62 16.8193 272.206 17.2999 272.618 17.9166C273.03 18.5333 273.25 19.2583 273.25 20C273.25 20.9946 272.855 21.9484 272.152 22.6517C271.448 23.3549 270.495 23.75 269.5 23.75ZM284.5 23.75C283.505 23.75 282.552 23.3549 281.848 22.6517C281.145 21.9484 280.75 20.9946 280.75 20V19.9738C280.755 19.2332 280.98 18.5108 281.395 17.8976C281.81 17.2843 282.397 16.8078 283.083 16.528C283.769 16.2482 284.522 16.1776 285.248 16.3253C285.973 16.4729 286.639 16.8321 287.161 17.3576C287.683 17.8831 288.037 18.5513 288.18 19.278C288.322 20.0047 288.247 20.7574 287.962 21.4411C287.677 22.1248 287.197 22.7089 286.581 23.1198C285.965 23.5307 285.241 23.75 284.5 23.75ZM286.347 14.06C285.526 13.7882 284.655 13.6932 283.794 13.7814C282.933 13.8696 282.1 14.1388 281.35 14.5716C280.601 15.0043 279.951 15.5907 279.444 16.2923C278.936 16.9939 278.583 17.7948 278.408 18.6425C277.483 18.7465 276.552 18.7799 275.622 18.7425C275.331 17.3336 274.563 16.068 273.448 15.1588C272.333 14.2495 270.939 13.752 269.5 13.75C268.937 13.7573 268.378 13.8414 267.838 14L265.75 10.875V10L266.875 10.8387C268.477 12.0925 270.49 12.7015 272.519 12.5462C274.55 12.3512 275.644 11.095 275.754 8.8125C275.765 8.59375 275.815 8.34375 276.278 8.16625C277.143 7.99287 278.038 8.03611 278.884 8.29213C279.729 8.54815 280.497 9.00902 281.121 9.63375C281.307 9.81931 281.546 9.94186 281.805 9.98404C282.063 10.0262 282.329 9.98588 282.564 9.86875C283.013 9.63759 283.405 9.30877 283.71 8.90644C284.015 8.50411 284.227 8.03849 284.329 7.54375C284.383 7.2064 284.379 6.86215 284.316 6.52625C286.091 6.90875 288.25 7.8225 288.25 10C288.25 12.2987 287.914 13.7788 286.347 14.06Z" fill="#232323"/>
</svg>
