<svg width="166" height="144" viewBox="0 0 166 144" fill="none" xmlns="http://www.w3.org/2000/svg">
<path d="M120.78 37.73C125 41.78 127.94 47.76 129.66 51.09C134.35 60.14 136.46 71.55 136.85 80.99C137.67 100.98 123.12 118.65 93.58 121.47C81.26 122.64 66.07 121.53 56.14 114.79C48.11 109.34 43.38 100.6 40.92 93.3C37.52 83.17 39.21 71.62 51.24 65.62C58.28 62.1 67.76 58.9 73.24 54.13C81.56 46.88 84.45 37.57 97.82 33.82C104.2 32.03 116.45 33.57 120.78 37.73Z" fill="#588FE0"/>
<path d="M120.89 143.72C145.566 143.72 165.57 142.108 165.57 140.12C165.57 138.132 145.566 136.52 120.89 136.52C96.2139 136.52 76.21 138.132 76.21 140.12C76.21 142.108 96.2139 143.72 120.89 143.72Z" fill="#1E347A"/>
<path d="M59.38 131.9C73.6069 131.9 85.14 130.226 85.14 128.16C85.14 126.094 73.6069 124.42 59.38 124.42C45.1532 124.42 33.62 126.094 33.62 128.16C33.62 130.226 45.1532 131.9 59.38 131.9Z" fill="#1E347A"/>
<path d="M148.47 138.67H95.5C92.91 138.67 90.8 136.55 90.8 133.97V14.67C90.8 12.08 92.92 9.97 95.5 9.97H148.47C151.06 9.97 153.17 12.09 153.17 14.67V133.97C153.17 136.56 151.06 138.67 148.47 138.67Z" fill="white"/>
<path d="M146.55 135.55H97.43C95.01 135.55 93.03 133.57 93.03 131.15V18.49C93.03 16.07 95.01 14.09 97.43 14.09H146.55C148.97 14.09 150.95 16.07 150.95 18.49V131.15C150.95 133.57 148.97 135.55 146.55 135.55Z" fill="#4D87E2"/>
<path d="M114.91 17.97H129.28C129.96 17.97 130.55 17.5 130.7 16.83L131.15 14.02C131.36 13.11 130.66 12.24 129.73 12.24H114.24C113.24 12.24 112.54 13.22 112.86 14.17L113.53 16.98C113.73 17.57 114.29 17.97 114.91 17.97Z" fill="white"/>
<path d="M116.63 16.95C117.138 16.95 117.55 16.5381 117.55 16.03C117.55 15.5219 117.138 15.11 116.63 15.11C116.122 15.11 115.71 15.5219 115.71 16.03C115.71 16.5381 116.122 16.95 116.63 16.95Z" fill="#4D87E2"/>
<path d="M125.84 16.72H120.93C120.49 16.72 120.12 16.36 120.12 15.91C120.12 15.47 120.48 15.1 120.93 15.1H125.84C126.28 15.1 126.65 15.46 126.65 15.91C126.65 16.36 126.28 16.72 125.84 16.72Z" fill="#4D87E2"/>
<path d="M117.1 41.14C117.55 41.15 117.95 41.32 118.28 41.65C118.61 41.98 118.77 42.39 118.77 42.88C118.76 43.37 118.6 43.78 118.27 44.12C117.95 44.46 117.55 44.62 117.08 44.62C116.61 44.61 116.22 44.44 115.9 44.1C115.58 43.76 115.42 43.35 115.43 42.89C115.43 42.64 115.48 42.4 115.58 42.18C115.68 41.96 115.8 41.77 115.96 41.63C116.12 41.48 116.29 41.37 116.49 41.28C116.68 41.18 116.88 41.14 117.1 41.14ZM116.23 42.87C116.23 43.14 116.31 43.37 116.49 43.54C116.66 43.71 116.86 43.8 117.08 43.8C117.3 43.8 117.5 43.72 117.67 43.56C117.85 43.4 117.94 43.18 117.94 42.9C117.94 42.62 117.86 42.4 117.68 42.22C117.51 42.05 117.31 41.96 117.09 41.96C116.87 41.96 116.67 42.04 116.5 42.21C116.33 42.37 116.24 42.59 116.23 42.87Z" fill="white"/>
<path d="M121.31 43.83C121.43 43.83 121.52 43.85 121.57 43.88C121.62 43.91 121.66 43.95 121.68 44.01C121.7 44.07 121.71 44.14 121.71 44.22C121.71 44.31 121.7 44.38 121.68 44.43C121.66 44.48 121.65 44.52 121.62 44.55C121.6 44.58 121.57 44.6 121.52 44.61C121.47 44.63 121.39 44.64 121.28 44.63L119.36 44.61C119.29 44.61 119.22 44.59 119.16 44.55C119.03 44.47 118.96 44.35 118.96 44.18C118.96 44.1 118.98 44.04 119.02 43.99L120.47 42.03L119.41 42.02C119.34 42.02 119.28 42.02 119.25 42.01C119.21 42.01 119.17 41.99 119.12 41.97C119.03 41.93 118.99 41.81 118.99 41.62C118.99 41.42 119.04 41.3 119.12 41.26C119.17 41.24 119.21 41.22 119.24 41.22C119.28 41.22 119.33 41.21 119.4 41.22L121.25 41.24C121.32 41.24 121.39 41.26 121.45 41.3C121.51 41.34 121.56 41.39 121.6 41.45C121.63 41.51 121.65 41.58 121.65 41.67C121.65 41.75 121.63 41.82 121.59 41.87L120.14 43.83H121.31Z" fill="white"/>
<path d="M123.63 41.23C124.08 41.24 124.48 41.41 124.81 41.74C125.14 42.07 125.3 42.48 125.3 42.97C125.29 43.46 125.13 43.87 124.8 44.21C124.48 44.55 124.08 44.71 123.61 44.71C123.14 44.7 122.75 44.53 122.43 44.19C122.11 43.85 121.95 43.44 121.96 42.98C121.96 42.73 122.01 42.49 122.11 42.27C122.21 42.05 122.33 41.86 122.49 41.72C122.65 41.57 122.82 41.46 123.02 41.37C123.21 41.26 123.41 41.22 123.63 41.23ZM122.76 42.95C122.76 43.22 122.84 43.45 123.02 43.62C123.19 43.79 123.39 43.88 123.61 43.88C123.83 43.88 124.03 43.8 124.2 43.64C124.38 43.48 124.47 43.25 124.47 42.98C124.47 42.7 124.39 42.48 124.21 42.3C124.04 42.13 123.84 42.04 123.62 42.04C123.4 42.04 123.2 42.12 123.03 42.29C122.86 42.46 122.77 42.68 122.76 42.95Z" fill="white"/>
<path d="M127.79 41.46C127.82 41.41 127.86 41.37 127.92 41.35C127.98 41.33 128.05 41.32 128.14 41.33C128.23 41.33 128.3 41.34 128.35 41.36C128.4 41.38 128.44 41.4 128.47 41.42C128.5 41.44 128.51 41.47 128.53 41.52C128.55 41.57 128.56 41.65 128.55 41.76L128.52 44.32C128.52 44.39 128.52 44.45 128.51 44.48C128.5 44.51 128.49 44.55 128.46 44.6C128.42 44.68 128.3 44.72 128.1 44.72C127.98 44.72 127.9 44.71 127.85 44.69C127.8 44.67 127.77 44.64 127.74 44.6C127.06 43.67 126.61 43.06 126.4 42.78L126.38 44.3C126.38 44.37 126.38 44.43 126.37 44.46C126.37 44.49 126.35 44.53 126.32 44.58C126.28 44.66 126.16 44.7 125.96 44.7C125.77 44.7 125.65 44.65 125.61 44.57C125.59 44.52 125.57 44.48 125.57 44.45C125.57 44.41 125.56 44.36 125.57 44.29L125.6 41.72C125.6 41.6 125.62 41.52 125.65 41.46C125.68 41.41 125.72 41.37 125.78 41.35C125.84 41.33 125.91 41.32 126.01 41.33C126.11 41.34 126.17 41.34 126.23 41.36C126.28 41.38 126.32 41.4 126.34 41.42C126.35 41.43 126.39 41.47 126.44 41.54C127.08 42.43 127.5 43.02 127.72 43.3L127.74 41.74C127.74 41.6 127.76 41.52 127.79 41.46Z" fill="white"/>
<path d="M128.91 28.42C128.98 27.9 129.14 27.12 128.45 26.61C127.76 26.1 126.32 26.57 125.84 26.79C125.84 26.79 125.83 26.79 125.83 26.8C124.84 26.13 123.57 25.73 122 25.77C120.43 25.73 119.16 26.13 118.17 26.8C118.17 26.8 118.16 26.8 118.16 26.79C117.73 26.65 116.36 26.28 115.55 26.61C114.76 26.94 115.02 27.9 115.09 28.42C115.16 28.94 115.64 29.87 115.72 30.24C115.72 30.24 115.73 30.24 115.74 30.23C115.33 31.6 115.31 33.09 115.64 34.39C116.59 38.05 122 38.56 122 38.56C122 38.56 127.41 38.06 128.36 34.39C128.7 33.08 128.68 31.6 128.26 30.23C128.27 30.23 128.28 30.24 128.28 30.24C128.37 29.87 128.84 28.94 128.91 28.42Z" fill="black"/>
<path d="M125.9 30.26C125.73 29.53 125.07 29.05 124.44 29.2C124.05 29.29 123.75 29.6 123.62 30.01C123.35 30.18 122.94 30.42 122.76 30.45C122.73 30.45 122.71 30.46 122.7 30.48C122.54 30.28 122.32 30.13 122 30.13C121.68 30.13 121.46 30.29 121.3 30.48C121.29 30.47 121.27 30.46 121.24 30.45C121.03 30.42 120.52 30.11 120.27 29.94C120.13 29.57 119.85 29.29 119.47 29.2C118.83 29.05 118.18 29.53 118.01 30.26C117.84 30.99 118.22 31.71 118.86 31.86C119.29 31.96 119.72 31.78 120.01 31.43C120.01 31.44 120.01 31.45 120.02 31.46C120.2 32.22 119.54 32.96 119.37 33.57C119.2 34.18 119.33 34.42 119.58 34.72C119.82 35 119.77 35.16 119.86 34.61C119.9 34.92 119.96 35.23 120 35.49C120.09 36.12 120.3 36.2 120.54 36.21C120.61 36.21 120.67 36.21 120.72 36.21L121.46 36.61C121.82 36.72 122.21 36.73 122.57 36.61L123.33 36.21C123.37 36.21 123.42 36.21 123.48 36.21C123.72 36.2 123.93 36.12 124.02 35.49C124.06 35.23 124.12 34.92 124.16 34.61C124.25 35.16 124.21 35 124.44 34.72C124.69 34.42 124.82 34.18 124.65 33.57C124.48 32.97 123.85 32.26 123.99 31.51C124.28 31.8 124.68 31.95 125.06 31.86C125.69 31.71 126.07 30.98 125.9 30.26Z" fill="white"/>
<path d="M128.21 28.4014C128.412 27.8696 128.287 27.3288 127.931 27.1935C127.575 27.0582 127.122 27.3797 126.92 27.9115C126.718 28.4433 126.843 28.9841 127.2 29.1194C127.556 29.2547 128.008 28.9332 128.21 28.4014Z" fill="white"/>
<path d="M119.881 30.6109C119.962 30.4356 119.821 30.1973 119.565 30.0787C119.31 29.9601 119.037 30.006 118.955 30.1813C118.874 30.3566 119.015 30.595 119.271 30.7136C119.526 30.8322 119.799 30.7863 119.881 30.6109Z" fill="black"/>
<path d="M119.49 30.74C119.65 30.74 119.78 30.61 119.78 30.45C119.78 30.41 119.77 30.37 119.76 30.34C119.73 30.32 119.71 30.31 119.68 30.3C119.72 30.34 119.74 30.4 119.74 30.46C119.74 30.59 119.63 30.7 119.5 30.7C119.37 30.7 119.26 30.59 119.26 30.46C119.26 30.37 119.31 30.29 119.39 30.25C119.37 30.25 119.35 30.25 119.33 30.26C119.32 30.26 119.31 30.27 119.29 30.27C119.24 30.32 119.21 30.39 119.21 30.47C119.2 30.61 119.33 30.74 119.49 30.74Z" fill="#090D14"/>
<path d="M119.38 30.24C119.3 30.28 119.25 30.36 119.25 30.45C119.25 30.58 119.36 30.69 119.49 30.69C119.62 30.69 119.73 30.58 119.73 30.45C119.73 30.39 119.71 30.34 119.67 30.29C119.56 30.24 119.46 30.23 119.38 30.24Z" fill="white"/>
<path d="M119.63 30.44C119.63 30.51 119.58 30.56 119.51 30.56C119.44 30.56 119.39 30.51 119.39 30.44C119.39 30.37 119.44 30.32 119.51 30.32C119.57 30.32 119.63 30.37 119.63 30.44Z" fill="black"/>
<path d="M119.47 30.34C119.47 30.37 119.45 30.39 119.42 30.39C119.39 30.39 119.37 30.37 119.37 30.34C119.37 30.31 119.39 30.29 119.42 30.29C119.44 30.28 119.47 30.31 119.47 30.34Z" fill="white"/>
<path d="M124.876 30.733C125.132 30.6144 125.273 30.3761 125.191 30.2008C125.11 30.0255 124.837 29.9795 124.581 30.0981C124.326 30.2168 124.185 30.4551 124.266 30.6304C124.348 30.8057 124.621 30.8517 124.876 30.733Z" fill="black"/>
<path d="M124.65 30.74C124.49 30.74 124.36 30.61 124.36 30.45C124.36 30.41 124.37 30.37 124.38 30.34C124.41 30.32 124.43 30.31 124.46 30.3C124.42 30.34 124.4 30.4 124.4 30.46C124.4 30.59 124.51 30.7 124.64 30.7C124.77 30.7 124.88 30.59 124.88 30.46C124.88 30.37 124.83 30.29 124.75 30.25C124.77 30.25 124.79 30.25 124.81 30.26C124.82 30.26 124.83 30.27 124.85 30.27C124.9 30.32 124.93 30.39 124.93 30.47C124.93 30.61 124.8 30.74 124.65 30.74Z" fill="#090D14"/>
<path d="M124.76 30.24C124.84 30.28 124.89 30.36 124.89 30.45C124.89 30.58 124.78 30.69 124.65 30.69C124.52 30.69 124.41 30.58 124.41 30.45C124.41 30.39 124.43 30.34 124.47 30.29C124.57 30.24 124.68 30.23 124.76 30.24Z" fill="white"/>
<path d="M124.51 30.44C124.51 30.51 124.56 30.56 124.63 30.56C124.7 30.56 124.75 30.51 124.75 30.44C124.75 30.37 124.7 30.32 124.63 30.32C124.56 30.32 124.51 30.37 124.51 30.44Z" fill="black"/>
<path d="M124.67 30.34C124.67 30.37 124.69 30.39 124.72 30.39C124.75 30.39 124.77 30.37 124.77 30.34C124.77 30.31 124.75 30.29 124.72 30.29C124.69 30.28 124.67 30.31 124.67 30.34Z" fill="white"/>
<path d="M116.904 29.125C117.261 28.9897 117.386 28.4489 117.184 27.9171C116.982 27.3853 116.529 27.0638 116.173 27.1991C115.817 27.3344 115.692 27.8752 115.894 28.407C116.096 28.9388 116.548 29.2603 116.904 29.125Z" fill="white"/>
<path d="M123.55 34.47C123.58 34.31 123.41 33.18 122.99 33.18C122.7 33.18 122.26 33.38 122.02 33.42C122 33.42 121.99 33.42 121.97 33.42C121.72 33.38 121.17 33.09 120.89 33.18C120.55 33.29 120.41 34.31 120.44 34.47V34.48C120.44 34.5 120.44 34.52 120.44 34.54C120.44 35.11 121.14 35.58 121.99 35.58C122.85 35.58 123.54 35.12 123.54 34.54C123.54 34.52 123.54 34.5 123.54 34.48C123.55 34.48 123.55 34.47 123.55 34.47Z" fill="black"/>
<path d="M125.61 131.9C139.064 131.9 149.97 130.06 149.97 127.79C149.97 125.52 139.064 123.68 125.61 123.68C112.156 123.68 101.25 125.52 101.25 127.79C101.25 130.06 112.156 131.9 125.61 131.9Z" fill="#1E347A"/>
<path d="M61.18 88.46C70.8 88.46 78.6301 96.29 78.6301 105.91C78.6301 115.53 70.8 123.36 61.18 123.36C51.56 123.36 43.73 115.53 43.73 105.91C43.73 96.29 51.56 88.46 61.18 88.46ZM61.18 85.53C49.92 85.53 40.8 94.65 40.8 105.91C40.8 117.17 49.92 126.29 61.18 126.29C72.44 126.29 81.56 117.17 81.56 105.91C81.56 94.65 72.44 85.53 61.18 85.53Z" fill="white"/>
<path d="M126.64 88.51C136.26 88.51 144.09 96.34 144.09 105.96C144.09 115.58 136.26 123.41 126.64 123.41C117.02 123.41 109.19 115.58 109.19 105.96C109.19 96.34 117.02 88.51 126.64 88.51ZM126.64 85.58C115.38 85.58 106.26 94.7 106.26 105.96C106.26 117.22 115.38 126.34 126.64 126.34C137.9 126.34 147.02 117.22 147.02 105.96C147.02 94.7 137.9 85.58 126.64 85.58Z" fill="white"/>
<path d="M79.8101 77.48L61.1801 105.18L88.6301 108.3L115.9 77.68L79.8101 77.48Z" stroke="#FF8B00" stroke-width="1.6537" stroke-miterlimit="10" stroke-linecap="round" stroke-linejoin="round"/>
<path d="M114.12 74.3L115.9 82.39L126.75 105.46" stroke="#FF8B00" stroke-width="1.6537" stroke-miterlimit="10" stroke-linecap="round" stroke-linejoin="round"/>
<path d="M112.65 71.85L119.75 65.28L124.9 69.64" stroke="black" stroke-width="1.7288" stroke-miterlimit="10" stroke-linecap="round" stroke-linejoin="round"/>
<path d="M88.63 108.3L79.28 72.07" stroke="#FF8B00" stroke-width="1.6537" stroke-miterlimit="10" stroke-linecap="round" stroke-linejoin="round"/>
<path d="M94.7601 118.9L88.6301 108.3" stroke="#F58624" stroke-width="1.5912" stroke-miterlimit="10" stroke-linecap="round" stroke-linejoin="round"/>
<path d="M88.1301 107.96L83.2401 99.29" stroke="#F58624" stroke-width="1.5912" stroke-miterlimit="10" stroke-linecap="round" stroke-linejoin="round"/>
<path d="M89.4901 116.45C92.9418 116.45 95.7401 113.652 95.7401 110.2C95.7401 106.748 92.9418 103.95 89.4901 103.95C86.0383 103.95 83.2401 106.748 83.2401 110.2C83.2401 113.652 86.0383 116.45 89.4901 116.45Z" stroke="black" stroke-width="1.5912" stroke-miterlimit="10" stroke-linecap="round" stroke-linejoin="round"/>
<path d="M89.4901 103.95C89.4901 103.95 64.2301 103.95 61.1801 103.95C58.1301 103.95 57.0101 106.77 59.7101 108.3C62.4101 109.83 89.4901 116.45 89.4901 116.45V103.95Z" stroke="black" stroke-width="1.5375" stroke-miterlimit="10" stroke-linecap="round" stroke-linejoin="round"/>
<path d="M70.9 66.87C70.45 67.32 70.3601 68.01 70.9101 68.99C72.1801 71.21 75.58 70.57 77.59 70.37C80.01 70.14 88.24 72.66 87.36 68.21C85.85 67.9 81.04 68.24 78.14 67.63C76.65 67.31 75.24 66.42 73.73 66.26C72.59 66.13 71.47 66.31 70.9 66.87Z" fill="white"/>
<path d="M120.27 68.02C122.21 69.59 122.54 69.97 124.48 71.54" stroke="white" stroke-width="1.7288" stroke-miterlimit="10" stroke-linecap="round" stroke-linejoin="round"/>
<path d="M59.9901 108.3C61.0173 108.3 61.8501 107.467 61.8501 106.44C61.8501 105.413 61.0173 104.58 59.9901 104.58C58.9628 104.58 58.1301 105.413 58.1301 106.44C58.1301 107.467 58.9628 108.3 59.9901 108.3Z" fill="white" stroke="#1A1617" stroke-width="1.5375" stroke-miterlimit="10" stroke-linecap="round" stroke-linejoin="round"/>
<path d="M127.03 108.35C128.057 108.35 128.89 107.517 128.89 106.49C128.89 105.463 128.057 104.63 127.03 104.63C126.003 104.63 125.17 105.463 125.17 106.49C125.17 107.517 126.003 108.35 127.03 108.35Z" fill="white" stroke="black" stroke-width="1.5375" stroke-miterlimit="10" stroke-linecap="round" stroke-linejoin="round"/>
<path d="M94.95 119.84C96.19 119.06 94.95 119.84 96.19 119.06" stroke="#FF8B00" stroke-width="1.5912" stroke-miterlimit="10" stroke-linecap="round" stroke-linejoin="round"/>
<path d="M82.0001 99.68C83.2401 98.9 82.0001 99.68 83.2401 98.9" stroke="#FF8B00" stroke-width="1.5912" stroke-miterlimit="10" stroke-linecap="round" stroke-linejoin="round"/>
<path d="M89.4901 112.06C90.5173 112.06 91.3501 111.227 91.3501 110.2C91.3501 109.173 90.5173 108.34 89.4901 108.34C88.4628 108.34 87.6301 109.173 87.6301 110.2C87.6301 111.227 88.4628 112.06 89.4901 112.06Z" fill="white" stroke="black" stroke-width="1.5375" stroke-miterlimit="10" stroke-linecap="round" stroke-linejoin="round"/>
<path d="M159.53 57.04H145.86C144.23 57.04 142.9 55.71 142.9 54.08V41.64C142.9 40.01 144.23 38.68 145.86 38.68H159.53C161.16 38.68 162.49 40.01 162.49 41.64V54.08C162.5 55.71 161.16 57.04 159.53 57.04Z" fill="#1E347A"/>
<path d="M146.43 56.41V59.47C146.24 60.22 147.2 60.7 147.68 60.09L150.08 57.03C150.45 56.56 150.11 55.88 149.52 55.88H147.13C146.79 55.88 146.51 56.09 146.43 56.41Z" fill="#1E347A"/>
<path d="M150.78 53.34H157.96V45.86L156.49 43.88H150.78V53.34Z" stroke="white" stroke-width="0.6652" stroke-miterlimit="10" stroke-linecap="round" stroke-linejoin="round"/>
<path d="M156.12 48.08C155.01 48.08 153.89 48.08 152.78 48.08Z" fill="#1E2C5B"/>
<path d="M156.12 48.08C155.01 48.08 153.89 48.08 152.78 48.08" stroke="white" stroke-width="0.6652" stroke-miterlimit="10" stroke-linecap="round" stroke-linejoin="round"/>
<path d="M156.12 49.71C155.01 49.71 153.89 49.71 152.78 49.71Z" fill="#1E2C5B"/>
<path d="M156.12 49.71C155.01 49.71 153.89 49.71 152.78 49.71" stroke="white" stroke-width="0.6652" stroke-miterlimit="10" stroke-linecap="round" stroke-linejoin="round"/>
<path d="M156.12 51.35C155.01 51.35 153.89 51.35 152.78 51.35Z" fill="#1E2C5B"/>
<path d="M156.12 51.35C155.01 51.35 153.89 51.35 152.78 51.35" stroke="white" stroke-width="0.6652" stroke-miterlimit="10" stroke-linecap="round" stroke-linejoin="round"/>
<path d="M157.96 46.06H156.35V43.87L157.96 46.06Z" stroke="white" stroke-width="0.6652" stroke-miterlimit="10" stroke-linecap="round" stroke-linejoin="round"/>
<path d="M150.21 47.52C151.878 47.52 153.23 46.1679 153.23 44.5C153.23 42.8321 151.878 41.48 150.21 41.48C148.542 41.48 147.19 42.8321 147.19 44.5C147.19 46.1679 148.542 47.52 150.21 47.52Z" fill="#1E347A" stroke="white" stroke-width="0.6652" stroke-miterlimit="10" stroke-linecap="round" stroke-linejoin="round"/>
<path d="M148.73 44.53L149.91 45.56L151.69 43.44" stroke="white" stroke-width="0.6652" stroke-miterlimit="10" stroke-linecap="round" stroke-linejoin="round"/>
<path d="M158.65 81.14H144.98C143.35 81.14 142.02 79.81 142.02 78.18V65.74C142.02 64.11 143.35 62.78 144.98 62.78H158.65C160.28 62.78 161.61 64.11 161.61 65.74V78.18C161.61 79.8 160.28 81.14 158.65 81.14Z" fill="#1E347A"/>
<path d="M145.54 80.51V83.57C145.35 84.32 146.31 84.8 146.79 84.19L149.19 81.13C149.56 80.66 149.22 79.98 148.63 79.98H146.24C145.91 79.97 145.63 80.19 145.54 80.51Z" fill="#1E347A"/>
<path d="M149.88 71.91L151.5 73.32L153.94 70.4" stroke="white" stroke-width="0.6652" stroke-miterlimit="10" stroke-linecap="round" stroke-linejoin="round"/>
<path d="M155.96 73.38C155.96 74.05 155.66 74.68 155.14 75.1C154.14 75.92 152.51 77.17 151.9 77.17C151.1 77.17 149.55 75.92 148.61 75.11C148.13 74.69 147.85 74.08 147.85 73.43V68.22C147.85 67.9 148.12 67.65 148.43 67.67C148.81 67.69 149.33 67.7 149.8 67.63C150.49 67.53 151.33 67.25 151.7 67.11C151.82 67.07 151.96 67.07 152.08 67.11C152.43 67.24 153.22 67.52 154.03 67.63C154.55 67.7 155.02 67.7 155.36 67.68C155.68 67.66 155.95 67.91 155.95 68.23V73.38H155.96Z" stroke="white" stroke-width="0.6652" stroke-miterlimit="10" stroke-linecap="round" stroke-linejoin="round"/>
<path d="M158.65 106.6H144.98C143.35 106.6 142.02 105.27 142.02 103.64V91.2C142.02 89.57 143.35 88.24 144.98 88.24H158.65C160.28 88.24 161.61 89.57 161.61 91.2V103.64C161.61 105.27 160.28 106.6 158.65 106.6Z" fill="#1E347A"/>
<path d="M145.54 105.97V109.03C145.35 109.78 146.31 110.26 146.79 109.65L149.19 106.59C149.56 106.12 149.22 105.44 148.63 105.44H146.24C145.91 105.44 145.63 105.65 145.54 105.97Z" fill="#22346B"/>
<path d="M150.04 101.62H146.36V93.06H157.52V101.62H153.87" stroke="white" stroke-width="0.6652" stroke-miterlimit="10" stroke-linecap="round" stroke-linejoin="round"/>
<path d="M157.52 93.06H146.36V95.8H157.52V93.06Z" stroke="white" stroke-width="0.6652" stroke-miterlimit="10" stroke-linecap="round" stroke-linejoin="round"/>
<path d="M149.95 99.35L151.96 97.34L153.98 99.37" stroke="white" stroke-width="0.6652" stroke-miterlimit="10" stroke-linecap="round" stroke-linejoin="round"/>
<path d="M151.96 97.65V102.7" stroke="white" stroke-width="0.6652" stroke-miterlimit="10" stroke-linecap="round" stroke-linejoin="round"/>
<path d="M147.76 94.62C147.865 94.62 147.95 94.5349 147.95 94.43C147.95 94.3251 147.865 94.24 147.76 94.24C147.655 94.24 147.57 94.3251 147.57 94.43C147.57 94.5349 147.655 94.62 147.76 94.62Z" stroke="white" stroke-width="0.4305" stroke-miterlimit="10" stroke-linecap="round" stroke-linejoin="round"/>
<path d="M149.17 94.62C149.275 94.62 149.36 94.5349 149.36 94.43C149.36 94.3251 149.275 94.24 149.17 94.24C149.065 94.24 148.98 94.3251 148.98 94.43C148.98 94.5349 149.065 94.62 149.17 94.62Z" stroke="white" stroke-width="0.4305" stroke-miterlimit="10" stroke-linecap="round" stroke-linejoin="round"/>
<path d="M150.54 94.62C150.645 94.62 150.73 94.5349 150.73 94.43C150.73 94.3251 150.645 94.24 150.54 94.24C150.435 94.24 150.35 94.3251 150.35 94.43C150.35 94.5349 150.435 94.62 150.54 94.62Z" stroke="white" stroke-width="0.4305" stroke-miterlimit="10" stroke-linecap="round" stroke-linejoin="round"/>
<path d="M27.26 48.8C36.671 48.8 44.3 41.1709 44.3 31.76C44.3 22.3491 36.671 14.72 27.26 14.72C17.8491 14.72 10.22 22.3491 10.22 31.76C10.22 41.1709 17.8491 48.8 27.26 48.8Z" fill="#FF8B00"/>
<path d="M27.5201 42.07C27.3101 42.07 27.1301 42 26.9901 41.85C26.8401 41.7 26.7701 41.52 26.7701 41.32V39.65C24.8601 39.46 23.1101 38.69 21.5701 37.35C21.3601 37.18 21.2501 36.97 21.2501 36.74C21.2501 36.52 21.3301 36.32 21.4801 36.17C21.6301 36.02 21.8201 35.94 22.0401 35.94C22.2601 35.94 22.4401 36.01 22.5901 36.16C23.8301 37.32 25.2601 38.01 26.8301 38.21V31.91C25.1301 31.52 23.8801 30.97 23.1001 30.29C22.2801 29.57 21.8601 28.58 21.8601 27.35C21.8601 26.12 22.3501 25.07 23.3201 24.23C24.2401 23.44 25.4001 23 26.7801 22.94V22.24C26.7801 22.03 26.8501 21.85 27.0001 21.71C27.1501 21.56 27.3301 21.49 27.5301 21.49C27.7401 21.49 27.9201 21.56 28.0701 21.71C28.2201 21.86 28.2901 22.04 28.2901 22.25V23.01C29.7201 23.17 31.1001 23.72 32.3801 24.67C32.6501 24.88 32.7901 25.11 32.7901 25.34C32.7901 25.56 32.7101 25.76 32.5601 25.91C32.4101 26.06 32.2201 26.14 32.0001 26.14C31.7901 26.14 31.6001 26.07 31.4401 25.93C30.4501 25.14 29.3801 24.65 28.2501 24.48V30.66C29.9701 31.04 31.2501 31.58 32.0501 32.27C32.8901 33 33.3101 34 33.3101 35.25C33.3101 36.5 32.8101 37.56 31.8401 38.39C30.9101 39.18 29.7201 39.63 28.3001 39.7V41.34C28.3001 41.55 28.2301 41.73 28.0801 41.87C27.9101 42 27.7301 42.07 27.5201 42.07ZM28.2301 38.24C29.2401 38.19 30.0801 37.9 30.7101 37.37C31.3801 36.8 31.7101 36.13 31.7101 35.3C31.7101 34.48 31.4601 33.84 30.9401 33.37C30.4401 32.92 29.5301 32.53 28.2301 32.22V38.24V38.24ZM26.8101 24.35C25.8301 24.4 25.0201 24.69 24.4001 25.21C23.7401 25.77 23.4301 26.43 23.4301 27.23C23.4301 28.03 23.6701 28.65 24.1701 29.13C24.6401 29.58 25.5301 29.98 26.8201 30.3V24.35H26.8101Z" fill="white"/>
<path d="M27.5201 21.65C27.6801 21.65 27.81 21.7 27.92 21.81C28.03 21.92 28.08 22.05 28.08 22.21V23.15C29.55 23.28 30.94 23.82 32.25 24.79C32.47 24.96 32.58 25.13 32.58 25.31C32.58 25.48 32.52 25.63 32.4 25.74C32.28 25.85 32.14 25.92 31.98 25.92C31.82 25.92 31.67 25.87 31.55 25.76C30.46 24.89 29.29 24.38 28.04 24.24V30.8C29.82 31.17 31.11 31.71 31.9 32.4C32.7 33.09 33.09 34.04 33.09 35.23C33.09 36.42 32.62 37.42 31.69 38.23C30.75 39.03 29.55 39.46 28.08 39.51V41.34C28.08 41.5 28.03 41.63 27.92 41.74C27.81 41.85 27.6801 41.9 27.5201 41.9C27.3601 41.9 27.23 41.85 27.12 41.74C27.01 41.63 26.9601 41.5 26.9601 41.34V39.49C25.0101 39.33 23.25 38.58 21.69 37.22C21.52 37.08 21.43 36.92 21.43 36.75C21.43 36.58 21.49 36.43 21.61 36.32C21.73 36.2 21.87 36.14 22.03 36.14C22.19 36.14 22.33 36.19 22.44 36.3C23.78 37.55 25.3 38.26 27.01 38.43V31.76C25.26 31.37 24 30.83 23.22 30.14C22.44 29.45 22.05 28.52 22.05 27.34C22.05 26.16 22.51 25.17 23.44 24.37C24.37 23.57 25.5401 23.15 26.9601 23.12V22.23C26.9601 22.07 27.01 21.94 27.12 21.83C27.23 21.7 27.3601 21.65 27.5201 21.65ZM27.01 30.55V24.16C25.89 24.18 24.98 24.48 24.28 25.07C23.59 25.66 23.2401 26.39 23.2401 27.24C23.2401 28.09 23.51 28.77 24.04 29.28C24.56 29.78 25.55 30.2 27.01 30.55ZM28.04 38.44C29.19 38.42 30.13 38.12 30.84 37.52C31.55 36.92 31.91 36.18 31.91 35.31C31.91 34.44 31.63 33.75 31.08 33.24C30.53 32.73 29.51 32.32 28.05 31.99V38.44H28.04ZM27.5201 21.26C27.2601 21.26 27.0301 21.36 26.8501 21.54C26.6701 21.72 26.5701 21.95 26.5701 22.21V22.73C25.2301 22.83 24.09 23.27 23.18 24.06C22.17 24.94 21.65 26.04 21.65 27.33C21.65 28.62 22.09 29.66 22.95 30.42C23.74 31.12 24.94 31.65 26.61 32.05V37.97C25.17 37.74 23.85 37.08 22.69 36C22.52 35.83 22.2801 35.73 22.0201 35.73C21.7501 35.73 21.51 35.83 21.33 36.02C21.14 36.21 21.04 36.45 21.04 36.73C21.04 36.93 21.11 37.23 21.44 37.5C22.95 38.82 24.6801 39.6 26.5701 39.82V41.32C26.5701 41.58 26.6701 41.81 26.8501 41.99C27.0301 42.17 27.2601 42.27 27.5201 42.27C27.7801 42.27 28.01 42.17 28.19 41.99C28.37 41.81 28.47 41.58 28.47 41.32V39.86C29.86 39.75 31.02 39.3 31.94 38.51C32.96 37.63 33.48 36.53 33.48 35.22C33.48 33.91 33.03 32.86 32.15 32.1C31.34 31.4 30.12 30.86 28.42 30.48V24.68C29.43 24.87 30.4 25.33 31.3 26.05C31.48 26.21 31.72 26.3 31.97 26.3C32.24 26.3 32.48 26.2 32.66 26.01C32.85 25.82 32.95 25.58 32.95 25.3C32.95 25 32.79 24.73 32.47 24.48C31.2 23.54 29.86 22.98 28.45 22.8V22.21C28.45 21.95 28.35 21.72 28.17 21.54C28.01 21.36 27.7801 21.26 27.5201 21.26ZM26.62 30.05C25.5 29.75 24.72 29.39 24.3 28.99C23.84 28.56 23.62 27.98 23.62 27.23C23.62 26.49 23.92 25.88 24.53 25.36C25.07 24.9 25.77 24.63 26.62 24.56V30.05ZM28.42 38.03V32.46C29.56 32.75 30.36 33.1 30.8 33.51C31.27 33.94 31.51 34.53 31.51 35.3C31.51 36.06 31.21 36.69 30.58 37.22C30.03 37.69 29.3 37.96 28.42 38.03Z" fill="white"/>
<path d="M43.78 54.6C39.01 54.6 35.13 50.72 35.13 45.95C35.13 41.18 39.01 37.3 43.78 37.3C48.55 37.3 52.43 41.18 52.43 45.95C52.43 50.72 48.55 54.6 43.78 54.6Z" fill="#FF8B00"/>
<path d="M43.78 38.08C48.12 38.08 51.64 41.6 51.64 45.94C51.64 50.28 48.12 53.8 43.78 53.8C39.44 53.8 35.92 50.28 35.92 45.94C35.91 41.61 39.43 38.08 43.78 38.08ZM43.78 36.51C38.57 36.51 34.34 40.75 34.34 45.95C34.34 51.15 38.58 55.39 43.78 55.39C48.98 55.39 53.22 51.15 53.22 45.95C53.22 40.75 48.98 36.51 43.78 36.51Z" fill="#3356A3"/>
<path d="M43.89 50.75C43.78 50.75 43.69 50.71 43.61 50.64C43.53 50.56 43.5 50.47 43.5 50.37V49.63C42.62 49.54 41.82 49.18 41.11 48.56C41 48.47 40.95 48.37 40.95 48.25C40.95 48.13 40.99 48.04 41.07 47.96C41.15 47.88 41.24 47.84 41.36 47.84C41.47 47.84 41.57 47.88 41.64 47.95C42.19 48.47 42.83 48.78 43.53 48.88V46.05C42.76 45.87 42.18 45.61 41.82 45.3C41.43 44.96 41.24 44.49 41.24 43.91C41.24 43.33 41.47 42.84 41.93 42.44C42.35 42.07 42.88 41.87 43.51 41.84V41.55C43.51 41.44 43.55 41.35 43.62 41.27C43.69 41.2 43.79 41.16 43.89 41.16C43.99 41.16 44.09 41.2 44.16 41.27C44.23 41.35 44.27 41.44 44.27 41.55V41.87C44.93 41.95 45.55 42.21 46.14 42.64C46.28 42.75 46.34 42.86 46.34 42.98C46.34 43.09 46.3 43.19 46.22 43.27C46.14 43.35 46.04 43.39 45.93 43.39C45.82 43.39 45.73 43.35 45.64 43.28C45.2 42.93 44.73 42.71 44.23 42.63V45.4C45.02 45.58 45.6 45.83 45.97 46.15C46.36 46.49 46.56 46.97 46.56 47.55C46.56 48.14 46.33 48.64 45.87 49.03C45.44 49.4 44.9 49.6 44.25 49.64V50.36C44.25 50.46 44.21 50.56 44.14 50.63C44.09 50.71 44 50.75 43.89 50.75ZM44.26 48.89C44.7 48.86 45.06 48.73 45.34 48.5C45.64 48.25 45.79 47.94 45.79 47.58C45.79 47.21 45.68 46.93 45.45 46.72C45.23 46.52 44.83 46.35 44.27 46.21V48.89H44.26ZM43.53 42.57C43.1 42.6 42.75 42.73 42.48 42.96C42.19 43.21 42.04 43.51 42.04 43.86C42.04 44.22 42.15 44.5 42.37 44.71C42.58 44.91 42.97 45.08 43.52 45.23V42.57H43.53Z" fill="white"/>
<path d="M43.89 41.28C43.96 41.28 44.02 41.31 44.07 41.36C44.12 41.41 44.15 41.47 44.15 41.54V41.97C44.83 42.03 45.47 42.28 46.07 42.73C46.17 42.81 46.22 42.89 46.22 42.97C46.22 43.05 46.19 43.12 46.14 43.17C46.09 43.22 46.02 43.25 45.95 43.25C45.87 43.25 45.81 43.22 45.75 43.17C45.25 42.77 44.71 42.53 44.13 42.47V45.5C44.95 45.67 45.55 45.92 45.91 46.24C46.28 46.56 46.46 47 46.46 47.55C46.46 48.1 46.24 48.56 45.81 48.93C45.38 49.3 44.82 49.5 44.15 49.52V50.36C44.15 50.43 44.12 50.49 44.07 50.54C44.02 50.59 43.96 50.62 43.89 50.62C43.82 50.62 43.76 50.59 43.71 50.54C43.66 50.49 43.63 50.43 43.63 50.36V49.51C42.73 49.44 41.92 49.09 41.2 48.46C41.12 48.4 41.08 48.32 41.08 48.24C41.08 48.16 41.11 48.09 41.16 48.04C41.21 47.99 41.28 47.96 41.35 47.96C41.43 47.96 41.49 47.99 41.54 48.04C42.16 48.62 42.86 48.94 43.65 49.02V45.94C42.84 45.76 42.26 45.51 41.9 45.19C41.54 44.87 41.36 44.44 41.36 43.9C41.36 43.36 41.57 42.9 42 42.53C42.43 42.16 42.97 41.97 43.63 41.95V41.54C43.63 41.47 43.66 41.41 43.71 41.36C43.76 41.31 43.82 41.28 43.89 41.28ZM43.66 45.39V42.44C43.14 42.45 42.72 42.59 42.4 42.86C42.08 43.13 41.92 43.47 41.92 43.86C41.92 44.25 42.04 44.57 42.29 44.8C42.53 45.03 42.99 45.23 43.66 45.39ZM44.13 49.03C44.66 49.02 45.09 48.88 45.42 48.6C45.75 48.32 45.91 47.98 45.91 47.58C45.91 47.18 45.78 46.86 45.53 46.62C45.27 46.39 44.81 46.19 44.13 46.04V49.03ZM43.89 41.02C43.75 41.02 43.62 41.07 43.52 41.17C43.42 41.27 43.37 41.4 43.37 41.54V41.71C42.77 41.77 42.25 41.98 41.83 42.34C41.34 42.76 41.1 43.29 41.1 43.91C41.1 44.53 41.31 45.03 41.73 45.4C42.1 45.72 42.64 45.97 43.39 46.16V48.74C42.78 48.62 42.21 48.33 41.72 47.87C41.63 47.78 41.5 47.73 41.36 47.73C41.22 47.73 41.09 47.78 40.98 47.89C40.88 47.99 40.82 48.12 40.82 48.27C40.82 48.38 40.86 48.54 41.03 48.69C41.72 49.29 42.51 49.66 43.37 49.77V50.39C43.37 50.53 43.42 50.66 43.52 50.76C43.62 50.86 43.75 50.91 43.89 50.91C44.03 50.91 44.16 50.86 44.26 50.76C44.36 50.66 44.41 50.53 44.41 50.39V49.79C45.03 49.73 45.56 49.52 45.98 49.15C46.47 48.73 46.72 48.2 46.72 47.57C46.72 46.94 46.5 46.44 46.08 46.07C45.71 45.74 45.15 45.5 44.39 45.32V42.81C44.81 42.91 45.21 43.11 45.59 43.41C45.69 43.49 45.81 43.54 45.95 43.54C46.09 43.54 46.22 43.49 46.33 43.38C46.43 43.28 46.49 43.15 46.49 43C46.49 42.84 46.41 42.69 46.24 42.56C45.66 42.13 45.05 41.87 44.41 41.78V41.58C44.41 41.44 44.36 41.31 44.26 41.21C44.16 41.07 44.03 41.02 43.89 41.02ZM43.4 45.05C42.85 44.89 42.59 44.73 42.46 44.61C42.27 44.42 42.17 44.18 42.17 43.86C42.17 43.54 42.3 43.28 42.56 43.06C42.78 42.87 43.06 42.76 43.39 42.72V45.05H43.4ZM44.39 48.75V46.37C44.96 46.52 45.23 46.69 45.36 46.81C45.56 46.99 45.66 47.25 45.66 47.58C45.66 47.91 45.53 48.18 45.26 48.4C45.03 48.6 44.74 48.71 44.39 48.75Z" fill="white"/>
<path d="M57.62 59.37C58.7246 59.37 59.62 58.4746 59.62 57.37C59.62 56.2654 58.7246 55.37 57.62 55.37C56.5155 55.37 55.62 56.2654 55.62 57.37C55.62 58.4746 56.5155 59.37 57.62 59.37Z" fill="#F58624"/>
<path d="M64.91 65.14C65.6832 65.14 66.31 64.5132 66.31 63.74C66.31 62.9668 65.6832 62.34 64.91 62.34C64.1368 62.34 63.51 62.9668 63.51 63.74C63.51 64.5132 64.1368 65.14 64.91 65.14Z" fill="#F58624"/>
<path d="M158.32 14.88H162.81" stroke="white" stroke-width="1.5912" stroke-miterlimit="10" stroke-linecap="round" stroke-linejoin="round"/>
<path d="M149.99 6.06001L150.08 1.35001" stroke="white" stroke-width="1.5912" stroke-miterlimit="10" stroke-linecap="round" stroke-linejoin="round"/>
<path d="M155.48 9.05L160 4.5" stroke="white" stroke-width="1.5912" stroke-miterlimit="10" stroke-linecap="round" stroke-linejoin="round"/>
<path d="M1.15002 107.52H21.34" stroke="#3D5A9F" stroke-width="1.5912" stroke-miterlimit="10" stroke-linecap="round" stroke-linejoin="round"/>
<path d="M15.4 120.02H36.83" stroke="#3D5A9F" stroke-width="1.5912" stroke-miterlimit="10" stroke-linecap="round" stroke-linejoin="round"/>
<path d="M8.83002 113.77H28.48" stroke="#3D5A9F" stroke-width="1.5912" stroke-miterlimit="10" stroke-linecap="round" stroke-linejoin="round"/>
<path d="M27.48 113.77H35.73" stroke="white" stroke-width="1.5912" stroke-miterlimit="10" stroke-linecap="round" stroke-linejoin="round"/>
<path d="M31.59 107.52H50.95" stroke="white" stroke-width="1.5912" stroke-miterlimit="10" stroke-linecap="round" stroke-linejoin="round"/>
</svg>
