<svg width="37" height="36" viewBox="0 0 37 36" fill="none" xmlns="http://www.w3.org/2000/svg">
<path d="M6.99584 25.7299H3.4895C3.02453 25.7299 2.5786 25.5452 2.24982 25.2164C1.92104 24.8877 1.73633 24.4417 1.73633 23.9768V2.93872C1.73633 2.47375 1.92104 2.02782 2.24982 1.69904C2.5786 1.37026 3.02453 1.18555 3.4895 1.18555H33.2934C33.7584 1.18555 34.2043 1.37026 34.5331 1.69904C34.8619 2.02782 35.0466 2.47375 35.0466 2.93872V23.9768C35.0466 24.4417 34.8619 24.8877 34.5331 25.2164C34.2043 25.5452 33.7584 25.7299 33.2934 25.7299H29.787" stroke="#FE8A02" stroke-width="1.98693" stroke-linejoin="round"/>
<path d="M6.11914 5.56813V10.8276H11.3787V5.56813H6.11914Z" stroke="#FE8A02" stroke-width="1.98693" stroke-linecap="round" stroke-linejoin="round"/>
<path d="M14.8849 6.44482H16.6381" stroke="#FE8A02" stroke-width="1.98693" stroke-linecap="round" stroke-linejoin="round"/>
<path d="M20.1447 6.44482H21.8978" stroke="#FE8A02" stroke-width="1.98693" stroke-linecap="round" stroke-linejoin="round"/>
<path d="M25.4044 6.44482H27.1576" stroke="#FE8A02" stroke-width="1.98693" stroke-linecap="round" stroke-linejoin="round"/>
<path d="M22.7744 9.95117H27.1573" stroke="#FE8A02" stroke-width="1.98693" stroke-linecap="round" stroke-linejoin="round"/>
<path d="M14.8849 9.95117H19.2678" stroke="#FE8A02" stroke-width="1.98693" stroke-linecap="round" stroke-linejoin="round"/>
<path d="M9.79845 33.4463C9.95599 33.6037 10.1696 33.6922 10.3924 33.6922C10.6151 33.6922 10.8288 33.6037 10.9863 33.4463L13.6745 30.7581C14.9541 31.5707 16.4371 32.0054 17.9529 32.0123C21.5862 32.0123 24.8641 29.4921 26.3014 25.5824C26.3711 25.3949 26.3711 25.1886 26.3014 25.0011C25.7358 23.4234 24.8035 22.0025 23.5813 20.8554L26.1116 18.3252C26.1918 18.2477 26.2558 18.155 26.2999 18.0525C26.3439 17.95 26.3671 17.8398 26.368 17.7282C26.369 17.6167 26.3477 17.5061 26.3055 17.4028C26.2633 17.2996 26.2009 17.2058 26.122 17.1269C26.0431 17.048 25.9493 16.9857 25.8461 16.9434C25.7429 16.9012 25.6322 16.8799 25.5207 16.8809C25.4091 16.8819 25.2989 16.905 25.1964 16.9491C25.0939 16.9931 25.0012 17.0571 24.9237 17.1373L22.2356 19.8255C20.9548 19.0121 19.4701 18.5774 17.9529 18.5713C14.3197 18.5713 11.0417 21.0915 9.6044 25.0011C9.5347 25.1886 9.5347 25.3949 9.6044 25.5824C10.1713 27.1606 11.105 28.5816 12.3287 29.7281L9.79845 32.2584C9.64097 32.4159 9.5525 32.6296 9.5525 32.8523C9.5525 33.0751 9.64097 33.2887 9.79845 33.4463ZM22.3767 22.0559C23.3575 22.9515 24.1224 24.0579 24.6138 25.2918C23.3722 28.3639 20.7864 30.3322 17.9529 30.3322C16.8845 30.3273 15.8347 30.0516 14.9018 29.5307L16.2568 28.1757C16.7689 28.4845 17.355 28.6491 17.9529 28.652C18.8441 28.652 19.6988 28.298 20.329 27.6678C20.9591 27.0377 21.3132 26.183 21.3132 25.2918C21.3102 24.6938 21.1457 24.1078 20.8369 23.5957L22.3767 22.0559ZM16.3358 25.7211C16.296 25.5814 16.2748 25.437 16.2728 25.2918C16.2728 24.8462 16.4498 24.4188 16.7649 24.1038C17.08 23.7887 17.5073 23.6117 17.9529 23.6117C18.0982 23.6136 18.2425 23.6348 18.3822 23.6747L16.3358 25.7211ZM19.57 24.8625C19.6099 25.0022 19.6311 25.1465 19.633 25.2918C19.633 25.7374 19.456 26.1647 19.1409 26.4798C18.8259 26.7949 18.3985 26.9719 17.9529 26.9719C17.8077 26.9699 17.6633 26.9488 17.5237 26.9089L19.57 24.8625ZM11.2921 25.2918C12.5337 22.2197 15.1194 20.2514 17.9529 20.2514C19.0214 20.2562 20.0711 20.532 21.004 21.0528L19.649 22.4079C19.1369 22.0991 18.5509 21.9345 17.9529 21.9315C17.0617 21.9315 16.207 22.2856 15.5769 22.9157C14.9467 23.5459 14.5927 24.4006 14.5927 25.2918C14.5956 25.8898 14.7602 26.4758 15.069 26.9879L13.5292 28.5277C12.5484 27.6321 11.7835 26.5257 11.2921 25.2918Z" fill="#FE8A02"/>
</svg>
