<svg width="43" height="46" viewBox="0 0 43 46" fill="none" xmlns="http://www.w3.org/2000/svg">
<g clip-path="url(#clip0_2180_44942)">
<path d="M16.7637 23.9805H19.3941C19.936 23.9805 20.3793 23.5363 20.3793 22.9934C20.3793 22.4505 19.936 22.0063 19.3941 22.0063H16.3598C16.0938 22.0063 15.8376 22.1149 15.6603 22.2926L14.1825 23.7732C13.5126 23.329 12.7047 23.0625 11.8378 23.0625C10.9708 23.0625 10.1728 23.329 9.49304 23.7732L8.01526 22.2926C7.81823 22.1149 7.57193 22.0063 7.30593 22.0063H4.27156C3.72971 22.0063 3.28638 22.4505 3.28638 22.9934C3.28638 23.5363 3.72971 23.9805 4.27156 23.9805H6.902L8.14334 25.2242C8.02511 25.4315 7.91674 25.6388 7.82808 25.8658C5.59171 26.083 3.80852 27.9782 3.80852 30.2682L6.0843 42.7053H8.77385C8.84282 44.1267 10.0053 45.2717 11.4437 45.2717H12.2121C13.6505 45.2717 14.813 44.1267 14.882 42.7053H17.5716L19.8276 30.4459L19.8473 30.2682C19.8473 27.9584 18.074 26.083 15.8278 25.8658C15.7391 25.6388 15.6406 25.4315 15.5224 25.2242L16.7637 23.9805ZM11.8279 25.0465C13.0988 25.0465 14.1431 26.083 14.1431 27.3662C14.1431 28.6494 13.1087 29.6858 11.8279 29.6858C10.5472 29.6858 9.51274 28.6395 9.51274 27.3662C9.51274 26.0928 10.557 25.0465 11.8279 25.0465ZM12.9313 42.5869C12.9313 42.9817 12.6062 43.3075 12.2121 43.3075H11.4437C11.0496 43.3075 10.7245 42.9817 10.7245 42.5869V37.1777C10.7245 36.7829 11.0496 36.4572 11.4437 36.4572H12.2121C12.6062 36.4572 12.9313 36.7829 12.9313 37.1777V42.5869ZM17.877 30.1892L15.9361 40.7411H14.9017V37.1777C14.9017 35.6971 13.6998 34.483 12.2121 34.483H11.4437C9.96593 34.483 8.75415 35.6872 8.75415 37.1777V40.7411H7.72956L5.78875 30.1892C5.82815 29.0936 6.58674 28.1756 7.60148 27.8992C7.86748 30.0115 9.65067 31.66 11.8279 31.66C14.0052 31.66 15.7982 30.0115 16.0544 27.8992C17.079 28.1756 17.8376 29.0837 17.877 30.1892Z" fill="#FE8A02"/>
</g>
<g clip-path="url(#clip1_2180_44942)">
<path d="M35.6367 23.9805H38.2672C38.809 23.9805 39.2524 23.5363 39.2524 22.9934C39.2524 22.4505 38.809 22.0063 38.2672 22.0063H35.2328C34.9668 22.0063 34.7107 22.1149 34.5333 22.2926L33.0556 23.7732C32.3856 23.329 31.5778 23.0625 30.7108 23.0625C29.8439 23.0625 29.0459 23.329 28.3661 23.7732L26.8883 22.2926C26.6913 22.1149 26.445 22.0063 26.179 22.0063H23.1446C22.6028 22.0063 22.1594 22.4505 22.1594 22.9934C22.1594 23.5363 22.6028 23.9805 23.1446 23.9805H25.7751L27.0164 25.2242C26.8982 25.4315 26.7898 25.6388 26.7011 25.8658C24.4648 26.083 22.6816 27.9782 22.6816 30.2682L24.9573 42.7053H27.6469C27.7159 44.1267 28.8784 45.2717 30.3168 45.2717H31.0852C32.5236 45.2717 33.6861 44.1267 33.755 42.7053H36.4446L38.7007 30.4459L38.7204 30.2682C38.7204 27.9584 36.947 26.083 34.7008 25.8658C34.6122 25.6388 34.5136 25.4315 34.3954 25.2242L35.6367 23.9805ZM30.701 25.0465C31.9719 25.0465 33.0162 26.083 33.0162 27.3662C33.0162 28.6494 31.9817 29.6858 30.701 29.6858C29.4202 29.6858 28.3858 28.6395 28.3858 27.3662C28.3858 26.0928 29.4301 25.0465 30.701 25.0465ZM31.8044 42.5869C31.8044 42.9817 31.4793 43.3075 31.0852 43.3075H30.3168C29.9227 43.3075 29.5976 42.9817 29.5976 42.5869V37.1777C29.5976 36.7829 29.9227 36.4572 30.3168 36.4572H31.0852C31.4793 36.4572 31.8044 36.7829 31.8044 37.1777V42.5869ZM36.75 30.1892L34.8092 40.7411H33.7747V37.1777C33.7747 35.6971 32.5728 34.483 31.0852 34.483H30.3168C28.839 34.483 27.6272 35.6872 27.6272 37.1777V40.7411H26.6026L24.6618 30.1892C24.7012 29.0936 25.4598 28.1756 26.4745 27.8992C26.7405 30.0115 28.5237 31.66 30.701 31.66C32.8782 31.66 34.6713 30.0115 34.9274 27.8992C35.952 28.1756 36.7106 29.0837 36.75 30.1892Z" fill="#FE8A02"/>
</g>
<path d="M21.1777 11.2466L21.4225 20.7415" stroke="#FE7F01" stroke-width="1.18701" stroke-linecap="round" stroke-linejoin="round"/>
<path d="M23.6605 13.9865C22.6938 12.6399 19.0714 12.0611 18.9474 14.2667C18.8199 16.6375 24.2486 15.6371 23.9549 18.1625C23.7533 19.8952 20.2428 20.2987 18.4721 18.3532" stroke="#FE7F01" stroke-width="1.18701" stroke-linecap="round" stroke-linejoin="round"/>
<path d="M14.5924 7.62512C14.4107 7.80695 14.3086 8.05351 14.3086 8.31059L14.3086 20.6489C14.3086 20.7888 14.3389 20.927 14.3973 21.0541C14.4558 21.1812 14.541 21.2941 14.6473 21.3851L20.8164 26.6728C20.9921 26.8235 21.2158 26.9065 21.4473 26.9066C21.6787 26.9067 21.9026 26.824 22.0784 26.6735L28.2489 21.3872C28.3551 21.2962 28.4404 21.1832 28.4988 21.0562C28.5573 20.9291 28.5875 20.7909 28.5875 20.651L28.5875 8.31265C28.5875 8.0556 28.4854 7.80909 28.3036 7.62733C28.1218 7.44557 27.8753 7.34344 27.6183 7.3434L15.2799 7.3434C15.1524 7.34284 15.0261 7.36743 14.9081 7.41578C14.7901 7.46412 14.6829 7.53526 14.5924 7.62512ZM26.647 20.2034L21.4471 24.6603L16.2471 20.2034L16.2471 9.27983L26.647 9.27983L26.647 20.2034Z" fill="#FE8A02"/>
<path d="M20.2981 23.6903L18.2757 21.8754C18.2239 21.8236 18.1513 21.668 18.2757 21.4606C18.4313 21.2013 19.7795 21.5124 19.9351 21.6161C20.0595 21.6991 20.8512 22.4804 21.2315 22.8606L20.2981 23.6903Z" fill="white"/>
<path d="M24.4691 21.9918L22.4253 23.7825C22.3676 23.8278 22.2045 23.8813 22.0135 23.7329C21.7747 23.5474 22.2449 22.2461 22.3664 22.1041C22.4637 21.9904 23.3341 21.2979 23.7571 20.9659L24.4691 21.9918Z" fill="white"/>
<defs>
<clipPath id="clip0_2180_44942">
<rect width="22.7906" height="23.2654" fill="white" transform="translate(0.4375 22.0063)"/>
</clipPath>
<clipPath id="clip1_2180_44942">
<rect width="22.7906" height="23.2654" fill="white" transform="translate(19.3105 22.0063)"/>
</clipPath>
</defs>
</svg>
