<svg width="35" height="36" viewBox="0 0 35 36" fill="none" xmlns="http://www.w3.org/2000/svg">
<g clip-path="url(#clip0_2180_44941)">
<path d="M21.5532 12.1262H23.8514C24.3248 12.1262 24.7122 11.7381 24.7122 11.2638C24.7122 10.7895 24.3248 10.4014 23.8514 10.4014H21.2003C20.9679 10.4014 20.7441 10.4962 20.5892 10.6515L19.298 11.9451C18.7127 11.557 18.0069 11.3241 17.2494 11.3241C16.492 11.3241 15.7948 11.557 15.2008 11.9451L13.9097 10.6515C13.7375 10.4962 13.5224 10.4014 13.29 10.4014H10.6388C10.1654 10.4014 9.77808 10.7895 9.77808 11.2638C9.77808 11.7381 10.1654 12.1262 10.6388 12.1262H12.937L14.0216 13.2128C13.9183 13.3939 13.8236 13.575 13.7462 13.7734C11.7922 13.9631 10.2343 15.6189 10.2343 17.6197L12.2226 28.4861H14.5725C14.6327 29.7279 15.6484 30.7283 16.9051 30.7283H17.5765C18.8332 30.7283 19.8489 29.7279 19.9092 28.4861H22.259L24.2302 17.775L24.2474 17.6197C24.2474 15.6017 22.698 13.9631 20.7355 13.7734C20.658 13.575 20.5719 13.3939 20.4687 13.2128L21.5532 12.1262ZM17.2408 13.0576C18.3512 13.0576 19.2636 13.9631 19.2636 15.0842C19.2636 16.2054 18.3598 17.1109 17.2408 17.1109C16.1218 17.1109 15.218 16.1968 15.218 15.0842C15.218 13.9717 16.1304 13.0576 17.2408 13.0576ZM18.2049 28.3826C18.2049 28.7275 17.9208 29.0121 17.5765 29.0121H16.9051C16.5608 29.0121 16.2768 28.7275 16.2768 28.3826V23.6566C16.2768 23.3116 16.5608 23.027 16.9051 23.027H17.5765C17.9208 23.027 18.2049 23.3116 18.2049 23.6566V28.3826ZM22.5259 17.5507L20.8302 26.7699H19.9264V23.6566C19.9264 22.363 18.8763 21.3022 17.5765 21.3022H16.9051C15.614 21.3022 14.5553 22.3543 14.5553 23.6566V26.7699H13.6601L11.9644 17.5507C11.9988 16.5935 12.6616 15.7914 13.5482 15.5499C13.7806 17.3955 15.3386 18.8357 17.2408 18.8357C19.1431 18.8357 20.7097 17.3955 20.9335 15.5499C21.8286 15.7914 22.4914 16.5848 22.5259 17.5507Z" fill="#FE8A02"/>
</g>
<path d="M31.1288 35.0316H3.80508C2.96892 35.0316 2.16701 34.691 1.57576 34.0847C0.984506 33.4785 0.652344 32.6562 0.652344 31.7988L0.652344 8.09194C0.652344 7.23455 0.984506 6.41229 1.57576 5.80603C2.16701 5.19977 2.96892 4.85918 3.80508 4.85918H4.85599V3.78159C4.85599 2.92421 5.18815 2.10194 5.77941 1.49568C6.37066 0.889422 7.17257 0.548828 8.00873 0.548828C8.84488 0.548828 9.6468 0.889422 10.238 1.49568C10.8293 2.10194 11.1615 2.92421 11.1615 3.78159V4.85918H14.3142V3.78159C14.3142 2.92421 14.6464 2.10194 15.2376 1.49568C15.8289 0.889421 16.6308 0.548828 17.4669 0.548828C18.3031 0.548828 19.105 0.889421 19.6963 1.49568C20.2875 2.10194 20.6197 2.92421 20.6197 3.78159V4.85918H23.7724V3.78159C23.7724 2.92421 24.1046 2.10194 24.6958 1.49568C25.2871 0.889422 26.089 0.548828 26.9251 0.548828C27.7613 0.548828 28.5632 0.889422 29.1545 1.49568C29.7457 2.10194 30.0779 2.92421 30.0779 3.78159V4.85918H31.1288C31.9649 4.85918 32.7669 5.19977 33.3581 5.80603C33.9494 6.41229 34.2815 7.23455 34.2815 8.09194V31.7988C34.2815 32.6562 33.9494 33.4785 33.3581 34.0847C32.7669 34.691 31.9649 35.0316 31.1288 35.0316ZM3.80508 7.01435C3.52636 7.01435 3.25906 7.12788 3.06197 7.32997C2.86489 7.53205 2.75417 7.80614 2.75417 8.09194V31.7988C2.75417 32.0846 2.86489 32.3587 3.06197 32.5608C3.25906 32.7629 3.52636 32.8764 3.80508 32.8764H31.1288C31.4075 32.8764 31.6748 32.7629 31.8719 32.5608C32.069 32.3587 32.1797 32.0846 32.1797 31.7988V8.09194C32.1797 7.80614 32.069 7.53205 31.8719 7.32997C31.6748 7.12788 31.4075 7.01435 31.1288 7.01435H29.027C28.7482 7.01435 28.4809 6.90082 28.2839 6.69873C28.0868 6.49664 27.9761 6.22256 27.9761 5.93676V3.78159C27.9761 3.49579 27.8653 3.22171 27.6683 3.01962C27.4712 2.81753 27.2039 2.704 26.9251 2.704C26.6464 2.704 26.3791 2.81753 26.182 3.01962C25.9849 3.22171 25.8742 3.49579 25.8742 3.78159V5.93676C25.8742 6.22256 25.7635 6.49664 25.5664 6.69873C25.3693 6.90082 25.102 7.01435 24.8233 7.01435H19.5688C19.29 7.01435 19.0227 6.90082 18.8257 6.69873C18.6286 6.49664 18.5178 6.22256 18.5178 5.93676V3.78159C18.5178 3.49579 18.4071 3.22171 18.21 3.01962C18.013 2.81753 17.7457 2.704 17.4669 2.704C17.1882 2.704 16.9209 2.81753 16.7238 3.01962C16.5267 3.22171 16.416 3.49579 16.416 3.78159V5.93676C16.416 6.22256 16.3053 6.49664 16.1082 6.69873C15.9111 6.90082 15.6438 7.01435 15.3651 7.01435H10.1106C9.83183 7.01435 9.56453 6.90082 9.36744 6.69873C9.17036 6.49664 9.05964 6.22256 9.05964 5.93676V3.78159C9.05964 3.49579 8.94892 3.22171 8.75183 3.01962C8.55475 2.81753 8.28745 2.704 8.00873 2.704C7.73001 2.704 7.46271 2.81753 7.26562 3.01962C7.06854 3.22171 6.95782 3.49579 6.95782 3.78159V5.93676C6.95782 6.22256 6.84709 6.49664 6.65001 6.69873C6.45293 6.90082 6.18562 7.01435 5.9069 7.01435H3.80508Z" fill="#FD8902"/>
<defs>
<clipPath id="clip0_2180_44941">
<rect width="19.9121" height="20.327" fill="white" transform="translate(7.28906 10.4014)"/>
</clipPath>
</defs>
</svg>
