<svg width="37" height="32" viewBox="0 0 37 32" fill="none" xmlns="http://www.w3.org/2000/svg">
<path d="M17.3745 15.7555C20.9635 15.7555 23.873 12.6382 23.873 8.79278C23.873 4.94739 20.9635 1.83008 17.3745 1.83008C13.7855 1.83008 10.876 4.94739 10.876 8.79278C10.876 12.6382 13.7855 15.7555 17.3745 15.7555Z" stroke="#FE8A02" stroke-width="1.74532" stroke-linejoin="round"/>
<path d="M17.3749 10.1854C18.9131 10.1854 20.16 8.93847 20.16 7.40031C20.16 5.86216 18.9131 4.61523 17.3749 4.61523C15.8368 4.61523 14.5898 5.86216 14.5898 7.40031C14.5898 8.93847 15.8368 10.1854 17.3749 10.1854Z" stroke="#FE8A02" stroke-width="1.74532" stroke-linejoin="round"/>
<path d="M11.99 13.0542C12.5803 12.1802 13.3744 11.463 14.3038 10.9646C15.2332 10.4661 16.27 10.2013 17.3246 10.1931C18.3793 10.1848 19.42 10.4334 20.3571 10.9173C21.2942 11.4013 22.0994 12.106 22.7033 12.9707" stroke="#FE8A02" stroke-width="1.85672" stroke-linejoin="round"/>
<path d="M5.263 12.5601H1.54956V30.1989H5.263V12.5601Z" stroke="#FE8A02" stroke-width="1.85672" stroke-linejoin="round"/>
<path d="M31.4301 12.7114H35.1436V30.3503H31.4301V12.7114Z" stroke="#FE8A02" stroke-width="1.85672" stroke-linejoin="round"/>
<path d="M12.6893 18.1304H8.97583V30.199H12.6893V18.1304Z" stroke="#FE8A02" stroke-width="1.85672" stroke-linejoin="round"/>
<path d="M24.0031 18.2812H27.7166V30.3499H24.0031V18.2812Z" stroke="#FE8A02" stroke-width="1.85672" stroke-linejoin="round"/>
<path d="M16.5757 20.1382H20.2892V30.3501H16.5757V20.1382Z" stroke="#FE8A02" stroke-width="1.85672" stroke-linejoin="round"/>
</svg>
