<svg width="51" height="43" viewBox="0 0 51 43" fill="none" xmlns="http://www.w3.org/2000/svg">
  <path d="M43.8337 16.9167H43.0522L37.3712 3.65708C37.0183 2.83159 36.4309 2.12787 35.6817 1.63329C34.9325 1.13871 34.0545 0.875035 33.1568 0.875H8.89491C7.89954 0.878075 6.932 1.20381 6.13744 1.80335C5.34288 2.40289 4.76414 3.24389 4.48803 4.20021L0.379075 18.5804C0.370633 18.6649 0.366807 18.7499 0.367617 18.8348C0.330792 18.9567 0.305473 19.0817 0.291992 19.2083V30.6667C0.291992 31.8822 0.774878 33.048 1.63442 33.9076C2.49396 34.7671 3.65975 35.25 4.87533 35.25H5.20074C5.70095 37.2153 6.84171 38.9579 8.4428 40.2025C10.0439 41.4472 12.014 42.1229 14.042 42.1229C16.0699 42.1229 18.0401 41.4472 19.6412 40.2025C21.2423 38.9579 22.383 37.2153 22.8832 35.25H28.1174C28.6176 37.2153 29.7584 38.9579 31.3595 40.2025C32.9606 41.4472 34.9307 42.1229 36.9587 42.1229C38.9866 42.1229 40.9568 41.4472 42.5579 40.2025C44.1589 38.9579 45.2997 37.2153 45.7999 35.25H46.1253C47.3409 35.25 48.5067 34.7671 49.3662 33.9076C50.2258 33.048 50.7087 31.8822 50.7087 30.6667V23.7917C50.7087 21.9683 49.9843 20.2196 48.695 18.9303C47.4057 17.641 45.657 16.9167 43.8337 16.9167ZM25.5003 5.45833H33.1568L38.0655 16.9167H25.5003V5.45833ZM8.89491 5.45833H20.917V16.9167H5.62012L8.89491 5.45833ZM14.042 37.5417C13.1355 37.5417 12.2494 37.2729 11.4956 36.7692C10.7419 36.2656 10.1544 35.5498 9.80754 34.7123C9.46064 33.8748 9.36988 32.9533 9.54673 32.0642C9.72357 31.1751 10.1601 30.3584 10.8011 29.7174C11.4421 29.0764 12.2587 28.6399 13.1478 28.4631C14.0369 28.2862 14.9585 28.377 15.796 28.7239C16.6335 29.0708 17.3493 29.6582 17.8529 30.412C18.3565 31.1657 18.6253 32.0518 18.6253 32.9583C18.6253 34.1739 18.1424 35.3397 17.2829 36.1992C16.4234 37.0588 15.2576 37.5417 14.042 37.5417ZM36.9587 37.5417C36.0522 37.5417 35.166 37.2729 34.4123 36.7692C33.6586 36.2656 33.0711 35.5498 32.7242 34.7123C32.3773 33.8748 32.2865 32.9533 32.4634 32.0642C32.6402 31.1751 33.0768 30.3584 33.7178 29.7174C34.3587 29.0764 35.1754 28.6399 36.0645 28.4631C36.9536 28.2862 37.8751 28.377 38.7126 28.7239C39.5501 29.0708 40.2659 29.6582 40.7696 30.412C41.2732 31.1657 41.542 32.0518 41.542 32.9583C41.542 34.1739 41.0591 35.3397 40.1996 36.1992C39.34 37.0588 38.1742 37.5417 36.9587 37.5417ZM46.1253 30.6667H45.7999C45.2997 28.7014 44.1589 26.9588 42.5579 25.7141C40.9568 24.4695 38.9866 23.7938 36.9587 23.7938C34.9307 23.7938 32.9606 24.4695 31.3595 25.7141C29.7584 26.9588 28.6176 28.7014 28.1174 30.6667H22.8832C22.383 28.7014 21.2423 26.9588 19.6412 25.7141C18.0401 24.4695 16.0699 23.7938 14.042 23.7938C12.014 23.7938 10.0439 24.4695 8.4428 25.7141C6.84171 26.9588 5.70095 28.7014 5.20074 30.6667H4.87533V21.5H43.8337C44.4414 21.5 45.0243 21.7414 45.4541 22.1712C45.8839 22.601 46.1253 23.1839 46.1253 23.7917V30.6667Z" fill="#232323"/>
</svg>
