<svg width="19" height="36" viewBox="0 0 19 36" fill="none" xmlns="http://www.w3.org/2000/svg">
<path d="M2.18931 20.8241C1.64482 19.7532 2.42286 18.4848 3.62425 18.4848H8.00432C8.61016 18.4848 9.16469 18.825 9.43926 19.365L16.7075 33.6607C17.252 34.7316 16.474 36 15.2726 36H10.8925C10.2867 36 9.73216 35.6598 9.45758 35.1198L2.18931 20.8241Z" fill="#FE8A02"/>
<path fill-rule="evenodd" clip-rule="evenodd" d="M18.8628 0.448446C18.6942 0.169789 18.3952 0 18.0732 0H9.96341C9.61409 0 9.29443 0.199455 9.13659 0.515914L0.100009 18.6336C-0.0455165 18.9253 -0.0314502 19.2729 0.137163 19.5516C0.305776 19.8302 0.604758 20 0.926831 20H9.03659C9.38591 20 9.70557 19.8005 9.86341 19.4841L18.9 1.36644C19.0455 1.07467 19.0315 0.727104 18.8628 0.448446ZM16.5648 1.88235L8.46709 18.1176H2.4352L10.5329 1.88235H16.5648Z" fill="#67737E"/>
</svg>
