<?xml version="1.0" encoding="utf-8"?>
<!-- Generator: Adobe Illustrator 26.3.1, SVG Export Plug-In . SVG Version: 6.00 Build 0)  -->
<svg version="1.1" id="Layer_1" xmlns="http://www.w3.org/2000/svg" xmlns:xlink="http://www.w3.org/1999/xlink" x="0px" y="0px"
	 viewBox="0 0 170 32" style="enable-background:new 0 0 170 32;" xml:space="preserve">
<style type="text/css">
	.st0{clip-path:url(#SVGID_00000140717686860396731500000013292983640578564783_);}
	.st1{fill:#0555F5;}
</style>
<g>
	<defs>
		<rect id="SVGID_1_" width="170" height="32"/>
	</defs>
	<clipPath id="SVGID_00000140711628832138381000000000095351948257810347_">
		<use xlink:href="#SVGID_1_"  style="overflow:visible;"/>
	</clipPath>
	<g style="clip-path:url(#SVGID_00000140711628832138381000000000095351948257810347_);">
		<path class="st1" d="M54,11.2V10H36.6v6.5h7.4l-8.1,13.7v1.1h18.3v-6.5H46L54,11.2z"/>
		<path class="st1" d="M71.5,21.9c0,2.2-1.2,3.6-3.1,3.6c-2,0-3.1-1.3-3.1-3.6V10H58v12.1c0,5.9,4.2,9.8,10.4,9.8s10.4-3.9,10.4-9.8
			V10h-7.3V21.9z"/>
		<path class="st1" d="M95.1,9.4c-2,0-3.7,0.5-5.3,1.5V0h0v0l-7.2,3.7v27.6h5.4l0.7-1.6c1.7,1.4,3.9,2.3,6.4,2.3
			c6.5,0,11.1-4.7,11.1-11.3S101.7,9.4,95.1,9.4z M94.1,25.5c-2.7,0-4.7-2.1-4.7-4.8c0-2.8,2-4.9,4.7-4.9c2.7,0,4.7,2.1,4.7,4.9
			C98.9,23.5,96.9,25.5,94.1,25.5z"/>
		<path class="st1" d="M125.7,11.7c-1.8-1.5-4-2.3-6.5-2.3c-6.5,0-11.1,4.7-11.1,11.3c0,6.6,4.6,11.4,11.1,11.4
			c2.5,0,4.7-0.8,6.4-2.2l0.6,1.5h5.6V10h-5.4L125.7,11.7z M120.3,25.5c-2.7,0-4.7-2.1-4.7-4.9c0-2.8,2-4.8,4.7-4.8
			c2.7,0,4.7,2.1,4.7,4.8C125,23.5,123,25.5,120.3,25.5z"/>
		<path class="st1" d="M135.8,31.3h7.3V0l-7.3,3.7V31.3z"/>
		<path class="st1" d="M158.5,9.3c-6.6,0-11.5,4.8-11.5,11.3c0,6.5,4.9,11.3,11.5,11.3c5.3,0,9.6-3,11.1-7.9h-7.2
			c-0.7,1.3-2.1,2-3.8,2c-2.3,0-3.8-1.3-4.3-3.7h15.7c0.1-0.7,0.1-1.3,0.1-1.9C170,14.2,165.3,9.3,158.5,9.3z M154.3,18.3
			c0.6-2.1,2.1-3.3,4.2-3.3c2.2,0,3.7,1.1,4.4,3.3H154.3z"/>
		<path class="st1" d="M3.7,5.9l-1.5,7.3l6.6-3.6l-3,12H0V27h10.2l1.3-5.4l3.9,5.4v4.3h5.3v-6.1l-7.4-10.4l1.1-4.4l4.4,6.1l1.9-6.7
			l-6.7-9.5L3.7,5.9z"/>
	</g>
</g>
</svg>
