<svg width="507" height="139" viewBox="0 0 507 139" fill="none" xmlns="http://www.w3.org/2000/svg">
<path fill-rule="evenodd" clip-rule="evenodd" d="M191.358 23H212.539C214.797 23.41 217.061 23.9504 219.32 24.6233C227.232 26.9796 229.063 28.5815 239.907 42.6374L251.81 58.063L251.793 69.2915C251.773 83.7628 246.669 95.1082 235.905 104.611C226.421 112.985 215.759 116.963 202.805 116.963C172.595 116.963 151.529 97.4441 151.703 69.6136C151.792 55.1745 155.744 45.8429 165.948 35.9773C172.923 29.2319 181.727 24.8351 191.358 23ZM88.0473 46.265C86.9167 38.0674 85.5748 29.6443 85.0628 27.5457C84.1772 23.9114 83.3491 23.7317 67.4648 23.7317H50.7946L48.214 32.6311C46.7944 37.5266 40.8287 57.9308 34.9543 77.9756L24.2752 114.421L39.3922 114.911C47.707 115.18 54.8659 115.045 55.3002 114.609C55.7362 114.173 58.2746 105.65 60.9448 95.6693C63.6133 85.6884 66.1179 77.2009 66.51 76.8094C67.2519 76.0635 70.0302 91.0908 71.9737 106.369L73.106 115.268H83.5384H93.9725L102.333 95.6354L110.695 76.0025L111.172 95.6354L111.646 115.268H126.804H141.96V69.5V23.7317H124.401H106.842L99.6356 41.1067C95.6726 50.6638 91.9056 59.0869 91.2651 59.8259C90.6263 60.5633 89.1779 54.4609 88.0473 46.265ZM323.402 42.0645C323.995 36.3688 324.48 29.9155 324.48 27.7203V23.7317H282.146C247.041 23.7317 240.043 24.1233 241.163 26.0235C241.907 27.283 246.698 33.8194 251.81 40.5456C260.948 52.5708 261.211 52.7607 267.443 51.7961C269.788 51.4325 271.407 51.0214 272.395 51.6317C274.658 53.0298 273.608 59.7881 270.4 84.7561C268.543 99.207 267.023 111.985 267.022 113.149C267.02 114.704 271.526 115.268 283.92 115.268C296.309 115.268 300.822 114.702 300.828 113.149C300.832 111.985 302.339 98.4442 304.175 83.061C306.01 67.6777 307.528 54.0337 307.546 52.742C307.572 50.9469 309.317 50.6316 314.952 51.4063L322.322 52.42L323.402 42.0645ZM363.411 54.2236C365.228 38.8522 366.718 25.7014 366.722 25.003C366.727 24.3047 359.253 23.7317 350.116 23.7317H333.501L329.792 55.5152C324.93 97.1847 326.574 103.318 345.098 112.576C357.307 118.679 378.672 118.852 391.304 112.951C401.23 108.315 408.176 100.743 410.628 91.8841C411.958 87.0835 419.12 30.5088 419.12 24.8115C419.12 24.2182 411.929 23.7317 403.141 23.7317H387.164L386.221 29.2409C385.702 32.2717 383.772 45.7429 381.933 59.1801C378.394 85.0273 376.371 89.8415 369.042 89.8415C366.831 89.8415 364.024 88.1667 362.613 86.0071C360.387 82.5999 360.475 79.0774 363.411 54.2236ZM459.68 55.939C461.537 41.4881 463.057 28.3289 463.058 26.6982C463.06 24.0741 461.144 23.7317 446.476 23.7317H429.89L424.356 66.5335C421.31 90.0754 418.449 110.688 417.998 112.343C417.231 115.15 419.113 115.319 446.398 114.885L475.62 114.421L479.429 100.86C481.523 93.4012 483.261 87.1089 483.289 86.875C483.316 86.6411 477.256 86.4512 469.82 86.4512C460.13 86.4512 456.3 85.8512 456.302 84.3323C456.303 83.1678 457.823 70.3899 459.68 55.939ZM186.966 81.1675C181.016 72.6461 185.177 58.4631 195.109 53.415C204.989 48.394 214.838 53.1234 218.243 64.5248C220.826 73.1716 216.308 82.6711 207.578 86.953C201.996 89.6889 200.782 89.7499 195.547 87.5547C192.342 86.2122 188.482 83.339 186.966 81.1675Z" fill="white"/>
<path fill-rule="evenodd" clip-rule="evenodd" d="M0 69.5V131C0 135.418 3.58172 139 8 139H253.5H499C503.418 139 507 135.418 507 131V69.5V8C507 3.58172 503.418 0 499 0H253.5H7.99999C3.58171 0 0 3.58172 0 8V69.5ZM219.32 24.6233C227.232 26.9796 229.063 28.5815 239.907 42.6374L250.14 55.8982C251.222 57.3015 251.809 59.0248 251.806 60.7974L251.793 69.2915C251.773 83.7628 246.669 95.1082 235.905 104.611C226.421 112.985 215.759 116.963 202.805 116.963C172.595 116.963 151.529 97.4441 151.703 69.6136C151.792 55.1745 155.744 45.8429 165.948 35.9773C179.353 23.013 199.516 18.7243 219.32 24.6233ZM85.0628 27.5457C85.5748 29.6443 86.9167 38.0674 88.0473 46.265C89.1779 54.4609 90.6263 60.5633 91.2651 59.8259C91.9056 59.0869 95.6726 50.6638 99.6356 41.1067L104.795 28.6669C106.034 25.6793 108.95 23.7317 112.185 23.7317H124.401H133.96C138.378 23.7317 141.96 27.3134 141.96 31.7317V69.5V107.268C141.96 111.687 138.378 115.268 133.96 115.268H126.804H119.455C115.112 115.268 111.563 111.803 111.458 107.462L111.172 95.6354V95.6354C111.06 91.0593 104.793 89.8592 102.999 94.0706L102.333 95.6354L96.0444 110.403C94.788 113.353 91.891 115.268 88.684 115.268H83.5384H80.1526C76.1248 115.268 72.725 112.274 72.2166 108.278L71.9737 106.369C70.0302 91.0908 67.2519 76.0635 66.51 76.8094C66.1179 77.2009 63.6133 85.6884 60.9448 95.6693C58.2746 105.65 55.7362 114.173 55.3002 114.609C54.8659 115.045 47.707 115.18 39.3922 114.911L34.5973 114.755C29.3702 114.586 25.7086 109.529 27.1792 104.51L34.9543 77.9756C40.8287 57.9308 46.7944 37.5266 48.214 32.6311L49.1209 29.5037C50.1124 26.0844 53.2442 23.7317 56.8044 23.7317H67.4648C83.3491 23.7317 84.1772 23.9114 85.0628 27.5457ZM324.48 27.7203C324.48 29.9155 323.995 36.3688 323.402 42.0645L323.094 45.0206C322.672 49.0673 318.983 51.9607 314.952 51.4063V51.4063C309.317 50.6316 307.572 50.9469 307.546 52.742C307.528 54.0337 306.01 67.6777 304.175 83.061C302.339 98.4442 300.832 111.985 300.828 113.149C300.822 114.702 296.309 115.268 283.92 115.268C271.526 115.268 267.02 114.704 267.022 113.149C267.023 111.985 268.543 99.207 270.4 84.7561C275.009 48.889 275.162 50.5994 267.443 51.7961C261.211 52.7607 260.948 52.5708 251.81 40.5456C246.698 33.8194 241.907 27.283 241.163 26.0235C240.043 24.1233 247.041 23.7317 282.146 23.7317H320.491C322.694 23.7317 324.48 25.5175 324.48 27.7203V27.7203ZM366.722 25.003C366.718 25.7014 365.228 38.8522 363.411 54.2236C360.475 79.0774 360.387 82.5999 362.613 86.0071C364.024 88.1667 366.831 89.8415 369.042 89.8415C376.371 89.8415 378.394 85.0273 381.933 59.1801C383.772 45.7429 385.702 32.2717 386.221 29.2409V29.2409C386.766 26.0584 389.524 23.7317 392.753 23.7317H403.141C411.929 23.7317 419.12 24.2182 419.12 24.8115C419.12 30.5088 411.958 87.0835 410.628 91.8841C408.176 100.743 401.23 108.315 391.304 112.951C378.672 118.852 357.307 118.679 345.098 112.576C326.574 103.318 324.93 97.1847 329.792 55.5152L332.676 30.8043C333.146 26.7722 336.562 23.7317 340.622 23.7317H350.116C359.253 23.7317 366.727 24.3047 366.722 25.003ZM463.058 26.6982C463.057 28.3289 461.537 41.4881 459.68 55.939C457.823 70.3899 456.303 83.1678 456.302 84.3323C456.3 85.8511 460.13 86.4512 469.82 86.4512C477.256 86.4512 483.316 86.6411 483.289 86.875C483.261 87.1089 481.523 93.4012 479.429 100.86L477.233 108.68C476.276 112.086 473.195 114.459 469.658 114.516L446.398 114.885C419.113 115.319 417.231 115.15 417.998 112.343C418.449 110.688 421.31 90.0754 424.356 66.5335L428.989 30.7058C429.504 26.7173 432.901 23.7317 436.923 23.7317H446.476C461.144 23.7317 463.06 24.0741 463.058 26.6982ZM195.109 53.415C185.177 58.4631 181.016 72.6461 186.966 81.1675C188.482 83.339 192.342 86.2122 195.547 87.5547C200.782 89.7499 201.996 89.6889 207.578 86.953C216.308 82.6711 220.826 73.1716 218.243 64.5248C214.838 53.1234 204.989 48.394 195.109 53.415Z" fill="#ED1D24"/>
</svg>
