<svg width="19" height="36" viewBox="0 0 19 36" fill="none" xmlns="http://www.w3.org/2000/svg">
<path d="M16.8107 20.8241C17.3552 19.7532 16.5771 18.4848 15.3758 18.4848H10.9957C10.3898 18.4848 9.83531 18.825 9.56074 19.365L2.29246 33.6607C1.74798 34.7316 2.52601 36 3.72741 36H8.10748C8.71331 36 9.26784 35.6598 9.54242 35.1198L16.8107 20.8241Z" fill="#FE8A02"/>
<path fill-rule="evenodd" clip-rule="evenodd" d="M0.137162 0.448446C0.305776 0.169789 0.604757 0 0.92683 0H9.03659C9.38591 0 9.70557 0.199455 9.86341 0.515914L18.9 18.6336C19.0455 18.9253 19.0315 19.2729 18.8628 19.5516C18.6942 19.8302 18.3952 20 18.0732 20H9.96341C9.61409 20 9.29443 19.8005 9.13659 19.4841L0.100007 1.36644C-0.0455184 1.07467 -0.0314511 0.727104 0.137162 0.448446ZM2.43519 1.88235L10.5329 18.1176H16.5648L8.46709 1.88235H2.43519Z" fill="#67737E"/>
</svg>
