<svg width="575" height="132" viewBox="0 0 575 132" fill="none" xmlns="http://www.w3.org/2000/svg">
<path fill-rule="evenodd" clip-rule="evenodd" d="M127.486 129.199C126.217 95.1464 98.2106 67.9296 63.8471 67.9296C29.4842 67.9296 1.47794 95.1456 0.208008 129.198C0.450645 130.571 1.64961 131.614 3.09215 131.614L124.602 131.614C126.044 131.614 127.243 130.572 127.486 129.199Z" fill="#F4F5F6"/>
<path fill-rule="evenodd" clip-rule="evenodd" d="M1.05562e-07 2.41497C0.242957 1.04244 1.44174 -6.30205e-08 2.884 -1.26064e-07L124.394 -5.43745e-06C125.837 -5.50049e-06 127.035 1.04246 127.278 2.41501C126.009 36.4677 98.0023 63.684 63.6392 63.684C29.276 63.684 1.26961 36.4676 1.05562e-07 2.41497Z" fill="#F4F5F6"/>
<path fill-rule="evenodd" clip-rule="evenodd" d="M572.19 0.856323C537.686 2.12755 510.104 30.5001 510.104 65.3148C510.104 100.129 537.685 128.502 572.189 129.773C573.563 129.531 574.607 128.332 574.607 126.889L574.607 3.74072C574.607 2.29767 573.563 1.09836 572.19 0.856323Z" fill="#F4F5F6"/>
<path fill-rule="evenodd" clip-rule="evenodd" d="M441.525 1.02483L441.301 1.02483L441.301 130.03C476.925 130.03 505.804 101.151 505.804 65.5274C505.804 29.9782 477.046 1.1457 441.525 1.02483Z" fill="#F4F5F6"/>
<path fill-rule="evenodd" clip-rule="evenodd" d="M149.692 131.56C183.959 129.237 211.035 100.705 211.035 65.8483C211.035 30.9921 183.96 2.45976 149.693 0.13623C147.101 0.74026 145.169 3.06532 145.169 5.84142L145.169 125.855C145.169 128.631 147.1 130.956 149.692 131.56Z" fill="#F4F5F6"/>
<path fill-rule="evenodd" clip-rule="evenodd" d="M276.119 131.56C241.852 129.237 214.776 100.705 214.776 65.8483C214.776 30.992 241.852 2.45963 276.119 0.13623C278.711 0.740356 280.642 3.06536 280.642 5.84136L280.642 125.855C280.642 128.631 278.711 130.956 276.119 131.56Z" fill="#F4F5F6"/>
<path fill-rule="evenodd" clip-rule="evenodd" d="M425.841 129.199C424.571 95.1461 396.565 67.9298 362.202 67.9298C327.838 67.9298 299.832 95.1461 298.562 129.199C298.805 130.571 300.004 131.614 301.447 131.614L422.957 131.614C424.399 131.614 425.598 130.571 425.841 129.199Z" fill="#F4F5F6"/>
<path fill-rule="evenodd" clip-rule="evenodd" d="M425.633 0.322226L425.633 -5.5674e-06L298.266 0C298.266 35.1714 326.778 63.6834 361.95 63.6834C397.014 63.6834 425.459 35.3454 425.633 0.322226Z" fill="#F4F5F6"/>
</svg>
