<svg width="122" height="78" viewBox="0 0 122 78" fill="none" xmlns="http://www.w3.org/2000/svg">
<path d="M0.145798 59.5882L5.83527 44.9792C7.52689 40.6191 10.07 36.6643 13.301 33.3522C13.3179 33.3349 13.3348 33.3233 13.3461 33.3059H10.6395C8.1246 33.3001 6.08338 31.2098 6.07774 28.6215V8.8476C6.08338 6.26512 8.11897 4.16903 10.6395 4.16324H15.7087C18.2236 4.16903 20.2648 6.25933 20.2704 8.8476V17.0119C20.9189 16.7745 21.6068 16.653 22.2947 16.653H30.4032C33.7583 16.6587 36.4818 19.4497 36.4818 22.8949V24.9736H46L40.35 21.1057C38.4497 19.8029 37.9366 17.1683 39.2053 15.217C40.2372 13.6246 42.1825 12.9414 43.9531 13.5435C49.964 15.6049 56.2568 16.653 62.5947 16.6472H64.8615C65.9836 16.6472 66.8858 17.5794 66.8858 18.7259C66.8858 18.8938 66.8633 19.0675 66.8238 19.2296L64.8559 27.3071C64.8446 28.3146 64.76 29.3164 64.6078 30.3123C64.1398 33.1901 63.0233 34.8693 61.2922 35.3151C54.7174 37.0001 54.7174 40.7175 54.7174 43.7053C54.7174 47.1505 57.4353 49.9473 60.796 49.9473C60.796 49.9473 60.796 49.9473 60.8016 49.9473H77.7742C82.398 39.8432 83.74 28.4826 81.6086 17.5331L81.2308 15.5933L80.2327 14.5684H69.9251C67.1283 14.5684 64.8559 12.2407 64.8559 9.36294C64.8559 6.48515 67.1227 4.15745 69.9251 4.15745H80.5992L88.2792 0.220032C88.5442 0.0868547 88.8318 0.0115806 89.1306 0.00579032C89.1475 0.00579032 89.1701 0 89.187 0H95.2656C96.3877 0 97.2899 0.932241 97.2899 2.07872V12.4839C97.2899 13.6362 96.382 14.5626 95.2656 14.5626H91.9951L96.9233 29.7391L100.228 31.4356C100.916 31.7888 101.35 32.5068 101.35 33.2943V37.4576H102.72C111.246 37.4576 118.819 43.0626 121.508 51.3775C121.863 52.4661 121.288 53.6473 120.228 54.0121C120.02 54.0816 119.805 54.1163 119.585 54.1163H116.264C119.625 61.8579 116.236 70.9314 108.697 74.3824C101.158 77.8334 92.3221 74.3535 88.9615 66.6118C88.3863 65.2858 87.9972 63.8846 87.8055 62.4428H63.9199L60.8073 67.2372V77.0112H56.753V66.606C56.753 66.1949 56.8714 65.7954 57.0913 65.4537L59.0423 62.4428H42.4194C41.3029 70.8387 33.7696 76.7159 25.5878 75.5694C18.9397 74.6372 13.7126 69.2696 12.8047 62.4428H2.0235C0.90139 62.4428 -0.000808716 61.5105 -0.000808716 60.364C-0.000808716 60.0977 0.049942 59.8313 0.145798 59.5882ZM34.4575 58.2795C40.0567 58.2795 44.5903 53.6183 44.5903 47.8743C44.5903 42.1303 40.0511 37.4691 34.4575 37.4691C27.3527 37.4576 20.6088 40.7001 16.0696 46.3167L6.35403 58.2853H34.4575V58.2795ZM24.1104 62.4428C25.2269 64.4288 27.6966 65.1121 29.6307 63.9714C30.251 63.6066 30.7641 63.0797 31.1193 62.4428H24.1104ZM16.2162 8.8476C16.2162 8.55809 15.9906 8.32648 15.7087 8.32648H10.6395C10.3575 8.32648 10.132 8.55809 10.132 8.8476V28.6215C10.132 28.9111 10.3575 29.1427 10.6395 29.1427H15.7087C15.9906 29.1427 16.2162 28.9111 16.2162 28.6215V8.8476ZM32.4332 22.8949C32.4332 21.7484 31.5253 20.8162 30.4089 20.8162H22.3004C21.1839 20.8162 20.2761 21.7484 20.2761 22.8949V24.9736H32.4388V22.8949H32.4332ZM42.6731 17.4925C42.628 17.4752 42.5829 17.5041 42.5716 17.5447C42.5716 17.5504 42.566 17.562 42.566 17.5678C42.566 17.5968 42.5772 17.6199 42.5998 17.6373L51.8079 23.943C52.789 24.6146 53.9393 24.9736 55.1178 24.9736H61.2471L62.2621 20.8104C55.6027 20.7814 48.9941 19.6581 42.6731 17.4925ZM79.0486 8.32648H77.0243V10.4052H79.0486V8.32648ZM68.9158 9.36873C68.9158 9.94197 69.3669 10.411 69.9307 10.411H72.97V8.33227H69.9307C69.3669 8.32648 68.9158 8.7897 68.9158 9.36873ZM83.1028 11.627L83.6498 12.1886L87.1571 10.99V5.44869L83.1028 7.52741V11.627ZM93.2356 4.16324H91.2113V10.4052H93.2356V4.16324ZM102.613 71.5452C108.629 71.5394 113.501 66.5307 113.507 60.3583C113.518 58.1348 112.87 55.9576 111.652 54.1163H107.964C111.325 57.1562 111.652 62.4138 108.691 65.8649C105.731 69.3159 100.611 69.6517 97.2504 66.6118C95.5024 65.031 94.4987 62.7555 94.4987 60.364C94.4987 60.1903 94.5043 60.0166 94.5156 59.8487L91.8203 61.9101C92.5815 67.4282 97.1827 71.5394 102.613 71.5452ZM102.613 56.195C100.374 56.195 98.5586 58.0595 98.5586 60.3583C98.5586 62.657 100.374 64.5215 102.613 64.5215C104.851 64.5215 106.667 62.657 106.667 60.3583C106.661 58.0595 104.851 56.2008 102.613 56.195ZM89.7791 58.2795L100.137 50.3642C100.487 50.0978 100.91 49.9531 101.35 49.9531H116.495C113.721 44.8113 108.443 41.6208 102.714 41.6266H100.887C97.8368 41.6208 94.8539 42.5299 92.2939 44.238L86.2154 58.2737H89.7791V58.2795ZM88.8318 42.0087C88.9784 41.6671 89.2152 41.366 89.5197 41.1518C91.8485 39.4726 94.4987 38.3319 97.2955 37.7992V34.5856L94.3634 33.0801C93.8841 32.8311 93.5176 32.4026 93.3484 31.8757L87.907 15.1185L85.4485 15.9581L85.5951 16.7166C87.986 29.0037 86.3225 41.754 80.8699 52.9582C80.5259 53.6647 79.8267 54.1105 79.0542 54.1105H60.8129C55.2193 54.1105 50.6801 49.4551 50.6801 43.7111V43.7053C50.6801 40.4975 50.6801 33.8444 60.1306 31.3314C60.3618 30.984 60.5704 30.1328 60.6945 29.1369H32.997C26.6873 29.1369 20.6369 31.7078 16.1767 36.2937C13.3291 39.2062 11.0962 42.692 9.60759 46.5252L8.66592 48.934L12.957 43.6416C18.2687 37.0812 26.1516 33.2885 34.4631 33.3001C42.2953 33.2943 48.6445 39.8084 48.6502 47.8512C48.6502 51.777 47.1108 55.5349 44.376 58.2795H81.789L88.8318 42.0087ZM27.6177 71.5452C32.8504 71.5394 37.3389 67.7178 38.32 62.437H35.4668C34.3503 66.8897 29.9296 69.5707 25.5934 68.4184C22.7346 67.6599 20.5016 65.3669 19.7686 62.437H16.9154C17.8965 67.7178 22.385 71.5394 27.6177 71.5452Z" fill="white"/>
</svg>
