<svg width="55" height="68" viewBox="0 0 55 68" fill="none" xmlns="http://www.w3.org/2000/svg">
<path d="M27.4936 37.0813C26.6524 37.0813 25.9705 36.3915 25.9705 35.5406C25.9705 34.6898 26.6524 34 27.4936 34C28.3347 34 29.0166 34.6898 29.0166 35.5406C29.0166 36.3915 28.3347 37.0813 27.4936 37.0813Z" fill="white"/>
<path d="M22.911 24.7297C21.9919 24.7297 21.3879 24.1055 21.3879 23.1891V21.6484C21.3879 18.2484 24.132 15.4727 27.4932 15.4727C30.8544 15.4727 33.5985 18.2484 33.5985 21.6484V27.8242H35.1215C36.0406 27.8242 36.6445 28.4484 36.6445 29.3648V41.7297C36.6445 42.6594 36.0274 43.2703 35.1215 43.2703H19.8386C18.9196 43.2703 18.3156 42.6461 18.3156 41.7297V29.3648C18.3156 28.4352 18.9327 27.8242 19.8386 27.8242H25.9439C26.863 27.8242 27.4669 28.4484 27.4669 29.3648C27.4669 30.2945 26.8498 30.9055 25.9439 30.9055H21.3879V40.1758H33.6116V30.9055H32.0886C31.1695 30.9055 30.5655 30.2813 30.5655 29.3648V21.6352C30.5655 19.9352 29.1869 18.5406 27.5063 18.5406C25.8257 18.5406 24.4471 19.9352 24.4471 21.6352V23.1758C24.4471 24.1055 23.83 24.7297 22.911 24.7297Z" fill="white"/>
<path d="M1.0635 4.63516L7.62831 2.77578C14.2063 0.929688 20.7711 0 27.4934 0C33.9138 0 40.1767 0.929687 46.2819 2.62969L53.9365 4.63516C54.5405 4.94063 55 5.40547 55 6.17578V46.8164C55 49.4461 53.6214 51.9164 51.3368 53.457L28.2681 67.8273C28.1105 67.9867 27.8085 67.9867 27.5066 67.9867C27.2046 67.9867 26.8895 67.9867 26.745 67.8273L3.66317 53.4703C1.36548 52.0758 3.8147e-06 49.6055 3.8147e-06 46.8297V6.18906C3.8147e-06 5.56484 0.459541 4.94063 1.0635 4.63516ZM3.0592 46.8297C3.0592 48.3703 3.82072 49.9242 5.19933 50.8539L27.4934 64.7594L49.8007 50.8406C51.1793 49.9109 51.9408 48.3703 51.9408 46.8164V7.42422L45.5204 5.56484C33.4543 2.16484 20.6135 2.32422 8.54739 5.72422L3.04607 7.26484V46.8297H3.0592Z" fill="white"/>
<path d="M44.7591 8.49999L47.8183 9.2703C48.4354 9.57577 48.8818 10.2 48.8818 10.8109V46.6703C48.8818 47.1351 48.5799 47.7461 48.1203 48.0648L29.0167 59.9648C28.5572 60.2703 27.9532 60.4297 27.3361 60.4297C26.719 60.4297 26.2726 60.2703 25.6555 59.9648L6.55193 48.0648C6.09239 47.7594 5.79041 47.2945 5.79041 46.6703V17C5.79041 16.0703 6.4075 15.4594 7.31344 15.4594C8.21939 15.4594 8.83648 16.0836 8.83648 17V45.9L27.1654 57.3351L45.5338 45.9V12.0594L43.5512 11.5945C32.5486 8.49999 20.7844 8.65936 9.93937 11.7539L8.10122 12.3781C7.3397 12.5375 6.42063 12.0726 6.26307 11.3023C5.96109 10.532 6.56506 9.60233 7.32657 9.44296L9.46671 8.81874C20.9289 5.40546 33.1525 5.40546 44.7591 8.49999Z" fill="white"/>
</svg>
