<svg width="158" height="44" viewBox="0 0 158 44" fill="none" xmlns="http://www.w3.org/2000/svg">
<path fill-rule="evenodd" clip-rule="evenodd" d="M42.2205 41.7682C41.1468 31.0753 32.1207 22.7276 21.1449 22.7276C10.1691 22.7276 1.14306 31.0753 0.0693358 41.7682C0.413139 43.0036 1.54637 43.9102 2.89134 43.9102L39.3985 43.9102C40.7435 43.9102 41.8767 43.0036 42.2205 41.7682Z" fill="#F7D643"/>
<path fill-rule="evenodd" clip-rule="evenodd" d="M9.36257e-08 2.27472C0.343809 1.03934 1.47704 0.132812 2.822 0.132812L39.3292 0.132811C40.6741 0.132811 41.8074 1.03934 42.1512 2.27471C41.0774 12.9676 32.0514 21.3153 21.0756 21.3153C10.0998 21.3153 1.07373 12.9676 9.36257e-08 2.27472Z" fill="#F7D643"/>
<path fill-rule="evenodd" clip-rule="evenodd" d="M57.4357 42.6208C68.6987 42.6208 77.8292 33.4904 77.8292 22.2274C77.8292 10.9788 68.722 1.85728 57.4789 1.83398H57.4355L57.4355 42.6208C57.4356 42.6208 57.4357 42.6208 57.4357 42.6208Z" fill="#FE7F01"/>
<path fill-rule="evenodd" clip-rule="evenodd" d="M99.3817 42.6209C88.1187 42.6209 78.9882 33.4904 78.9882 22.2274C78.9882 10.9644 88.1187 1.83398 99.3817 1.83398C99.3817 1.83398 99.3818 1.83398 99.3818 1.83398L99.3818 42.6209C99.3818 42.6209 99.3817 42.6209 99.3817 42.6209Z" fill="#FE7F01"/>
<path fill-rule="evenodd" clip-rule="evenodd" d="M157.139 43.7715C157.139 32.1098 147.685 22.6561 136.024 22.6561C124.362 22.6561 114.908 32.1098 114.908 43.7715M157.139 43.7715L114.908 43.7715L157.139 43.7715Z" fill="#454C54"/>
<path fill-rule="evenodd" clip-rule="evenodd" d="M157.055 0.132811C157.055 11.7944 147.601 21.248 135.94 21.248C124.278 21.248 114.824 11.7944 114.824 0.132812L157.055 0.132811Z" fill="#454C54"/>
</svg>
