<svg width="327" height="100" viewBox="0 0 327 100" fill="none" xmlns="http://www.w3.org/2000/svg">
<path d="M71.0587 30.9872C71.4257 28.3337 72.2401 24.3511 68.6961 21.7379C65.152 19.1246 57.8045 21.541 55.3523 22.6373C55.3299 22.6462 55.312 22.6597 55.2941 22.6731C50.2153 19.232 43.7135 17.2049 35.7036 17.4063C27.6938 17.2049 21.1964 19.232 16.1131 22.6731C16.0952 22.6641 16.0728 22.6462 16.0549 22.6373C13.6028 21.541 6.25074 19.1246 2.71121 21.7379C-0.832807 24.3511 -0.0184001 28.3337 0.34853 30.9872C0.719936 33.6407 3.15421 38.4019 3.55694 40.2858C3.55694 40.2858 3.59273 40.2768 3.64196 40.2589C1.52539 47.2619 1.418 54.8735 3.15421 61.5498C8.02722 80.2812 35.7081 82.8587 35.7081 82.8587C35.7081 82.8587 63.389 80.2812 68.2575 61.5498C69.9937 54.8735 69.8819 47.2664 67.7698 40.2634C67.819 40.2768 67.8548 40.2902 67.8548 40.2902C68.2575 38.4064 70.6918 33.6452 71.0587 30.9872Z" fill="black"/>
<path d="M55.6704 40.3829C54.8068 36.6554 51.4283 34.2033 48.1841 34.9506C46.166 35.4159 44.6446 37.0224 43.9913 39.0763C42.5951 39.9489 40.492 41.1884 39.5791 41.3181C39.427 41.3405 39.333 41.3897 39.2749 41.4658C38.456 40.45 37.3328 39.6535 35.704 39.6535C34.0752 39.6535 32.952 40.4545 32.1331 41.4658C32.075 41.3942 31.981 41.3405 31.8289 41.3181C30.7728 41.166 28.1551 39.5551 26.844 38.7138C26.137 36.8389 24.6827 35.3936 22.7675 34.955C19.5009 34.1988 16.1493 36.6331 15.2812 40.3874C14.4131 44.1417 16.3551 47.7976 19.6217 48.5538C21.7964 49.055 24.007 48.1421 25.4971 46.3657C25.506 46.4149 25.515 46.4641 25.5284 46.5133C26.4323 50.4109 23.0717 54.1786 22.1857 57.302C21.2997 60.4254 21.9665 61.6738 23.2642 63.1952C24.4724 64.6093 24.2262 65.4371 24.705 62.6314C24.9154 64.2289 25.2196 65.804 25.4076 67.1375C25.8551 70.337 26.9379 70.7576 28.1775 70.8068C28.531 70.8202 28.8263 70.8158 29.0814 70.7889L32.876 72.816C34.7151 73.4022 36.6884 73.4111 38.5321 72.8384L42.434 70.7979C42.6623 70.8158 42.9173 70.8202 43.2216 70.8068C44.4611 70.7576 45.544 70.337 45.9915 67.1375C46.1794 65.804 46.4837 64.2244 46.694 62.6314C47.1728 65.4371 46.9267 64.6093 48.1349 63.1952C49.4326 61.6738 50.0993 60.4254 49.2133 57.302C48.3497 54.2502 45.1279 50.5809 45.8304 46.7729C47.3071 48.2719 49.3431 49.0147 51.3254 48.5538C54.5696 47.7976 56.5295 44.1149 55.6704 40.3829Z" fill="white"/>
<path d="M67.4382 30.9244C68.4744 28.1958 67.844 25.4255 66.0303 24.7368C64.2166 24.0481 61.9063 25.7018 60.8702 28.4304C59.8341 31.1591 60.4644 33.9294 62.2782 34.6181C64.0919 35.3068 66.4021 33.6531 67.4382 30.9244Z" fill="white"/>
<path d="M9.626 34.6206C11.4397 33.9319 12.0701 31.1616 11.0339 28.433C9.99782 25.7043 7.68757 24.0506 5.87386 24.7393C4.06015 25.428 3.42979 28.1983 4.46592 30.927C5.50204 33.6556 7.81229 35.3093 9.626 34.6206Z" fill="white"/>
<path d="M24.8496 42.2775C25.2649 41.3831 24.5423 40.1661 23.2355 39.5593C21.9287 38.9524 20.5326 39.1855 20.1173 40.0798C19.7019 40.9742 20.4246 42.1912 21.7314 42.798C23.0382 43.4049 24.4343 43.1718 24.8496 42.2775Z" fill="black"/>
<path d="M22.2927 40.2913C21.8989 40.4972 21.626 40.9088 21.626 41.3832C21.626 42.0633 22.1764 42.6137 22.8565 42.6137C23.5367 42.6137 24.0871 42.0633 24.0871 41.3832C24.0871 41.0789 23.9752 40.797 23.7873 40.5822C23.2324 40.3316 22.691 40.2689 22.2927 40.2913Z" fill="white"/>
<path d="M23.5727 41.3198C23.5727 41.6644 23.2952 41.9463 22.9462 41.9463C22.6017 41.9463 22.3242 41.6689 22.3242 41.3198C22.3242 40.9753 22.6017 40.6934 22.9462 40.6934C23.2908 40.6978 23.5727 40.9753 23.5727 41.3198Z" fill="black"/>
<path d="M22.7539 40.8042C22.7539 40.9564 22.6331 41.0772 22.481 41.0772C22.3288 41.0772 22.208 40.9564 22.208 40.8042C22.208 40.6521 22.3288 40.5312 22.481 40.5312C22.6331 40.5312 22.7539 40.6521 22.7539 40.8042Z" fill="white"/>
<path d="M50.3643 42.8021C51.6711 42.1952 52.3938 40.9782 51.9785 40.0838C51.5632 39.1895 50.1671 38.9564 48.8603 39.5633C47.5535 40.1701 46.8308 41.3871 47.2462 42.2815C47.6615 43.1759 49.0575 43.4089 50.3643 42.8021Z" fill="black"/>
<path d="M49.8032 40.2894C50.1969 40.4952 50.4699 40.9069 50.4699 41.3812C50.4699 42.0614 49.9195 42.6118 49.2393 42.6118C48.5592 42.6118 48.0088 42.0614 48.0088 41.3812C48.0088 41.0769 48.1207 40.795 48.3086 40.5802C48.8635 40.3296 49.4049 40.267 49.8032 40.2894Z" fill="white"/>
<path d="M48.5234 41.3179C48.5234 41.6624 48.8009 41.9443 49.1499 41.9443C49.4945 41.9443 49.7719 41.6669 49.7719 41.3179C49.7719 40.9733 49.4945 40.6914 49.1499 40.6914C48.8053 40.6959 48.5234 40.9733 48.5234 41.3179Z" fill="black"/>
<path d="M49.3418 40.8023C49.3418 40.9544 49.4626 41.0752 49.6148 41.0752C49.7669 41.0752 49.8877 40.9544 49.8877 40.8023C49.8877 40.6501 49.7669 40.5293 49.6148 40.5293C49.4671 40.5293 49.3418 40.6501 49.3418 40.8023Z" fill="white"/>
<path d="M43.6328 61.9402C43.7894 61.1214 42.9302 55.3444 40.7823 55.3444C39.2833 55.3444 37.0683 56.3915 35.8198 56.566C35.7393 56.5795 35.6677 56.5795 35.5871 56.566C34.3029 56.3647 31.4972 54.8701 30.0787 55.3444C28.3201 55.9306 27.6176 61.1214 27.7742 61.9402C27.7787 61.9537 27.7831 61.9671 27.7831 61.985C27.7742 62.0879 27.7608 62.1908 27.7608 62.2937C27.7608 65.2158 31.3182 67.5874 35.7035 67.5874C40.0887 67.5874 43.6462 65.2158 43.6462 62.2937C43.6462 62.1953 43.6328 62.0969 43.6238 61.9984C43.6238 61.976 43.6283 61.9581 43.6328 61.9402Z" fill="black"/>
<path d="M120.247 19.947C128.313 19.947 135.317 22.8627 141.257 28.6942C147.198 34.5257 150.168 41.7742 150.168 50.4397C150.168 59.0507 147.334 66.4082 141.666 72.5122C135.998 78.5617 129.022 81.5865 120.738 81.5865C112.454 81.5865 105.396 78.589 99.5646 72.594C93.7876 66.599 90.8991 59.4595 90.8991 51.1755C90.8991 46.652 91.7166 42.4282 93.3516 38.5042C94.9866 34.5257 97.1666 31.2012 99.8916 28.5307C102.617 25.8602 105.75 23.762 109.293 22.236C112.835 20.71 116.487 19.947 120.247 19.947ZM105.369 50.7667C105.369 55.6172 106.922 59.5685 110.029 62.6205C113.19 65.618 116.705 67.1167 120.574 67.1167C124.444 67.1167 127.932 65.6452 131.038 62.7022C134.145 59.7592 135.698 55.808 135.698 50.8485C135.698 45.889 134.118 41.9105 130.957 38.913C127.85 35.9155 124.362 34.4167 120.493 34.4167C116.623 34.4167 113.135 35.9427 110.029 38.9947C106.922 41.9922 105.369 45.9162 105.369 50.7667ZM195.653 66.6262C197.778 66.6262 199.304 66.8987 200.231 67.4437C201.212 67.9342 201.866 68.67 202.193 69.651C202.574 70.632 202.765 71.8855 202.765 73.4115C202.765 74.9375 202.629 76.1637 202.356 77.0902C202.084 78.0167 201.757 78.7252 201.375 79.2157C200.994 79.7062 200.422 80.0605 199.659 80.2785C198.787 80.6055 197.397 80.769 195.489 80.769H161.481C160.228 80.769 159.029 80.442 157.884 79.788C155.486 78.4255 154.287 76.2727 154.287 73.3297C154.287 71.9127 154.614 70.7682 155.268 69.8962L180.611 34.8255H161.808C160.5 34.8255 159.519 34.7982 158.865 34.7437C158.266 34.6347 157.53 34.3895 156.658 34.008C155.078 33.245 154.287 31.2012 154.287 27.8767C154.287 24.3887 155.023 22.2632 156.495 21.5002C157.312 21.0642 158.021 20.819 158.62 20.7645C159.274 20.6555 160.255 20.601 161.563 20.601H194.427C195.68 20.601 196.879 20.928 198.024 21.582C199.168 22.236 200.04 23.108 200.64 24.198C201.294 25.288 201.621 26.5687 201.621 28.0402C201.621 29.5117 201.294 30.6835 200.64 31.5555L175.297 66.6262H195.653ZM236.166 19.947C244.232 19.947 251.236 22.8627 257.176 28.6942C263.117 34.5257 266.087 41.7742 266.087 50.4397C266.087 59.0507 263.253 66.4082 257.585 72.5122C251.917 78.5617 244.941 81.5865 236.657 81.5865C228.373 81.5865 221.315 78.589 215.484 72.594C209.707 66.599 206.818 59.4595 206.818 51.1755C206.818 46.652 207.636 42.4282 209.271 38.5042C210.906 34.5257 213.086 31.2012 215.811 28.5307C218.536 25.8602 221.669 23.762 225.212 22.236C228.754 20.71 232.406 19.947 236.166 19.947ZM221.288 50.7667C221.288 55.6172 222.841 59.5685 225.948 62.6205C229.109 65.618 232.624 67.1167 236.493 67.1167C240.363 67.1167 243.851 65.6452 246.957 62.7022C250.064 59.7592 251.617 55.808 251.617 50.8485C251.617 45.889 250.037 41.9105 246.876 38.913C243.769 35.9155 240.281 34.4167 236.412 34.4167C232.542 34.4167 229.054 35.9427 225.948 38.9947C222.841 41.9922 221.288 45.9162 221.288 50.7667ZM310.1 23.217C310.645 22.236 311.435 21.582 312.471 21.255C313.506 20.928 314.787 20.7645 316.313 20.7645C317.894 20.7645 319.147 20.9007 320.074 21.1732C321.055 21.4457 321.763 21.7727 322.199 22.1542C322.69 22.5357 323.044 23.108 323.262 23.871C323.589 24.743 323.752 26.1327 323.752 28.0402V73.4115C323.752 74.7195 323.698 75.6732 323.589 76.2727C323.534 76.8722 323.289 77.5807 322.853 78.3982C322.09 79.8697 319.965 80.6055 316.477 80.6055C314.351 80.6055 312.88 80.442 312.062 80.115C311.245 79.788 310.563 79.2702 310.018 78.5617C297.756 62.2117 289.69 51.5297 285.82 46.5157V73.4115C285.82 74.7195 285.766 75.6732 285.657 76.2727C285.602 76.8722 285.357 77.5807 284.921 78.3982C284.158 79.8697 282.033 80.6055 278.545 80.6055C275.166 80.6055 273.095 79.8697 272.332 78.3982C271.896 77.5807 271.623 76.845 271.514 76.191C271.46 75.537 271.432 74.5832 271.432 73.3297V27.7132C271.432 25.6422 271.678 24.1435 272.168 23.217C272.713 22.236 273.503 21.582 274.539 21.255C275.574 20.928 276.91 20.7645 278.545 20.7645C280.18 20.7645 281.46 20.928 282.387 21.255C283.368 21.5275 284.049 21.8545 284.431 22.236C284.649 22.3995 285.275 23.108 286.311 24.3615C297.81 40.003 305.495 50.3307 309.364 55.3447V27.7132C309.364 25.6422 309.61 24.1435 310.1 23.217Z" fill="#232323"/>
</svg>
