<svg width="365" height="168" viewBox="0 0 365 168" fill="none" xmlns="http://www.w3.org/2000/svg">
<path d="M35.613 18.384C36.829 17.328 37.565 15.856 37.565 14C37.565 10.128 34.397 7.6 30.493 7.6H21.725V30H31.133C35.133 30 38.365 27.408 38.365 23.44C38.365 21.168 37.277 19.44 35.613 18.384ZM30.493 12.4C31.677 12.4 32.445 13.232 32.445 14.384C32.445 15.536 31.645 16.368 30.493 16.368H26.845V12.4H30.493ZM31.133 25.2H26.845V20.912H31.133C32.413 20.912 33.245 21.808 33.245 23.056C33.245 24.304 32.413 25.2 31.133 25.2ZM51.1525 7.6V30H56.2725V7.6H51.1525ZM75.4813 25.072V21.104H83.4813V16.24H75.4813V12.528H84.2813V7.6H70.3613V30H84.4413V25.072H75.4813ZM110.05 7.6V19.76L101.41 7.6H97.57V30H102.69V17.84L111.33 30H115.17V7.6H110.05ZM134.624 30H141.152L148.448 7.6H142.848L137.888 24.08L132.928 7.6H127.328L134.624 30ZM165.733 25.072V21.104H173.733V16.24H165.733V12.528H174.533V7.6H160.613V30H174.693V25.072H165.733ZM200.301 7.6V19.76L191.661 7.6H187.821V30H192.941V17.84L201.581 30H205.421V7.6H200.301ZM219.499 7.6V30H224.619V7.6H219.499ZM247.668 7.6H238.708V30H247.668C253.844 30 258.548 25.136 258.548 18.8C258.548 12.464 253.844 7.6 247.668 7.6ZM247.668 25.072H243.828V12.528H247.668C251.188 12.528 253.62 14.96 253.62 18.8C253.62 22.64 251.188 25.072 247.668 25.072ZM282.354 30.448C288.786 30.448 294.002 25.392 294.002 18.8C294.002 12.208 288.786 7.152 282.354 7.152C275.922 7.152 270.706 12.208 270.706 18.8C270.706 25.392 275.922 30.448 282.354 30.448ZM282.354 25.456C278.706 25.456 275.826 22.8 275.826 18.8C275.826 14.8 278.706 12.144 282.354 12.144C286.002 12.144 288.882 14.8 288.882 18.8C288.882 22.8 286.002 25.456 282.354 25.456ZM339.605 30H345.205L337.589 7.6H331.061L323.445 30H329.045L330.165 26.48H338.485L339.605 30ZM331.701 21.68L334.325 13.456L336.949 21.68H331.701Z" fill="#232323"/>
<path d="M29.9466 150.449H21.2928V151.325H25.1467V162.712H26.0927V151.325H29.9466V150.449ZM43.2777 162.905C46.8163 162.905 49.6017 160.084 49.6017 156.581C49.6017 153.077 46.8163 150.257 43.2777 150.257C39.7391 150.257 36.9538 153.077 36.9538 156.581C36.9538 160.084 39.7391 162.905 43.2777 162.905ZM43.2777 162.011C40.2471 162.011 37.8822 159.594 37.8822 156.581C37.8822 153.568 40.2471 151.15 43.2777 151.15C46.3083 151.15 48.6732 153.568 48.6732 156.581C48.6732 159.594 46.3083 162.011 43.2777 162.011ZM63.045 150.449H58.4378V162.712H63.045C66.4259 162.712 68.8259 159.962 68.8259 156.581C68.8259 153.2 66.4259 150.449 63.045 150.449ZM63.045 161.836H59.3662V151.325H63.045C65.9354 151.325 67.915 153.673 67.915 156.581C67.915 159.489 65.9354 161.836 63.045 161.836ZM83.2704 162.905C86.8091 162.905 89.5944 160.084 89.5944 156.581C89.5944 153.077 86.8091 150.257 83.2704 150.257C79.7318 150.257 76.9465 153.077 76.9465 156.581C76.9465 160.084 79.7318 162.905 83.2704 162.905ZM83.2704 162.011C80.2399 162.011 77.8749 159.594 77.8749 156.581C77.8749 153.568 80.2399 151.15 83.2704 151.15C86.301 151.15 88.6659 153.568 88.6659 156.581C88.6659 159.594 86.301 162.011 83.2704 162.011ZM110.511 161.836V150.449H109.582V162.712H116.292V161.836H110.511ZM129.454 162.905C132.993 162.905 135.778 160.084 135.778 156.581C135.778 153.077 132.993 150.257 129.454 150.257C125.915 150.257 123.13 153.077 123.13 156.581C123.13 160.084 125.915 162.905 129.454 162.905ZM129.454 162.011C126.423 162.011 124.058 159.594 124.058 156.581C124.058 153.568 126.423 151.15 129.454 151.15C132.485 151.15 134.849 153.568 134.849 156.581C134.849 159.594 132.485 162.011 129.454 162.011ZM167.713 156.581C167.713 153.077 164.893 150.257 161.389 150.257C157.886 150.257 155.065 153.077 155.065 156.581C155.065 160.084 157.886 162.905 161.389 162.905C162.791 162.905 164.087 162.449 165.12 161.696L166.592 163.132L167.223 162.554L165.786 161.135C166.977 159.979 167.713 158.367 167.713 156.581ZM161.389 162.011C158.394 162.011 155.994 159.594 155.994 156.581C155.994 153.568 158.394 151.15 161.389 151.15C164.385 151.15 166.785 153.568 166.785 156.581C166.785 158.122 166.154 159.506 165.138 160.505L162.388 157.789L161.757 158.367L164.472 161.048C163.596 161.661 162.545 162.011 161.389 162.011ZM180.859 162.905C183.556 162.905 185.361 161.205 185.361 158.613V150.449H184.432V158.613C184.432 160.61 183.188 162.011 180.859 162.011C178.546 162.011 177.302 160.61 177.302 158.613V150.449H176.374V158.613C176.374 161.205 178.161 162.905 180.859 162.905ZM195.644 161.836V156.966H201.249V156.09H195.644V151.325H201.687V150.449H194.715V162.712H201.775V161.836H195.644ZM229.222 150.449H220.568V151.325H224.422V162.712H225.368V151.325H229.222V150.449ZM238.56 161.836V156.966H244.165V156.09H238.56V151.325H244.603V150.449H237.631V162.712H244.691V161.836H238.56ZM275.694 150.449H274.52L270.141 157.702L265.761 150.449H264.605V162.712H265.534V151.816L270.071 159.348H270.228L274.766 151.816V162.712H275.694V150.449ZM289.527 162.905C292.225 162.905 294.029 161.205 294.029 158.613V150.449H293.1V158.613C293.1 160.61 291.857 162.011 289.527 162.011C287.214 162.011 285.971 160.61 285.971 158.613V150.449H285.042V158.613C285.042 161.205 286.829 162.905 289.527 162.905ZM304.312 161.836V156.966H309.917V156.09H304.312V151.325H310.355V150.449H303.383V162.712H310.443V161.836H304.312ZM322.481 162.712H323.462L328.034 150.449H327.036L322.972 161.503L318.925 150.449H317.909L322.481 162.712ZM337.222 161.836V156.966H342.828V156.09H337.222V151.325H343.266V150.449H336.294V162.712H343.353V161.836H337.222Z" fill="#232323"/>
<path d="M90.0587 71.9882C90.4257 69.3346 91.2401 65.3521 87.6961 62.7388C84.152 60.1256 76.8045 62.542 74.3523 63.6383C74.3299 63.6472 74.312 63.6606 74.2941 63.6741C69.2153 60.233 62.7135 58.2059 54.7036 58.4073C46.6938 58.2059 40.1964 60.233 35.1131 63.6741C35.0952 63.6651 35.0728 63.6472 35.0549 63.6383C32.6028 62.542 25.2507 60.1256 21.7112 62.7388C18.1672 65.3521 18.9816 69.3346 19.3485 71.9882C19.7199 74.6417 22.1542 79.4029 22.5569 81.2867C22.5569 81.2867 22.5927 81.2778 22.642 81.2599C20.5254 88.2629 20.418 95.8745 22.1542 102.551C27.0272 121.282 54.7081 123.86 54.7081 123.86C54.7081 123.86 82.389 121.282 87.2575 102.551C88.9937 95.8745 88.8819 88.2674 86.7698 81.2644C86.819 81.2778 86.8548 81.2912 86.8548 81.2912C87.2575 79.4073 89.6918 74.6462 90.0587 71.9882Z" fill="black"/>
<path d="M74.6704 81.3849C73.8068 77.6574 70.4283 75.2052 67.1841 75.9525C65.166 76.4179 63.6446 78.0243 62.9913 80.0782C61.5951 80.9508 59.492 82.1903 58.5791 82.3201C58.427 82.3425 58.333 82.3917 58.2749 82.4678C57.456 81.452 56.3328 80.6555 54.704 80.6555C53.0752 80.6555 51.952 81.4565 51.1331 82.4678C51.075 82.3962 50.981 82.3425 50.8289 82.3201C49.7728 82.1679 47.1551 80.557 45.844 79.7158C45.137 77.8409 43.6827 76.3955 41.7675 75.957C38.5009 75.2007 35.1493 77.635 34.2812 81.3893C33.4131 85.1437 35.3551 88.7995 38.6217 89.5558C40.7964 90.057 43.007 89.1441 44.4971 87.3676C44.506 87.4168 44.515 87.4661 44.5284 87.5153C45.4323 91.4128 42.0717 95.1806 41.1857 98.3039C40.2997 101.427 40.9665 102.676 42.2642 104.197C43.4724 105.611 43.2262 106.439 43.705 103.633C43.9154 105.231 44.2196 106.806 44.4076 108.139C44.8551 111.339 45.9379 111.76 47.1775 111.809C47.531 111.822 47.8263 111.818 48.0814 111.791L51.876 113.818C53.7151 114.404 55.6884 114.413 57.5321 113.84L61.434 111.8C61.6623 111.818 61.9173 111.822 62.2216 111.809C63.4611 111.76 64.544 111.339 64.9915 108.139C65.1794 106.806 65.4837 105.226 65.694 103.633C66.1728 106.439 65.9267 105.611 67.1349 104.197C68.4326 102.676 69.0993 101.427 68.2133 98.3039C67.3497 95.2522 64.1279 91.5828 64.8304 87.7748C66.3071 89.2739 68.3431 90.0167 70.3254 89.5558C73.5696 88.7995 75.5295 85.1168 74.6704 81.3849Z" fill="white"/>
<path d="M86.4383 71.9244C87.4744 69.1958 86.844 66.4255 85.0303 65.7368C83.2166 65.0481 80.9063 66.7018 79.8702 69.4304C78.8341 72.1591 79.4644 74.9294 81.2782 75.6181C83.0919 76.3068 85.4021 74.6531 86.4383 71.9244Z" fill="white"/>
<path d="M28.626 75.6226C30.4397 74.9339 31.0701 72.1636 30.0339 69.4349C28.9978 66.7063 26.6876 65.0526 24.8739 65.7413C23.0601 66.43 22.4298 69.2003 23.4659 71.9289C24.502 74.6576 26.8123 76.3113 28.626 75.6226Z" fill="white"/>
<path d="M43.8496 83.2784C44.2649 82.3841 43.5423 81.1671 42.2355 80.5602C40.9287 79.9534 39.5326 80.1864 39.1173 81.0808C38.7019 81.9752 39.4246 83.1922 40.7314 83.799C42.0382 84.4059 43.4343 84.1728 43.8496 83.2784Z" fill="black"/>
<path d="M41.2927 81.2942C40.8989 81.5001 40.626 81.9118 40.626 82.3861C40.626 83.0663 41.1764 83.6166 41.8565 83.6166C42.5367 83.6166 43.0871 83.0663 43.0871 82.3861C43.0871 82.0818 42.9752 81.7999 42.7873 81.5851C42.2324 81.3345 41.691 81.2719 41.2927 81.2942Z" fill="white"/>
<path d="M42.5727 82.3228C42.5727 82.6673 42.2952 82.9492 41.9462 82.9492C41.6017 82.9492 41.3242 82.6718 41.3242 82.3228C41.3242 81.9782 41.6017 81.6963 41.9462 81.6963C42.2908 81.7008 42.5727 81.9782 42.5727 82.3228Z" fill="black"/>
<path d="M41.7539 81.8081C41.7539 81.9603 41.6331 82.0811 41.481 82.0811C41.3288 82.0811 41.208 81.9603 41.208 81.8081C41.208 81.656 41.3288 81.5352 41.481 81.5352C41.6331 81.5352 41.7539 81.656 41.7539 81.8081Z" fill="white"/>
<path d="M69.3643 83.804C70.6711 83.1971 71.3938 81.9802 70.9785 81.0858C70.5632 80.1914 69.1671 79.9584 67.8603 80.5652C66.5535 81.1721 65.8308 82.3891 66.2462 83.2835C66.6615 84.1778 68.0575 84.4109 69.3643 83.804Z" fill="black"/>
<path d="M68.8032 81.2903C69.1969 81.4962 69.4699 81.9079 69.4699 82.3822C69.4699 83.0623 68.9195 83.6127 68.2393 83.6127C67.5592 83.6127 67.0088 83.0623 67.0088 82.3822C67.0088 82.0779 67.1207 81.796 67.3086 81.5812C67.8635 81.3306 68.4049 81.268 68.8032 81.2903Z" fill="white"/>
<path d="M67.5234 82.3189C67.5234 82.6634 67.8009 82.9453 68.1499 82.9453C68.4945 82.9453 68.7719 82.6679 68.7719 82.3189C68.7719 81.9743 68.4945 81.6924 68.1499 81.6924C67.8053 81.6969 67.5234 81.9743 67.5234 82.3189Z" fill="black"/>
<path d="M68.3418 81.8042C68.3418 81.9564 68.4626 82.0772 68.6148 82.0772C68.7669 82.0772 68.8877 81.9564 68.8877 81.8042C68.8877 81.6521 68.7669 81.5312 68.6148 81.5312C68.4671 81.5312 68.3418 81.6521 68.3418 81.8042Z" fill="white"/>
<path d="M62.6328 102.94C62.7894 102.121 61.9302 96.3444 59.7823 96.3444C58.2833 96.3444 56.0683 97.3915 54.8198 97.566C54.7393 97.5795 54.6677 97.5795 54.5871 97.566C53.3029 97.3647 50.4972 95.8701 49.0787 96.3444C47.3201 96.9306 46.6176 102.121 46.7742 102.94C46.7787 102.954 46.7831 102.967 46.7831 102.985C46.7742 103.088 46.7608 103.191 46.7608 103.294C46.7608 106.216 50.3182 108.587 54.7035 108.587C59.0887 108.587 62.6462 106.216 62.6462 103.294C62.6462 103.195 62.6328 103.097 62.6238 102.998C62.6238 102.976 62.6283 102.958 62.6328 102.94Z" fill="black"/>
<path d="M139.247 60.947C147.313 60.947 154.317 63.8627 160.257 69.6942C166.198 75.5257 169.168 82.7742 169.168 91.4397C169.168 100.051 166.334 107.408 160.666 113.512C154.998 119.562 148.022 122.586 139.738 122.586C131.454 122.586 124.396 119.589 118.565 113.594C112.788 107.599 109.899 100.459 109.899 92.1755C109.899 87.652 110.717 83.4282 112.352 79.5042C113.987 75.5257 116.167 72.2012 118.892 69.5307C121.617 66.8602 124.75 64.762 128.293 63.236C131.835 61.71 135.487 60.947 139.247 60.947ZM124.369 91.7667C124.369 96.6172 125.922 100.568 129.029 103.62C132.19 106.618 135.705 108.117 139.574 108.117C143.444 108.117 146.932 106.645 150.038 103.702C153.145 100.759 154.698 96.808 154.698 91.8485C154.698 86.889 153.118 82.9105 149.957 79.913C146.85 76.9155 143.362 75.4167 139.493 75.4167C135.623 75.4167 132.135 76.9427 129.029 79.9947C125.922 82.9922 124.369 86.9162 124.369 91.7667ZM214.653 107.626C216.778 107.626 218.304 107.899 219.231 108.444C220.212 108.934 220.866 109.67 221.193 110.651C221.574 111.632 221.765 112.885 221.765 114.411C221.765 115.937 221.629 117.164 221.356 118.09C221.084 119.017 220.757 119.725 220.375 120.216C219.994 120.706 219.422 121.06 218.659 121.278C217.787 121.605 216.397 121.769 214.489 121.769H180.481C179.228 121.769 178.029 121.442 176.884 120.788C174.486 119.425 173.287 117.273 173.287 114.33C173.287 112.913 173.614 111.768 174.268 110.896L199.611 75.8255H180.808C179.5 75.8255 178.519 75.7982 177.865 75.7437C177.266 75.6347 176.53 75.3895 175.658 75.008C174.078 74.245 173.287 72.2012 173.287 68.8767C173.287 65.3887 174.023 63.2632 175.495 62.5002C176.312 62.0642 177.021 61.819 177.62 61.7645C178.274 61.6555 179.255 61.601 180.563 61.601H213.427C214.68 61.601 215.879 61.928 217.024 62.582C218.168 63.236 219.04 64.108 219.64 65.198C220.294 66.288 220.621 67.5687 220.621 69.0402C220.621 70.5117 220.294 71.6835 219.64 72.5555L194.297 107.626H214.653ZM255.166 60.947C263.232 60.947 270.236 63.8627 276.176 69.6942C282.117 75.5257 285.087 82.7742 285.087 91.4397C285.087 100.051 282.253 107.408 276.585 113.512C270.917 119.562 263.941 122.586 255.657 122.586C247.373 122.586 240.315 119.589 234.484 113.594C228.707 107.599 225.818 100.459 225.818 92.1755C225.818 87.652 226.636 83.4282 228.271 79.5042C229.906 75.5257 232.086 72.2012 234.811 69.5307C237.536 66.8602 240.669 64.762 244.212 63.236C247.754 61.71 251.406 60.947 255.166 60.947ZM240.288 91.7667C240.288 96.6172 241.841 100.568 244.948 103.62C248.109 106.618 251.624 108.117 255.493 108.117C259.363 108.117 262.851 106.645 265.957 103.702C269.064 100.759 270.617 96.808 270.617 91.8485C270.617 86.889 269.037 82.9105 265.876 79.913C262.769 76.9155 259.281 75.4167 255.412 75.4167C251.542 75.4167 248.054 76.9427 244.948 79.9947C241.841 82.9922 240.288 86.9162 240.288 91.7667ZM329.1 64.217C329.645 63.236 330.435 62.582 331.471 62.255C332.506 61.928 333.787 61.7645 335.313 61.7645C336.894 61.7645 338.147 61.9007 339.074 62.1732C340.055 62.4457 340.763 62.7727 341.199 63.1542C341.69 63.5357 342.044 64.108 342.262 64.871C342.589 65.743 342.752 67.1327 342.752 69.0402V114.411C342.752 115.719 342.698 116.673 342.589 117.273C342.534 117.872 342.289 118.581 341.853 119.398C341.09 120.87 338.965 121.605 335.477 121.605C333.351 121.605 331.88 121.442 331.062 121.115C330.245 120.788 329.563 120.27 329.018 119.562C316.756 103.212 308.69 92.5297 304.82 87.5157V114.411C304.82 115.719 304.766 116.673 304.657 117.273C304.602 117.872 304.357 118.581 303.921 119.398C303.158 120.87 301.033 121.605 297.545 121.605C294.166 121.605 292.095 120.87 291.332 119.398C290.896 118.581 290.623 117.845 290.514 117.191C290.46 116.537 290.432 115.583 290.432 114.33V68.7132C290.432 66.6422 290.678 65.1435 291.168 64.217C291.713 63.236 292.503 62.582 293.539 62.255C294.574 61.928 295.91 61.7645 297.545 61.7645C299.18 61.7645 300.46 61.928 301.387 62.255C302.368 62.5275 303.049 62.8545 303.431 63.236C303.649 63.3995 304.275 64.108 305.311 65.3615C316.81 81.003 324.495 91.3307 328.364 96.3447V68.7132C328.364 66.6422 328.61 65.1435 329.1 64.217Z" fill="#232323"/>
</svg>
