<svg width="80" height="81" viewBox="0 0 80 81" fill="none" xmlns="http://www.w3.org/2000/svg">
<path d="M80 40.6328C80 62.7242 62.0914 80.6328 40 80.6328C17.9086 80.6328 0 62.7242 0 40.6328C0 18.5414 17.9086 0.632812 40 0.632812C62.0914 0.632812 80 18.5414 80 40.6328Z" fill="#FE7F01"/>
<path d="M60 34.6328H42V28.6328C42 27.0415 42.6321 25.5154 43.7574 24.3902C44.8826 23.265 46.4087 22.6328 48 22.6328C48.5304 22.6328 49.0391 22.4221 49.4142 22.047C49.7893 21.672 50 21.1632 50 20.6328C50 20.1024 49.7893 19.5937 49.4142 19.2186C49.0391 18.8435 48.5304 18.6328 48 18.6328C46.1163 18.6386 44.2726 19.177 42.6818 20.1859C41.0911 21.1949 39.8181 22.6332 39.01 24.3348C36.9163 22.2737 34.1708 21.0052 31.2442 20.7469C28.3177 20.4885 25.3924 21.2564 22.97 22.9188C22.5629 23.1633 22.256 23.5446 22.1043 23.9945C21.9526 24.4445 21.966 24.9338 22.142 25.3748C23.439 28.2986 25.8192 30.6056 28.782 31.8108C30.1049 32.3097 31.5081 32.5619 32.922 32.5548C34.6548 32.5225 36.3704 32.2049 38 31.6148V34.6328H20C19.4696 34.6328 18.9609 34.8435 18.5858 35.2186C18.2107 35.5937 18 36.1024 18 36.6328V60.6328C18 61.1632 18.2107 61.672 18.5858 62.047C18.9609 62.4221 19.4696 62.6328 20 62.6328H60C60.5304 62.6328 61.0391 62.4221 61.4142 62.047C61.7893 61.672 62 61.1632 62 60.6328V36.6328C62 36.1024 61.7893 35.5937 61.4142 35.2186C61.0391 34.8435 60.5304 34.6328 60 34.6328ZM30.246 28.0888C28.8717 27.5518 27.6771 26.6373 26.8 25.4508C28.5059 24.7161 30.4028 24.5491 32.2109 24.9743C34.0189 25.3996 35.6425 26.3947 36.842 27.8128C34.7448 28.6801 32.4084 28.7779 30.246 28.0888ZM58 55.0008C57.1626 55.298 56.402 55.7782 55.7737 56.4065C55.1454 57.0349 54.6652 57.7954 54.368 58.6328H25.632C25.3348 57.7954 24.8546 57.0349 24.2263 56.4065C23.598 55.7782 22.8374 55.298 22 55.0008V42.2648C22.8374 41.9676 23.598 41.4874 24.2263 40.8591C24.8546 40.2308 25.3348 39.4702 25.632 38.6328H54.368C54.6652 39.4702 55.1454 40.2308 55.7737 40.8591C56.402 41.4874 57.1626 41.9676 58 42.2648V55.0008ZM44 48.6328C44 49.4239 43.7654 50.1973 43.3259 50.8551C42.8864 51.5129 42.2616 52.0256 41.5307 52.3283C40.7998 52.6311 39.9956 52.7103 39.2196 52.556C38.4437 52.4016 37.731 52.0206 37.1716 51.4612C36.6122 50.9018 36.2312 50.1891 36.0769 49.4132C35.9225 48.6372 36.0017 47.833 36.3045 47.1021C36.6072 46.3712 37.1199 45.7465 37.7777 45.3069C38.4355 44.8674 39.2089 44.6328 40 44.6328C41.0609 44.6328 42.0783 45.0542 42.8284 45.8044C43.5786 46.5545 44 47.5719 44 48.6328Z" fill="white"/>
</svg>
