<svg width="80" height="81" viewBox="0 0 80 81" fill="none" xmlns="http://www.w3.org/2000/svg">
<path d="M80 40.6328C80 62.7242 62.0914 80.6328 40 80.6328C17.9086 80.6328 0 62.7242 0 40.6328C0 18.5414 17.9086 0.632812 40 0.632812C62.0914 0.632812 80 18.5414 80 40.6328Z" fill="#FE7F01"/>
<path d="M58.2923 52.8551C60.7097 49.2373 62 44.9838 62 40.6326C62 40.1022 61.7893 39.5934 61.4142 39.2184C61.0392 38.8433 60.5304 38.6326 60 38.6326C59.4696 38.6326 58.9609 38.8433 58.5858 39.2184C58.2107 39.5934 58 40.1022 58 40.6326C58 44.1927 56.9443 47.6728 54.9665 50.6329C52.9886 53.5929 50.1774 55.9 46.8883 57.2624C43.5992 58.6248 39.98 58.9813 36.4884 58.2867C32.9967 57.5922 29.7894 55.8779 27.2721 53.3605C24.7547 50.8432 23.0404 47.6359 22.3459 44.1442C21.6513 40.6526 22.0078 37.0334 23.3702 33.7443C24.7326 30.4552 27.0397 27.644 29.9997 25.6661C32.9598 23.6883 36.4399 22.6326 40 22.6326C43.0995 22.627 46.1466 23.4309 48.84 24.9646L46.586 27.2186C46.3064 27.4983 46.116 27.8546 46.0388 28.2425C45.9617 28.6304 46.0013 29.0325 46.1527 29.3979C46.304 29.7633 46.5603 30.0756 46.8891 30.2954C47.2179 30.5152 47.6045 30.6325 48 30.6326H56C56.5304 30.6326 57.0392 30.4219 57.4142 30.0468C57.7893 29.6717 58 29.163 58 28.6326V20.6326C58.0015 20.2364 57.8853 19.8487 57.6662 19.5187C57.447 19.1886 57.1348 18.9311 56.769 18.7788C56.4033 18.6264 56.0006 18.5861 55.6119 18.663C55.2233 18.7399 54.8662 18.9305 54.586 19.2106L51.764 22.0326C48.2481 19.7986 44.1656 18.6187 40 18.6326C35.6488 18.6326 31.3953 19.9229 27.7775 22.3403C24.1596 24.7576 21.3398 28.1936 19.6747 32.2136C18.0095 36.2335 17.5739 40.657 18.4227 44.9246C19.2716 49.1922 21.3669 53.1122 24.4437 56.1889C27.5204 59.2657 31.4404 61.361 35.708 62.2099C39.9756 63.0587 44.3991 62.6231 48.419 60.9579C52.439 59.2928 55.875 56.473 58.2923 52.8551Z" fill="white"/>
<path d="M53.3168 38.9111C52.8613 38.3363 52.1672 38.0489 51.2345 38.0489C50.6922 38.0489 50.2042 38.1465 49.7704 38.3417C49.3366 38.5369 48.9733 38.8243 48.6805 39.2039V35.9504C48.6805 35.5708 48.5503 35.2671 48.29 35.0394C48.0297 34.8116 47.6881 34.6978 47.2652 34.6978C46.8205 34.6978 46.4626 34.8225 46.1915 35.0719C45.9204 35.3105 45.7848 35.6196 45.7848 35.9992V45.0115C45.7848 45.4236 45.9149 45.749 46.1752 45.9876C46.4355 46.2262 46.788 46.3455 47.2326 46.3455C47.6773 46.3455 48.0297 46.2262 48.29 45.9876C48.5503 45.749 48.6805 45.4236 48.6805 45.0115V41.7905C48.6805 41.3242 48.8052 40.9554 49.0546 40.6843C49.3149 40.4023 49.6619 40.2613 50.0957 40.2613C50.7681 40.2613 51.1043 40.6518 51.1043 41.4326V45.0115C51.1043 45.4236 51.2345 45.749 51.4948 45.9876C51.7551 46.2262 52.1075 46.3455 52.5522 46.3455C52.9968 46.3455 53.3493 46.2262 53.6096 45.9876C53.8699 45.749 54 45.4236 54 45.0115V41.4977C54 40.3372 53.7723 39.4751 53.3168 38.9111Z" fill="white"/>
<path d="M33.3205 43.8729C33.7977 43.8729 34.1502 43.9705 34.3779 44.1657C34.6165 44.3501 34.7358 44.6429 34.7358 45.0442C34.7358 45.4563 34.6165 45.76 34.3779 45.9552C34.1502 46.1504 33.7977 46.248 33.3205 46.248H27.3828C26.9923 46.248 26.6832 46.1341 26.4555 45.9064C26.2277 45.6678 26.1139 45.3695 26.1139 45.0116C26.1139 44.5453 26.2982 44.1223 26.667 43.7428L30.1157 40.1476C30.8315 39.3993 31.1894 38.7106 31.1894 38.0816C31.1894 37.7128 31.081 37.4309 30.8641 37.2357C30.658 37.0404 30.3598 36.9428 29.9693 36.9428C29.6548 36.9428 29.362 36.9916 29.0909 37.0892C28.8306 37.176 28.5269 37.3061 28.1799 37.4797L27.8545 37.6423C27.8111 37.664 27.7244 37.7128 27.5942 37.7888C27.4749 37.8538 27.3665 37.9026 27.2689 37.9352C27.1713 37.9677 27.0682 37.984 26.9598 37.984C26.6887 37.984 26.4609 37.8647 26.2766 37.6261C26.0922 37.3766 26 37.0838 26 36.7476C26 36.509 26.0325 36.3138 26.0976 36.162C26.1735 36.0102 26.3091 35.8692 26.5043 35.739C27.014 35.392 27.5834 35.1208 28.2124 34.9256C28.8523 34.7304 29.4813 34.6328 30.0995 34.6328C30.902 34.6328 31.607 34.7684 32.2143 35.0395C32.8216 35.2998 33.288 35.6794 33.6133 36.1783C33.9495 36.6663 34.1176 37.2302 34.1176 37.8701C34.1176 38.5317 33.9821 39.139 33.7109 39.6921C33.4506 40.2343 33.0006 40.8417 32.3607 41.5141L30.0507 43.8729H33.3205Z" fill="white"/>
<path d="M43.5625 42.0346C44.506 42.0346 44.9777 42.4088 44.9777 43.1571C44.9777 43.9271 44.506 44.3121 43.5625 44.3121H43.2046V44.8652C43.2046 45.3533 43.069 45.722 42.7979 45.9714C42.5267 46.2209 42.1743 46.3456 41.7405 46.3456C41.3067 46.3456 40.9542 46.2209 40.6831 45.9714C40.4228 45.722 40.2926 45.3533 40.2926 44.8652V44.3121H36.6649C36.2745 44.3121 35.9654 44.1928 35.7377 43.9542C35.5099 43.7156 35.396 43.4174 35.396 43.0595C35.396 42.6799 35.5153 42.322 35.7539 41.9858L40.4065 35.3486C40.5583 35.1317 40.7481 34.969 40.9759 34.8606C41.2145 34.7413 41.4585 34.6816 41.7079 34.6816C42.12 34.6816 42.4725 34.8118 42.7653 35.072C43.0582 35.3323 43.2046 35.6956 43.2046 36.162V42.0346H43.5625ZM38.3405 42.0346H40.2926V39.2203L38.3405 42.0346Z" fill="white"/>
</svg>
