<svg width="80" height="81" viewBox="0 0 80 81" fill="none" xmlns="http://www.w3.org/2000/svg">
<path d="M80 40.1328C80 62.2242 62.0914 80.1328 40 80.1328C17.9086 80.1328 0 62.2242 0 40.1328C0 18.0414 17.9086 0.132812 40 0.132812C62.0914 0.132812 80 18.0414 80 40.1328Z" fill="#FE7F01"/>
<path d="M19.873 58.1327H35.873C36.4035 58.1327 36.9122 57.9219 37.2873 57.5469C37.6623 57.1718 37.873 56.6631 37.873 56.1327C37.873 55.6022 37.6623 55.0935 37.2873 54.7184C36.9122 54.3434 36.4035 54.1327 35.873 54.1327H22.015C22.5004 50.8023 24.1673 47.7576 26.7115 45.5545C29.2558 43.3514 32.5075 42.1368 35.873 42.1327C38.228 42.1531 40.5159 41.3489 42.3402 39.8596C44.1645 38.3703 45.4103 36.2896 45.8616 33.9782C46.3129 31.6668 45.9413 29.2704 44.8112 27.2042C43.6811 25.138 41.8637 23.5323 39.6741 22.6654C37.4844 21.7985 35.0604 21.725 32.8222 22.4576C30.584 23.1902 28.6727 24.6829 27.4195 26.6768C26.1663 28.6707 25.6501 31.0402 25.9605 33.3747C26.271 35.7092 27.3883 37.8615 29.119 39.4587C25.7995 40.8053 22.9566 43.1108 20.9535 46.0808C18.9503 49.0507 17.8779 52.5503 17.873 56.1327C17.873 56.6631 18.0838 57.1718 18.4588 57.5469C18.8339 57.9219 19.3426 58.1327 19.873 58.1327ZM35.873 26.1327C37.0597 26.1327 38.2198 26.4845 39.2065 27.1438C40.1932 27.8031 40.9622 28.7402 41.4163 29.8366C41.8705 30.9329 41.9893 32.1393 41.7578 33.3032C41.5262 34.4671 40.9548 35.5362 40.1157 36.3753C39.2766 37.2144 38.2075 37.7859 37.0436 38.0174C35.8797 38.2489 34.6733 38.1301 33.5769 37.6759C32.4806 37.2218 31.5435 36.4528 30.8842 35.4661C30.2249 34.4794 29.873 33.3193 29.873 32.1327C29.873 30.5414 30.5052 29.0152 31.6304 27.89C32.7556 26.7648 34.2817 26.1327 35.873 26.1327ZM61.873 43.1327V53.1327C61.873 53.3979 61.7677 53.6522 61.5802 53.8398C61.3926 54.0273 61.1383 54.1327 60.873 54.1327H58.873V58.1327L53.873 54.1327H44.873C44.6078 54.1327 44.3535 54.0273 44.1659 53.8398C43.9784 53.6522 43.873 53.3979 43.873 53.1327V43.1327C43.873 42.8674 43.9784 42.6131 44.1659 42.4255C44.3535 42.238 44.6078 42.1327 44.873 42.1327H60.873C61.1383 42.1327 61.3926 42.238 61.5802 42.4255C61.7677 42.6131 61.873 42.8674 61.873 43.1327Z" fill="white"/>
</svg>
