<?xml version="1.0" encoding="utf-8"?>
<!-- Generator: Adobe Illustrator 25.2.1, SVG Export Plug-In . SVG Version: 6.00 Build 0)  -->
<svg version="1.1" id="Capa_1" xmlns="http://www.w3.org/2000/svg" xmlns:xlink="http://www.w3.org/1999/xlink" x="0px" y="0px"
	 viewBox="0 0 267.9 168.9" style="enable-background:new 0 0 267.9 168.9;" xml:space="preserve">
<style type="text/css">
	.st0{fill:#FF8B00;}
</style>
<g>
	<path class="st0" d="M174.4,82.8c-4.1-4.1-10.2-5.3-15.6-3.2l-2.3-2.3c0.2-0.1,0.4-0.3,0.5-0.5l5.8-5.8c1-1,1.5-2.2,1.5-3.6
		c0-1.4-0.5-2.6-1.5-3.6h0c-1.1-1.1-2.5-1.5-3.9-1.5c0-0.3,0.1-0.5,0.1-0.8c0-1.5-0.6-2.9-1.6-4c-1-1-2.4-1.6-3.7-1.6
		c0.6-2,0.2-4.2-1.4-5.7c-1.3-1.3-3-1.8-4.6-1.6c0-0.2,0-0.4,0-0.6c0-1.5-0.6-2.9-1.6-4c-2.2-2.2-5.8-2.2-7.9,0l-3.7,3.7l-0.3-0.3
		c-1.4-1.4-3.7-1.4-5.1,0l-1.2,1.2l-3.6-3.6c2.1-5.3,0.8-11.5-3.2-15.5c-3.4-3.4-8.2-4.9-13-4c-0.7,0.1-2.7,0.5-3.2,2.1
		c-0.4,1.5,1.1,2.8,1.8,3.4c0.1,0.1,5.8,5.8,5.8,5.8c1.5,1.5,1.6,3.9,0.2,5.5c-1.6,1.3-4,1.2-5.5-0.2c0,0-5.7-5.7-5.8-5.8
		c-0.6-0.7-1.9-2.2-3.4-1.8c-1.6,0.4-2,2.5-2.1,3.2c-0.9,4.7,0.6,9.6,4,13c4.1,4.1,10.2,5.3,15.6,3.2l4.2,4.2
		c-0.5,1.3-0.7,2.8-0.7,4.2c0.2,3.3-1.5,6.5-5.8,10.7l-4.4,4.4c-1.5-0.8-3.4-0.5-4.6,0.7l-6.2,6.2c-0.8,0.7-1.2,1.7-1.2,2.8
		s0.4,2.1,1.2,2.8L115,107c0.8,0.8,1.8,1.2,2.8,1.2c1,0,2-0.4,2.8-1.2l6.2-6.2c0.8-0.7,1.2-1.7,1.2-2.8c0-0.6-0.2-1.3-0.4-1.8
		l7.5-7.5c2.2-2.2,2.6-2.2,5-1.8c0.4,0.1,0.8,0.1,1.4,0.2c2.1,0.3,4.5-0.8,5.8-1.5l2.7,2.7c-0.7,1.9-1.1,3.9-1,5.9
		c0,0.7,0.6,1.2,1.2,1.2c0,0,0,0,0.1,0c0.7,0,1.2-0.6,1.2-1.3c-0.1-1.9,0.3-3.9,1.1-5.6c0.2-0.5,0.1-1-0.2-1.4l-19.5-19.4
		c0.8-1.5,1.2-3.1,1.3-4.6c1.4,1.2,3.2,2.2,5,2.7c1.5,0.4,2.9,0.5,4.1,0.2c0,0,0,0,0,0c0,1.5,0.6,2.9,1.6,4c1,1,2.3,1.6,3.7,1.6
		c-0.1,0.5-0.2,1-0.2,1.5c0,1.4,0.5,2.6,1.5,3.6c1,1,2.3,1.5,3.6,1.5c0.2,0,0.4,0,0.6,0l3.7,3.6c0.4,0.4,0.9,0.5,1.4,0.2
		c4.6-2.1,10.1-1.1,13.6,2.4c2.8,2.8,4.1,6.8,3.3,10.8c-0.1,0.7-0.3,1-0.4,1.2c-0.2-0.1-0.5-0.4-0.9-0.9c-0.1-0.1-5.9-5.9-5.9-5.9
		c-2.4-2.4-6.3-2.5-8.9-0.3c0,0-0.1,0.1-0.1,0.1c-2.2,2.6-2.1,6.5,0.3,8.9l6.9,6.8c-0.2,0.1-0.5,0.2-1.2,0.4
		c-3.9,0.7-8-0.5-10.8-3.3c-0.9-0.9-1.6-1.9-2.2-3c-0.3-0.6-1-0.8-1.6-0.5c-0.6,0.3-0.8,1-0.5,1.6c0.7,1.3,1.6,2.6,2.7,3.6
		c2.7,2.7,6.4,4.2,10.3,4.2c0.9,0,1.8-0.1,2.7-0.3c0.7-0.1,2.7-0.5,3.2-2.1c0.4-1.5-1.1-2.8-1.8-3.4c-0.1-0.1-5.8-5.8-5.8-5.8
		c-1.5-1.5-1.6-3.9-0.2-5.5c1.6-1.3,4-1.2,5.5,0.2c0,0,5.7,5.7,5.8,5.8c0.6,0.7,1.9,2.2,3.4,1.8c1.6-0.4,2-2.5,2.1-3.2
		C179.2,91,177.7,86.2,174.4,82.8L174.4,82.8z M150.6,52c1.2,1.2,1.2,3.2,0,4.4l-3.9,3.9c-0.7-1-4.4-4.6-4.4-4.6l3.7-3.7
		C147.3,50.7,149.3,50.7,150.6,52z M139.9,45.8c1.2-1.2,3.3-1.2,4.5,0c0.6,0.6,0.9,1.4,0.9,2.2s-0.3,1.6-0.9,2.2l-3.7,3.7l-4.5-4.5
		L139.9,45.8z M116.5,51.6c-0.4-0.4-0.9-0.5-1.4-0.2c-4.6,2.1-10.1,1.1-13.6-2.4c-2.8-2.8-4.1-6.8-3.3-10.8c0.1-0.7,0.3-1,0.4-1.2
		c0.2,0.1,0.5,0.4,0.9,0.9c0.1,0.1,5.9,5.9,5.9,5.9c2.4,2.4,6.3,2.5,8.9,0.3c0,0,0.1-0.1,0.1-0.1c2.2-2.6,2.1-6.5-0.3-8.9
		c0,0-6.7-6.7-6.9-6.8c0.2-0.1,0.5-0.2,1.2-0.4c3.9-0.7,8,0.5,10.8,3.3c3.6,3.5,4.5,9,2.4,13.6c-0.2,0.5-0.1,1,0.2,1.4l4.2,4.2
		l-4.5,4.5c-0.3,0.3-0.6,0.6-0.8,0.9L116.5,51.6z M144.9,62.2c-0.3,0.3-0.6,0.7-0.8,1c-2.6,1.6-6.7-0.2-8.7-2.1l-0.3-0.3
		c-1.9-1.9-2.9-2.8-2.9-2.9c0,0,0,0,0,0c0,0,0,0,0,0c0,0,0,0,0,0c-0.5-0.4-1.2-0.5-1.7,0c-0.5,0.5-0.5,1.2,0,1.7c0,0,0,0,0,0
		c0.8,0.8,1.3,2,1.3,3.4c0,2.1-1.1,4.5-2.9,6.4c-0.5,0.5-0.5,1.2,0,1.7c0.2,0.2,0.5,0.4,0.9,0.4c0.3,0,0.6-0.1,0.9-0.4
		c0.4-0.4,0.7-0.7,1-1.1l14,13.9c-1.4,0.7-2.8,1-3.7,0.9c-0.5-0.1-0.9-0.1-1.3-0.2c-2.8-0.5-4.1-0.5-7.1,2.4l-7.4,7.4l-6.1-6.1
		c-0.5-0.5-1.2-0.5-1.7,0c-0.5,0.5-0.5,1.2,0,1.7l7,7c0,0,0,0,0,0l0,0l0,0c0.3,0.3,0.5,0.7,0.5,1.1s-0.2,0.8-0.5,1.1l-6.2,6.2
		c-0.6,0.6-1.6,0.6-2.2,0L99.6,88.2c-0.3-0.3-0.5-0.7-0.5-1.1c0-0.4,0.2-0.8,0.5-1.1l6.2-6.2c0.6-0.6,1.6-0.6,2.2,0l6.1,6.1
		c0.5,0.5,1.2,0.5,1.7,0c0.5-0.5,0.5-1.2,0-1.7l-5.3-5.3l4.3-4.3c4.8-4.8,6.7-8.5,6.5-12.6c-0.1-2.1,0.6-4.2,2-5.5l7.5-7.5
		c0.4-0.4,1.2-0.4,1.6,0l1.1,1.1l7.9,7.9c0.2,0.2,0.4,0.4,0.6,0.6c1,1,2.5,2.4,2.9,3.2L144.9,62.2z M148.8,69.3
		c-0.9,0-1.7-0.3-2.3-0.9c-0.6-0.6-0.9-1.4-0.9-2.2c0-0.9,0.3-1.6,0.9-2.2l4.6-4.6c0.6-0.6,1.4-0.9,2.3-0.9c0.8,0,1.6,0.3,2.3,0.9
		c0,0,0,0,0,0c0.6,0.6,0.9,1.4,0.9,2.2c0,0.9-0.3,1.6-0.9,2.2c0,0,0,0,0,0l-4.6,4.6C150.5,69,149.7,69.3,148.8,69.3L148.8,69.3z
		 M151.5,75.1c-0.5-0.5-0.8-1.2-0.8-1.9s0.3-1.4,0.8-1.9l5.8-5.8c0.5-0.5,1.2-0.8,1.9-0.8s1.4,0.3,1.9,0.8h0
		c0.5,0.5,0.8,1.2,0.8,1.9s-0.3,1.4-0.8,1.9l-5.8,5.8C154.2,76.1,152.6,76.1,151.5,75.1L151.5,75.1z"/>
</g>
<g>
	<path class="st0" d="M30.3,127.4h4.3l3.5,5.7l3.5-5.7h4.3v14.7h-4.1v-8.4l-3.8,5.8H38l-3.7-5.7v8.4h-4V127.4z"/>
	<path class="st0" d="M55.7,127.3h3.9l6.3,14.8h-4.4l-1.1-2.6h-5.7l-1,2.6h-4.3L55.7,127.3z M59.3,136.3l-1.6-4.2l-1.7,4.2H59.3z"/>
	<path class="st0" d="M69.4,127.4h3.8l6,7.8v-7.8h4v14.7h-3.6l-6.3-8.1v8.1h-4V127.4z"/>
	<path class="st0" d="M91.6,131h-4.4v-3.6h12.9v3.6h-4.4v11.1h-4.1V131z"/>
	<path class="st0" d="M104,127.4h11.8v3.5H108v2.2h7.1v3.2H108v2.3h7.9v3.5H104V127.4z"/>
	<path class="st0" d="M120.1,127.4h3.8l6,7.8v-7.8h4v14.7h-3.6l-6.3-8.1v8.1h-4V127.4z"/>
	<path class="st0" d="M138.7,127.4h4.1v14.7h-4.1V127.4z"/>
	<path class="st0" d="M147.6,127.4h4.3l3.5,5.7l3.5-5.7h4.3v14.7h-4.1v-8.4l-3.8,5.8h-0.1l-3.7-5.7v8.4h-4V127.4z"/>
	<path class="st0" d="M168,127.4h4.1v14.7H168V127.4z"/>
	<path class="st0" d="M176.9,127.4h11.8v3.5h-7.8v2.2h7.1v3.2h-7.1v2.3h7.9v3.5h-11.9V127.4z"/>
	<path class="st0" d="M193,127.4h3.8l6,7.8v-7.8h4v14.7h-3.6l-6.3-8.1v8.1h-4V127.4z"/>
	<path class="st0" d="M215.2,131h-4.4v-3.6h12.9v3.6h-4.4v11.1h-4.1V131z"/>
	<path class="st0" d="M226.4,134.8L226.4,134.8c0-4.3,3.4-7.7,7.9-7.7s7.9,3.4,7.9,7.6v0c0,4.2-3.4,7.6-7.9,7.6
		S226.4,139,226.4,134.8z M238.1,134.8L238.1,134.8c0-2.2-1.5-4-3.8-4c-2.2,0-3.7,1.8-3.7,3.9v0c0,2.1,1.5,4,3.8,4
		C236.6,138.7,238.1,136.9,238.1,134.8z"/>
</g>
</svg>
