<svg width="37" height="64" viewBox="0 0 37 64" fill="none" xmlns="http://www.w3.org/2000/svg">
<path d="M36.8419 22.55C36.5604 22.1125 36.132 21.825 35.5567 21.825H25.0185L33.9901 2.0375C34.137 1.6 34.137 1.025 33.8432 0.5875C33.5495 0.15 33.1333 0 32.7049 0H17.0384C16.1816 0 15.6186 0.5875 15.6186 1.45C15.6186 2.3125 16.1939 2.9 17.0384 2.9H30.4284L21.4568 22.6875C21.31 23.125 21.31 23.7 21.6037 24.1375C21.8852 24.575 22.3136 24.725 22.742 24.725H32.8518L12.7668 55.4125L17.0384 35.2C17.1853 34.7625 17.0384 34.325 16.7569 34.0375C16.4754 33.6 16.047 33.45 15.6186 33.45H3.23223L12.779 1.8875C13.0605 1.1625 12.6322 0.2875 11.7876 0.1375C11.0777 -0.15 10.221 0.2875 10.0741 1.15L0.0989162 34.6125C-0.0479578 34.9 -0.0479578 35.3375 0.24579 35.775C0.527299 36.0625 0.955681 36.3625 1.38406 36.3625H13.9173L8.49521 62.25C8.34834 62.975 8.64209 63.5625 9.35198 63.85C9.49885 64 9.78036 64 9.92723 64C10.3556 64 10.784 63.7125 11.0655 63.4125L36.7073 24.1375C36.9765 23.5625 37.1234 23.125 36.8419 22.55Z" fill="white"/>
<path d="M11.4928 14.1125L7.20899 27.2C6.92748 27.925 7.35586 28.8 8.06575 29.0875C8.21263 29.0875 8.34726 29.2375 8.49413 29.2375C9.06939 29.2375 9.63241 28.8 9.77928 28.225L14.0509 15.125C14.3324 14.4 13.904 13.525 13.1941 13.2375C12.4842 12.95 11.6274 13.3875 11.4928 14.1125Z" fill="white"/>
</svg>
