<svg width="59" height="59" viewBox="0 0 59 59" fill="none" xmlns="http://www.w3.org/2000/svg">
<path d="M20.1087 14.75C20.8469 14.75 21.4454 14.1515 21.4454 13.4133C21.4454 12.675 20.8469 12.0766 20.1087 12.0766C19.3704 12.0766 18.772 12.675 18.772 13.4133C18.772 14.1515 19.3704 14.75 20.1087 14.75Z" fill="white"/>
<path d="M38.8919 46.935C39.6301 46.935 40.2286 46.3365 40.2286 45.5983C40.2286 44.86 39.6301 44.2615 38.8919 44.2615C38.1536 44.2615 37.5552 44.86 37.5552 45.5983C37.5552 46.3365 38.1536 46.935 38.8919 46.935Z" fill="white"/>
<path d="M13.4134 21.4451C14.1516 21.4451 14.7501 20.8466 14.7501 20.1084C14.7501 19.3701 14.1516 18.7717 13.4134 18.7717C12.6751 18.7717 12.0767 19.3701 12.0767 20.1084C12.0767 20.8466 12.6751 21.4451 13.4134 21.4451Z" fill="white"/>
<path d="M45.5867 40.2283C46.325 40.2283 46.9234 39.6298 46.9234 38.8916C46.9234 38.1533 46.325 37.5549 45.5867 37.5549C44.8485 37.5549 44.25 38.1533 44.25 38.8916C44.25 39.6298 44.8485 40.2283 45.5867 40.2283Z" fill="white"/>
<path d="M38.8919 14.7385C39.6301 14.7385 40.2286 14.14 40.2286 13.4018C40.2286 12.6635 39.6301 12.065 38.8919 12.065C38.1536 12.065 37.5552 12.6635 37.5552 13.4018C37.5552 14.14 38.1536 14.7385 38.8919 14.7385Z" fill="white"/>
<path d="M20.1087 46.9234C20.8469 46.9234 21.4454 46.325 21.4454 45.5867C21.4454 44.8485 20.8469 44.25 20.1087 44.25C19.3704 44.25 18.772 44.8485 18.772 45.5867C18.772 46.325 19.3704 46.9234 20.1087 46.9234Z" fill="white"/>
<path d="M45.5867 21.4451C46.325 21.4451 46.9234 20.8466 46.9234 20.1084C46.9234 19.3701 46.325 18.7717 45.5867 18.7717C44.8485 18.7717 44.25 19.3701 44.25 20.1084C44.25 20.8466 44.8485 21.4451 45.5867 21.4451Z" fill="white"/>
<path d="M13.4134 40.2168C14.1516 40.2168 14.7501 39.6183 14.7501 38.8801C14.7501 38.1418 14.1516 37.5434 13.4134 37.5434C12.6751 37.5434 12.0767 38.1418 12.0767 38.8801C12.0767 39.6183 12.6751 40.2168 13.4134 40.2168Z" fill="white"/>
<path d="M29.5 0C13.275 0 0 13.275 0 29.5C0 45.725 13.275 59 29.5 59C30.3066 59 30.8367 58.4584 30.8367 57.6633C30.8367 56.8682 30.2951 56.3266 29.5 56.3266C14.75 56.315 2.68496 44.25 2.68496 29.5C2.68496 14.75 14.75 2.68496 29.5 2.68496C44.25 2.68496 56.315 14.75 56.315 29.5C56.315 42.3717 47.2 53.365 34.5934 55.785C33.925 55.9232 33.3834 56.5916 33.5217 57.3982C33.66 58.2049 34.3283 58.6082 35.135 58.4699C48.94 55.785 59 43.5816 59 29.5C59 13.275 45.725 0 29.5 0Z" fill="white"/>
<path d="M29.5 5.3584C16.225 5.3584 5.3584 16.225 5.3584 29.5C5.3584 42.775 16.225 53.6416 29.5 53.6416C42.775 53.6416 53.6416 42.775 53.6416 29.5C53.6416 18.3684 46.0016 8.71172 35.135 6.03828C34.4666 5.9 33.66 6.30332 33.5217 6.97168C33.3834 7.64004 33.7867 8.44668 34.4551 8.58496C43.7084 10.8666 50.2768 18.7717 50.9451 28.1633H48.2602C47.4535 28.1633 46.9234 28.7049 46.9234 29.5C46.9234 30.3066 47.465 30.8367 48.2602 30.8367H50.8184C50.15 41.565 41.565 50.15 30.8367 50.8184V48.2717C30.8367 47.465 30.2951 46.935 29.5 46.935C28.6934 46.935 28.1633 47.4766 28.1633 48.2717V50.8184C17.435 50.15 8.85 41.565 8.18164 30.8367H10.7283C11.535 30.8367 12.065 30.2951 12.065 29.5C12.065 28.6934 11.5234 28.1633 10.7283 28.1633H8.04336C8.71172 17.435 17.435 8.72324 28.1518 8.05488V10.7398C28.1518 11.5465 28.6934 12.0766 29.4885 12.0766C30.2951 12.0766 30.8252 11.535 30.8252 10.7398V6.70664C30.8367 5.9 30.3066 5.3584 29.5 5.3584Z" fill="white"/>
<path d="M30.8364 25.7434V18.7717C30.8364 17.965 30.2948 17.435 29.4997 17.435C28.6931 17.435 28.163 17.9766 28.163 18.7717V25.7434C26.5497 26.285 25.478 27.76 25.478 29.5C25.478 31.7816 27.2181 33.5217 29.4997 33.5217C30.1681 33.5217 30.7097 33.3834 31.2397 33.1184L39.2831 41.1617C39.5481 41.4268 39.9515 41.565 40.2165 41.565C40.4815 41.565 40.8849 41.4268 41.1499 41.1617C41.6915 40.6201 41.6915 39.825 41.1499 39.2834L33.1065 31.24C33.3716 30.6984 33.5099 30.1684 33.5099 29.5C33.5214 27.76 32.4497 26.285 30.8364 25.7434ZM29.4997 30.8367C28.6931 30.8367 28.163 30.2951 28.163 29.5C28.163 28.6934 28.7046 28.1633 29.4997 28.1633C30.3063 28.1633 30.8364 28.7049 30.8364 29.5C30.8364 30.3066 30.3063 30.8367 29.4997 30.8367Z" fill="white"/>
</svg>
