<?xml version="1.0" encoding="utf-8"?>
<!-- Generator: Adobe Illustrator 25.2.1, SVG Export Plug-In . SVG Version: 6.00 Build 0)  -->
<svg version="1.1" id="Capa_1" xmlns="http://www.w3.org/2000/svg" xmlns:xlink="http://www.w3.org/1999/xlink" x="0px" y="0px"
	 viewBox="0 0 134 154" style="enable-background:new 0 0 134 154;" xml:space="preserve">
<style type="text/css">
	.st0{fill:#FF8B00;}
</style>
<desc>Created with Sketch.</desc>
<g id="Page-1">
	<g id="_x30_33---Insurance">
		<path id="Shape" class="st0" d="M89.1,28.3l-20.5-9c-0.3-0.2-0.7-0.2-1.1,0l-20.5,9c-0.5,0.2-0.8,0.7-0.8,1.3V51
			c0,4.8,2.3,9.3,6.2,12.2l14.2,10.2c0.9,0.6,2.1,0.6,2.9,0l14.2-10.2c3.9-2.8,6.2-7.4,6.2-12.2V29.5C89.9,29,89.6,28.5,89.1,28.3z
			 M87.2,51c0,3.9-1.9,7.6-5.1,10l-14,10.1L54,60.9c-3.2-2.3-5.1-6-5.1-10V30.4L68.1,22l19.1,8.4V51z"/>
		<path id="Shape_1_" class="st0" d="M67.5,25.3l-15,6.6c-0.5,0.2-0.8,0.7-0.8,1.3V51c0,3.1,1.5,5.9,4,7.7l11.6,8.4
			c0.5,0.3,1.1,0.3,1.6,0l11.6-8.4c2.5-1.8,4-4.7,4-7.7V33.1c0-0.5-0.3-1-0.8-1.3l-15-6.6C68.3,25.1,67.9,25.1,67.5,25.3z M81.7,34
			v17c0,2.2-1.1,4.2-2.8,5.5l-10.8,7.8l-10.8-7.8c-1.8-1.3-2.8-3.3-2.8-5.5V34l13.7-6L81.7,34z"/>
		<path id="Shape_2_" class="st0" d="M38.4,64.6l-3-6.9c-0.6-1.4-2-2.4-3.5-2.6c-1.5-0.2-3.1,0.5-4,1.8c-0.9,1.3-1.1,2.9-0.5,4.3
			l5.4,11.8c0.7,1.6,1.7,3,3,4.3l8.4,8.4c-0.5,0.5-0.7,1.2-0.7,1.9v10.9c0,1.5,1.2,2.7,2.7,2.7h15c1.5,0,2.7-1.2,2.7-2.7V87.5
			c0-1.5-1.2-2.7-2.7-2.7v-2.5c0-3.2-1-6.4-3-9c-1.2-1.5-2.7-2.7-4.6-3.3c-2.9-1.2-5.5-2.9-7.8-5C43.7,63.2,40.7,63,38.4,64.6z
			 M61.2,98.4h-15V87.5h15V98.4z M56.1,75c1.6,2.1,2.4,4.6,2.4,7.2v2.5H47.2l-9.5-9.5c-1-1-1.8-2.2-2.4-3.5L29.9,60
			c-0.2-0.5-0.2-1.1,0.1-1.6s0.8-0.7,1.4-0.7c0.7,0,1.2,0.4,1.5,1l3.1,7.1c0.8,1.9,2,3.6,3.4,5.1l6.2,6.2c0.3,0.4,0.9,0.5,1.3,0.4
			c0.5-0.1,0.9-0.5,1-1c0.1-0.5,0-1-0.4-1.3L41.3,69c-0.6-0.6-1.2-1.3-1.7-2.1c1.3-1,3.1-1,4.4,0.1c2.6,2.3,5.5,4.2,8.7,5.5
			C54.1,73,55.3,73.9,56.1,75z"/>
		<path id="Shape_3_" class="st0" d="M57.1,91.6h-1.4c-0.8,0-1.4,0.6-1.4,1.4c0,0.8,0.6,1.4,1.4,1.4h1.4c0.8,0,1.4-0.6,1.4-1.4
			C58.5,92.2,57.9,91.6,57.1,91.6z"/>
		<path id="Shape_4_" class="st0" d="M103.3,72.9l5.4-11.8c0.7-1.4,0.5-3.1-0.4-4.4c-0.9-1.3-2.5-2-4-1.8s-2.9,1.2-3.5,2.6l-2.9,6.9
			c-2.3-1.5-5.3-1.4-7.5,0.4c-2.3,2.1-4.9,3.8-7.8,5c-1.8,0.6-3.4,1.8-4.6,3.3c-2,2.6-3,5.7-3,9v2.5c-1.5,0-2.7,1.2-2.7,2.7v10.9
			c0,1.5,1.2,2.7,2.7,2.7h15c1.5,0,2.7-1.2,2.7-2.7V87.5c0-0.7-0.3-1.4-0.7-1.9l8.4-8.4C101.6,76,102.6,74.5,103.3,72.9z M89.9,98.4
			h-15V87.5h15V98.4z M88.9,84.8H77.6v-2.5c0-2.6,0.8-5.2,2.4-7.2c0.8-1.1,2-2,3.3-2.4c3.2-1.3,6.2-3.2,8.7-5.5
			c1.3-1.1,3.1-1.1,4.4-0.1c-0.5,0.7-1.1,1.4-1.7,2.1l-6.2,6.2c-0.5,0.5-0.5,1.4,0,1.9s1.4,0.5,1.9,0l6.2-6.2
			c1.5-1.5,2.6-3.2,3.4-5.1l3.1-7.1c0.3-0.6,0.8-1,1.5-1c0.6,0,1.1,0.3,1.4,0.7c0.3,0.5,0.3,1,0.1,1.6l-5.4,11.8
			c-0.6,1.3-1.4,2.5-2.4,3.5L88.9,84.8z"/>
		<path id="Shape_5_" class="st0" d="M80.4,91.6H79c-0.8,0-1.4,0.6-1.4,1.4c0,0.8,0.6,1.4,1.4,1.4h1.4c0.8,0,1.4-0.6,1.4-1.4
			C81.7,92.2,81.1,91.6,80.4,91.6z"/>
		<path id="Shape_6_" class="st0" d="M60.7,48.2c-0.6-0.5-1.5-0.3-1.9,0.3c-0.5,0.6-0.3,1.5,0.3,1.9l5.5,4.1
			c0.2,0.2,0.5,0.3,0.8,0.3c0.1,0,0.2,0,0.2,0c0.4-0.1,0.7-0.3,0.9-0.6l10.9-16.4c0.3-0.4,0.3-0.9,0.1-1.4c-0.2-0.4-0.6-0.7-1.1-0.8
			c-0.5,0-1,0.2-1.2,0.6L65,51.4L60.7,48.2z"/>
	</g>
</g>
<g>
	<path class="st0" d="M17.2,136.1l2.3-2.7c1.4,1.2,3.1,1.8,4.8,1.8c1.1,0,1.7-0.4,1.7-1v0c0-0.6-0.5-0.9-2.5-1.4
		c-3.1-0.7-5.5-1.6-5.5-4.6v0c0-2.7,2.2-4.7,5.7-4.7c2.5,0,4.5,0.7,6,2l-2,2.9c-1.3-0.9-2.8-1.4-4.1-1.4c-1,0-1.5,0.4-1.5,0.9v0
		c0,0.7,0.5,1,2.5,1.4c3.4,0.7,5.5,1.8,5.5,4.6v0c0,3-2.4,4.8-5.9,4.8C21.5,138.5,19,137.7,17.2,136.1z"/>
	<path class="st0" d="M34.1,123.6h11.8v3.5h-7.8v2.2h7.1v3.2h-7.1v2.3H46v3.5H34.1V123.6z"/>
	<path class="st0" d="M49.6,131L49.6,131c0-4.3,3.4-7.7,7.9-7.7c2.6,0,4.4,0.8,6,2.1l-2.4,2.9c-1-0.9-2.1-1.4-3.5-1.4
		c-2.1,0-3.8,1.8-3.8,4v0c0,2.4,1.7,4.1,4,4.1c1,0,1.7-0.2,2.4-0.6v-1.8h-2.9v-3H64v6.6c-1.6,1.3-3.7,2.3-6.4,2.3
		C53,138.6,49.6,135.4,49.6,131z"/>
	<path class="st0" d="M68.2,131.8v-8.3h4.1v8.2c0,2.1,1.1,3.1,2.7,3.1c1.6,0,2.7-1,2.7-3v-8.3h4.1v8.1c0,4.7-2.7,6.8-6.9,6.8
		C70.8,138.5,68.2,136.4,68.2,131.8z"/>
	<path class="st0" d="M86.4,123.6h6.9c2.2,0,3.8,0.6,4.8,1.6c0.9,0.8,1.3,2,1.3,3.4v0c0,2.2-1.2,3.7-3,4.5l3.5,5.1h-4.7l-3-4.5h-1.8
		v4.5h-4.1V123.6z M93.2,130.6c1.4,0,2.2-0.7,2.2-1.7v0c0-1.2-0.8-1.7-2.2-1.7h-2.7v3.5H93.2z"/>
	<path class="st0" d="M103.1,131L103.1,131c0-4.3,3.4-7.7,7.9-7.7s7.9,3.4,7.9,7.6v0c0,4.2-3.4,7.6-7.9,7.6S103.1,135.2,103.1,131z
		 M114.8,131L114.8,131c0-2.2-1.5-4-3.8-4c-2.2,0-3.7,1.8-3.7,3.9v0c0,2.1,1.5,4,3.8,4C113.3,134.9,114.8,133.1,114.8,131z"/>
</g>
</svg>
