<?xml version="1.0" encoding="utf-8"?>
<!-- Generator: Adobe Illustrator 25.2.1, SVG Export Plug-In . SVG Version: 6.00 Build 0)  -->
<svg version="1.1" id="Layer_1" xmlns="http://www.w3.org/2000/svg" xmlns:xlink="http://www.w3.org/1999/xlink" x="0px" y="0px"
	 viewBox="0 0 175.3 175.3" style="enable-background:new 0 0 175.3 175.3;" xml:space="preserve">
<style type="text/css">
	.st0{fill:#FF8B00;}
</style>
<g>
	<g>
		<g>
			<path class="st0" d="M79.9,62.7c-4.8-4.8-15-3.9-19.1-3.3c-1.3,0.2-2.2,1.3-2.2,2.6v3c0,0.7,0.6,1.3,1.3,1.3s1.3-0.6,1.3-1.3v-3
				c0,0,0-0.1,0.1-0.1c1.7-0.2,4.9-0.6,8.3-0.4c4,0.3,6.9,1.3,8.6,3c0.5,0.5,1.3,0.5,1.8,0C80.4,64,80.4,63.2,79.9,62.7z"/>
		</g>
	</g>
	<g>
		<g>
			<path class="st0" d="M89.5,93.9l-7.9-2.9c0-0.4-0.1-0.7-0.3-1l-2.4-2.5v-4.2c0.3-0.2,0.5-0.4,0.7-0.6c3-2.8,4.7-6.8,4.7-10.9
				v-3.4c0.9-2,1.4-4.1,1.4-6.2V48.5c0-0.7-0.6-1.3-1.3-1.3H65.3c-6.7,0-12.2,5.5-12.2,12.2v2.7c0,2.2,0.5,4.2,1.4,6.2v2.9
				c0,4.8,2.1,9.1,5.5,11.9v4.3l-2.4,2.5c-0.3,0.3-0.4,0.6-0.3,1l-7.9,2.9c-2.7,1-4.4,3.5-4.4,6.4v9.9c0,0.7,0.6,1.3,1.3,1.3
				c0.7,0,1.3-0.6,1.3-1.3v-9.9c0-1.8,1.1-3.3,2.8-3.9l8.3-3l3.5,5.2c0.4,0.7,1.2,1.1,1.9,1.2c0.1,0,0.2,0,0.3,0
				c0.7,0,1.4-0.3,1.9-0.8l2.1-2.1v13.3c0,0.7,0.6,1.3,1.3,1.3c0.7,0,1.3-0.6,1.3-1.3V96.8l2.1,2.1c0.5,0.5,1.2,0.8,1.9,0.8
				c0.1,0,0.2,0,0.3,0c0.8-0.1,1.5-0.5,1.9-1.2l3.5-5.2l8.3,3c1.7,0.6,2.8,2.2,2.8,3.9v9.9c0,0.7,0.6,1.3,1.3,1.3
				c0.7,0,1.3-0.6,1.3-1.3v-9.9C94,97.5,92.2,94.9,89.5,93.9z M57,71.3v-3.2c0-0.2,0-0.4-0.1-0.6c-0.8-1.7-1.2-3.5-1.2-5.4v-2.7
				c0-5.3,4.3-9.7,9.7-9.7h17.9v12.4c0,1.9-0.4,3.7-1.2,5.4c-0.1,0.2-0.1,0.4-0.1,0.6v3.6c0,3.5-1.4,6.7-3.9,9.1
				c-2.5,2.4-5.8,3.6-9.3,3.3C62.1,83.8,57,78.1,57,71.3z M64.2,97.1C64.2,97.1,64.2,97.1,64.2,97.1c-0.1,0-0.1,0-0.1,0l-4-6
				l1.3-1.3l6,4.1L64.2,97.1z M69.4,92.2l-6.9-4.7V85c1.8,1,3.8,1.6,5.9,1.7c0.3,0,0.7,0,1,0c2.4,0,4.8-0.6,6.9-1.7v2.3L69.4,92.2z
				 M74.7,97.1C74.7,97.1,74.7,97.1,74.7,97.1c-0.1,0-0.1,0-0.1,0l-3.2-3.2l6-4.1l1.3,1.3L74.7,97.1z"/>
		</g>
	</g>
	<g>
		<g>
			<path class="st0" d="M54.3,103.4c-0.7,0-1.3,0.6-1.3,1.3v5.5c0,0.7,0.6,1.3,1.3,1.3s1.3-0.6,1.3-1.3v-5.5
				C55.6,104,55,103.4,54.3,103.4z"/>
		</g>
	</g>
	<g>
		<g>
			<path class="st0" d="M84.5,103.4c-0.7,0-1.3,0.6-1.3,1.3v5.5c0,0.7,0.6,1.3,1.3,1.3c0.7,0,1.3-0.6,1.3-1.3v-5.5
				C85.7,104,85.2,103.4,84.5,103.4z"/>
		</g>
	</g>
	<g>
		<g>
			<path class="st0" d="M126.9,37.7H120c-0.7,0-1.3,0.6-1.3,1.3c0,0.7,0.6,1.3,1.3,1.3h6.8c1.6,0,2.8,1.3,2.8,2.8V65
				c0,1.6-1.3,2.8-2.8,2.8h-13.7c-0.3,0-0.5,0.1-0.8,0.2l-12.2,8.9l1.9-7.5c0.1-0.4,0-0.8-0.2-1.1c-0.2-0.3-0.6-0.5-1-0.5h-4.1
				c-1.6,0-2.8-1.3-2.8-2.8V43c0-1.6,1.3-2.8,2.8-2.8h6.8c0.7,0,1.3-0.6,1.3-1.3s-0.6-1.3-1.3-1.3h-6.8c-3,0-5.4,2.4-5.4,5.4V65
				c0,3,2.4,5.4,5.4,5.4h2.5l-1.9,7.5c-0.2,0.8,0.1,1.6,0.8,2.1c0.3,0.2,0.7,0.3,1.1,0.3c0.4,0,0.8-0.1,1.2-0.4l13.2-9.6h13.3
				c3,0,5.4-2.4,5.4-5.4V43C132.3,40.1,129.9,37.7,126.9,37.7z"/>
		</g>
	</g>
	<g>
		<g>
			<path class="st0" d="M115.5,29.8c-0.2-0.3-0.6-0.4-0.9-0.4h-5.5c-0.4,0-0.7,0.1-0.9,0.4s-0.4,0.6-0.3,1l1.4,21.9
				c0,0.7,0.6,1.2,1.3,1.2h2.7c0.7,0,1.2-0.5,1.3-1.2l1.4-21.9C115.9,30.4,115.7,30.1,115.5,29.8z M112,51.4h-0.3L110.4,32h2.8
				L112,51.4z"/>
		</g>
	</g>
	<g>
		<g>
			<path class="st0" d="M111.8,55.5c-2.2,0-4,1.8-4,4c0,2.2,1.8,4,4,4s4-1.8,4-4C115.8,57.3,114,55.5,111.8,55.5z M111.8,60.9
				c-0.8,0-1.5-0.7-1.5-1.5s0.7-1.5,1.5-1.5s1.5,0.7,1.5,1.5S112.6,60.9,111.8,60.9z"/>
		</g>
	</g>
</g>
<g>
	<path class="st0" d="M29.9,146.7l2.3-2.7c1.4,1.2,3.1,1.8,4.8,1.8c1.1,0,1.7-0.4,1.7-1v0c0-0.6-0.5-0.9-2.5-1.4
		c-3.1-0.7-5.5-1.6-5.5-4.6v0c0-2.7,2.2-4.7,5.7-4.7c2.5,0,4.5,0.7,6,2l-2,2.9c-1.3-0.9-2.8-1.4-4.1-1.4c-1,0-1.5,0.4-1.5,0.9v0
		c0,0.7,0.5,1,2.5,1.4c3.4,0.7,5.5,1.8,5.5,4.6v0c0,3-2.4,4.8-5.9,4.8C34.2,149.1,31.7,148.3,29.9,146.7z"/>
	<path class="st0" d="M46.3,141.6L46.3,141.6c0-4.3,3.4-7.7,7.9-7.7s7.9,3.4,7.9,7.6v0c0,4.2-3.4,7.6-7.9,7.6S46.3,145.8,46.3,141.6
		z M58,141.6L58,141.6c0-2.2-1.5-4-3.8-4c-2.2,0-3.7,1.8-3.7,3.9v0c0,2.1,1.5,4,3.8,4C56.5,145.5,58,143.7,58,141.6z"/>
	<path class="st0" d="M66.3,134.2h6.3c3.7,0,6.1,1.9,6.1,5.2v0c0,3.5-2.7,5.3-6.3,5.3h-2v4.2h-4.1V134.2z M72.3,141.5
		c1.4,0,2.3-0.8,2.3-1.9v0c0-1.3-0.9-1.9-2.4-1.9h-1.9v3.9H72.3z"/>
	<path class="st0" d="M82.1,141.6L82.1,141.6c0-4.3,3.4-7.7,7.9-7.7s7.9,3.4,7.9,7.6v0c0,4.2-3.4,7.6-7.9,7.6S82.1,145.8,82.1,141.6
		z M93.7,141.6L93.7,141.6c0-2.2-1.5-4-3.8-4c-2.2,0-3.7,1.8-3.7,3.9v0c0,2.1,1.5,4,3.8,4C92.3,145.5,93.7,143.7,93.7,141.6z"/>
	<path class="st0" d="M102.1,134.2h7c2.2,0,3.8,0.6,4.8,1.6c0.9,0.8,1.3,2,1.3,3.4v0c0,2.2-1.2,3.7-3,4.5l3.5,5.1h-4.7l-3-4.5h-1.8
		v4.5h-4.1V134.2z M108.9,141.2c1.4,0,2.2-0.7,2.2-1.7v0c0-1.2-0.8-1.7-2.2-1.7h-2.7v3.5H108.9z"/>
	<path class="st0" d="M122.9,137.8h-4.4v-3.6h12.9v3.6H127v11.1h-4.1V137.8z"/>
	<path class="st0" d="M135.3,134.2h11.8v3.5h-7.8v2.2h7.1v3.2h-7.1v2.3h7.9v3.5h-11.9V134.2z"/>
</g>
<desc>Created with Sketch.</desc>
</svg>
