<svg width="59" height="70" viewBox="0 0 59 70" fill="none" xmlns="http://www.w3.org/2000/svg">
<g filter="url(#filter0_d)">
<path d="M33.7552 19.7262C32.9752 19.7262 32.3429 19.0973 32.3429 18.3215C32.3429 17.5457 32.9752 16.9168 33.7552 16.9168C34.5352 16.9168 35.1675 17.5457 35.1675 18.3215C35.1675 19.0973 34.5352 19.7262 33.7552 19.7262Z" fill="white"/>
<path d="M25.245 19.7262C24.465 19.7262 23.8327 19.0973 23.8327 18.3215C23.8327 17.5457 24.465 16.9168 25.245 16.9168C26.0249 16.9168 26.6572 17.5457 26.6572 18.3215C26.6572 19.0973 26.0249 19.7262 25.245 19.7262Z" fill="white"/>
<path d="M4 55.9453L5.13225 45.5191C5.41227 43.6906 6.83671 42.2738 8.529 41.85L20.7159 39.4523C21.142 39.307 21.5682 39.4523 21.8482 39.7308L27.6555 44.5262C28.6417 45.3738 30.2 45.3738 31.3445 44.5262C31.3445 44.5262 31.4906 44.5261 31.4906 44.3808L34.4612 42.407C35.1673 41.9832 36.0196 42.1285 36.4457 42.8308C36.8718 43.5332 36.7257 44.3808 36.0196 44.8047L33.1829 46.7785C32.4767 47.3476 31.7706 47.6261 31.0523 47.9047V54.9523C31.0523 55.8 30.4801 56.357 29.64 56.357C28.8 56.357 28.2277 55.7879 28.2277 54.9523V47.9047C27.3755 47.7594 26.6694 47.3355 25.9632 46.7785L20.7159 42.407L9.23514 44.6594C8.66293 44.8047 8.24899 45.2285 8.10289 45.9308L6.82454 56.357C6.82454 56.5023 6.82454 56.5023 6.82454 56.6355C6.82454 58.0402 7.95679 59.1664 9.36906 59.1664H49.6188C51.031 59.1664 52.1633 58.0402 52.1633 56.6355C52.1633 56.4902 52.1633 56.357 52.1633 56.357L51.031 45.9308C51.031 45.3617 50.4588 44.8047 49.8988 44.6594L37.7119 42.2738C37.0057 42.1285 36.4335 41.4262 36.5796 40.5785C36.7257 39.8762 37.4318 39.307 38.2841 39.4523L50.471 41.85C52.1755 42.2738 53.5877 43.6785 53.8677 45.5191L55 55.9453C55 56.0906 55 56.3691 55 56.5144C55 59.6023 52.5894 62 49.6188 62H9.52733C6.5567 62 4.1461 59.6023 4.1461 56.6476C4 56.3691 4 56.2238 4 55.9453Z" fill="white"/>
<path d="M43.6656 23.9523C43.5195 25.357 42.9594 26.6285 42.1072 27.7547L36.8599 34.5238C35.7276 35.9285 34.1693 36.643 32.4648 36.643H26.6574C24.953 36.643 23.2607 35.7953 22.2624 34.5238L19.5718 31H16.735C14.3244 31 12.4861 29.1715 12.4861 26.7738V22.8262C11.6338 22.1238 11.0738 20.9977 11.0738 19.7262V16.9047C11.0738 14.507 12.9122 12.6785 15.3228 12.6785C15.3228 12.4 15.3228 12.2547 15.4689 12.1094C16.4672 5.21914 22.4206 0 29.4942 0C36.8721 0 42.8133 5.63086 43.5195 12.6785H43.6656C46.0762 12.6785 47.9146 14.507 47.9146 16.9047V19.7262C47.9146 22.1238 46.0762 23.9523 43.6656 23.9523ZM24.4051 32.6953C24.9773 33.3977 25.8174 33.8215 26.6696 33.8215H32.3309C33.1831 33.8215 34.0353 33.3977 34.5954 32.6953L39.8427 25.9262C40.4149 25.2238 40.6949 24.2309 40.6949 23.25V22.5477V15.5C34.8876 15.3547 29.5063 13.95 25.2574 11.5523C23.2729 12.957 20.7284 13.8047 18.0377 14.0832V22.5355V23.3832C18.0377 24.3641 18.3178 25.2117 18.89 26.0594L20.7284 28.1785H25.2574C25.5374 27.3309 26.3896 26.7738 27.2418 26.7738H31.4908C32.6231 26.7738 33.6214 27.7547 33.6214 28.893C33.6214 30.0313 32.6352 31.0121 31.4908 31.0121H22.8468L24.4051 32.6953ZM15.3349 26.7738C15.3349 27.6215 15.9072 28.1785 16.7472 28.1785H17.1733L16.8933 27.7547C16.0411 26.6285 15.481 25.357 15.481 23.9523V26.7738H15.3349ZM13.9105 16.9047V19.7262C13.9105 20.5738 14.4827 21.1309 15.3228 21.1309V15.5C14.4827 15.5 13.9105 16.0691 13.9105 16.9047ZM29.4942 2.82148C24.2469 2.82148 19.8639 6.34531 18.5856 11.1406C20.7162 10.8621 22.8346 10.0145 24.393 8.74297C24.8191 8.31914 25.5252 8.31914 25.9513 8.59766C29.9203 10.9953 35.1554 12.4 40.6828 12.6785C39.9888 7.04766 35.3137 2.82148 29.4942 2.82148ZM45.0778 16.9047C45.0778 16.057 44.5056 15.5 43.6656 15.5V21.1309C44.5178 21.1309 45.0778 20.5617 45.0778 19.7262V16.9047Z" fill="white"/>
</g>
<defs>
<filter id="filter0_d" x="0" y="0" width="59" height="70" filterUnits="userSpaceOnUse" color-interpolation-filters="sRGB">
<feFlood flood-opacity="0" result="BackgroundImageFix"/>
<feColorMatrix in="SourceAlpha" type="matrix" values="0 0 0 0 0 0 0 0 0 0 0 0 0 0 0 0 0 0 127 0" result="hardAlpha"/>
<feOffset dy="4"/>
<feGaussianBlur stdDeviation="2"/>
<feComposite in2="hardAlpha" operator="out"/>
<feColorMatrix type="matrix" values="0 0 0 0 0 0 0 0 0 0 0 0 0 0 0 0 0 0 0.25 0"/>
<feBlend mode="normal" in2="BackgroundImageFix" result="effect1_dropShadow"/>
<feBlend mode="normal" in="SourceGraphic" in2="effect1_dropShadow" result="shape"/>
</filter>
</defs>
</svg>
