<svg width="493" height="58" viewBox="0 0 493 58" fill="none" xmlns="http://www.w3.org/2000/svg">
<path d="M82.4764 18.6182C86.3979 18.6627 89.7883 20.1194 92.6412 22.9913C95.4973 25.8601 96.8998 29.3936 96.8521 33.595C96.8044 37.7964 95.3828 41.3585 92.5935 44.2814C89.8042 47.2042 86.3948 48.6418 82.3651 48.5973C78.3386 48.5495 74.9292 47.0547 72.1399 44.1033C69.3538 41.155 67.9799 37.6692 68.0276 33.6395C68.053 31.4418 68.476 29.3872 69.2934 27.4726C70.1108 25.5611 71.189 23.9645 72.5279 22.6796C73.8669 21.3947 75.4031 20.3929 77.1332 19.6709C78.8666 18.9489 80.6477 18.5959 82.4764 18.6182ZM75.0659 33.5187C75.0373 35.8786 75.7784 37.8028 77.2859 39.2912C78.7934 40.7797 80.4855 41.5334 82.3683 41.5557C84.248 41.578 85.9559 40.8846 87.4793 39.4693C89.0059 38.0572 89.7851 36.1457 89.8138 33.7318C89.8424 31.321 89.1013 29.3777 87.5938 27.902C86.0863 26.4262 84.3943 25.6788 82.5114 25.6566C80.6286 25.6343 78.9239 26.3499 77.3972 27.8034C75.8738 29.2568 75.0946 31.1619 75.0659 33.5187Z" fill="#FBFBFB"/>
<path d="M118.86 41.7397C119.894 41.7524 120.641 41.886 121.102 42.1436C121.564 42.4012 121.879 42.7701 122.044 43.2472C122.209 43.7243 122.289 44.3381 122.282 45.0792C122.273 45.8202 122.2 46.4181 122.063 46.8666C121.926 47.315 121.761 47.6585 121.576 47.8939C121.389 48.1292 121.109 48.301 120.737 48.3996C120.311 48.5554 119.633 48.6254 118.708 48.6127L102.172 48.4218C101.562 48.4155 100.983 48.2501 100.429 47.9257C99.2686 47.2514 98.6993 46.1955 98.7152 44.7643C98.7247 44.0741 98.8869 43.5207 99.2113 43.1009L111.733 26.1904L102.592 26.0822C101.956 26.0759 101.485 26.0504 101.18 26.0059C100.875 25.9645 100.512 25.8469 100.089 25.656C99.3258 25.2744 98.9537 24.2789 98.9696 22.66C98.9887 20.9649 99.3608 19.9344 100.08 19.5718C100.48 19.3651 100.83 19.2442 101.135 19.2061C101.441 19.1711 101.912 19.1552 102.548 19.1615L118.526 19.346C119.137 19.3524 119.716 19.5209 120.269 19.8421C120.823 20.1666 121.249 20.5959 121.548 21.1302C121.847 21.6646 121.99 22.2879 121.983 23.0004C121.974 23.716 121.809 24.2853 121.487 24.7051L108.963 41.6252L118.86 41.7397Z" fill="#FBFBFB"/>
<path d="M138.84 19.2703C142.762 19.3148 146.149 20.7715 149.005 23.6434C151.861 26.5122 153.264 30.0489 153.216 34.2471C153.168 38.4485 151.747 42.0106 148.958 44.9335C146.168 47.8563 142.759 49.2939 138.732 49.2462C134.703 49.1985 131.296 47.7036 128.507 44.7522C125.718 41.8039 124.347 38.3181 124.395 34.2884C124.42 32.0907 124.84 30.0362 125.657 28.1215C126.475 26.2101 127.553 24.6135 128.895 23.3285C130.234 22.0436 131.77 21.0418 133.5 20.3198C135.231 19.601 137.012 19.2512 138.84 19.2703ZM131.433 34.1739C131.405 36.5338 132.146 38.4548 133.653 39.9433C135.161 41.4318 136.853 42.1855 138.735 42.2078C140.615 42.2301 142.323 41.5367 143.85 40.1214C145.376 38.7061 146.156 36.7946 146.181 34.3839C146.21 31.9731 145.469 30.0298 143.961 28.5541C142.457 27.0815 140.761 26.3309 138.879 26.3086C136.996 26.2864 135.291 27.002 133.764 28.4555C132.238 29.9089 131.459 31.8172 131.433 34.1739Z" fill="#FBFBFB"/>
<path d="M174.776 21.2576C175.034 20.7964 175.415 20.4911 175.921 20.3384C176.427 20.1858 177.057 20.1126 177.813 20.1222C178.57 20.1317 179.178 20.2017 179.639 20.3416C180.1 20.4784 180.444 20.6437 180.666 20.8314C180.889 21.019 181.051 21.2989 181.153 21.671C181.309 22.0972 181.379 22.7715 181.369 23.7002L181.112 45.7631C181.105 46.3992 181.08 46.8635 181.035 47.1561C180.991 47.4487 180.86 47.789 180.644 48.1866C180.262 48.899 179.226 49.2425 177.53 49.2234C176.497 49.2139 175.781 49.1248 175.387 48.9594C174.989 48.7941 174.662 48.5396 174.401 48.193C168.533 40.1718 164.669 34.9336 162.814 32.4751L162.662 45.5532C162.655 46.1893 162.63 46.6536 162.585 46.943C162.544 47.2356 162.41 47.5759 162.194 47.9735C161.813 48.6859 160.776 49.0294 159.081 49.0103C157.436 48.9912 156.434 48.6191 156.072 47.9003C155.865 47.4996 155.744 47.1402 155.706 46.8222C155.671 46.5041 155.655 46.0398 155.662 45.4291L155.919 23.2486C155.929 22.2435 156.065 21.5088 156.323 21.0445C156.581 20.5833 156.959 20.2748 157.465 20.1222C157.971 19.9695 158.619 19.8995 159.414 19.9091C160.21 19.9186 160.836 19.9981 161.301 20.1508C161.762 20.3003 162.086 20.472 162.271 20.6565C162.375 20.736 162.674 21.0858 163.171 21.6997C168.673 29.3709 172.353 34.4343 174.207 36.8959L174.363 23.4616C174.385 22.4534 174.519 21.7187 174.776 21.2576Z" fill="#FBFBFB"/>
<path d="M50.5055 20.3295C50.7663 18.4434 51.3451 15.6128 48.8262 13.7554C46.3072 11.898 41.0849 13.6155 39.342 14.3947C39.3261 14.4011 39.3134 14.4106 39.3007 14.4202C35.6908 11.9744 31.0696 10.5336 25.3766 10.6767C19.6836 10.5336 15.0655 11.9744 11.4525 14.4202C11.4398 14.4138 11.4239 14.4011 11.4112 14.3947C9.66826 13.6155 4.44276 11.898 1.92701 13.7554C-0.591923 15.6128 -0.013078 18.4434 0.24772 20.3295C0.511699 22.2155 2.24187 25.5995 2.52811 26.9385C2.52811 26.9385 2.55356 26.9321 2.58854 26.9194C1.08418 31.8968 1.00785 37.3068 2.24187 42.0521C5.7054 55.3655 25.3798 57.1974 25.3798 57.1974C25.3798 57.1974 45.0541 55.3655 48.5145 42.0521C49.7485 37.3068 49.669 31.9 48.1678 26.9226C48.2028 26.9321 48.2282 26.9417 48.2282 26.9417C48.5145 25.6027 50.2447 22.2187 50.5055 20.3295Z" fill="black"/>
<path d="M39.5679 27.0082C38.954 24.3589 36.5528 22.616 34.2469 23.1471C32.8126 23.4779 31.7312 24.6197 31.2668 26.0795C30.2745 26.6997 28.7797 27.5807 28.1309 27.6729C28.0228 27.6888 27.956 27.7238 27.9146 27.7779C27.3326 27.0559 26.5343 26.4898 25.3766 26.4898C24.2189 26.4898 23.4206 27.0591 22.8386 27.7779C22.7973 27.727 22.7305 27.6888 22.6223 27.6729C21.8717 27.5648 20.0112 26.4198 19.0793 25.8219C18.5768 24.4893 17.5431 23.462 16.1819 23.1503C13.8602 22.6128 11.478 24.343 10.861 27.0114C10.244 29.6798 11.6243 32.2782 13.946 32.8157C15.4917 33.1719 17.0629 32.5231 18.122 31.2605C18.1283 31.2955 18.1347 31.3304 18.1442 31.3654C18.7867 34.1356 16.3982 36.8136 15.7684 39.0335C15.1387 41.2535 15.6126 42.1408 16.5349 43.2222C17.3937 44.2272 17.2187 44.8156 17.559 42.8215C17.7085 43.9569 17.9248 45.0764 18.0584 46.0242C18.3764 48.2982 19.1461 48.5972 20.0271 48.6322C20.2783 48.6417 20.4882 48.6385 20.6695 48.6195L23.3666 50.0602C24.6737 50.4769 26.0763 50.4832 27.3867 50.0761L30.16 48.6258C30.3223 48.6385 30.5035 48.6417 30.7198 48.6322C31.6008 48.5972 32.3705 48.2982 32.6885 46.0242C32.8221 45.0764 33.0384 43.9537 33.1879 42.8215C33.5282 44.8156 33.3532 44.2272 34.212 43.2222C35.1343 42.1408 35.6082 41.2535 34.9785 39.0335C34.3646 36.8645 32.0747 34.2565 32.574 31.5499C33.6236 32.6154 35.0707 33.1433 36.4796 32.8157C38.7855 32.2782 40.1785 29.6607 39.5679 27.0082Z" fill="white"/>
<path d="M47.9314 20.2845C48.6678 18.3451 48.2198 16.376 46.9306 15.8865C45.6415 15.397 43.9995 16.5724 43.2631 18.5118C42.5267 20.4512 42.9747 22.4203 44.2638 22.9098C45.5529 23.3993 47.1949 22.2239 47.9314 20.2845Z" fill="white"/>
<path d="M6.84182 22.9123C8.13093 22.4228 8.57896 20.4538 7.84252 18.5144C7.10609 16.575 5.46406 15.3996 4.17496 15.8891C2.88585 16.3786 2.43782 18.3476 3.17425 20.287C3.91069 22.2264 5.55271 23.4018 6.84182 22.9123Z" fill="white"/>
<path d="M17.6617 28.3539C17.9569 27.7182 17.4433 26.8532 16.5144 26.4219C15.5856 25.9906 14.5934 26.1562 14.2982 26.7919C14.003 27.4276 14.5166 28.2925 15.4454 28.7239C16.3743 29.1552 17.3665 28.9896 17.6617 28.3539Z" fill="black"/>
<path d="M15.844 26.9415C15.5641 27.0878 15.3701 27.3804 15.3701 27.7175C15.3701 28.2009 15.7613 28.5921 16.2447 28.5921C16.7282 28.5921 17.1194 28.2009 17.1194 27.7175C17.1194 27.5012 17.0399 27.3009 16.9063 27.1482C16.5119 26.9701 16.1271 26.9256 15.844 26.9415Z" fill="white"/>
<path d="M16.7536 27.6728C16.7536 27.9177 16.5564 28.1181 16.3083 28.1181C16.0634 28.1181 15.8662 27.9209 15.8662 27.6728C15.8662 27.4279 16.0634 27.2275 16.3083 27.2275C16.5532 27.2307 16.7536 27.4279 16.7536 27.6728Z" fill="black"/>
<path d="M16.1722 27.3073C16.1722 27.4154 16.0863 27.5013 15.9782 27.5013C15.8701 27.5013 15.7842 27.4154 15.7842 27.3073C15.7842 27.1992 15.8701 27.1133 15.9782 27.1133C16.0863 27.1133 16.1722 27.1992 16.1722 27.3073Z" fill="white"/>
<path d="M35.7957 28.727C36.7245 28.2957 37.2382 27.4307 36.943 26.795C36.6478 26.1594 35.6555 25.9937 34.7267 26.4251C33.7979 26.8564 33.2842 27.7214 33.5794 28.357C33.8746 28.9927 34.8669 29.1584 35.7957 28.727Z" fill="black"/>
<path d="M35.3974 26.9415C35.6773 27.0878 35.8713 27.3804 35.8713 27.7175C35.8713 28.2009 35.4801 28.5921 34.9967 28.5921C34.5133 28.5921 34.1221 28.2009 34.1221 27.7175C34.1221 27.5012 34.2016 27.3009 34.3352 27.1482C34.7295 26.9701 35.1144 26.9256 35.3974 26.9415Z" fill="white"/>
<path d="M34.4883 27.6728C34.4883 27.9177 34.6855 28.1181 34.9335 28.1181C35.1784 28.1181 35.3756 27.9209 35.3756 27.6728C35.3756 27.4279 35.1784 27.2275 34.9335 27.2275C34.6886 27.2307 34.4883 27.4279 34.4883 27.6728Z" fill="black"/>
<path d="M35.0703 27.3073C35.0703 27.4154 35.1562 27.5013 35.2643 27.5013C35.3725 27.5013 35.4583 27.4154 35.4583 27.3073C35.4583 27.1992 35.3725 27.1133 35.2643 27.1133C35.1594 27.1133 35.0703 27.1992 35.0703 27.3073Z" fill="white"/>
<path d="M31.0123 42.3289C31.1236 41.7469 30.5129 37.6409 28.9863 37.6409C27.9209 37.6409 26.3465 38.3852 25.4592 38.5092C25.4019 38.5187 25.351 38.5187 25.2938 38.5092C24.381 38.3661 22.3868 37.3038 21.3786 37.6409C20.1287 38.0576 19.6294 41.7469 19.7407 42.3289C19.7439 42.3385 19.7471 42.348 19.7471 42.3607C19.7407 42.4339 19.7312 42.507 19.7312 42.5802C19.7312 44.657 22.2596 46.3427 25.3765 46.3427C28.4933 46.3427 31.0218 44.657 31.0218 42.5802C31.0218 42.5102 31.0123 42.4403 31.0059 42.3703C31.0059 42.3544 31.0091 42.3417 31.0123 42.3289Z" fill="black"/>
<path d="M210.667 12V57.3333" stroke="#565656"/>
<path d="M420.403 42.0679C419.942 44.6499 419.323 46.6282 415.934 46.6231C414.671 46.6231 413.824 46.3391 413.337 45.7659C412.672 44.9847 412.728 43.7469 413.043 42.007L414.833 31.9681L410.978 32.7797L409.274 42.3621C408.837 44.8173 409.142 46.6739 410.166 47.8863C411.181 49.0783 412.916 49.682 415.33 49.682C420.251 49.682 423.188 47.2014 424.056 42.3063L425.902 31.963L422.052 32.7746L420.403 42.0679ZM400.041 31.9833C395.09 31.9833 390.347 35.9755 389.475 40.8961C389.049 43.2954 389.597 45.5325 391.017 47.2065C392.402 48.8501 394.466 49.7479 396.825 49.7479C398.656 49.7479 400.523 49.2001 402.218 48.1703L402.527 47.9826L402.461 48.3327L402.238 49.6871H405.845L406.448 46.1767L407.397 40.8352C407.823 38.4459 407.275 36.1987 405.85 34.5298C404.465 32.8913 402.41 31.9833 400.041 31.9833ZM403.978 40.9011C403.445 43.9194 400.533 46.3644 397.49 46.3644C396.014 46.3644 394.73 45.8014 393.863 44.7767C392.98 43.7266 392.635 42.3316 392.894 40.8352C393.432 37.822 396.348 35.3769 399.392 35.3769C400.863 35.3769 402.152 35.9349 403.019 36.9698C403.907 38.0148 404.247 39.4097 403.978 40.9011ZM447.476 31.6891C445.062 31.6891 442.931 32.5312 441.13 34.195C439.329 35.8436 438.178 38.0198 437.711 40.6373C437.402 42.3874 437.478 43.9549 437.945 45.2839C438.432 46.613 439.198 47.6732 440.238 48.4645C441.288 49.2457 442.784 49.6516 444.691 49.6516C446.264 49.6516 447.451 49.5095 448.43 49.1899C450.337 48.5914 451.661 47.8203 451.95 47.6428L452.554 44.1477C452.498 44.1781 452.442 44.2136 452.432 44.2238C450.302 45.5985 448.09 46.2883 445.868 46.2883C444.28 46.2883 443.048 45.8064 442.191 44.8426C441.404 43.9448 441.08 42.7172 441.217 41.2309L441.227 41.0837H453.421L453.503 40.546C453.979 37.8626 453.665 35.6864 452.584 34.0935C451.499 32.5007 449.779 31.6891 447.476 31.6891ZM450.251 38.7351L450.241 38.8822H441.704L441.79 38.6691C442.256 37.4872 442.906 36.5437 443.712 35.8893C444.605 35.1842 445.67 34.824 446.862 34.824C448.085 34.8291 448.973 35.1893 449.561 35.9096C450.104 36.5792 450.337 37.5278 450.251 38.7351ZM490.381 31.1057H490.371C489.463 31.1057 488.733 31.8007 488.733 32.6732C488.733 33.5609 489.463 34.2508 490.371 34.2508C491.294 34.2508 492.005 33.5609 492.005 32.6732C492.005 31.8058 491.294 31.1057 490.381 31.1057ZM490.381 33.9261C489.666 33.9261 489.138 33.3732 489.138 32.6732C489.138 31.9833 489.661 31.4202 490.361 31.4202H490.371C491.081 31.4202 491.594 31.9833 491.594 32.6732C491.594 33.3732 491.081 33.9414 490.381 33.9261ZM437.6 32.029H432.121L432.147 31.8413L432.882 28.0469L429.138 28.8534L426.597 42.8237C426.323 44.3861 426.206 45.4564 426.242 46.0144C426.298 46.5724 426.399 47.034 426.551 47.3739C426.709 47.7189 426.922 48.0181 427.201 48.3022C428.088 49.2254 429.341 49.6769 430.919 49.6769C432.309 49.6769 433.678 49.3878 434.992 48.8044L435.555 48.5203L435.789 47.1761L435.956 46.2275L436.144 45.1876L435.591 45.4615C434.267 46.126 433.039 46.4608 431.954 46.4608C431.239 46.4608 430.706 46.263 430.381 45.8775C429.975 45.3956 429.864 44.6397 430.062 43.5744L431.512 35.3972L431.533 35.2704H437.021L437.153 34.4791L437.351 33.4037L437.6 32.029ZM490.741 32.7239V32.7036C490.934 32.6428 491.071 32.5109 491.071 32.3282C491.071 32.1862 491.005 32.0594 490.919 31.9934C490.802 31.9174 490.67 31.8717 490.361 31.8717C490.102 31.8717 489.899 31.9021 489.752 31.9275V33.4848H490.123V32.8609H490.295C490.503 32.8609 490.594 32.942 490.625 33.1094C490.675 33.2921 490.701 33.429 490.752 33.4848H491.147C491.112 33.4392 491.081 33.3428 491.031 33.1044C490.985 32.8964 490.899 32.7746 490.741 32.7239ZM490.305 32.6072H490.133V32.1608C490.173 32.1507 490.239 32.1406 490.336 32.1406C490.569 32.1406 490.675 32.2369 490.675 32.379C490.675 32.5413 490.508 32.6072 490.305 32.6072ZM467.858 31.9579C467.179 31.7804 466.387 31.6992 465.495 31.6992C462.918 31.6992 460.655 32.5464 458.773 34.2204C456.891 35.8893 455.694 38.1111 455.212 40.8301C454.725 43.5136 455.161 45.6898 456.49 47.2826C457.825 48.8754 459.884 49.682 462.603 49.682C464.221 49.682 465.966 49.3726 467.782 48.7537L467.94 48.703L468.051 48.0384L468.472 45.7354L468.574 45.1521L468.208 45.2941C466.494 45.984 464.992 46.334 463.75 46.3289C461.959 46.3289 460.599 45.8115 459.712 44.797C458.844 43.7774 458.56 42.3874 458.865 40.6576C459.154 39.0344 459.884 37.6749 461.036 36.6299C462.182 35.5697 463.542 35.0421 465.048 35.0421C466.403 35.0421 467.818 35.5291 469.269 36.4929C469.365 36.5487 469.451 36.6198 469.537 36.6806L469.664 36.7719L469.811 35.9096L470.222 33.6624L470.364 32.8964L469.938 32.7138C469.157 32.3587 468.457 32.1 467.858 31.9579ZM481.357 31.9934C476.396 31.9934 471.658 35.9857 470.785 40.9062C470.354 43.3056 470.907 45.5376 472.327 47.2167C473.717 48.8551 475.777 49.7581 478.131 49.7581C483.092 49.7581 487.825 45.7659 488.697 40.8453C489.128 38.4561 488.58 36.2089 487.16 34.5399C485.77 32.9015 483.711 31.9934 481.357 31.9934ZM485.283 40.9062C484.745 43.9245 481.839 46.3695 478.79 46.3695C477.329 46.3695 476.036 45.8064 475.168 44.7818C474.28 43.7317 473.941 42.3367 474.204 40.8453C474.742 37.8321 477.639 35.3871 480.687 35.3871C482.158 35.3871 483.447 35.9451 484.319 36.9799C485.207 38.0249 485.552 39.4148 485.283 40.9062Z" fill="#FBFBFB"/>
<path d="M455.086 22.9795C461.569 22.9288 466.626 20.1388 466.601 16.8111C466.576 13.4885 461.483 10.7898 454.995 10.8456C448.578 10.8963 443.535 13.6812 443.556 16.9988C443.586 20.3315 448.674 23.0302 455.086 22.9795Z" fill="#FBFBFB"/>
<path d="M438.046 17.374H438.056C438.036 17.2168 438.031 17.0443 438.031 16.8769C438.031 12.1238 444.94 8.15692 453.888 7.8627L439.142 0L392.519 24.8614H446.467C446.467 24.8614 438.472 22.2591 438.046 17.374ZM472.003 17.5161C471.582 20.6814 468.132 23.4156 463.085 24.8563H485.75L472.003 17.5161Z" fill="#FBFBFB"/>
<path d="M240.792 33.4917C240.726 34.4097 240.386 35.1323 239.772 35.6597C239.163 36.187 238.358 36.4507 237.358 36.4507C236.265 36.4507 235.403 36.0835 234.774 35.3491C234.149 34.6108 233.837 33.5991 233.837 32.314V31.7925C233.837 30.9722 233.981 30.2495 234.271 29.6245C234.56 28.9995 234.972 28.521 235.507 28.189C236.046 27.853 236.671 27.6851 237.382 27.6851C238.366 27.6851 239.159 27.9487 239.761 28.4761C240.362 29.0034 240.71 29.7437 240.804 30.6968H239.046C239.003 30.146 238.849 29.7476 238.583 29.5015C238.321 29.2515 237.921 29.1265 237.382 29.1265C236.796 29.1265 236.356 29.3374 236.063 29.7593C235.774 30.1772 235.626 30.8276 235.618 31.7104V32.355C235.618 33.2769 235.757 33.9507 236.034 34.3765C236.315 34.8022 236.757 35.0151 237.358 35.0151C237.901 35.0151 238.306 34.8921 238.571 34.646C238.841 34.396 238.995 34.0112 239.034 33.4917H240.792ZM241.571 33.105C241.571 32.4761 241.692 31.9155 241.935 31.4233C242.177 30.9312 242.524 30.5503 242.978 30.2808C243.435 30.0112 243.964 29.8765 244.565 29.8765C245.421 29.8765 246.118 30.1382 246.657 30.6616C247.2 31.1851 247.503 31.896 247.565 32.7944L247.577 33.228C247.577 34.2007 247.306 34.9819 246.763 35.5718C246.22 36.1577 245.491 36.4507 244.577 36.4507C243.663 36.4507 242.933 36.1577 242.386 35.5718C241.843 34.9858 241.571 34.189 241.571 33.1812V33.105ZM243.265 33.228C243.265 33.8296 243.378 34.2905 243.604 34.6108C243.831 34.9272 244.155 35.0854 244.577 35.0854C244.987 35.0854 245.308 34.9292 245.538 34.6167C245.769 34.3003 245.884 33.7964 245.884 33.105C245.884 32.5151 245.769 32.0581 245.538 31.7339C245.308 31.4097 244.983 31.2476 244.565 31.2476C244.151 31.2476 243.831 31.4097 243.604 31.7339C243.378 32.0542 243.265 32.5522 243.265 33.228ZM250.179 29.9937L250.231 30.7261C250.685 30.1597 251.292 29.8765 252.054 29.8765C252.726 29.8765 253.226 30.0737 253.554 30.4683C253.882 30.8628 254.05 31.4526 254.058 32.2378V36.3335H252.364V32.2788C252.364 31.9194 252.286 31.6597 252.13 31.4995C251.974 31.3354 251.714 31.2534 251.351 31.2534C250.874 31.2534 250.517 31.4565 250.278 31.8628V36.3335H248.585V29.9937H250.179ZM261.253 36.4507C260.323 36.4507 259.565 36.1655 258.979 35.5952C258.397 35.0249 258.106 34.2651 258.106 33.3159V33.1519C258.106 32.5151 258.229 31.9468 258.476 31.4468C258.722 30.9429 259.069 30.5562 259.519 30.2866C259.972 30.0132 260.487 29.8765 261.065 29.8765C261.933 29.8765 262.614 30.1499 263.11 30.6968C263.61 31.2437 263.86 32.019 263.86 33.0229V33.7144H259.823C259.878 34.1284 260.042 34.4604 260.315 34.7104C260.593 34.9604 260.942 35.0854 261.364 35.0854C262.017 35.0854 262.526 34.8491 262.894 34.3765L263.726 35.3081C263.472 35.6675 263.128 35.9487 262.694 36.1519C262.261 36.3511 261.78 36.4507 261.253 36.4507ZM261.06 31.2476C260.724 31.2476 260.45 31.3608 260.239 31.5874C260.032 31.814 259.899 32.1382 259.841 32.5601H262.196V32.4253C262.188 32.0503 262.087 31.7612 261.892 31.5581C261.696 31.3511 261.419 31.2476 261.06 31.2476ZM266.614 36.3335H264.915V27.3335H266.614V36.3335ZM274.565 31.5815C274.335 31.5503 274.132 31.5347 273.956 31.5347C273.315 31.5347 272.896 31.7515 272.696 32.1851V36.3335H271.003V29.9937H272.603L272.649 30.7495C272.989 30.1675 273.46 29.8765 274.062 29.8765C274.249 29.8765 274.425 29.9019 274.589 29.9526L274.565 31.5815ZM278.187 36.4507C277.257 36.4507 276.499 36.1655 275.913 35.5952C275.331 35.0249 275.04 34.2651 275.04 33.3159V33.1519C275.04 32.5151 275.163 31.9468 275.409 31.4468C275.655 30.9429 276.003 30.5562 276.452 30.2866C276.905 30.0132 277.421 29.8765 277.999 29.8765C278.866 29.8765 279.548 30.1499 280.044 30.6968C280.544 31.2437 280.794 32.019 280.794 33.0229V33.7144H276.757C276.812 34.1284 276.976 34.4604 277.249 34.7104C277.526 34.9604 277.876 35.0854 278.298 35.0854C278.95 35.0854 279.46 34.8491 279.827 34.3765L280.659 35.3081C280.405 35.6675 280.062 35.9487 279.628 36.1519C279.194 36.3511 278.714 36.4507 278.187 36.4507ZM277.993 31.2476C277.657 31.2476 277.384 31.3608 277.173 31.5874C276.966 31.814 276.833 32.1382 276.774 32.5601H279.13V32.4253C279.122 32.0503 279.021 31.7612 278.825 31.5581C278.63 31.3511 278.353 31.2476 277.993 31.2476ZM285.194 34.5815C285.194 34.3745 285.091 34.2124 284.884 34.0952C284.681 33.9741 284.353 33.8667 283.899 33.7729C282.392 33.4565 281.638 32.8159 281.638 31.8511C281.638 31.2886 281.87 30.8198 282.335 30.4448C282.804 30.0659 283.415 29.8765 284.169 29.8765C284.974 29.8765 285.616 30.0659 286.097 30.4448C286.581 30.8237 286.823 31.3159 286.823 31.9214H285.13C285.13 31.6792 285.052 31.48 284.896 31.3237C284.739 31.1636 284.495 31.0835 284.163 31.0835C283.878 31.0835 283.657 31.1479 283.501 31.2769C283.345 31.4058 283.267 31.5698 283.267 31.769C283.267 31.9565 283.354 32.1089 283.53 32.2261C283.71 32.3394 284.011 32.439 284.433 32.5249C284.854 32.6069 285.21 32.7007 285.499 32.8062C286.394 33.1343 286.841 33.7026 286.841 34.5112C286.841 35.0894 286.593 35.5581 286.097 35.9175C285.601 36.2729 284.96 36.4507 284.175 36.4507C283.644 36.4507 283.171 36.3569 282.757 36.1694C282.347 35.978 282.024 35.7183 281.79 35.3901C281.556 35.0581 281.438 34.7007 281.438 34.3179H283.044C283.06 34.6187 283.171 34.8491 283.378 35.0093C283.585 35.1694 283.862 35.2495 284.21 35.2495C284.534 35.2495 284.778 35.189 284.942 35.0679C285.11 34.9429 285.194 34.7808 285.194 34.5815ZM293.644 33.2222C293.644 34.1987 293.421 34.9819 292.976 35.5718C292.534 36.1577 291.937 36.4507 291.183 36.4507C290.542 36.4507 290.024 36.228 289.63 35.7827V38.771H287.937V29.9937H289.507L289.565 30.6147C289.976 30.1226 290.511 29.8765 291.171 29.8765C291.952 29.8765 292.56 30.1655 292.993 30.7437C293.427 31.3218 293.644 32.1187 293.644 33.1343V33.2222ZM291.95 33.0991C291.95 32.5093 291.845 32.0542 291.634 31.7339C291.427 31.4136 291.124 31.2534 290.726 31.2534C290.194 31.2534 289.829 31.4565 289.63 31.8628V34.4585C289.837 34.8765 290.206 35.0854 290.737 35.0854C291.546 35.0854 291.95 34.4233 291.95 33.0991ZM298.372 36.3335C298.294 36.1812 298.237 35.9917 298.202 35.7651C297.792 36.2222 297.259 36.4507 296.603 36.4507C295.981 36.4507 295.466 36.271 295.056 35.9116C294.649 35.5522 294.446 35.0991 294.446 34.5522C294.446 33.8804 294.694 33.3647 295.19 33.0054C295.69 32.646 296.411 32.4644 297.353 32.4604H298.132V32.0972C298.132 31.8042 298.056 31.5698 297.903 31.394C297.755 31.2183 297.519 31.1304 297.194 31.1304C296.909 31.1304 296.685 31.1987 296.521 31.3354C296.36 31.4722 296.28 31.6597 296.28 31.8979H294.587C294.587 31.5308 294.7 31.1909 294.927 30.8784C295.153 30.5659 295.474 30.3218 295.888 30.146C296.302 29.9663 296.767 29.8765 297.282 29.8765C298.063 29.8765 298.683 30.0737 299.14 30.4683C299.601 30.8589 299.831 31.4097 299.831 32.1206V34.8687C299.835 35.4702 299.919 35.9253 300.083 36.2339V36.3335H298.372ZM296.972 35.1558C297.222 35.1558 297.452 35.1011 297.663 34.9917C297.874 34.8784 298.03 34.728 298.132 34.5405V33.4507H297.499C296.651 33.4507 296.2 33.7437 296.146 34.3296L296.14 34.4292C296.14 34.6401 296.214 34.814 296.362 34.9507C296.511 35.0874 296.714 35.1558 296.972 35.1558ZM302.919 36.3335H301.22V27.3335H302.919V36.3335ZM304.056 33.1167C304.056 32.1284 304.276 31.3413 304.718 30.7554C305.163 30.1694 305.771 29.8765 306.54 29.8765C307.157 29.8765 307.667 30.1069 308.069 30.5679V27.3335H309.769V36.3335H308.239L308.157 35.6597C307.735 36.187 307.192 36.4507 306.528 36.4507C305.782 36.4507 305.183 36.1577 304.729 35.5718C304.28 34.9819 304.056 34.1636 304.056 33.1167ZM305.749 33.2397C305.749 33.8335 305.853 34.2886 306.06 34.605C306.267 34.9214 306.567 35.0796 306.962 35.0796C307.485 35.0796 307.854 34.8589 308.069 34.4175V31.9155C307.858 31.4741 307.493 31.2534 306.974 31.2534C306.157 31.2534 305.749 31.9155 305.749 33.2397ZM310.817 33.105C310.817 32.4761 310.938 31.9155 311.181 31.4233C311.423 30.9312 311.771 30.5503 312.224 30.2808C312.681 30.0112 313.21 29.8765 313.812 29.8765C314.667 29.8765 315.364 30.1382 315.903 30.6616C316.446 31.1851 316.749 31.896 316.812 32.7944L316.823 33.228C316.823 34.2007 316.552 34.9819 316.009 35.5718C315.466 36.1577 314.737 36.4507 313.823 36.4507C312.909 36.4507 312.179 36.1577 311.632 35.5718C311.089 34.9858 310.817 34.189 310.817 33.1812V33.105ZM312.511 33.228C312.511 33.8296 312.624 34.2905 312.851 34.6108C313.077 34.9272 313.401 35.0854 313.823 35.0854C314.233 35.0854 314.554 34.9292 314.784 34.6167C315.015 34.3003 315.13 33.7964 315.13 33.105C315.13 32.5151 315.015 32.0581 314.784 31.7339C314.554 31.4097 314.229 31.2476 313.812 31.2476C313.397 31.2476 313.077 31.4097 312.851 31.7339C312.624 32.0542 312.511 32.5522 312.511 33.228ZM320.591 33.1167C320.591 32.1284 320.812 31.3413 321.253 30.7554C321.698 30.1694 322.306 29.8765 323.075 29.8765C323.692 29.8765 324.202 30.1069 324.604 30.5679V27.3335H326.304V36.3335H324.774L324.692 35.6597C324.271 36.187 323.728 36.4507 323.063 36.4507C322.317 36.4507 321.718 36.1577 321.265 35.5718C320.815 34.9819 320.591 34.1636 320.591 33.1167ZM322.284 33.2397C322.284 33.8335 322.388 34.2886 322.595 34.605C322.802 34.9214 323.103 35.0796 323.497 35.0796C324.021 35.0796 324.39 34.8589 324.604 34.4175V31.9155C324.394 31.4741 324.028 31.2534 323.509 31.2534C322.692 31.2534 322.284 31.9155 322.284 33.2397ZM330.534 36.4507C329.604 36.4507 328.847 36.1655 328.261 35.5952C327.679 35.0249 327.388 34.2651 327.388 33.3159V33.1519C327.388 32.5151 327.511 31.9468 327.757 31.4468C328.003 30.9429 328.351 30.5562 328.8 30.2866C329.253 30.0132 329.769 29.8765 330.347 29.8765C331.214 29.8765 331.896 30.1499 332.392 30.6968C332.892 31.2437 333.142 32.019 333.142 33.0229V33.7144H329.104C329.159 34.1284 329.323 34.4604 329.597 34.7104C329.874 34.9604 330.224 35.0854 330.646 35.0854C331.298 35.0854 331.808 34.8491 332.175 34.3765L333.007 35.3081C332.753 35.6675 332.409 35.9487 331.976 36.1519C331.542 36.3511 331.062 36.4507 330.534 36.4507ZM330.341 31.2476C330.005 31.2476 329.731 31.3608 329.521 31.5874C329.313 31.814 329.181 32.1382 329.122 32.5601H331.478V32.4253C331.47 32.0503 331.368 31.7612 331.173 31.5581C330.978 31.3511 330.7 31.2476 330.341 31.2476Z" fill="#FBFBFB"/>
</svg>
