<svg width="370" height="52" viewBox="0 0 370 52" fill="none" xmlns="http://www.w3.org/2000/svg">
<path d="M61.8567 13.9636C64.7979 13.997 67.3406 15.0895 69.4803 17.2435C71.6223 19.3951 72.6743 22.0452 72.6385 25.1962C72.6027 28.3473 71.5365 31.0189 69.4445 33.211C67.3526 35.4032 64.7955 36.4813 61.7732 36.4479C58.7534 36.4122 56.1963 35.291 54.1043 33.0774C52.0148 30.8662 50.9843 28.2519 51.0201 25.2296C51.0391 23.5814 51.3564 22.0404 51.9694 20.6044C52.5825 19.1709 53.3911 17.9734 54.3953 17.0097C55.3996 16.046 56.5517 15.2947 57.8493 14.7532C59.1493 14.2117 60.4851 13.9469 61.8567 13.9636ZM56.2988 25.139C56.2774 26.9089 56.8332 28.3521 57.9638 29.4684C59.0945 30.5848 60.3635 31.1501 61.7756 31.1668C63.1854 31.1835 64.4663 30.6635 65.6089 29.602C66.7538 28.5429 67.3383 27.1093 67.3597 25.2988C67.3812 23.4907 66.8254 22.0333 65.6947 20.9265C64.5641 19.8197 63.2951 19.2591 61.8829 19.2424C60.4708 19.2257 59.1923 19.7624 58.0473 20.8525C56.9047 21.9426 56.3203 23.3715 56.2988 25.139Z" fill="#286EE8"/>
<path d="M89.1451 31.3052C89.9203 31.3148 90.4809 31.415 90.8267 31.6082C91.1726 31.8014 91.4088 32.0781 91.5328 32.4359C91.6568 32.7937 91.7165 33.2541 91.7117 33.8099C91.7045 34.3656 91.6497 34.8141 91.5471 35.1504C91.4445 35.4868 91.3205 35.7444 91.1822 35.9209C91.0414 36.0974 90.8315 36.2262 90.5524 36.3002C90.2328 36.417 89.7247 36.4695 89.0306 36.46L76.6291 36.3169C76.1711 36.3121 75.737 36.188 75.322 35.9447C74.4513 35.4391 74.0243 34.6471 74.0363 33.5737C74.0434 33.0561 74.1651 32.641 74.4084 32.3262L83.7995 19.6433L76.944 19.5622C76.4669 19.5574 76.1139 19.5383 75.8849 19.5049C75.6559 19.4739 75.384 19.3856 75.0667 19.2425C74.4942 18.9563 74.2152 18.2097 74.2271 16.9955C74.2414 15.7241 74.5205 14.9513 75.0596 14.6793C75.3601 14.5243 75.6225 14.4337 75.8515 14.405C76.0805 14.3788 76.4335 14.3669 76.9106 14.3716L88.8946 14.51C89.3526 14.5148 89.7867 14.6412 90.2018 14.8821C90.6168 15.1254 90.9365 15.4474 91.1607 15.8482C91.3849 16.2489 91.4922 16.7164 91.4875 17.2508C91.4803 17.7875 91.3563 18.2144 91.1154 18.5293L81.7219 31.2194L89.1451 31.3052Z" fill="#286EE8"/>
<path d="M104.13 14.4527C107.071 14.4861 109.611 15.5786 111.753 17.7326C113.896 19.8841 114.947 22.5367 114.912 25.6853C114.876 28.8364 113.81 31.508 111.718 33.7001C109.626 35.8922 107.069 36.9704 104.049 36.9346C101.027 36.8988 98.4718 35.7777 96.3799 33.5641C94.2879 31.3529 93.2599 28.7386 93.2956 25.7163C93.3147 24.068 93.6296 22.5271 94.2426 21.0911C94.8557 19.6575 95.6643 18.4601 96.6709 17.4964C97.6751 16.5327 98.8273 15.7813 100.125 15.2399C101.423 14.7008 102.758 14.4384 104.13 14.4527ZM98.5744 25.6305C98.553 27.4004 99.1087 28.8411 100.239 29.9575C101.37 31.0738 102.639 31.6392 104.051 31.6558C105.461 31.6725 106.742 31.1525 107.887 30.0911C109.032 29.0296 109.616 27.596 109.635 25.7879C109.657 23.9798 109.101 22.5223 107.97 21.4155C106.842 20.3111 105.571 19.7482 104.159 19.7315C102.746 19.7148 101.468 20.2515 100.323 21.3416C99.1779 22.4317 98.5935 23.8629 98.5744 25.6305Z" fill="#286EE8"/>
<path d="M131.082 15.9437C131.275 15.5978 131.561 15.3688 131.941 15.2543C132.32 15.1398 132.792 15.0849 133.36 15.0921C133.928 15.0993 134.383 15.1517 134.729 15.2567C135.075 15.3593 135.333 15.4833 135.5 15.624C135.667 15.7648 135.788 15.9747 135.865 16.2538C135.981 16.5734 136.034 17.0791 136.027 17.7756L135.834 34.3228C135.829 34.7999 135.81 35.1481 135.776 35.3676C135.743 35.587 135.645 35.8423 135.483 36.1404C135.197 36.6748 134.419 36.9324 133.148 36.9181C132.372 36.9109 131.836 36.8441 131.54 36.7201C131.242 36.596 130.996 36.4052 130.8 36.1452C126.399 30.1293 123.501 26.2007 122.111 24.3568L121.996 34.1654C121.991 34.6424 121.972 34.9907 121.939 35.2078C121.908 35.4272 121.808 35.6824 121.645 35.9806C121.359 36.5149 120.582 36.7725 119.31 36.7582C118.077 36.7439 117.326 36.4648 117.054 35.9258C116.899 35.6252 116.808 35.3557 116.779 35.1171C116.753 34.8786 116.741 34.5303 116.746 34.0723L116.939 17.4369C116.946 16.6831 117.049 16.1321 117.242 15.7839C117.435 15.438 117.719 15.2066 118.098 15.0921C118.478 14.9776 118.964 14.9251 119.561 14.9323C120.157 14.9394 120.627 14.9991 120.975 15.1136C121.321 15.2257 121.564 15.3545 121.703 15.4928C121.781 15.5525 122.006 15.8149 122.378 16.2752C126.504 22.0287 129.264 25.8262 130.655 27.6724L130.772 17.5967C130.789 16.8406 130.889 16.2895 131.082 15.9437Z" fill="#286EE8"/>
<path d="M37.8791 15.2469C38.0747 13.8323 38.5088 11.7094 36.6196 10.3163C34.7304 8.92329 30.8137 10.2114 29.5065 10.7958C29.4946 10.8006 29.485 10.8077 29.4755 10.8149C26.7681 8.98054 23.3022 7.89997 19.0324 8.00732C14.7627 7.89997 11.2991 8.98054 8.58938 10.8149C8.57984 10.8101 8.56791 10.8006 8.55837 10.7958C7.2512 10.2114 3.33207 8.92329 1.44526 10.3163C-0.443942 11.7094 -0.00980847 13.8323 0.18579 15.2469C0.383774 16.6614 1.6814 19.1994 1.89609 20.2036C1.89609 20.2036 1.91517 20.1988 1.94141 20.1893C0.813137 23.9224 0.755889 27.9799 1.6814 31.5388C4.27905 41.5239 19.0348 42.8978 19.0348 42.8978C19.0348 42.8978 33.7906 41.5239 36.3859 31.5388C37.3114 27.9799 37.2517 23.9248 36.1259 20.1917C36.1521 20.1988 36.1712 20.206 36.1712 20.206C36.3859 19.2018 37.6835 16.6638 37.8791 15.2469Z" fill="black"/>
<path d="M29.6759 20.2564C29.2155 18.2694 27.4146 16.9622 25.6852 17.3606C24.6094 17.6086 23.7984 18.465 23.4501 19.5599C22.7059 20.025 21.5848 20.6857 21.0982 20.7549C21.0171 20.7668 20.967 20.7931 20.936 20.8336C20.4995 20.2922 19.9007 19.8676 19.0325 19.8676C18.1642 19.8676 17.5655 20.2946 17.129 20.8336C17.0979 20.7955 17.0479 20.7668 16.9668 20.7549C16.4038 20.6738 15.0084 19.8151 14.3095 19.3666C13.9326 18.3672 13.1574 17.5967 12.1364 17.363C10.3951 16.9598 8.60849 18.2575 8.14573 20.2588C7.68297 22.2601 8.71821 24.2089 10.4595 24.612C11.6188 24.8792 12.7972 24.3926 13.5915 23.4456C13.5963 23.4718 13.601 23.4981 13.6082 23.5243C14.09 25.602 12.2986 27.6104 11.8263 29.2754C11.354 30.9404 11.7094 31.6059 12.4012 32.4169C13.0452 33.1707 12.914 33.612 13.1693 32.1163C13.2814 32.9679 13.4436 33.8076 13.5438 34.5184C13.7823 36.2239 14.3596 36.4481 15.0203 36.4744C15.2088 36.4815 15.3662 36.4792 15.5021 36.4648L17.5249 37.5454C18.5053 37.8579 19.5572 37.8627 20.54 37.5573L22.62 36.4696C22.7417 36.4791 22.8777 36.4815 23.0399 36.4744C23.7006 36.4481 24.2779 36.2239 24.5164 34.5184C24.6166 33.8076 24.7788 32.9655 24.8909 32.1163C25.1461 33.612 25.0149 33.1707 25.659 32.4169C26.3507 31.6059 26.7061 30.9404 26.2338 29.2754C25.7735 27.6486 24.056 25.6926 24.4305 23.6627C25.2177 24.4618 26.303 24.8577 27.3597 24.612C29.0891 24.2089 30.1339 22.2458 29.6759 20.2564Z" fill="white"/>
<path d="M35.9489 15.2129C36.5012 13.7583 36.1652 12.2815 35.1984 11.9144C34.2315 11.5473 33 12.4288 32.4477 13.8834C31.8954 15.3379 32.2314 16.8147 33.1982 17.1818C34.1651 17.549 35.3966 16.6674 35.9489 15.2129Z" fill="white"/>
<path d="M5.1314 17.1842C6.09823 16.8171 6.43425 15.3403 5.88193 13.8858C5.32962 12.4312 4.0981 11.5497 3.13127 11.9168C2.16445 12.2839 1.82842 13.7607 2.38074 15.2153C2.93306 16.6698 4.16457 17.5513 5.1314 17.1842Z" fill="white"/>
<path d="M13.2464 21.2653C13.4678 20.7885 13.0826 20.1398 12.386 19.8163C11.6894 19.4928 10.9452 19.617 10.7238 20.0938C10.5024 20.5705 10.8876 21.2193 11.5842 21.5428C12.2808 21.8663 13.025 21.742 13.2464 21.2653Z" fill="black"/>
<path d="M11.8836 20.2059C11.6737 20.3156 11.5282 20.535 11.5282 20.7879C11.5282 21.1505 11.8216 21.4439 12.1842 21.4439C12.5467 21.4439 12.8401 21.1505 12.8401 20.7879C12.8401 20.6257 12.7805 20.4754 12.6803 20.3609C12.3845 20.2273 12.0959 20.1939 11.8836 20.2059Z" fill="white"/>
<path d="M12.5658 20.7544C12.5658 20.938 12.418 21.0883 12.2319 21.0883C12.0482 21.0883 11.9003 20.9404 11.9003 20.7544C11.9003 20.5707 12.0482 20.4204 12.2319 20.4204C12.4156 20.4228 12.5658 20.5707 12.5658 20.7544Z" fill="black"/>
<path d="M12.1293 20.4805C12.1293 20.5616 12.0649 20.626 11.9838 20.626C11.9027 20.626 11.8383 20.5616 11.8383 20.4805C11.8383 20.3994 11.9027 20.335 11.9838 20.335C12.0649 20.335 12.1293 20.3994 12.1293 20.4805Z" fill="white"/>
<path d="M26.8475 21.545C27.5441 21.2215 27.9294 20.5728 27.708 20.0961C27.4866 19.6193 26.7424 19.4951 26.0458 19.8186C25.3491 20.1421 24.9639 20.7908 25.1853 21.2675C25.4067 21.7443 26.1509 21.8685 26.8475 21.545Z" fill="black"/>
<path d="M26.5487 20.2059C26.7586 20.3156 26.9041 20.535 26.9041 20.7879C26.9041 21.1505 26.6107 21.4439 26.2481 21.4439C25.8856 21.4439 25.5922 21.1505 25.5922 20.7879C25.5922 20.6257 25.6518 20.4754 25.752 20.3609C26.0478 20.2273 26.3364 20.1939 26.5487 20.2059Z" fill="white"/>
<path d="M25.8665 20.7548C25.8665 20.9385 26.0143 21.0888 26.2004 21.0888C26.3841 21.0888 26.532 20.9409 26.532 20.7548C26.532 20.5712 26.3841 20.4209 26.2004 20.4209C26.0167 20.4233 25.8665 20.5712 25.8665 20.7548Z" fill="black"/>
<path d="M26.303 20.4805C26.303 20.5616 26.3674 20.626 26.4485 20.626C26.5296 20.626 26.594 20.5616 26.594 20.4805C26.594 20.3994 26.5296 20.335 26.4485 20.335C26.3698 20.335 26.303 20.3994 26.303 20.4805Z" fill="white"/>
<path d="M23.2593 31.7465C23.3428 31.3099 22.8848 28.2305 21.7399 28.2305C20.9408 28.2305 19.76 28.7886 19.0945 28.8817C19.0516 28.8888 19.0134 28.8888 18.9705 28.8817C18.2859 28.7743 16.7903 27.9776 16.0341 28.2305C15.0967 28.5429 14.7222 31.3099 14.8056 31.7465C14.808 31.7536 14.8104 31.7608 14.8104 31.7703C14.8056 31.8252 14.7985 31.88 14.7985 31.9349C14.7985 33.4925 16.6948 34.7568 19.0325 34.7568C21.3701 34.7568 23.2665 33.4925 23.2665 31.9349C23.2665 31.8824 23.2593 31.8299 23.2546 31.7775C23.2546 31.7655 23.2569 31.756 23.2593 31.7465Z" fill="black"/>
<path d="M158 9V43" stroke="#565656"/>
<path d="M315.302 31.5509C314.956 33.4874 314.492 34.9712 311.95 34.9674C311.003 34.9674 310.367 34.7543 310.002 34.3244C309.504 33.7385 309.546 32.8102 309.782 31.5052L311.125 23.9761L308.233 24.5848L306.955 31.7716C306.628 33.6129 306.856 35.0054 307.624 35.9147C308.385 36.8088 309.686 37.2615 311.497 37.2615C315.188 37.2615 317.391 35.4011 318.041 31.7297L319.426 23.9723L316.538 24.581L315.302 31.5509ZM300.031 23.9875C296.317 23.9875 292.76 26.9816 292.106 30.672C291.786 32.4716 292.197 34.1494 293.262 35.4049C294.301 36.6376 295.849 37.311 297.618 37.311C298.992 37.311 300.392 36.9001 301.663 36.1277L301.895 35.987L301.845 36.2495L301.678 37.2653H304.383L304.836 34.6326L305.547 30.6264C305.867 28.8345 305.456 27.149 304.387 25.8974C303.348 24.6685 301.807 23.9875 300.031 23.9875ZM302.983 30.6758C302.583 32.9395 300.4 34.7733 298.117 34.7733C297.01 34.7733 296.047 34.351 295.397 33.5825C294.735 32.795 294.476 31.7487 294.67 30.6264C295.073 28.3665 297.261 26.5327 299.544 26.5327C300.647 26.5327 301.613 26.9512 302.264 27.7273C302.93 28.5111 303.184 29.5573 302.983 30.6758ZM335.607 23.7668C333.796 23.7668 332.198 24.3984 330.847 25.6463C329.497 26.8827 328.633 28.5149 328.283 30.478C328.051 31.7906 328.108 32.9662 328.458 33.963C328.823 34.9598 329.398 35.7549 330.178 36.3484C330.965 36.9343 332.088 37.2387 333.518 37.2387C334.697 37.2387 335.588 37.1321 336.322 36.8925C337.752 36.4435 338.745 35.8652 338.962 35.7321L339.415 33.1107C339.373 33.1336 339.331 33.1602 339.324 33.1678C337.726 34.1988 336.067 34.7163 334.401 34.7163C333.21 34.7163 332.285 34.3548 331.642 33.632C331.053 32.9586 330.809 32.0379 330.912 30.9231L330.92 30.8128H340.066L340.126 30.4095C340.484 28.3969 340.248 26.7648 339.438 25.5702C338.624 24.3755 337.334 23.7668 335.607 23.7668ZM337.688 29.0513L337.68 29.1616H331.277L331.342 29.0019C331.692 28.1154 332.179 27.4078 332.784 26.917C333.453 26.3881 334.252 26.118 335.146 26.118C336.063 26.1218 336.729 26.3919 337.17 26.9322C337.577 27.4344 337.752 28.1458 337.688 29.0513ZM367.785 23.3293H367.778C367.097 23.3293 366.549 23.8505 366.549 24.5049C366.549 25.1707 367.097 25.6881 367.778 25.6881C368.47 25.6881 369.003 25.1707 369.003 24.5049C369.003 23.8543 368.47 23.3293 367.785 23.3293ZM367.785 25.4446C367.249 25.4446 366.853 25.0299 366.853 24.5049C366.853 23.9875 367.245 23.5652 367.77 23.5652H367.778C368.31 23.5652 368.695 23.9875 368.695 24.5049C368.695 25.0299 368.31 25.456 367.785 25.4446ZM328.199 24.0217H324.09L324.109 23.8809L324.661 21.0352L321.853 21.6401L319.947 32.1178C319.742 33.2896 319.654 34.0923 319.681 34.5108C319.723 34.9293 319.799 35.2755 319.913 35.5304C320.031 35.7891 320.191 36.0136 320.4 36.2267C321.066 36.9191 322.006 37.2577 323.189 37.2577C324.231 37.2577 325.258 37.0408 326.244 36.6033L326.666 36.3903L326.841 35.3821L326.967 34.6706L327.107 33.8907L326.693 34.0961C325.7 34.5945 324.779 34.8456 323.965 34.8456C323.428 34.8456 323.029 34.6972 322.785 34.4081C322.481 34.0467 322.397 33.4798 322.546 32.6808L323.634 26.5479L323.649 26.4528H327.766L327.864 25.8593L328.013 25.0527L328.199 24.0217ZM368.056 24.5429V24.5277C368.2 24.4821 368.303 24.3831 368.303 24.2462C368.303 24.1397 368.253 24.0445 368.189 23.9951C368.101 23.938 368.002 23.9038 367.77 23.9038C367.576 23.9038 367.424 23.9266 367.314 23.9456V25.1136H367.591V24.6457H367.721C367.877 24.6457 367.945 24.7065 367.968 24.8321C368.006 24.969 368.025 25.0718 368.063 25.1136H368.36C368.333 25.0794 368.31 25.0071 368.272 24.8283C368.238 24.6723 368.174 24.581 368.056 24.5429ZM367.728 24.4554H367.599V24.1206C367.629 24.113 367.679 24.1054 367.751 24.1054C367.926 24.1054 368.006 24.1777 368.006 24.2842C368.006 24.406 367.881 24.4554 367.728 24.4554ZM350.893 23.9685C350.384 23.8353 349.79 23.7744 349.12 23.7744C347.188 23.7744 345.491 24.4098 344.079 25.6653C342.668 26.917 341.77 28.5834 341.409 30.6226C341.043 32.6352 341.371 34.2673 342.367 35.462C343.368 36.6566 344.913 37.2615 346.952 37.2615C348.165 37.2615 349.474 37.0294 350.836 36.5653L350.954 36.5272L351.038 36.0288L351.354 34.3016L351.43 33.864L351.156 33.9706C349.87 34.488 348.744 34.7505 347.812 34.7467C346.469 34.7467 345.449 34.3586 344.783 33.5977C344.133 32.833 343.92 31.7906 344.148 30.4932C344.365 29.2758 344.913 28.2562 345.776 27.4724C346.636 26.6773 347.656 26.2816 348.786 26.2816C349.801 26.2816 350.863 26.6468 351.951 27.3697C352.023 27.4116 352.088 27.4648 352.153 27.5105L352.248 27.579L352.358 26.9322L352.666 25.2468L352.773 24.6723L352.453 24.5353C351.867 24.269 351.342 24.075 350.893 23.9685ZM361.017 23.9951C357.296 23.9951 353.743 26.9893 353.089 30.6797C352.765 32.4792 353.18 34.1532 354.245 35.4125C355.288 36.6414 356.832 37.3186 358.598 37.3186C362.318 37.3186 365.868 34.3244 366.522 30.634C366.846 28.8421 366.435 27.1567 365.37 25.905C364.327 24.6761 362.783 23.9951 361.017 23.9951ZM363.962 30.6797C363.559 32.9433 361.379 34.7771 359.092 34.7771C357.996 34.7771 357.026 34.3548 356.376 33.5863C355.71 32.7988 355.455 31.7525 355.653 30.634C356.056 28.3741 358.228 26.5403 360.515 26.5403C361.618 26.5403 362.585 26.9588 363.239 27.7349C363.905 28.5187 364.164 29.5611 363.962 30.6797Z" fill="black"/>
<path d="M341.314 17.2344C346.176 17.1963 349.969 15.1038 349.95 12.6081C349.931 10.1161 346.111 8.09209 341.245 8.13394C336.432 8.17198 332.651 10.2607 332.666 12.7488C332.689 15.2484 336.505 17.2724 341.314 17.2344Z" fill="black"/>
<path d="M337.577 42.0441C335.907 42.0441 334.313 43.2691 334.02 44.7795C333.723 46.2899 334.838 47.515 336.508 47.515C338.179 47.515 339.773 46.2899 340.066 44.7795C340.362 43.2691 339.248 42.0441 337.577 42.0441ZM338.825 44.7795C338.65 45.6736 337.711 46.3964 336.725 46.3964C335.74 46.3964 335.082 45.6736 335.257 44.7795C335.432 43.8893 336.371 43.1664 337.357 43.1664C338.342 43.1626 339 43.8854 338.825 44.7795ZM331.441 42.0479C330.646 42.0364 330.052 42.2381 329.618 42.5919C329.318 42.2609 328.819 42.0593 328.066 42.0479C326.35 42.0212 325.574 42.9952 325.319 44.3344L324.688 47.5112H325.97L326.529 44.4485C326.685 43.6343 326.894 43.0827 327.864 43.0979C328.701 43.1131 328.816 43.524 328.728 44.1594C328.717 44.2164 328.701 44.2773 328.69 44.3344L328.059 47.5112H329.341L329.919 44.4143C329.934 44.3344 329.946 44.2583 329.957 44.1822C330.113 43.5164 330.375 43.0827 331.235 43.0979C332.209 43.1131 332.202 43.6686 332.046 44.4866L331.433 47.5112H332.715L333.294 44.4143C333.552 43.0713 333.157 42.0783 331.441 42.0479ZM353.735 41.0168C354.123 41.0168 354.485 40.7163 354.538 40.3472C354.591 39.9782 354.321 39.6776 353.933 39.6776C353.545 39.6776 353.184 39.9782 353.13 40.3472C353.077 40.7163 353.347 41.0168 353.735 41.0168ZM348.801 41.0168C349.189 41.0168 349.55 40.7163 349.604 40.3472C349.657 39.9782 349.387 39.6776 348.999 39.6776C348.611 39.6776 348.249 39.9782 348.196 40.3472C348.143 40.7163 348.413 41.0168 348.801 41.0168ZM344.403 41.6179C343.752 41.6179 343.113 41.831 342.561 42.1924L342.98 39.6738L341.66 39.963L340.381 47.515H341.637L341.728 46.9938C342.151 47.3514 342.714 47.5644 343.36 47.5644C344.985 47.5644 346.537 46.2328 346.826 44.5893C347.115 42.9457 346.031 41.6179 344.403 41.6179ZM345.62 44.5893C345.453 45.5594 344.536 46.347 343.577 46.347C342.641 46.347 342.006 45.5975 342.135 44.6578L342.158 44.5284C342.356 43.5887 343.25 42.8354 344.19 42.8354C345.152 42.8354 345.791 43.6191 345.62 44.5893ZM356.691 42.0326L356.916 40.8685L355.584 41.1272L354.751 45.4073C354.66 45.8676 354.622 46.191 354.633 46.3698C354.652 46.5372 354.686 46.678 354.74 46.7883C354.793 46.8948 354.865 46.9899 354.964 47.0775C355.265 47.359 355.683 47.4998 356.208 47.4998C356.672 47.4998 357.121 47.4084 357.559 47.2334V47.2372L357.768 47.1421L357.848 46.7198L357.905 46.4383L357.985 46.0388L357.711 46.1606C357.285 46.3546 356.897 46.4497 356.554 46.4497C356.079 46.4497 355.881 46.2024 355.991 45.6469L356.494 43.0903H358.278L358.301 42.9495L358.362 42.63L358.48 42.0326H356.691ZM348.044 42.0364L347.142 47.5036H348.436L349.375 42.0364H348.044ZM364.316 42.0326H362.767L361.07 45.4795L360.519 42.0326H359.104L360.032 47.378H360.051L358.111 51.3271H359.454L362.505 45.4491H362.501L364.316 42.0326ZM352.978 42.0364L352.077 47.5036H353.37L354.31 42.0364H352.978ZM350.844 40.4576L349.642 47.5036H350.893L352.156 40.1722L350.844 40.4576Z" fill="black"/>
<path d="M328.534 13.0305H328.542C328.526 12.9126 328.523 12.7832 328.523 12.6577C328.523 9.09284 333.704 6.11769 340.416 5.89703L329.356 0L294.388 18.646H334.85C334.85 18.646 328.854 16.6943 328.534 13.0305ZM354.002 13.1371C353.686 15.5111 351.099 17.5617 347.313 18.6422H364.312L354.002 13.1371Z" fill="black"/>
<path d="M182.459 27.1582C182.393 28.0762 182.053 28.7988 181.439 29.3262C180.83 29.8535 180.025 30.1172 179.025 30.1172C177.932 30.1172 177.07 29.75 176.441 29.0156C175.816 28.2773 175.504 27.2656 175.504 25.9805V25.459C175.504 24.6387 175.648 23.916 175.938 23.291C176.227 22.666 176.639 22.1875 177.174 21.8555C177.713 21.5195 178.338 21.3516 179.049 21.3516C180.033 21.3516 180.826 21.6152 181.428 22.1426C182.029 22.6699 182.377 23.4102 182.471 24.3633H180.713C180.67 23.8125 180.516 23.4141 180.25 23.168C179.988 22.918 179.588 22.793 179.049 22.793C178.463 22.793 178.023 23.0039 177.73 23.4258C177.441 23.8438 177.293 24.4941 177.285 25.377V26.0215C177.285 26.9434 177.424 27.6172 177.701 28.043C177.982 28.4688 178.424 28.6816 179.025 28.6816C179.568 28.6816 179.973 28.5586 180.238 28.3125C180.508 28.0625 180.662 27.6777 180.701 27.1582H182.459ZM183.238 26.7715C183.238 26.1426 183.359 25.582 183.602 25.0898C183.844 24.5977 184.191 24.2168 184.645 23.9473C185.102 23.6777 185.631 23.543 186.232 23.543C187.088 23.543 187.785 23.8047 188.324 24.3281C188.867 24.8516 189.17 25.5625 189.232 26.4609L189.244 26.8945C189.244 27.8672 188.973 28.6484 188.43 29.2383C187.887 29.8242 187.158 30.1172 186.244 30.1172C185.33 30.1172 184.6 29.8242 184.053 29.2383C183.51 28.6523 183.238 27.8555 183.238 26.8477V26.7715ZM184.932 26.8945C184.932 27.4961 185.045 27.957 185.271 28.2773C185.498 28.5938 185.822 28.752 186.244 28.752C186.654 28.752 186.975 28.5957 187.205 28.2832C187.436 27.9668 187.551 27.4629 187.551 26.7715C187.551 26.1816 187.436 25.7246 187.205 25.4004C186.975 25.0762 186.65 24.9141 186.232 24.9141C185.818 24.9141 185.498 25.0762 185.271 25.4004C185.045 25.7207 184.932 26.2188 184.932 26.8945ZM191.846 23.6602L191.898 24.3926C192.352 23.8262 192.959 23.543 193.721 23.543C194.393 23.543 194.893 23.7402 195.221 24.1348C195.549 24.5293 195.717 25.1191 195.725 25.9043V30H194.031V25.9453C194.031 25.5859 193.953 25.3262 193.797 25.166C193.641 25.002 193.381 24.9199 193.018 24.9199C192.541 24.9199 192.184 25.123 191.945 25.5293V30H190.252V23.6602H191.846ZM202.92 30.1172C201.99 30.1172 201.232 29.832 200.646 29.2617C200.064 28.6914 199.773 27.9316 199.773 26.9824V26.8184C199.773 26.1816 199.896 25.6133 200.143 25.1133C200.389 24.6094 200.736 24.2227 201.186 23.9531C201.639 23.6797 202.154 23.543 202.732 23.543C203.6 23.543 204.281 23.8164 204.777 24.3633C205.277 24.9102 205.527 25.6855 205.527 26.6895V27.3809H201.49C201.545 27.7949 201.709 28.127 201.982 28.377C202.26 28.627 202.609 28.752 203.031 28.752C203.684 28.752 204.193 28.5156 204.561 28.043L205.393 28.9746C205.139 29.334 204.795 29.6152 204.361 29.8184C203.928 30.0176 203.447 30.1172 202.92 30.1172ZM202.727 24.9141C202.391 24.9141 202.117 25.0273 201.906 25.2539C201.699 25.4805 201.566 25.8047 201.508 26.2266H203.863V26.0918C203.855 25.7168 203.754 25.4277 203.559 25.2246C203.363 25.0176 203.086 24.9141 202.727 24.9141ZM208.281 30H206.582V21H208.281V30ZM216.232 25.248C216.002 25.2168 215.799 25.2012 215.623 25.2012C214.982 25.2012 214.562 25.418 214.363 25.8516V30H212.67V23.6602H214.27L214.316 24.416C214.656 23.834 215.127 23.543 215.729 23.543C215.916 23.543 216.092 23.5684 216.256 23.6191L216.232 25.248ZM219.854 30.1172C218.924 30.1172 218.166 29.832 217.58 29.2617C216.998 28.6914 216.707 27.9316 216.707 26.9824V26.8184C216.707 26.1816 216.83 25.6133 217.076 25.1133C217.322 24.6094 217.67 24.2227 218.119 23.9531C218.572 23.6797 219.088 23.543 219.666 23.543C220.533 23.543 221.215 23.8164 221.711 24.3633C222.211 24.9102 222.461 25.6855 222.461 26.6895V27.3809H218.424C218.479 27.7949 218.643 28.127 218.916 28.377C219.193 28.627 219.543 28.752 219.965 28.752C220.617 28.752 221.127 28.5156 221.494 28.043L222.326 28.9746C222.072 29.334 221.729 29.6152 221.295 29.8184C220.861 30.0176 220.381 30.1172 219.854 30.1172ZM219.66 24.9141C219.324 24.9141 219.051 25.0273 218.84 25.2539C218.633 25.4805 218.5 25.8047 218.441 26.2266H220.797V26.0918C220.789 25.7168 220.688 25.4277 220.492 25.2246C220.297 25.0176 220.02 24.9141 219.66 24.9141ZM226.861 28.248C226.861 28.041 226.758 27.8789 226.551 27.7617C226.348 27.6406 226.02 27.5332 225.566 27.4395C224.059 27.123 223.305 26.4824 223.305 25.5176C223.305 24.9551 223.537 24.4863 224.002 24.1113C224.471 23.7324 225.082 23.543 225.836 23.543C226.641 23.543 227.283 23.7324 227.764 24.1113C228.248 24.4902 228.49 24.9824 228.49 25.5879H226.797C226.797 25.3457 226.719 25.1465 226.562 24.9902C226.406 24.8301 226.162 24.75 225.83 24.75C225.545 24.75 225.324 24.8145 225.168 24.9434C225.012 25.0723 224.934 25.2363 224.934 25.4355C224.934 25.623 225.021 25.7754 225.197 25.8926C225.377 26.0059 225.678 26.1055 226.1 26.1914C226.521 26.2734 226.877 26.3672 227.166 26.4727C228.061 26.8008 228.508 27.3691 228.508 28.1777C228.508 28.7559 228.26 29.2246 227.764 29.584C227.268 29.9395 226.627 30.1172 225.842 30.1172C225.311 30.1172 224.838 30.0234 224.424 29.8359C224.014 29.6445 223.691 29.3848 223.457 29.0566C223.223 28.7246 223.105 28.3672 223.105 27.9844H224.711C224.727 28.2852 224.838 28.5156 225.045 28.6758C225.252 28.8359 225.529 28.916 225.877 28.916C226.201 28.916 226.445 28.8555 226.609 28.7344C226.777 28.6094 226.861 28.4473 226.861 28.248ZM235.311 26.8887C235.311 27.8652 235.088 28.6484 234.643 29.2383C234.201 29.8242 233.604 30.1172 232.85 30.1172C232.209 30.1172 231.691 29.8945 231.297 29.4492V32.4375H229.604V23.6602H231.174L231.232 24.2812C231.643 23.7891 232.178 23.543 232.838 23.543C233.619 23.543 234.227 23.832 234.66 24.4102C235.094 24.9883 235.311 25.7852 235.311 26.8008V26.8887ZM233.617 26.7656C233.617 26.1758 233.512 25.7207 233.301 25.4004C233.094 25.0801 232.791 24.9199 232.393 24.9199C231.861 24.9199 231.496 25.123 231.297 25.5293V28.125C231.504 28.543 231.873 28.752 232.404 28.752C233.213 28.752 233.617 28.0898 233.617 26.7656ZM240.039 30C239.961 29.8477 239.904 29.6582 239.869 29.4316C239.459 29.8887 238.926 30.1172 238.27 30.1172C237.648 30.1172 237.133 29.9375 236.723 29.5781C236.316 29.2188 236.113 28.7656 236.113 28.2188C236.113 27.5469 236.361 27.0312 236.857 26.6719C237.357 26.3125 238.078 26.1309 239.02 26.127H239.799V25.7637C239.799 25.4707 239.723 25.2363 239.57 25.0605C239.422 24.8848 239.186 24.7969 238.861 24.7969C238.576 24.7969 238.352 24.8652 238.188 25.002C238.027 25.1387 237.947 25.3262 237.947 25.5645H236.254C236.254 25.1973 236.367 24.8574 236.594 24.5449C236.82 24.2324 237.141 23.9883 237.555 23.8125C237.969 23.6328 238.434 23.543 238.949 23.543C239.73 23.543 240.35 23.7402 240.807 24.1348C241.268 24.5254 241.498 25.0762 241.498 25.7871V28.5352C241.502 29.1367 241.586 29.5918 241.75 29.9004V30H240.039ZM238.639 28.8223C238.889 28.8223 239.119 28.7676 239.33 28.6582C239.541 28.5449 239.697 28.3945 239.799 28.207V27.1172H239.166C238.318 27.1172 237.867 27.4102 237.812 27.9961L237.807 28.0957C237.807 28.3066 237.881 28.4805 238.029 28.6172C238.178 28.7539 238.381 28.8223 238.639 28.8223ZM244.586 30H242.887V21H244.586V30ZM245.723 26.7832C245.723 25.7949 245.943 25.0078 246.385 24.4219C246.83 23.8359 247.438 23.543 248.207 23.543C248.824 23.543 249.334 23.7734 249.736 24.2344V21H251.436V30H249.906L249.824 29.3262C249.402 29.8535 248.859 30.1172 248.195 30.1172C247.449 30.1172 246.85 29.8242 246.396 29.2383C245.947 28.6484 245.723 27.8301 245.723 26.7832ZM247.416 26.9062C247.416 27.5 247.52 27.9551 247.727 28.2715C247.934 28.5879 248.234 28.7461 248.629 28.7461C249.152 28.7461 249.521 28.5254 249.736 28.084V25.582C249.525 25.1406 249.16 24.9199 248.641 24.9199C247.824 24.9199 247.416 25.582 247.416 26.9062ZM252.484 26.7715C252.484 26.1426 252.605 25.582 252.848 25.0898C253.09 24.5977 253.438 24.2168 253.891 23.9473C254.348 23.6777 254.877 23.543 255.479 23.543C256.334 23.543 257.031 23.8047 257.57 24.3281C258.113 24.8516 258.416 25.5625 258.479 26.4609L258.49 26.8945C258.49 27.8672 258.219 28.6484 257.676 29.2383C257.133 29.8242 256.404 30.1172 255.49 30.1172C254.576 30.1172 253.846 29.8242 253.299 29.2383C252.756 28.6523 252.484 27.8555 252.484 26.8477V26.7715ZM254.178 26.8945C254.178 27.4961 254.291 27.957 254.518 28.2773C254.744 28.5938 255.068 28.752 255.49 28.752C255.9 28.752 256.221 28.5957 256.451 28.2832C256.682 27.9668 256.797 27.4629 256.797 26.7715C256.797 26.1816 256.682 25.7246 256.451 25.4004C256.221 25.0762 255.896 24.9141 255.479 24.9141C255.064 24.9141 254.744 25.0762 254.518 25.4004C254.291 25.7207 254.178 26.2188 254.178 26.8945ZM262.258 26.7832C262.258 25.7949 262.479 25.0078 262.92 24.4219C263.365 23.8359 263.973 23.543 264.742 23.543C265.359 23.543 265.869 23.7734 266.271 24.2344V21H267.971V30H266.441L266.359 29.3262C265.938 29.8535 265.395 30.1172 264.73 30.1172C263.984 30.1172 263.385 29.8242 262.932 29.2383C262.482 28.6484 262.258 27.8301 262.258 26.7832ZM263.951 26.9062C263.951 27.5 264.055 27.9551 264.262 28.2715C264.469 28.5879 264.77 28.7461 265.164 28.7461C265.688 28.7461 266.057 28.5254 266.271 28.084V25.582C266.061 25.1406 265.695 24.9199 265.176 24.9199C264.359 24.9199 263.951 25.582 263.951 26.9062ZM272.201 30.1172C271.271 30.1172 270.514 29.832 269.928 29.2617C269.346 28.6914 269.055 27.9316 269.055 26.9824V26.8184C269.055 26.1816 269.178 25.6133 269.424 25.1133C269.67 24.6094 270.018 24.2227 270.467 23.9531C270.92 23.6797 271.436 23.543 272.014 23.543C272.881 23.543 273.562 23.8164 274.059 24.3633C274.559 24.9102 274.809 25.6855 274.809 26.6895V27.3809H270.771C270.826 27.7949 270.99 28.127 271.264 28.377C271.541 28.627 271.891 28.752 272.312 28.752C272.965 28.752 273.475 28.5156 273.842 28.043L274.674 28.9746C274.42 29.334 274.076 29.6152 273.643 29.8184C273.209 30.0176 272.729 30.1172 272.201 30.1172ZM272.008 24.9141C271.672 24.9141 271.398 25.0273 271.188 25.2539C270.98 25.4805 270.848 25.8047 270.789 26.2266H273.145V26.0918C273.137 25.7168 273.035 25.4277 272.84 25.2246C272.645 25.0176 272.367 24.9141 272.008 24.9141Z" fill="black"/>
</svg>
