<svg width="330" height="40" viewBox="0 0 330 40" fill="none" xmlns="http://www.w3.org/2000/svg">
<path d="M56.9722 12.7136C59.6557 12.744 61.9758 13.7387 63.928 15.6999C65.8824 17.6589 66.8422 20.0719 66.8096 22.9409C66.7769 25.81 65.8041 28.2425 63.8954 30.2384C61.9867 32.2344 59.6536 33.216 56.896 33.1856C54.1407 33.1531 51.8076 32.1323 49.8989 30.1168C47.9924 28.1035 47.0522 25.7231 47.0848 22.9713C47.1022 21.4706 47.3917 20.0675 47.951 18.7601C48.5104 17.4548 49.2482 16.3645 50.1644 15.487C51.0807 14.6096 52.1319 13.9255 53.3159 13.4325C54.502 12.9394 55.7208 12.6984 56.9722 12.7136ZM51.9012 22.8888C51.8816 24.5003 52.3887 25.8143 53.4203 26.8307C54.4519 27.8472 55.6098 28.3619 56.8982 28.3771C58.1845 28.3923 59.3532 27.9188 60.3957 26.9524C61.4404 25.9881 61.9736 24.6828 61.9932 23.0343C62.0128 21.388 61.5057 20.061 60.4741 19.0533C59.4424 18.0455 58.2846 17.5351 56.9962 17.5199C55.7077 17.5047 54.5412 17.9934 53.4965 18.9859C52.454 19.9785 51.9208 21.2794 51.9012 22.8888Z" fill="#232323"/>
<path d="M81.8705 28.503C82.5779 28.5117 83.0893 28.603 83.4049 28.7789C83.7205 28.9548 83.936 29.2067 84.0491 29.5325C84.1623 29.8583 84.2167 30.2775 84.2124 30.7835C84.2058 31.2896 84.1558 31.6979 84.0622 32.0041C83.9686 32.3103 83.8554 32.5449 83.7292 32.7056C83.6008 32.8663 83.4093 32.9836 83.1546 33.0509C82.863 33.1574 82.3994 33.2052 81.7661 33.1965L70.4509 33.0662C70.0331 33.0618 69.637 32.9489 69.2583 32.7273C68.4639 32.2669 68.0743 31.5458 68.0852 30.5685C68.0917 30.0972 68.2027 29.7193 68.4247 29.4326L76.9932 17.8848L70.7382 17.8109C70.3029 17.8066 69.9808 17.7892 69.7719 17.7588C69.563 17.7306 69.3149 17.6502 69.0254 17.5199C68.5031 17.2593 68.2484 16.5795 68.2593 15.474C68.2724 14.3164 68.527 13.6127 69.0189 13.3651C69.2931 13.2239 69.5325 13.1414 69.7414 13.1153C69.9504 13.0914 70.2725 13.0806 70.7078 13.0849L81.642 13.2109C82.0599 13.2152 82.456 13.3303 82.8347 13.5497C83.2134 13.7712 83.505 14.0644 83.7096 14.4293C83.9142 14.7942 84.0121 15.2199 84.0078 15.7064C84.0012 16.195 83.8881 16.5838 83.6683 16.8705L75.0976 28.4249L81.8705 28.503Z" fill="#232323"/>
<path d="M95.5423 13.1587C98.2258 13.1891 100.544 14.1838 102.498 16.145C104.453 18.1041 105.412 20.5192 105.38 23.3861C105.347 26.2551 104.374 28.6876 102.465 30.6835C100.557 32.6795 98.2236 33.6612 95.4683 33.6286C92.7108 33.596 90.3799 32.5753 88.4712 30.5598C86.5625 28.5464 85.6244 26.1661 85.6571 23.4143C85.6745 21.9135 85.9618 20.5105 86.5211 19.203C87.0804 17.8977 87.8182 16.8075 88.7367 15.93C89.653 15.0526 90.7042 14.3684 91.8881 13.8754C93.0721 13.3846 94.2909 13.1457 95.5423 13.1587ZM90.4735 23.3361C90.4539 24.9476 90.961 26.2594 91.9926 27.2759C93.0242 28.2923 94.1821 28.8071 95.4705 28.8223C96.7567 28.8375 97.9255 28.364 98.9702 27.3975C100.015 26.431 100.548 25.1257 100.565 23.4794C100.585 21.8332 100.078 20.5062 99.0463 19.4984C98.0169 18.4928 96.8569 17.9803 95.5684 17.9651C94.28 17.9499 93.1134 18.4385 92.0688 19.4311C91.0241 20.4236 90.4909 21.7267 90.4735 23.3361Z" fill="#232323"/>
<path d="M120.134 14.5152C120.31 14.2003 120.571 13.9918 120.917 13.8875C121.263 13.7833 121.694 13.7333 122.212 13.7399C122.73 13.7464 123.146 13.7941 123.462 13.8897C123.777 13.9831 124.012 14.096 124.165 14.2242C124.317 14.3523 124.428 14.5434 124.498 14.7976C124.604 15.0886 124.652 15.549 124.646 16.1832L124.469 31.2495C124.465 31.6839 124.448 32.001 124.417 32.2008C124.387 32.4006 124.297 32.633 124.149 32.9045C123.888 33.391 123.179 33.6255 122.019 33.6125C121.311 33.606 120.822 33.5452 120.552 33.4322C120.28 33.3193 120.056 33.1455 119.877 32.9088C115.862 27.4313 113.217 23.8543 111.948 22.1754L111.844 31.1061C111.84 31.5405 111.822 31.8576 111.792 32.0553C111.763 32.2551 111.672 32.4875 111.524 32.7589C111.263 33.2454 110.553 33.48 109.393 33.467C108.268 33.4539 107.583 33.1998 107.334 32.709C107.193 32.4353 107.11 32.1899 107.084 31.9727C107.06 31.7555 107.049 31.4384 107.054 31.0214L107.23 15.8748C107.236 15.1885 107.33 14.6868 107.506 14.3697C107.683 14.0548 107.942 13.8441 108.288 13.7399C108.634 13.6356 109.078 13.5878 109.622 13.5943C110.166 13.6009 110.595 13.6551 110.912 13.7594C111.228 13.8615 111.45 13.9788 111.576 14.1047C111.648 14.159 111.853 14.3979 112.192 14.8171C115.957 20.0557 118.475 23.5133 119.744 25.1943L119.851 16.0203C119.866 15.3318 119.958 14.8301 120.134 14.5152Z" fill="#232323"/>
<path d="M35.0953 13.8815C35.2737 12.5936 35.6698 10.6606 33.9461 9.39224C32.2224 8.12386 28.6488 9.29667 27.4561 9.82878C27.4452 9.83313 27.4365 9.83964 27.4278 9.84616C24.9576 8.17599 21.7953 7.19213 17.8995 7.28986C14.0037 7.19213 10.8436 8.17599 8.37118 9.84616C8.36247 9.84181 8.35159 9.83313 8.34288 9.82878C7.15021 9.29667 3.57438 8.12386 1.85284 9.39224C0.129124 10.6606 0.52523 12.5936 0.703696 13.8815C0.884337 15.1694 2.0683 17.4803 2.26418 18.3946C2.26418 18.3946 2.28159 18.3903 2.30553 18.3816C1.27609 21.7806 1.22386 25.475 2.0683 28.7154C4.43841 37.8068 17.9017 39.0578 17.9017 39.0578C17.9017 39.0578 31.3649 37.8068 33.7328 28.7154C34.5773 25.475 34.5229 21.7828 33.4956 18.3838C33.5196 18.3903 33.537 18.3968 33.537 18.3968C33.7328 17.4825 34.9168 15.1716 35.0953 13.8815Z" fill="black"/>
<path d="M27.6111 18.442C27.1911 16.6328 25.5479 15.4426 23.97 15.8053C22.9884 16.0312 22.2485 16.8109 21.9307 17.8078C21.2517 18.2313 20.2287 18.8329 19.7848 18.8959C19.7108 18.9068 19.6651 18.9307 19.6368 18.9676C19.2385 18.4746 18.6922 18.088 17.9 18.088C17.1078 18.088 16.5615 18.4767 16.1632 18.9676C16.1349 18.9328 16.0892 18.9068 16.0152 18.8959C15.5016 18.8221 14.2284 18.0402 13.5907 17.6319C13.2468 16.7219 12.5395 16.0204 11.608 15.8075C10.0192 15.4405 8.3891 16.622 7.96688 18.4442C7.54465 20.2664 8.48921 22.0408 10.078 22.4078C11.1357 22.6511 12.2109 22.208 12.9356 21.3458C12.94 21.3697 12.9443 21.3936 12.9508 21.4175C13.3905 23.3092 11.756 25.1379 11.3251 26.6538C10.8941 28.1698 11.2184 28.7758 11.8496 29.5142C12.4372 30.2005 12.3175 30.6023 12.5504 29.2405C12.6527 30.0159 12.8007 30.7804 12.8921 31.4276C13.1097 32.9805 13.6364 33.1847 14.2393 33.2086C14.4112 33.2151 14.5549 33.2129 14.6789 33.1999L16.5245 34.1837C17.419 34.4682 18.3788 34.4726 19.2755 34.1946L21.1733 33.2042C21.2843 33.2129 21.4084 33.2151 21.5564 33.2086C22.1592 33.1847 22.6859 32.9805 22.9036 31.4276C22.995 30.7804 23.143 30.0137 23.2452 29.2405C23.4781 30.6023 23.3584 30.2005 23.9461 29.5142C24.5772 28.7758 24.9015 28.1698 24.4706 26.6538C24.0505 25.1726 22.4835 23.3917 22.8252 21.5434C23.5434 22.271 24.5337 22.6315 25.4978 22.4078C27.0757 22.0408 28.029 20.2533 27.6111 18.442Z" fill="white"/>
<path d="M33.3335 13.8516C33.8375 12.5272 33.5309 11.1826 32.6488 10.8483C31.7666 10.514 30.643 11.3167 30.139 12.6411C29.6351 13.9654 29.9417 15.31 30.8238 15.6443C31.706 15.9786 32.8296 15.1759 33.3335 13.8516Z" fill="white"/>
<path d="M5.21614 15.6458C6.09828 15.3116 6.40487 13.967 5.90093 12.6426C5.39699 11.3182 4.27334 10.5156 3.3912 10.8498C2.50906 11.1841 2.20247 12.5287 2.70642 13.8531C3.21036 15.1775 4.334 15.9801 5.21614 15.6458Z" fill="white"/>
<path d="M12.6191 19.3623C12.8208 18.928 12.4692 18.3368 11.8338 18.0418C11.1985 17.7467 10.5199 17.8596 10.3183 18.2938C10.1166 18.7281 10.4682 19.3193 11.1035 19.6143C11.7389 19.9094 12.4174 19.7965 12.6191 19.3623Z" fill="black"/>
<path d="M11.377 18.3966C11.1855 18.4965 11.0527 18.6963 11.0527 18.9265C11.0527 19.2566 11.3204 19.5238 11.6512 19.5238C11.9821 19.5238 12.2498 19.2566 12.2498 18.9265C12.2498 18.7788 12.1953 18.642 12.1039 18.5377C11.8341 18.4161 11.5707 18.3857 11.377 18.3966Z" fill="white"/>
<path d="M11.9988 18.8959C11.9988 19.0631 11.8639 19.1999 11.6941 19.1999C11.5265 19.1999 11.3916 19.0653 11.3916 18.8959C11.3916 18.7286 11.5265 18.5918 11.6941 18.5918C11.8617 18.594 11.9988 18.7286 11.9988 18.8959Z" fill="black"/>
<path d="M11.5999 18.6462C11.5999 18.72 11.5413 18.7786 11.4674 18.7786C11.3936 18.7786 11.335 18.72 11.335 18.6462C11.335 18.5723 11.3936 18.5137 11.4674 18.5137C11.5413 18.5137 11.5999 18.5723 11.5999 18.6462Z" fill="white"/>
<path d="M25.0298 19.6168C25.6654 19.3222 26.0169 18.7315 25.8149 18.2975C25.6129 17.8634 24.9339 17.7502 24.2983 18.0448C23.6627 18.3393 23.3112 18.93 23.5132 19.3641C23.7152 19.7982 24.3942 19.9113 25.0298 19.6168Z" fill="black"/>
<path d="M24.7575 18.3985C24.949 18.4984 25.0818 18.6982 25.0818 18.9285C25.0818 19.2586 24.8141 19.5257 24.4833 19.5257C24.1525 19.5257 23.8848 19.2586 23.8848 18.9285C23.8848 18.7808 23.9392 18.6439 24.0306 18.5397C24.3005 18.4181 24.5638 18.3877 24.7575 18.3985Z" fill="white"/>
<path d="M24.1348 18.8978C24.1348 19.065 24.2697 19.2019 24.4395 19.2019C24.607 19.2019 24.742 19.0672 24.742 18.8978C24.742 18.7306 24.607 18.5938 24.4395 18.5938C24.2719 18.5959 24.1348 18.7306 24.1348 18.8978Z" fill="black"/>
<path d="M24.5332 18.6481C24.5332 18.722 24.5918 18.7806 24.6657 18.7806C24.7395 18.7806 24.7982 18.722 24.7982 18.6481C24.7982 18.5743 24.7395 18.5156 24.6657 18.5156C24.594 18.5156 24.5332 18.5743 24.5332 18.6481Z" fill="white"/>
<path d="M21.7558 28.9044C21.8319 28.507 21.4141 25.7031 20.3694 25.7031C19.6403 25.7031 18.563 26.2113 17.9557 26.296C17.9166 26.3025 17.8818 26.3025 17.8426 26.296C17.2179 26.1983 15.8533 25.4729 15.1634 25.7031C14.3081 25.9876 13.9664 28.507 14.0426 28.9044C14.0447 28.9109 14.0469 28.9175 14.0469 28.9261C14.0426 28.9761 14.036 29.0261 14.036 29.076C14.036 30.4942 15.7663 31.6453 17.8992 31.6453C20.032 31.6453 21.7623 30.4942 21.7623 29.076C21.7623 29.0282 21.7558 28.9804 21.7514 28.9327C21.7514 28.9218 21.7536 28.9131 21.7558 28.9044Z" fill="black"/>
<path d="M144.694 8.19531V39.1525" stroke="white" stroke-width="0.631533"/>
<path d="M280.222 28.7289C279.906 30.4921 279.482 31.8431 277.164 31.8396C276.299 31.8396 275.719 31.6456 275.386 31.2542C274.932 30.7207 274.97 29.8755 275.185 28.6874L276.41 21.832L273.772 22.3863L272.606 28.9298C272.307 30.6064 272.516 31.8743 273.217 32.7022C273.911 33.5162 275.098 33.9285 276.75 33.9285C280.118 33.9285 282.127 32.2345 282.721 28.8917L283.985 21.8285L281.35 22.3828L280.222 28.7289ZM266.288 21.8424C262.9 21.8424 259.654 24.5686 259.057 27.9287C258.766 29.5672 259.141 31.0949 260.113 32.238C261.06 33.3603 262.473 33.9735 264.087 33.9735C265.34 33.9735 266.618 33.5994 267.777 32.8962L267.989 32.768L267.944 33.007L267.791 33.9319H270.259L270.672 31.5348L271.321 27.8872C271.613 26.2556 271.238 24.721 270.263 23.5813C269.315 22.4625 267.909 21.8424 266.288 21.8424ZM268.982 27.9322C268.617 29.9933 266.625 31.663 264.542 31.663C263.532 31.663 262.654 31.2785 262.06 30.5787C261.456 29.8617 261.22 28.9091 261.397 27.8872C261.765 25.8295 263.761 24.1598 265.844 24.1598C266.85 24.1598 267.732 24.5409 268.326 25.2476C268.933 25.9611 269.166 26.9138 268.982 27.9322ZM298.748 21.6415C297.096 21.6415 295.638 22.2165 294.405 23.3527C293.173 24.4785 292.385 25.9646 292.066 27.7521C291.854 28.9472 291.906 30.0175 292.225 30.9251C292.559 31.8327 293.083 32.5567 293.794 33.0971C294.513 33.6305 295.537 33.9077 296.842 33.9077C297.918 33.9077 298.731 33.8107 299.401 33.5924C300.706 33.1837 301.612 32.6571 301.81 32.5359L302.223 30.1492C302.185 30.17 302.146 30.1942 302.139 30.2011C300.681 31.1399 299.168 31.611 297.648 31.611C296.561 31.611 295.718 31.2819 295.131 30.6238C294.593 30.0106 294.371 29.1723 294.464 28.1574L294.471 28.0569H302.816L302.872 27.6897C303.198 25.8572 302.983 24.3712 302.244 23.2834C301.501 22.1957 300.324 21.6415 298.748 21.6415ZM300.647 26.453L300.64 26.5535H294.798L294.857 26.408C295.176 25.6009 295.62 24.9566 296.172 24.5097C296.783 24.0282 297.512 23.7823 298.328 23.7823C299.165 23.7857 299.772 24.0317 300.175 24.5236C300.546 24.9808 300.706 25.6286 300.647 26.453ZM328.108 21.2431H328.101C327.48 21.2431 326.98 21.7177 326.98 22.3135C326.98 22.9197 327.48 23.3908 328.101 23.3908C328.733 23.3908 329.219 22.9197 329.219 22.3135C329.219 21.7212 328.733 21.2431 328.108 21.2431ZM328.108 23.1691C327.619 23.1691 327.258 22.7915 327.258 22.3135C327.258 21.8424 327.615 21.4579 328.094 21.4579H328.101C328.587 21.4579 328.938 21.8424 328.938 22.3135C328.938 22.7915 328.587 23.1795 328.108 23.1691ZM291.989 21.8736H288.24L288.258 21.7454L288.761 19.1543L286.199 19.7051L284.46 29.2451C284.273 30.312 284.193 31.0429 284.217 31.4239C284.255 31.805 284.325 32.1202 284.429 32.3523C284.537 32.5879 284.682 32.7922 284.873 32.9862C285.481 33.6167 286.338 33.925 287.418 33.925C288.369 33.925 289.306 33.7275 290.205 33.3292L290.59 33.1352L290.75 32.2172L290.865 31.5694L290.993 30.8593L290.615 31.0464C289.709 31.5002 288.869 31.7288 288.126 31.7288C287.636 31.7288 287.272 31.5937 287.05 31.3304C286.772 31.0013 286.696 30.4852 286.831 29.7577L287.824 24.1737L287.838 24.0871H291.594L291.684 23.5467L291.819 22.8123L291.989 21.8736ZM328.354 22.3481V22.3343C328.486 22.2927 328.58 22.2027 328.58 22.078C328.58 21.981 328.535 21.8944 328.476 21.8493C328.396 21.7974 328.306 21.7662 328.094 21.7662C327.917 21.7662 327.778 21.787 327.678 21.8043V22.8678H327.931V22.4417H328.049C328.191 22.4417 328.254 22.4971 328.275 22.6114C328.309 22.7361 328.327 22.8297 328.361 22.8678H328.632C328.608 22.8366 328.587 22.7708 328.552 22.608C328.521 22.4659 328.462 22.3828 328.354 22.3481ZM328.056 22.2685H327.938V21.9636C327.966 21.9567 328.011 21.9498 328.077 21.9498C328.236 21.9498 328.309 22.0156 328.309 22.1126C328.309 22.2234 328.195 22.2685 328.056 22.2685ZM312.696 21.8251C312.23 21.7038 311.689 21.6484 311.078 21.6484C309.315 21.6484 307.766 22.2269 306.478 23.37C305.191 24.5097 304.371 26.027 304.042 27.8837C303.708 29.7162 304.007 31.2022 304.916 32.29C305.829 33.3777 307.239 33.9285 309.099 33.9285C310.207 33.9285 311.401 33.7171 312.643 33.2945L312.751 33.2599L312.827 32.8061L313.116 31.2334L313.185 30.8351L312.935 30.9321C311.762 31.4032 310.734 31.6422 309.884 31.6387C308.658 31.6387 307.728 31.2854 307.121 30.5926C306.527 29.8963 306.333 28.9472 306.541 27.7659C306.739 26.6574 307.239 25.7291 308.027 25.0155C308.811 24.2915 309.741 23.9312 310.772 23.9312C311.699 23.9312 312.668 24.2638 313.661 24.9219C313.727 24.96 313.786 25.0085 313.845 25.0501L313.931 25.1125L314.032 24.5236L314.313 22.989L314.41 22.4659L314.119 22.3412C313.584 22.0987 313.105 21.9221 312.696 21.8251ZM321.933 21.8493C318.538 21.8493 315.296 24.5755 314.698 27.9357C314.403 29.5741 314.782 31.0983 315.754 32.2449C316.705 33.3638 318.114 33.9804 319.725 33.9804C323.12 33.9804 326.358 31.2542 326.956 27.8941C327.251 26.2625 326.876 24.7279 325.904 23.5883C324.953 22.4694 323.543 21.8493 321.933 21.8493ZM324.619 27.9357C324.251 29.9968 322.262 31.6664 320.176 31.6664C319.176 31.6664 318.291 31.2819 317.698 30.5822C317.09 29.8651 316.858 28.9125 317.038 27.8941C317.406 25.8364 319.388 24.1668 321.474 24.1668C322.481 24.1668 323.363 24.5478 323.96 25.2545C324.567 25.9681 324.803 26.9172 324.619 27.9357Z" fill="#232323"/>
<path d="M303.955 15.6928C308.391 15.6582 311.852 13.753 311.835 11.4805C311.817 9.2116 308.332 7.36873 303.892 7.40683C299.501 7.44147 296.051 9.34323 296.064 11.6087C296.085 13.8846 299.567 15.7275 303.955 15.6928Z" fill="#232323"/>
<path d="M292.294 11.8644H292.301C292.287 11.757 292.284 11.6392 292.284 11.5249C292.284 8.27907 297.012 5.57019 303.135 5.36927L293.044 0L261.14 16.9773H298.057C298.057 16.9773 292.586 15.2002 292.294 11.8644ZM315.531 11.9614C315.243 14.1229 312.883 15.99 309.429 16.9738H324.938L315.531 11.9614Z" fill="#232323"/>
<path d="M166.486 23.9059C166.43 24.6789 166.144 25.2874 165.627 25.7314C165.114 26.1755 164.437 26.3975 163.595 26.3975C162.674 26.3975 161.948 26.0883 161.419 25.4699C160.893 24.8483 160.629 23.9964 160.629 22.9142V22.4751C160.629 21.7844 160.751 21.1758 160.994 20.6496C161.238 20.1233 161.585 19.7204 162.036 19.4408C162.489 19.1579 163.016 19.0165 163.614 19.0165C164.443 19.0165 165.111 19.2385 165.618 19.6825C166.124 20.1266 166.417 20.7499 166.496 21.5525H165.016C164.979 21.0887 164.849 20.7532 164.626 20.546C164.405 20.3354 164.068 20.2302 163.614 20.2302C163.121 20.2302 162.751 20.4078 162.504 20.763C162.261 21.115 162.136 21.6626 162.129 22.406V22.9487C162.129 23.725 162.246 24.2924 162.48 24.6509C162.716 25.0094 163.088 25.1887 163.595 25.1887C164.052 25.1887 164.392 25.0851 164.616 24.8779C164.843 24.6674 164.973 24.3434 165.006 23.9059H166.486ZM167.142 23.5803C167.142 23.0507 167.244 22.5787 167.448 22.1643C167.652 21.7498 167.945 21.4291 168.326 21.2022C168.711 20.9752 169.157 20.8617 169.663 20.8617C170.384 20.8617 170.971 21.0821 171.425 21.5229C171.882 21.9636 172.137 22.5623 172.189 23.3188L172.199 23.6839C172.199 24.5029 171.971 25.1608 171.513 25.6574C171.056 26.1508 170.443 26.3975 169.673 26.3975C168.903 26.3975 168.288 26.1508 167.828 25.6574C167.371 25.164 167.142 24.493 167.142 23.6444V23.5803ZM168.568 23.6839C168.568 24.1904 168.663 24.5786 168.854 24.8483C169.045 25.1147 169.318 25.2479 169.673 25.2479C170.019 25.2479 170.288 25.1163 170.482 24.8532C170.676 24.5868 170.773 24.1625 170.773 23.5803C170.773 23.0836 170.676 22.6988 170.482 22.4258C170.288 22.1527 170.015 22.0162 169.663 22.0162C169.315 22.0162 169.045 22.1527 168.854 22.4258C168.663 22.6955 168.568 23.1148 168.568 23.6839ZM174.39 20.9604L174.434 21.5771C174.816 21.1002 175.327 20.8617 175.969 20.8617C176.534 20.8617 176.956 21.0278 177.232 21.36C177.508 21.6923 177.65 22.1889 177.656 22.8501V26.2988H176.23V22.8846C176.23 22.582 176.164 22.3633 176.033 22.2284C175.901 22.0903 175.683 22.0212 175.377 22.0212C174.975 22.0212 174.674 22.1922 174.474 22.5343V26.2988H173.048V20.9604H174.39ZM183.715 26.3975C182.932 26.3975 182.294 26.1574 181.801 25.6772C181.31 25.1969 181.065 24.5572 181.065 23.7579V23.6197C181.065 23.0836 181.169 22.605 181.376 22.184C181.583 21.7597 181.876 21.434 182.254 21.2071C182.636 20.9768 183.07 20.8617 183.557 20.8617C184.287 20.8617 184.861 21.092 185.279 21.5525C185.7 22.013 185.91 22.6659 185.91 23.5112V24.0934H182.511C182.557 24.4421 182.695 24.7216 182.925 24.9322C183.159 25.1427 183.453 25.2479 183.809 25.2479C184.358 25.2479 184.787 25.0489 185.096 24.6509L185.797 25.4354C185.583 25.738 185.294 25.9748 184.929 26.1459C184.564 26.3136 184.159 26.3975 183.715 26.3975ZM183.552 22.0162C183.269 22.0162 183.039 22.1116 182.861 22.3024C182.687 22.4932 182.575 22.7662 182.526 23.1214H184.509V23.0079C184.503 22.6922 184.417 22.4488 184.253 22.2777C184.088 22.1034 183.855 22.0162 183.552 22.0162ZM188.229 26.2988H186.799V18.7204H188.229V26.2988ZM194.925 22.2975C194.731 22.2712 194.56 22.258 194.411 22.258C193.872 22.258 193.518 22.4406 193.351 22.8057V26.2988H191.925V20.9604H193.272L193.311 21.5969C193.597 21.1068 193.994 20.8617 194.5 20.8617C194.658 20.8617 194.806 20.8831 194.944 20.9259L194.925 22.2975ZM197.974 26.3975C197.191 26.3975 196.553 26.1574 196.059 25.6772C195.569 25.1969 195.324 24.5572 195.324 23.7579V23.6197C195.324 23.0836 195.428 22.605 195.635 22.184C195.842 21.7597 196.135 21.434 196.513 21.2071C196.895 20.9768 197.329 20.8617 197.816 20.8617C198.546 20.8617 199.12 21.092 199.538 21.5525C199.959 22.013 200.169 22.6659 200.169 23.5112V24.0934H196.77C196.816 24.4421 196.954 24.7216 197.184 24.9322C197.418 25.1427 197.712 25.2479 198.067 25.2479C198.617 25.2479 199.046 25.0489 199.355 24.6509L200.056 25.4354C199.842 25.738 199.553 25.9748 199.187 26.1459C198.822 26.3136 198.418 26.3975 197.974 26.3975ZM197.811 22.0162C197.528 22.0162 197.298 22.1116 197.12 22.3024C196.946 22.4932 196.834 22.7662 196.785 23.1214H198.768V23.0079C198.762 22.6922 198.676 22.4488 198.512 22.2777C198.347 22.1034 198.114 22.0162 197.811 22.0162ZM203.875 24.8236C203.875 24.6493 203.787 24.5128 203.613 24.4141C203.442 24.3121 203.166 24.2217 202.784 24.1427C201.515 23.8763 200.88 23.3369 200.88 22.5244C200.88 22.0508 201.075 21.6561 201.467 21.3403C201.862 21.0212 202.376 20.8617 203.011 20.8617C203.689 20.8617 204.23 21.0212 204.634 21.3403C205.042 21.6594 205.246 22.0738 205.246 22.5836H203.82C203.82 22.3797 203.755 22.212 203.623 22.0804C203.491 21.9455 203.286 21.8781 203.006 21.8781C202.766 21.8781 202.58 21.9324 202.449 22.0409C202.317 22.1495 202.251 22.2876 202.251 22.4554C202.251 22.6132 202.325 22.7415 202.473 22.8402C202.625 22.9356 202.878 23.0195 203.233 23.0918C203.588 23.1609 203.888 23.2398 204.131 23.3286C204.884 23.6049 205.261 24.0835 205.261 24.7644C205.261 25.2512 205.052 25.6459 204.634 25.9485C204.217 26.2478 203.677 26.3975 203.016 26.3975C202.569 26.3975 202.171 26.3186 201.822 26.1607C201.477 25.9995 201.205 25.7808 201.008 25.5045C200.811 25.2249 200.712 24.9239 200.712 24.6016H202.064C202.077 24.8549 202.171 25.0489 202.345 25.1838C202.519 25.3186 202.753 25.3861 203.046 25.3861C203.319 25.3861 203.524 25.3351 203.662 25.2331C203.804 25.1279 203.875 24.9914 203.875 24.8236ZM210.989 23.679C210.989 24.5013 210.802 25.1608 210.427 25.6574C210.055 26.1508 209.552 26.3975 208.917 26.3975C208.378 26.3975 207.942 26.21 207.61 25.835V28.3513H206.184V20.9604H207.506L207.555 21.4834C207.901 21.0689 208.351 20.8617 208.907 20.8617C209.565 20.8617 210.076 21.1051 210.442 21.5919C210.807 22.0787 210.989 22.7497 210.989 23.6049V23.679ZM209.563 23.5753C209.563 23.0787 209.475 22.6955 209.297 22.4258C209.123 22.156 208.868 22.0212 208.532 22.0212C208.085 22.0212 207.777 22.1922 207.61 22.5343V24.72C207.784 25.0719 208.095 25.2479 208.542 25.2479C209.223 25.2479 209.563 24.6904 209.563 23.5753ZM214.971 26.2988C214.905 26.1705 214.857 26.011 214.828 25.8202C214.482 26.2051 214.033 26.3975 213.481 26.3975C212.958 26.3975 212.524 26.2462 212.178 25.9436C211.836 25.641 211.665 25.2594 211.665 24.7989C211.665 24.2332 211.874 23.799 212.292 23.4964C212.713 23.1938 213.32 23.0408 214.112 23.0376H214.769V22.7317C214.769 22.485 214.704 22.2876 214.576 22.1396C214.451 21.9916 214.252 21.9176 213.979 21.9176C213.739 21.9176 213.55 21.9751 213.412 22.0903C213.277 22.2054 213.209 22.3633 213.209 22.5639H211.784C211.784 22.2547 211.879 21.9685 212.07 21.7054C212.261 21.4423 212.53 21.2367 212.879 21.0887C213.228 20.9374 213.619 20.8617 214.053 20.8617C214.711 20.8617 215.232 21.0278 215.617 21.36C216.005 21.689 216.199 22.1527 216.199 22.7514V25.0654C216.203 25.5719 216.273 25.9551 216.412 26.215V26.2988H214.971ZM213.792 25.3071C214.002 25.3071 214.196 25.2611 214.374 25.169C214.551 25.0736 214.683 24.947 214.769 24.7891V23.8714H214.236C213.522 23.8714 213.142 24.1181 213.096 24.6114L213.091 24.6953C213.091 24.8729 213.154 25.0193 213.279 25.1344C213.404 25.2496 213.575 25.3071 213.792 25.3071ZM218.8 26.2988H217.369V18.7204H218.8V26.2988ZM219.757 23.5901C219.757 22.758 219.943 22.0952 220.314 21.6018C220.689 21.1084 221.201 20.8617 221.849 20.8617C222.368 20.8617 222.798 21.0558 223.136 21.4439V18.7204H224.567V26.2988H223.279L223.21 25.7314C222.855 26.1755 222.398 26.3975 221.839 26.3975C221.211 26.3975 220.706 26.1508 220.324 25.6574C219.946 25.1608 219.757 24.4717 219.757 23.5901ZM221.183 23.6938C221.183 24.1937 221.27 24.5769 221.444 24.8433C221.618 25.1098 221.872 25.243 222.204 25.243C222.645 25.243 222.955 25.0571 223.136 24.6855V22.5787C222.959 22.207 222.651 22.0212 222.214 22.0212C221.526 22.0212 221.183 22.5787 221.183 23.6938ZM225.45 23.5803C225.45 23.0507 225.552 22.5787 225.756 22.1643C225.96 21.7498 226.253 21.4291 226.635 21.2022C227.019 20.9752 227.465 20.8617 227.972 20.8617C228.692 20.8617 229.279 21.0821 229.733 21.5229C230.19 21.9636 230.445 22.5623 230.498 23.3188L230.508 23.6839C230.508 24.5029 230.279 25.1608 229.822 25.6574C229.365 26.1508 228.751 26.3975 227.981 26.3975C227.212 26.3975 226.597 26.1508 226.136 25.6574C225.679 25.164 225.45 24.493 225.45 23.6444V23.5803ZM226.876 23.6839C226.876 24.1904 226.972 24.5786 227.162 24.8483C227.353 25.1147 227.626 25.2479 227.981 25.2479C228.327 25.2479 228.597 25.1163 228.791 24.8532C228.985 24.5868 229.082 24.1625 229.082 23.5803C229.082 23.0836 228.985 22.6988 228.791 22.4258C228.597 22.1527 228.324 22.0162 227.972 22.0162C227.623 22.0162 227.353 22.1527 227.162 22.4258C226.972 22.6955 226.876 23.1148 226.876 23.6839ZM233.68 23.5901C233.68 22.758 233.866 22.0952 234.238 21.6018C234.613 21.1084 235.124 20.8617 235.772 20.8617C236.292 20.8617 236.721 21.0558 237.06 21.4439V18.7204H238.491V26.2988H237.203L237.134 25.7314C236.779 26.1755 236.321 26.3975 235.762 26.3975C235.134 26.3975 234.629 26.1508 234.247 25.6574C233.869 25.1608 233.68 24.4717 233.68 23.5901ZM235.106 23.6938C235.106 24.1937 235.193 24.5769 235.367 24.8433C235.542 25.1098 235.795 25.243 236.127 25.243C236.568 25.243 236.879 25.0571 237.06 24.6855V22.5787C236.882 22.207 236.575 22.0212 236.137 22.0212C235.45 22.0212 235.106 22.5787 235.106 23.6938ZM242.053 26.3975C241.27 26.3975 240.632 26.1574 240.138 25.6772C239.648 25.1969 239.403 24.5572 239.403 23.7579V23.6197C239.403 23.0836 239.507 22.605 239.714 22.184C239.921 21.7597 240.214 21.434 240.592 21.2071C240.974 20.9768 241.408 20.8617 241.895 20.8617C242.625 20.8617 243.199 21.092 243.617 21.5525C244.038 22.013 244.248 22.6659 244.248 23.5112V24.0934H240.849C240.895 24.4421 241.033 24.7216 241.263 24.9322C241.497 25.1427 241.791 25.2479 242.147 25.2479C242.696 25.2479 243.125 25.0489 243.434 24.6509L244.135 25.4354C243.921 25.738 243.632 25.9748 243.267 26.1459C242.901 26.3136 242.497 26.3975 242.053 26.3975ZM241.89 22.0162C241.607 22.0162 241.377 22.1116 241.199 22.3024C241.025 22.4932 240.913 22.7662 240.864 23.1214H242.847V23.0079C242.841 22.6922 242.755 22.4488 242.591 22.2777C242.426 22.1034 242.193 22.0162 241.89 22.0162Z" fill="#232323"/>
</svg>
