<svg width="158" height="44" viewBox="0 0 158 44" fill="none" xmlns="http://www.w3.org/2000/svg">
<path fill-rule="evenodd" clip-rule="evenodd" d="M42.2205 41.6354C41.1468 30.9425 32.1207 22.5948 21.1449 22.5948C10.1691 22.5948 1.14306 30.9425 0.0693358 41.6354C0.413139 42.8708 1.54637 43.7773 2.89134 43.7773L39.3985 43.7773C40.7435 43.7773 41.8767 42.8708 42.2205 41.6354Z" fill="#F7D643"/>
<path fill-rule="evenodd" clip-rule="evenodd" d="M9.36257e-08 2.14191C0.343809 0.906532 1.47704 -6.45633e-08 2.822 -1.23353e-07L39.3292 -1.71913e-06C40.6741 -1.77792e-06 41.8074 0.906528 42.1512 2.1419C41.0774 12.8348 32.0514 21.1825 21.0756 21.1825C10.0998 21.1825 1.07373 12.8348 9.36257e-08 2.14191Z" fill="#F7D643"/>
<path fill-rule="evenodd" clip-rule="evenodd" d="M57.4357 42.4885C68.6987 42.4885 77.8292 33.3581 77.8292 22.0951C77.8292 10.8465 68.722 1.72495 57.4789 1.70166H57.4355L57.4355 42.4885C57.4356 42.4885 57.4357 42.4885 57.4357 42.4885Z" fill="#FE7F01"/>
<path fill-rule="evenodd" clip-rule="evenodd" d="M99.3817 42.4886C88.1187 42.4886 78.9882 33.3581 78.9882 22.0951C78.9882 10.8321 88.1187 1.70166 99.3817 1.70166C99.3817 1.70166 99.3818 1.70166 99.3818 1.70166L99.3818 42.4886C99.3818 42.4886 99.3817 42.4886 99.3817 42.4886Z" fill="#FE7F01"/>
<path fill-rule="evenodd" clip-rule="evenodd" d="M157.139 43.6387C157.139 31.977 147.685 22.5233 136.024 22.5233C124.362 22.5233 114.908 31.977 114.908 43.6387M157.139 43.6387L114.908 43.6387L157.139 43.6387Z" fill="#454C54"/>
<path fill-rule="evenodd" clip-rule="evenodd" d="M157.055 -1.84597e-06C157.055 11.6616 147.601 21.1152 135.94 21.1152C124.278 21.1152 114.824 11.6616 114.824 0L157.055 -1.84597e-06Z" fill="#454C54"/>
</svg>
