<svg width="27" height="27" viewBox="0 0 27 27" fill="none" xmlns="http://www.w3.org/2000/svg">
<g clip-path="url(#clip0_286_7339)">
<path d="M26.6667 13.3652C26.6667 20.7478 20.6842 26.7303 13.3015 26.7303C5.9825 26.6667 0 20.6842 0 13.3652C0 5.9825 5.9825 0 13.3015 0C20.6842 0 26.6667 5.9825 26.6667 13.3652Z" fill="#4C4C4C"/>
<path d="M19.9837 7.44629H6.68217C6.36395 7.44629 6.10938 7.70086 6.10938 8.08273V18.7112C6.10938 19.0294 6.36395 19.3476 6.68217 19.3476H19.9837C20.3019 19.3476 20.5565 19.0931 20.5565 18.7112V8.01908C20.5565 7.70086 20.3019 7.44629 19.9837 7.44629ZM18.5835 8.65552L13.3647 13.9379L8.14597 8.65552H18.5835ZM7.3186 18.0111V9.48288L12.9192 15.2108C13.2375 15.529 13.492 15.4654 13.8103 15.2108L19.3472 9.54653V18.0748H7.3186V18.0111Z" fill="white"/>
</g>
<defs>
<clipPath id="clip0_286_7339">
<rect width="26.6667" height="26.6667" fill="white"/>
</clipPath>
</defs>
</svg>
