<svg width="40" height="40" viewBox="0 0 40 40" fill="none" xmlns="http://www.w3.org/2000/svg">
<path d="M40 19.9523C40 30.4535 31.9809 39.0453 21.7661 39.9045C21.1933 40 20.6205 40 20.0477 40C18.5203 40 17.0883 39.8091 15.7518 39.5227C6.68258 37.5179 0 29.4988 0 19.9523C0 8.97375 8.97375 0 20.0477 0C31.1217 0 40 8.97375 40 19.9523Z" fill="#286EE8"/>
<path d="M22.3386 15.7518C22.625 15.3699 23.2932 15.0836 24.1524 15.0836C25.0116 15.0836 25.9662 15.179 26.9209 15.4654L27.6846 11.2649C26.0617 10.7876 24.3433 10.5967 22.625 10.5967C20.9066 10.5967 19.5701 10.8831 18.5199 11.4559C17.4698 12.1241 16.7061 12.7924 16.3242 13.747C15.9424 14.7017 15.656 16.1337 15.656 18.043V19.6659H12.4102V24.4392H15.7514V39.5227C17.1834 39.8091 18.6154 40 20.0474 40C20.6202 40 21.193 40 21.7658 39.9046V24.4392H26.1572V19.6659H21.7658V18.1384C21.7658 16.8974 21.8612 16.2291 22.3386 15.7518Z" fill="white"/>
<path d="M40 19.9523C40 30.4535 31.9809 39.0453 21.7661 39.9045C21.1933 40 20.6205 40 20.0477 40C18.5203 40 17.0883 39.8091 15.7518 39.5227C6.68258 37.5179 0 29.4988 0 19.9523C0 8.97375 8.97375 0 20.0477 0C31.1217 0 40 8.97375 40 19.9523Z" fill="#286EE8"/>
<path d="M22.3386 15.7518C22.625 15.3699 23.2932 15.0836 24.1524 15.0836C25.0116 15.0836 25.9662 15.179 26.9209 15.4654L27.6846 11.2649C26.0617 10.7876 24.3433 10.5967 22.625 10.5967C20.9066 10.5967 19.5701 10.8831 18.5199 11.4559C17.4698 12.1241 16.7061 12.7924 16.3242 13.747C15.9424 14.7017 15.656 16.1337 15.656 18.043V19.6659H12.4102V24.4392H15.7514V39.5227C17.1834 39.8091 18.6154 40 20.0474 40C20.6202 40 21.193 40 21.7658 39.9046V24.4392H26.1572V19.6659H21.7658V18.1384C21.7658 16.8974 21.8612 16.2291 22.3386 15.7518Z" fill="white"/>
<path d="M40 19.9523C40 30.4535 31.9809 39.0453 21.7661 39.9045C21.1933 40 20.6205 40 20.0477 40C18.5203 40 17.0883 39.8091 15.7518 39.5227C6.68258 37.5179 0 29.4988 0 19.9523C0 8.97375 8.97375 0 20.0477 0C31.1217 0 40 8.97375 40 19.9523Z" fill="#286EE8"/>
<path d="M22.3386 15.7518C22.625 15.3699 23.2932 15.0836 24.1524 15.0836C25.0116 15.0836 25.9662 15.179 26.9209 15.4654L27.6846 11.2649C26.0617 10.7876 24.3433 10.5967 22.625 10.5967C20.9066 10.5967 19.5701 10.8831 18.5199 11.4559C17.4698 12.1241 16.7061 12.7924 16.3242 13.747C15.9424 14.7017 15.656 16.1337 15.656 18.043V19.6659H12.4102V24.4392H15.7514V39.5227C17.1834 39.8091 18.6154 40 20.0474 40C20.6202 40 21.193 40 21.7658 39.9046V24.4392H26.1572V19.6659H21.7658V18.1384C21.7658 16.8974 21.8612 16.2291 22.3386 15.7518Z" fill="white"/>
</svg>
