<svg width="370" height="52" viewBox="0 0 501 73" fill="none" xmlns="http://www.w3.org/2000/svg">
<path d="M89.181 19.1317C93.4214 19.1798 97.0874 20.7549 100.172 23.8604C103.26 26.9624 104.777 30.7832 104.726 35.3262C104.674 39.8691 103.137 43.7209 100.121 46.8813C97.1046 50.0418 93.4179 51.5963 89.0607 51.5481C84.7068 51.4966 81.0202 49.8802 78.0041 46.6888C74.9915 43.5008 73.5059 39.7316 73.5575 35.3743C73.585 32.9979 74.0424 30.7763 74.9262 28.706C75.81 26.6391 76.9759 24.9127 78.4237 23.5233C79.8715 22.134 81.5326 21.0507 83.4034 20.27C85.2777 19.4893 87.2036 19.1076 89.181 19.1317ZM81.1681 35.2436C81.1371 37.7954 81.9384 39.876 83.5685 41.4855C85.1986 43.095 87.0282 43.91 89.0641 43.9341C91.0966 43.9582 92.9434 43.2084 94.5907 41.6781C96.2414 40.1511 97.084 38.0843 97.1149 35.474C97.1459 32.8672 96.3446 30.766 94.7145 29.1703C93.0844 27.5745 91.2548 26.7664 89.2189 26.7423C87.183 26.7182 85.3396 27.492 83.6889 29.0637C82.0416 30.6353 81.199 32.6953 81.1681 35.2436Z" fill="white"/>
<path d="M128.524 44.1336C129.641 44.1473 130.45 44.2918 130.948 44.5703C131.447 44.8489 131.787 45.2478 131.966 45.7637C132.145 46.2795 132.231 46.9433 132.224 47.7446C132.214 48.5459 132.135 49.1924 131.987 49.6773C131.839 50.1622 131.66 50.5336 131.461 50.7881C131.258 51.0426 130.955 51.2283 130.553 51.3349C130.092 51.5034 129.359 51.5791 128.359 51.5653L110.479 51.359C109.819 51.3521 109.193 51.1733 108.594 50.8225C107.339 50.0934 106.724 48.9517 106.741 47.4041C106.751 46.6578 106.926 46.0594 107.277 45.6055L120.817 27.3201L110.933 27.2031C110.245 27.1963 109.736 27.1688 109.406 27.1206C109.076 27.0759 108.684 26.9487 108.226 26.7423C107.401 26.3296 106.999 25.2532 107.016 23.5027C107.037 21.6697 107.439 20.5555 108.216 20.1634C108.649 19.9399 109.028 19.8092 109.358 19.7679C109.688 19.7301 110.197 19.7129 110.885 19.7198L128.163 19.9192C128.823 19.9261 129.449 20.1084 130.047 20.4557C130.646 20.8065 131.106 21.2708 131.43 21.8485C131.753 22.4263 131.908 23.1004 131.901 23.8707C131.891 24.6445 131.712 25.2601 131.364 25.714L117.821 44.0098L128.524 44.1336Z" fill="white"/>
<path d="M150.128 19.8368C154.368 19.8849 158.031 21.46 161.119 24.5655C164.207 27.6675 165.724 31.4917 165.672 36.0312C165.621 40.5742 164.083 44.4259 161.067 47.5864C158.051 50.7469 154.365 52.3014 150.011 52.2498C145.654 52.1982 141.97 50.5818 138.954 47.3904C135.938 44.2024 134.456 40.4332 134.508 36.0759C134.535 33.6996 134.989 31.4779 135.873 29.4076C136.757 27.3408 137.923 25.6144 139.374 24.225C140.822 22.8356 142.483 21.7523 144.354 20.9717C146.225 20.1944 148.15 19.8161 150.128 19.8368ZM142.118 35.9521C142.087 38.5039 142.889 40.5811 144.519 42.1906C146.149 43.8 147.978 44.6151 150.014 44.6392C152.047 44.6632 153.894 43.9135 155.544 42.3832C157.195 40.8528 158.038 38.7859 158.065 36.1791C158.096 33.5723 157.295 31.4711 155.665 29.8753C154.038 28.2831 152.205 27.4715 150.169 27.4474C148.133 27.4233 146.29 28.1971 144.639 29.7687C142.988 31.3404 142.146 33.4038 142.118 35.9521Z" fill="white"/>
<path d="M188.986 21.9861C189.264 21.4875 189.677 21.1573 190.224 20.9922C190.77 20.8272 191.451 20.7481 192.27 20.7584C193.088 20.7687 193.745 20.8444 194.244 20.9957C194.743 21.1436 195.114 21.3224 195.355 21.5253C195.595 21.7282 195.771 22.0308 195.881 22.4332C196.049 22.894 196.125 23.6231 196.115 24.6273L195.836 48.484C195.829 49.1718 195.802 49.6739 195.754 49.9903C195.706 50.3067 195.565 50.6746 195.331 51.1045C194.918 51.8749 193.797 52.2463 191.964 52.2257C190.846 52.2153 190.072 52.119 189.646 51.9402C189.216 51.7614 188.862 51.4863 188.58 51.1114C182.235 42.4381 178.056 36.774 176.051 34.1156L175.886 48.257C175.879 48.9448 175.852 49.4469 175.804 49.7599C175.759 50.0763 175.615 50.4442 175.381 50.8741C174.968 51.6445 173.847 52.0159 172.014 51.9952C170.236 51.9746 169.153 51.5722 168.761 50.795C168.537 50.3617 168.406 49.9731 168.365 49.6292C168.327 49.2853 168.31 48.7832 168.317 48.1229L168.596 24.139C168.606 23.0522 168.754 22.2578 169.032 21.7557C169.311 21.257 169.72 20.9235 170.267 20.7584C170.814 20.5933 171.515 20.5176 172.375 20.528C173.235 20.5383 173.912 20.6243 174.414 20.7893C174.913 20.951 175.264 21.1367 175.463 21.3361C175.577 21.4221 175.9 21.8004 176.437 22.4641C182.386 30.7591 186.365 36.2341 188.37 38.8959L188.539 24.3694C188.563 23.2792 188.707 22.4848 188.986 21.9861Z" fill="white"/>
<path d="M54.6117 20.982C54.8937 18.9426 55.5196 15.8819 52.7958 13.8734C50.0721 11.865 44.4252 13.7221 42.5406 14.5647C42.5234 14.5716 42.5097 14.5819 42.4959 14.5922C38.5926 11.9476 33.5957 10.3897 27.4398 10.5445C21.2839 10.3897 16.2904 11.9476 12.3836 14.5922C12.3699 14.5853 12.3527 14.5716 12.3389 14.5647C10.4543 13.7221 4.80396 11.865 2.08368 13.8734C-0.640048 15.8819 -0.0141412 18.9426 0.267861 20.982C0.553301 23.0213 2.42414 26.6805 2.73366 28.1283C2.73366 28.1283 2.76117 28.1214 2.799 28.1077C1.17233 33.4898 1.08979 39.3396 2.42414 44.4706C6.16926 58.8665 27.4432 60.8474 27.4432 60.8474C27.4432 60.8474 48.7171 58.8665 52.4588 44.4706C53.7932 39.3396 53.7072 33.4932 52.084 28.1111C52.1218 28.1214 52.1493 28.1317 52.1493 28.1317C52.4588 26.6839 54.3297 23.0248 54.6117 20.982Z" fill="black"/>
<path d="M42.7848 28.2039C42.1211 25.3392 39.5246 23.4546 37.0313 24.0289C35.4803 24.3866 34.311 25.6212 33.8089 27.1997C32.7359 27.8704 31.1195 28.823 30.418 28.9227C30.3011 28.9399 30.2288 28.9777 30.1841 29.0362C29.5548 28.2555 28.6916 27.6434 27.4398 27.6434C26.188 27.6434 25.3248 28.259 24.6954 29.0362C24.6507 28.9812 24.5785 28.9399 24.4616 28.9227C23.6499 28.8058 21.6381 27.5677 20.6305 26.9212C20.0871 25.4802 18.9694 24.3694 17.4975 24.0324C14.987 23.4512 12.4111 25.322 11.744 28.2074C11.0768 31.0927 12.5693 33.9024 15.0798 34.4836C16.7512 34.8688 18.4501 34.1672 19.5953 32.8019C19.6022 32.8398 19.6091 32.8776 19.6194 32.9154C20.3141 35.9108 17.7313 38.8065 17.0504 41.207C16.3695 43.6074 16.8819 44.5669 17.8792 45.7362C18.8078 46.8229 18.6186 47.4592 18.9866 45.3029C19.1482 46.5306 19.3821 47.7412 19.5265 48.766C19.8704 51.2249 20.7027 51.5482 21.6553 51.586C21.927 51.5963 22.154 51.5929 22.35 51.5723L25.2663 53.1301C26.6797 53.5807 28.1964 53.5875 29.6132 53.1473L32.6121 51.5791C32.7875 51.5929 32.9835 51.5963 33.2174 51.586C34.17 51.5482 35.0022 51.2249 35.3461 48.766C35.4906 47.7412 35.7244 46.5272 35.8861 45.3029C36.254 47.4592 36.0649 46.8229 36.9934 45.7362C37.9908 44.5669 38.5032 43.6074 37.8223 41.207C37.1585 38.8615 34.6824 36.0415 35.2223 33.1149C36.3572 34.267 37.922 34.8379 39.4455 34.4836C41.9388 33.9024 43.4451 31.0721 42.7848 28.2039Z" fill="white"/>
<path d="M51.8288 20.9332C52.6251 18.8362 52.1407 16.7071 50.7468 16.1778C49.3528 15.6485 47.5773 16.9194 46.781 19.0165C45.9847 21.1136 46.4692 23.2427 47.8631 23.772C49.257 24.3013 51.0325 23.0303 51.8288 20.9332Z" fill="white"/>
<path d="M7.39812 23.775C8.79203 23.2457 9.27649 21.1166 8.48019 19.0195C7.68388 16.9224 5.90836 15.6515 4.51444 16.1808C3.12053 16.7101 2.63607 18.8392 3.43238 20.9362C4.22868 23.0333 6.00421 24.3043 7.39812 23.775Z" fill="white"/>
<path d="M19.0979 29.659C19.4171 28.9716 18.8617 28.0363 17.8574 27.5699C16.853 27.1035 15.7801 27.2826 15.4609 27.97C15.1417 28.6574 15.6971 29.5927 16.7014 30.0591C17.7058 30.5255 18.7787 30.3463 19.0979 29.659Z" fill="black"/>
<path d="M17.1331 28.1317C16.8305 28.2899 16.6207 28.6063 16.6207 28.9709C16.6207 29.4936 17.0437 29.9166 17.5665 29.9166C18.0892 29.9166 18.5122 29.4936 18.5122 28.9709C18.5122 28.737 18.4262 28.5204 18.2818 28.3553C17.8553 28.1627 17.4392 28.1145 17.1331 28.1317Z" fill="white"/>
<path d="M18.1168 28.9228C18.1168 29.1876 17.9036 29.4043 17.6354 29.4043C17.3706 29.4043 17.1573 29.1911 17.1573 28.9228C17.1573 28.658 17.3706 28.4413 17.6354 28.4413C17.9002 28.4448 18.1168 28.658 18.1168 28.9228Z" fill="black"/>
<path d="M17.4874 28.5272C17.4874 28.6442 17.3945 28.737 17.2776 28.737C17.1607 28.737 17.0678 28.6442 17.0678 28.5272C17.0678 28.4103 17.1607 28.3174 17.2776 28.3174C17.3945 28.3174 17.4874 28.4103 17.4874 28.5272Z" fill="white"/>
<path d="M38.7071 30.0624C39.7114 29.596 40.2668 28.6607 39.9476 27.9733C39.6284 27.2859 38.5555 27.1068 37.5512 27.5732C36.5468 28.0396 35.9914 28.9749 36.3106 29.6623C36.6298 30.3496 37.7028 30.5288 38.7071 30.0624Z" fill="black"/>
<path d="M38.2762 28.1317C38.5789 28.2899 38.7886 28.6063 38.7886 28.9708C38.7886 29.4936 38.3656 29.9166 37.8429 29.9166C37.3202 29.9166 36.8972 29.4936 36.8972 28.9708C36.8972 28.737 36.9831 28.5203 37.1276 28.3552C37.554 28.1627 37.9701 28.1145 38.2762 28.1317Z" fill="white"/>
<path d="M37.2927 28.9227C37.2927 29.1875 37.5059 29.4042 37.7741 29.4042C38.0389 29.4042 38.2522 29.191 38.2522 28.9227C38.2522 28.6579 38.0389 28.4413 37.7741 28.4413C37.5093 28.4447 37.2927 28.6579 37.2927 28.9227Z" fill="black"/>
<path d="M37.922 28.5272C37.922 28.6441 38.0149 28.737 38.1318 28.737C38.2487 28.737 38.3416 28.6441 38.3416 28.5272C38.3416 28.4103 38.2487 28.3174 38.1318 28.3174C38.0183 28.3174 37.922 28.4103 37.922 28.5272Z" fill="white"/>
<path d="M33.5338 44.7699C33.6542 44.1406 32.9939 39.7007 31.3431 39.7007C30.191 39.7007 28.4887 40.5055 27.5292 40.6396C27.4673 40.6499 27.4123 40.6499 27.3504 40.6396C26.3634 40.4848 24.2071 39.3362 23.1169 39.7007C21.7654 40.1513 21.2254 44.1406 21.3458 44.7699C21.3493 44.7802 21.3527 44.7905 21.3527 44.8043C21.3458 44.8834 21.3355 44.9625 21.3355 45.0416C21.3355 47.2873 24.0695 49.11 27.4398 49.11C30.8101 49.11 33.5441 47.2873 33.5441 45.0416C33.5441 44.9659 33.5338 44.8903 33.5269 44.8146C33.5269 44.7974 33.5304 44.7837 33.5338 44.7699Z" fill="black"/>
<path d="M227.794 11.9756V60.9947" stroke="white"/>
<g clip-path="url(#clip0)">
<path d="M501 31.4551C500.926 34.3229 500.776 37.1427 500.483 39.9536C500.273 41.9703 500.058 43.9863 499.869 46.0046C499.841 46.3029 499.759 46.371 499.47 46.3493C497.723 46.217 495.976 46.0973 494.228 45.9844C494.007 45.9702 493.964 45.9066 493.985 45.692C494.285 42.5349 494.705 39.3883 494.908 36.2222C495.134 32.6912 495.25 29.1602 494.704 25.6442C494.497 24.3131 494.175 23.0105 493.53 21.8096C493.031 20.8809 492.382 20.1077 491.279 19.8572C489.618 19.4803 488.061 20.1211 487.027 21.6069C486.157 22.858 485.717 24.2847 485.334 25.7302C484.729 28.0064 484.429 30.3395 484.04 32.6561C483.535 35.6614 482.972 38.6547 481.838 41.506C481.129 43.2902 480.228 44.9689 478.806 46.3134C476.996 48.0236 474.87 49.0884 472.319 48.9463C467.138 48.6584 463.037 45.7399 461.871 40.246C461.316 37.6295 461.386 35.0026 461.762 32.3756C462.668 26.0622 464.903 20.1652 467.577 14.4089C467.954 13.596 468.377 12.8034 468.766 11.9958C468.862 11.7976 468.945 11.7468 469.159 11.859C470.727 12.6793 472.297 13.4958 473.879 14.29C474.194 14.4478 474.025 14.5928 473.944 14.7513C472.331 17.892 470.951 21.1291 469.8 24.4619C468.823 27.2893 468.012 30.1585 467.581 33.1197C467.274 35.2224 467.132 37.3326 467.707 39.4174C468.304 41.583 469.595 42.9028 472.521 43.1466C473.454 43.2244 474.154 42.7054 474.764 42.0862C475.6 41.239 476.067 40.1742 476.477 39.0877C477.305 36.8997 477.743 34.6167 478.136 32.3248C478.636 29.41 478.973 26.4652 479.799 23.6117C480.455 21.3467 481.341 19.1909 482.908 17.3723C485.023 14.9188 487.743 13.8106 490.978 13.9916C494.866 14.2092 497.416 16.3269 499.027 19.7016C499.877 21.4843 500.315 23.3837 500.599 25.3211C500.898 27.3678 500.976 29.4317 501 31.4551Z" fill="white"/>
<path d="M449.631 17.0148C449.624 17.0926 449.616 17.1532 449.614 17.2137C449.563 20.3866 449.527 23.5601 449.456 26.7329C449.388 29.7936 449.22 32.8497 448.958 35.8999C448.945 36.036 448.94 36.1728 448.933 36.3097C448.889 37.2511 448.89 37.2362 447.956 37.1464C446.413 36.9984 444.87 36.8645 443.325 36.7441C443.049 36.7224 443.005 36.6297 443.025 36.3837C443.195 34.3004 443.359 32.2171 443.445 30.1278C443.507 28.636 443.59 27.1442 443.606 25.6516C443.638 22.6149 443.771 19.5797 443.72 16.543C443.691 14.8964 443.531 13.2648 443.081 11.6735C443.011 11.4275 443.098 11.3789 443.295 11.3198C444.982 10.8203 446.669 10.32 448.349 9.80181C448.615 9.71955 448.702 9.80181 448.723 10.0299C448.764 10.4711 449.024 10.667 449.439 10.8008C450.49 11.1388 451.509 11.5823 452.616 11.737C453.281 11.8305 453.944 11.8402 454.608 11.7169C455.614 11.5299 456.39 11.0199 456.969 10.1832C457.961 8.74745 458.585 7.15469 459.056 5.49762C459.144 5.19103 459.249 5.15364 459.542 5.2344C461.19 5.6883 462.843 6.12425 464.496 6.55796C464.736 6.62077 464.846 6.67387 464.759 6.97298C464.02 9.51092 463.051 11.9389 461.381 14.0409C459.552 16.3433 457.097 17.4291 454.186 17.5966C452.701 17.6819 451.247 17.4725 449.82 17.0605C449.763 17.044 449.703 17.032 449.631 17.0148Z" fill="white"/>
<path d="M480.871 3.16459C480.837 3.21918 480.798 3.28274 480.757 3.34481C479.488 5.25836 478.216 7.16967 476.955 9.08846C476.82 9.29335 476.731 9.31354 476.524 9.17819C475.056 8.21506 473.583 7.25941 472.1 6.31721C471.878 6.17588 471.897 6.0839 472.023 5.89546C473.293 3.99761 474.557 2.09453 475.816 0.189197C475.939 0.00300099 476.024 -0.0687854 476.248 0.079274C477.715 1.04465 479.192 1.99432 480.664 2.95073C480.745 3.00307 480.856 3.03074 480.871 3.16459Z" fill="white"/>
<path d="M454.413 60.4748C454.378 64.1134 453.446 67.5495 451.984 70.8636C451.697 71.5127 451.359 72.1386 451.063 72.7831C450.954 73.0179 450.855 73.0553 450.617 72.929C449.087 72.1161 447.553 71.3123 446.01 70.5234C445.752 70.391 445.74 70.2886 445.866 70.0478C446.909 68.0535 447.756 65.9836 448.218 63.7769C448.639 61.7684 448.752 59.7547 448.165 57.7574C447.724 56.2588 446.948 54.9726 445.578 54.1135C443.728 52.9537 440.757 52.9013 438.91 55.194C438.194 56.0831 437.559 57.0216 436.973 57.9952C436.053 59.5229 435.187 61.0842 434.09 62.5027C431.459 65.9051 427.987 67.8299 423.668 68.1746C419.746 68.4872 416.26 67.4052 413.37 64.7117C411.363 62.8415 410.2 60.489 409.639 57.8508C408.766 53.7411 409.24 49.7786 411.205 46.0397C411.841 44.8291 412.644 43.7044 413.379 42.5446C413.489 42.3719 413.529 42.2867 413.298 42.1573C409.986 40.3065 407.812 37.5091 406.742 33.9609C404.91 27.8845 406.535 22.6 410.897 18.0789C412.93 15.9725 415.409 14.5966 418.336 14.0769C421.452 13.5235 424.428 13.9841 427.266 15.3406C427.545 15.4737 427.718 15.4505 427.952 15.2561C429.811 13.7067 431.687 12.1775 433.543 10.6251C433.796 10.4135 433.902 10.4546 434.092 10.6835C435.171 11.9816 436.26 13.2722 437.363 14.5524C437.558 14.7783 437.586 14.8822 437.327 15.0908C435.758 16.3613 434.213 17.6594 432.647 18.9336C432.4 19.1341 432.37 19.241 432.593 19.496C434.466 21.6354 435.724 24.0851 436.041 26.9072C436.612 31.9846 435.083 36.3276 431.09 39.6851C427.862 42.3996 424.09 43.7426 419.847 43.7815C419.622 43.7837 419.482 43.8413 419.36 44.0379C418.428 45.5305 417.414 46.9767 416.559 48.5111C414.627 51.9771 414.509 55.5357 416.351 59.0734C417.349 60.9907 419.077 62.0272 421.196 62.324C424.611 62.8018 427.38 61.6219 429.463 58.9082C430.577 57.4568 431.399 55.8236 432.369 54.2825C433.331 52.7555 434.377 51.2929 435.753 50.0964C437.75 48.3608 440.109 47.5465 442.752 47.5443C447.428 47.5398 451.505 50.2647 453.314 54.5718C454.108 56.4622 454.428 58.4371 454.413 60.4748ZM412.553 32.8161C413.935 36.3112 416.779 38.1836 420.421 37.9727C422.95 37.8262 425.188 36.9326 427.169 35.375C430.38 32.8505 430.926 28.6353 429.717 25.8379C428.577 23.2019 426.644 21.2944 423.929 20.2595C421.515 19.3397 419.072 19.3517 416.852 20.7702C413.702 22.7832 412.044 25.7003 411.895 29.4204C411.898 30.5989 412.123 31.7281 412.553 32.8161Z" fill="white"/>
</g>
<path d="M262.249 37.6039C262.161 38.8279 261.708 39.7914 260.89 40.4945C260.077 41.1977 259.004 41.5492 257.671 41.5492C256.213 41.5492 255.064 41.0596 254.226 40.0805C253.392 39.0961 252.976 37.7471 252.976 36.0336V35.3383C252.976 34.2445 253.168 33.281 253.554 32.4477C253.939 31.6143 254.489 30.9763 255.202 30.5336C255.921 30.0857 256.754 29.8617 257.702 29.8617C259.015 29.8617 260.072 30.2133 260.874 30.9164C261.676 31.6195 262.14 32.6065 262.265 33.8773H259.921C259.864 33.143 259.658 32.6117 259.304 32.2836C258.955 31.9503 258.421 31.7836 257.702 31.7836C256.921 31.7836 256.335 32.0648 255.944 32.6273C255.559 33.1846 255.361 34.0518 255.351 35.2289V36.0883C255.351 37.3175 255.536 38.2159 255.905 38.7836C256.28 39.3513 256.869 39.6352 257.671 39.6352C258.395 39.6352 258.934 39.4711 259.288 39.143C259.648 38.8096 259.853 38.2966 259.905 37.6039H262.249ZM263.288 37.0883C263.288 36.2497 263.45 35.5023 263.773 34.8461C264.096 34.1898 264.559 33.682 265.163 33.3227C265.773 32.9633 266.478 32.7836 267.28 32.7836C268.421 32.7836 269.351 33.1326 270.069 33.8305C270.793 34.5284 271.197 35.4763 271.28 36.6742L271.296 37.2523C271.296 38.5492 270.934 39.5909 270.21 40.3773C269.486 41.1586 268.515 41.5492 267.296 41.5492C266.077 41.5492 265.103 41.1586 264.374 40.3773C263.65 39.5961 263.288 38.5336 263.288 37.1898V37.0883ZM265.546 37.2523C265.546 38.0544 265.697 38.669 265.999 39.0961C266.301 39.518 266.734 39.7289 267.296 39.7289C267.843 39.7289 268.27 39.5206 268.577 39.1039C268.885 38.682 269.038 38.0102 269.038 37.0883C269.038 36.3018 268.885 35.6925 268.577 35.2602C268.27 34.8279 267.838 34.6117 267.28 34.6117C266.728 34.6117 266.301 34.8279 265.999 35.2602C265.697 35.6872 265.546 36.3513 265.546 37.2523ZM274.765 32.9398L274.835 33.9164C275.439 33.1612 276.249 32.7836 277.265 32.7836C278.161 32.7836 278.827 33.0466 279.265 33.5727C279.702 34.0987 279.926 34.8852 279.937 35.932V41.393H277.679V35.9867C277.679 35.5076 277.575 35.1612 277.366 34.9477C277.158 34.7289 276.812 34.6195 276.327 34.6195C275.692 34.6195 275.215 34.8904 274.898 35.432V41.393H272.64V32.9398H274.765ZM289.53 41.5492C288.291 41.5492 287.28 41.169 286.499 40.4086C285.723 39.6482 285.335 38.6352 285.335 37.3695V37.1508C285.335 36.3018 285.499 35.544 285.827 34.8773C286.155 34.2055 286.619 33.6898 287.218 33.3305C287.822 32.9659 288.51 32.7836 289.28 32.7836C290.437 32.7836 291.346 33.1482 292.007 33.8773C292.674 34.6065 293.007 35.6404 293.007 36.9789V37.9008H287.624C287.697 38.4529 287.916 38.8956 288.28 39.2289C288.65 39.5622 289.116 39.7289 289.679 39.7289C290.549 39.7289 291.228 39.4138 291.718 38.7836L292.827 40.0258C292.489 40.505 292.03 40.88 291.452 41.1508C290.874 41.4164 290.234 41.5492 289.53 41.5492ZM289.273 34.6117C288.825 34.6117 288.46 34.7628 288.179 35.0648C287.903 35.3669 287.726 35.7992 287.648 36.3617H290.788V36.182C290.778 35.682 290.642 35.2966 290.382 35.0258C290.122 34.7497 289.752 34.6117 289.273 34.6117ZM296.679 41.393H294.413V29.393H296.679V41.393ZM307.28 35.057C306.973 35.0154 306.702 34.9945 306.468 34.9945C305.614 34.9945 305.054 35.2836 304.788 35.8617V41.393H302.53V32.9398H304.663L304.726 33.9477C305.179 33.1716 305.806 32.7836 306.609 32.7836C306.859 32.7836 307.093 32.8175 307.312 32.8852L307.28 35.057ZM312.109 41.5492C310.869 41.5492 309.859 41.169 309.077 40.4086C308.301 39.6482 307.913 38.6352 307.913 37.3695V37.1508C307.913 36.3018 308.077 35.544 308.405 34.8773C308.734 34.2055 309.197 33.6898 309.796 33.3305C310.4 32.9659 311.088 32.7836 311.859 32.7836C313.015 32.7836 313.924 33.1482 314.585 33.8773C315.252 34.6065 315.585 35.6404 315.585 36.9789V37.9008H310.202C310.275 38.4529 310.494 38.8956 310.859 39.2289C311.228 39.5622 311.694 39.7289 312.257 39.7289C313.127 39.7289 313.806 39.4138 314.296 38.7836L315.405 40.0258C315.067 40.505 314.609 40.88 314.03 41.1508C313.452 41.4164 312.812 41.5492 312.109 41.5492ZM311.851 34.6117C311.403 34.6117 311.038 34.7628 310.757 35.0648C310.481 35.3669 310.304 35.7992 310.226 36.3617H313.366V36.182C313.356 35.682 313.221 35.2966 312.96 35.0258C312.7 34.7497 312.33 34.6117 311.851 34.6117ZM321.452 39.057C321.452 38.781 321.314 38.5648 321.038 38.4086C320.767 38.2471 320.33 38.1039 319.726 37.9789C317.715 37.557 316.71 36.7029 316.71 35.4164C316.71 34.6664 317.02 34.0414 317.64 33.5414C318.265 33.0362 319.08 32.7836 320.085 32.7836C321.158 32.7836 322.015 33.0362 322.655 33.5414C323.301 34.0466 323.624 34.7029 323.624 35.5102H321.366C321.366 35.1872 321.262 34.9216 321.054 34.7133C320.846 34.4997 320.52 34.393 320.077 34.393C319.697 34.393 319.403 34.4789 319.194 34.6508C318.986 34.8227 318.882 35.0414 318.882 35.307C318.882 35.557 318.999 35.7602 319.234 35.9164C319.473 36.0675 319.874 36.2003 320.437 36.3148C320.999 36.4242 321.473 36.5492 321.859 36.6898C323.051 37.1273 323.648 37.8852 323.648 38.9633C323.648 39.7341 323.317 40.3591 322.655 40.8383C321.994 41.3122 321.14 41.5492 320.093 41.5492C319.385 41.5492 318.754 41.4242 318.202 41.1742C317.655 40.919 317.226 40.5727 316.913 40.1352C316.601 39.6925 316.444 39.2159 316.444 38.7055H318.585C318.606 39.1065 318.754 39.4138 319.03 39.6273C319.306 39.8409 319.676 39.9477 320.14 39.9477C320.572 39.9477 320.898 39.8669 321.116 39.7055C321.34 39.5388 321.452 39.3227 321.452 39.057ZM332.718 37.2445C332.718 38.5466 332.421 39.5909 331.827 40.3773C331.239 41.1586 330.442 41.5492 329.437 41.5492C328.583 41.5492 327.892 41.2523 327.366 40.6586V44.643H325.109V32.9398H327.202L327.28 33.768C327.827 33.1117 328.541 32.7836 329.421 32.7836C330.463 32.7836 331.273 33.169 331.851 33.9398C332.429 34.7107 332.718 35.7732 332.718 37.1273V37.2445ZM330.46 37.0805C330.46 36.294 330.319 35.6872 330.038 35.2602C329.762 34.8331 329.359 34.6195 328.827 34.6195C328.119 34.6195 327.632 34.8904 327.366 35.432V38.893C327.642 39.4503 328.135 39.7289 328.843 39.7289C329.921 39.7289 330.46 38.8461 330.46 37.0805ZM339.023 41.393C338.918 41.1898 338.843 40.9372 338.796 40.6352C338.249 41.2445 337.538 41.5492 336.663 41.5492C335.835 41.5492 335.148 41.3096 334.601 40.8305C334.059 40.3513 333.788 39.7471 333.788 39.018C333.788 38.1221 334.119 37.4346 334.78 36.9555C335.447 36.4763 336.408 36.2341 337.663 36.2289H338.702V35.7445C338.702 35.3539 338.601 35.0414 338.398 34.807C338.2 34.5727 337.885 34.4555 337.452 34.4555C337.072 34.4555 336.773 34.5466 336.554 34.7289C336.34 34.9112 336.234 35.1612 336.234 35.4789H333.976C333.976 34.9893 334.127 34.5362 334.429 34.1195C334.731 33.7029 335.158 33.3773 335.71 33.143C336.262 32.9034 336.882 32.7836 337.569 32.7836C338.611 32.7836 339.437 33.0466 340.046 33.5727C340.661 34.0935 340.968 34.8279 340.968 35.7758V39.4398C340.973 40.2419 341.085 40.8487 341.304 41.2602V41.393H339.023ZM337.155 39.8227C337.489 39.8227 337.796 39.7497 338.077 39.6039C338.359 39.4529 338.567 39.2523 338.702 39.0023V37.5492H337.859C336.728 37.5492 336.127 37.9398 336.054 38.7211L336.046 38.8539C336.046 39.1352 336.145 39.3669 336.343 39.5492C336.541 39.7315 336.812 39.8227 337.155 39.8227ZM345.085 41.393H342.819V29.393H345.085V41.393ZM346.601 37.1039C346.601 35.7862 346.895 34.7367 347.484 33.9555C348.077 33.1742 348.887 32.7836 349.913 32.7836C350.736 32.7836 351.416 33.0909 351.952 33.7055V29.393H354.218V41.393H352.179L352.069 40.4945C351.507 41.1977 350.783 41.5492 349.898 41.5492C348.903 41.5492 348.103 41.1586 347.499 40.3773C346.9 39.5909 346.601 38.4997 346.601 37.1039ZM348.859 37.268C348.859 38.0596 348.997 38.6664 349.273 39.0883C349.549 39.5102 349.95 39.7211 350.476 39.7211C351.174 39.7211 351.666 39.4268 351.952 38.8383V35.5023C351.671 34.9138 351.184 34.6195 350.491 34.6195C349.403 34.6195 348.859 35.5023 348.859 37.268ZM355.616 37.0883C355.616 36.2497 355.778 35.5023 356.101 34.8461C356.424 34.1898 356.887 33.682 357.491 33.3227C358.101 32.9633 358.806 32.7836 359.609 32.7836C360.749 32.7836 361.679 33.1326 362.398 33.8305C363.122 34.5284 363.525 35.4763 363.609 36.6742L363.624 37.2523C363.624 38.5492 363.262 39.5909 362.538 40.3773C361.814 41.1586 360.843 41.5492 359.624 41.5492C358.405 41.5492 357.431 41.1586 356.702 40.3773C355.978 39.5961 355.616 38.5336 355.616 37.1898V37.0883ZM357.874 37.2523C357.874 38.0544 358.025 38.669 358.327 39.0961C358.629 39.518 359.062 39.7289 359.624 39.7289C360.171 39.7289 360.598 39.5206 360.905 39.1039C361.213 38.682 361.366 38.0102 361.366 37.0883C361.366 36.3018 361.213 35.6925 360.905 35.2602C360.598 34.8279 360.166 34.6117 359.609 34.6117C359.056 34.6117 358.629 34.8279 358.327 35.2602C358.025 35.6872 357.874 36.3513 357.874 37.2523ZM368.648 37.1039C368.648 35.7862 368.942 34.7367 369.53 33.9555C370.124 33.1742 370.934 32.7836 371.96 32.7836C372.783 32.7836 373.463 33.0909 373.999 33.7055V29.393H376.265V41.393H374.226L374.116 40.4945C373.554 41.1977 372.83 41.5492 371.944 41.5492C370.95 41.5492 370.15 41.1586 369.546 40.3773C368.947 39.5909 368.648 38.4997 368.648 37.1039ZM370.905 37.268C370.905 38.0596 371.043 38.6664 371.319 39.0883C371.596 39.5102 371.997 39.7211 372.523 39.7211C373.221 39.7211 373.713 39.4268 373.999 38.8383V35.5023C373.718 34.9138 373.231 34.6195 372.538 34.6195C371.45 34.6195 370.905 35.5023 370.905 37.268ZM381.905 41.5492C380.666 41.5492 379.655 41.169 378.874 40.4086C378.098 39.6482 377.71 38.6352 377.71 37.3695V37.1508C377.71 36.3018 377.874 35.544 378.202 34.8773C378.53 34.2055 378.994 33.6898 379.593 33.3305C380.197 32.9659 380.885 32.7836 381.655 32.7836C382.812 32.7836 383.721 33.1482 384.382 33.8773C385.049 34.6065 385.382 35.6404 385.382 36.9789V37.9008H379.999C380.072 38.4529 380.291 38.8956 380.655 39.2289C381.025 39.5622 381.491 39.7289 382.054 39.7289C382.924 39.7289 383.603 39.4138 384.093 38.7836L385.202 40.0258C384.864 40.505 384.405 40.88 383.827 41.1508C383.249 41.4164 382.609 41.5492 381.905 41.5492ZM381.648 34.6117C381.2 34.6117 380.835 34.7628 380.554 35.0648C380.278 35.3669 380.101 35.7992 380.023 36.3617H383.163V36.182C383.153 35.682 383.017 35.2966 382.757 35.0258C382.497 34.7497 382.127 34.6117 381.648 34.6117Z" fill="white"/>
<defs>
<clipPath id="clip0">
<rect width="95" height="73" fill="white" transform="translate(406)"/>
</clipPath>
</defs>
</svg>
