<svg width="369" height="60" viewBox="0 0 369 60" fill="none" xmlns="http://www.w3.org/2000/svg">
<path d="M61.8567 17.9636C64.7979 17.997 67.3406 19.0895 69.4803 21.2435C71.6223 23.3951 72.6743 26.0452 72.6385 29.1962C72.6027 32.3473 71.5365 35.0189 69.4445 37.211C67.3526 39.4032 64.7955 40.4813 61.7732 40.4479C58.7534 40.4122 56.1963 39.291 54.1043 37.0774C52.0148 34.8662 50.9843 32.2519 51.0201 29.2296C51.0391 27.5814 51.3564 26.0404 51.9694 24.6044C52.5825 23.1709 53.3911 21.9734 54.3953 21.0097C55.3996 20.046 56.5517 19.2947 57.8493 18.7532C59.1493 18.2117 60.4851 17.9469 61.8567 17.9636ZM56.2988 29.139C56.2774 30.9089 56.8332 32.3521 57.9638 33.4684C59.0945 34.5848 60.3635 35.1501 61.7756 35.1668C63.1854 35.1835 64.4663 34.6635 65.6089 33.602C66.7538 32.5429 67.3383 31.1093 67.3597 29.2988C67.3812 27.4907 66.8254 26.0333 65.6947 24.9265C64.5641 23.8197 63.2951 23.2591 61.8829 23.2424C60.4708 23.2257 59.1923 23.7624 58.0473 24.8525C56.9047 25.9426 56.3203 27.3715 56.2988 29.139Z" fill="#286EE8"/>
<path d="M89.1451 35.3052C89.9203 35.3148 90.4809 35.415 90.8267 35.6082C91.1726 35.8014 91.4088 36.0781 91.5328 36.4359C91.6568 36.7937 91.7165 37.2541 91.7117 37.8099C91.7045 38.3656 91.6497 38.8141 91.5471 39.1504C91.4445 39.4868 91.3205 39.7444 91.1822 39.9209C91.0414 40.0974 90.8315 40.2262 90.5524 40.3002C90.2328 40.417 89.7247 40.4695 89.0306 40.46L76.6291 40.3169C76.1711 40.3121 75.737 40.188 75.322 39.9447C74.4513 39.4391 74.0243 38.6471 74.0363 37.5737C74.0434 37.0561 74.1651 36.641 74.4084 36.3262L83.7995 23.6433L76.944 23.5622C76.4669 23.5574 76.1139 23.5383 75.8849 23.5049C75.6559 23.4739 75.384 23.3856 75.0667 23.2425C74.4942 22.9563 74.2152 22.2097 74.2271 20.9955C74.2414 19.7241 74.5205 18.9513 75.0596 18.6793C75.3601 18.5243 75.6225 18.4337 75.8515 18.405C76.0805 18.3788 76.4335 18.3669 76.9106 18.3716L88.8946 18.51C89.3526 18.5148 89.7867 18.6412 90.2018 18.8821C90.6168 19.1254 90.9365 19.4474 91.1607 19.8482C91.3849 20.2489 91.4922 20.7164 91.4875 21.2508C91.4803 21.7875 91.3563 22.2144 91.1154 22.5293L81.7219 35.2194L89.1451 35.3052Z" fill="#286EE8"/>
<path d="M104.13 18.4527C107.071 18.4861 109.611 19.5786 111.753 21.7326C113.896 23.8841 114.947 26.5367 114.912 29.6853C114.876 32.8364 113.81 35.508 111.718 37.7001C109.626 39.8922 107.069 40.9704 104.049 40.9346C101.027 40.8988 98.4718 39.7777 96.3799 37.5641C94.2879 35.3529 93.2599 32.7386 93.2956 29.7163C93.3147 28.068 93.6296 26.5271 94.2426 25.0911C94.8557 23.6575 95.6643 22.4601 96.6709 21.4964C97.6751 20.5327 98.8273 19.7813 100.125 19.2399C101.423 18.7008 102.758 18.4384 104.13 18.4527ZM98.5744 29.6305C98.553 31.4004 99.1087 32.8411 100.239 33.9575C101.37 35.0738 102.639 35.6392 104.051 35.6558C105.461 35.6725 106.742 35.1525 107.887 34.0911C109.032 33.0296 109.616 31.596 109.635 29.7879C109.657 27.9798 109.101 26.5223 107.97 25.4155C106.842 24.3111 105.571 23.7482 104.159 23.7315C102.746 23.7148 101.468 24.2515 100.323 25.3416C99.1779 26.4317 98.5935 27.8629 98.5744 29.6305Z" fill="#286EE8"/>
<path d="M131.082 19.9437C131.275 19.5978 131.561 19.3688 131.941 19.2543C132.32 19.1398 132.792 19.0849 133.36 19.0921C133.928 19.0993 134.383 19.1517 134.729 19.2567C135.075 19.3593 135.333 19.4833 135.5 19.624C135.667 19.7648 135.788 19.9747 135.865 20.2538C135.981 20.5734 136.034 21.0791 136.027 21.7756L135.834 38.3228C135.829 38.7999 135.81 39.1481 135.776 39.3676C135.743 39.587 135.645 39.8423 135.483 40.1404C135.197 40.6748 134.419 40.9324 133.148 40.9181C132.372 40.9109 131.836 40.8441 131.54 40.7201C131.242 40.596 130.996 40.4052 130.8 40.1452C126.399 34.1293 123.501 30.2007 122.111 28.3568L121.996 38.1654C121.991 38.6424 121.972 38.9907 121.939 39.2078C121.908 39.4272 121.808 39.6824 121.645 39.9806C121.359 40.5149 120.582 40.7725 119.31 40.7582C118.077 40.7439 117.326 40.4648 117.054 39.9258C116.899 39.6252 116.808 39.3557 116.779 39.1171C116.753 38.8786 116.741 38.5303 116.746 38.0723L116.939 21.4369C116.946 20.6831 117.049 20.1321 117.242 19.7839C117.435 19.438 117.719 19.2066 118.098 19.0921C118.478 18.9776 118.964 18.9251 119.561 18.9323C120.157 18.9394 120.627 18.9991 120.975 19.1136C121.321 19.2257 121.564 19.3545 121.703 19.4928C121.781 19.5525 122.006 19.8149 122.378 20.2752C126.504 26.0287 129.264 29.8262 130.655 31.6724L130.772 21.5967C130.789 20.8406 130.889 20.2895 131.082 19.9437Z" fill="#286EE8"/>
<path d="M37.8791 19.2469C38.0747 17.8323 38.5088 15.7094 36.6196 14.3163C34.7304 12.9233 30.8137 14.2114 29.5065 14.7958C29.4946 14.8006 29.485 14.8077 29.4755 14.8149C26.7681 12.9805 23.3022 11.9 19.0324 12.0073C14.7627 11.9 11.2991 12.9805 8.58938 14.8149C8.57984 14.8101 8.56791 14.8006 8.55837 14.7958C7.2512 14.2114 3.33207 12.9233 1.44526 14.3163C-0.443942 15.7094 -0.00980847 17.8323 0.18579 19.2469C0.383774 20.6614 1.6814 23.1994 1.89609 24.2036C1.89609 24.2036 1.91517 24.1988 1.94141 24.1893C0.813137 27.9224 0.755889 31.9799 1.6814 35.5388C4.27905 45.5239 19.0348 46.8978 19.0348 46.8978C19.0348 46.8978 33.7906 45.5239 36.3859 35.5388C37.3114 31.9799 37.2517 27.9248 36.1259 24.1917C36.1521 24.1988 36.1712 24.206 36.1712 24.206C36.3859 23.2018 37.6835 20.6638 37.8791 19.2469Z" fill="black"/>
<path d="M29.6759 24.2561C29.2155 22.2691 27.4146 20.962 25.6852 21.3603C24.6094 21.6084 23.7984 22.4647 23.4501 23.5596C22.7059 24.0248 21.5848 24.6855 21.0982 24.7547C21.0171 24.7666 20.967 24.7928 20.936 24.8334C20.4995 24.2919 19.9007 23.8673 19.0325 23.8673C18.1642 23.8673 17.5655 24.2943 17.129 24.8334C17.0979 24.7952 17.0479 24.7666 16.9668 24.7547C16.4038 24.6736 15.0084 23.8149 14.3095 23.3664C13.9326 22.3669 13.1574 21.5965 12.1364 21.3627C10.3951 20.9596 8.60849 22.2572 8.14573 24.2585C7.68297 26.2598 8.71821 28.2087 10.4595 28.6118C11.6188 28.8789 12.7972 28.3923 13.5915 27.4454C13.5963 27.4716 13.601 27.4978 13.6082 27.5241C14.09 29.6017 12.2986 31.6102 11.8263 33.2751C11.354 34.9401 11.7094 35.6056 12.4012 36.4167C13.0452 37.1704 12.914 37.6117 13.1693 36.1161C13.2814 36.9677 13.4436 37.8073 13.5438 38.5181C13.7823 40.2237 14.3596 40.4479 15.0203 40.4741C15.2088 40.4813 15.3662 40.4789 15.5021 40.4646L17.5249 41.5452C18.5053 41.8576 19.5572 41.8624 20.54 41.5571L22.62 40.4694C22.7417 40.4789 22.8777 40.4813 23.0399 40.4741C23.7006 40.4479 24.2779 40.2237 24.5164 38.5181C24.6166 37.8073 24.7788 36.9653 24.8909 36.1161C25.1461 37.6117 25.0149 37.1704 25.659 36.4167C26.3507 35.6056 26.7061 34.9401 26.2338 33.2751C25.7735 31.6483 24.056 29.6924 24.4305 27.6624C25.2177 28.4615 26.303 28.8575 27.3597 28.6118C29.0891 28.2087 30.1339 26.2455 29.6759 24.2561Z" fill="white"/>
<path d="M35.9489 19.2131C36.5012 17.7586 36.1652 16.2818 35.1984 15.9147C34.2315 15.5475 33 16.4291 32.4477 17.8836C31.8954 19.3382 32.2314 20.8149 33.1982 21.1821C34.1651 21.5492 35.3966 20.6677 35.9489 19.2131Z" fill="white"/>
<path d="M5.1314 21.1842C6.09823 20.8171 6.43425 19.3403 5.88193 17.8858C5.32962 16.4312 4.0981 15.5497 3.13127 15.9168C2.16445 16.2839 1.82842 17.7607 2.38074 19.2153C2.93306 20.6698 4.16457 21.5513 5.1314 21.1842Z" fill="white"/>
<path d="M13.2464 25.2653C13.4678 24.7885 13.0826 24.1398 12.386 23.8163C11.6894 23.4928 10.9452 23.617 10.7238 24.0938C10.5024 24.5705 10.8876 25.2193 11.5842 25.5428C12.2808 25.8663 13.025 25.742 13.2464 25.2653Z" fill="black"/>
<path d="M11.8836 24.2059C11.6737 24.3156 11.5282 24.535 11.5282 24.7879C11.5282 25.1505 11.8216 25.4439 12.1842 25.4439C12.5467 25.4439 12.8401 25.1505 12.8401 24.7879C12.8401 24.6257 12.7805 24.4754 12.6803 24.3609C12.3845 24.2273 12.0959 24.1939 11.8836 24.2059Z" fill="white"/>
<path d="M12.5658 24.7544C12.5658 24.938 12.418 25.0883 12.2319 25.0883C12.0482 25.0883 11.9003 24.9404 11.9003 24.7544C11.9003 24.5707 12.0482 24.4204 12.2319 24.4204C12.4156 24.4228 12.5658 24.5707 12.5658 24.7544Z" fill="black"/>
<path d="M12.1293 24.4802C12.1293 24.5613 12.0649 24.6257 11.9838 24.6257C11.9027 24.6257 11.8383 24.5613 11.8383 24.4802C11.8383 24.3991 11.9027 24.3347 11.9838 24.3347C12.0649 24.3347 12.1293 24.3991 12.1293 24.4802Z" fill="white"/>
<path d="M26.8475 25.545C27.5441 25.2215 27.9294 24.5728 27.708 24.0961C27.4866 23.6193 26.7424 23.4951 26.0458 23.8186C25.3491 24.1421 24.9639 24.7908 25.1853 25.2675C25.4067 25.7443 26.1509 25.8685 26.8475 25.545Z" fill="black"/>
<path d="M26.5487 24.2061C26.7586 24.3158 26.9041 24.5353 26.9041 24.7881C26.9041 25.1507 26.6107 25.4441 26.2481 25.4441C25.8856 25.4441 25.5922 25.1507 25.5922 24.7881C25.5922 24.6259 25.6518 24.4756 25.752 24.3611C26.0478 24.2276 26.3364 24.1942 26.5487 24.2061Z" fill="white"/>
<path d="M25.8665 24.7548C25.8665 24.9385 26.0143 25.0888 26.2004 25.0888C26.3841 25.0888 26.532 24.9409 26.532 24.7548C26.532 24.5712 26.3841 24.4209 26.2004 24.4209C26.0167 24.4233 25.8665 24.5712 25.8665 24.7548Z" fill="black"/>
<path d="M26.303 24.4805C26.303 24.5616 26.3674 24.626 26.4485 24.626C26.5296 24.626 26.594 24.5616 26.594 24.4805C26.594 24.3994 26.5296 24.335 26.4485 24.335C26.3698 24.335 26.303 24.3994 26.303 24.4805Z" fill="white"/>
<path d="M23.2593 35.7465C23.3428 35.3099 22.8848 32.2305 21.7399 32.2305C20.9408 32.2305 19.76 32.7886 19.0945 32.8817C19.0516 32.8888 19.0134 32.8888 18.9705 32.8817C18.2859 32.7743 16.7903 31.9776 16.0341 32.2305C15.0967 32.5429 14.7222 35.3099 14.8056 35.7465C14.808 35.7536 14.8104 35.7608 14.8104 35.7703C14.8056 35.8252 14.7985 35.88 14.7985 35.9349C14.7985 37.4925 16.6948 38.7568 19.0325 38.7568C21.3701 38.7568 23.2665 37.4925 23.2665 35.9349C23.2665 35.8824 23.2593 35.8299 23.2546 35.7775C23.2546 35.7655 23.2569 35.756 23.2593 35.7465Z" fill="black"/>
<path d="M158 13V47" stroke="#565656"/>
<g clip-path="url(#clip0)">
<path d="M369 25.8536C368.938 28.2108 368.819 30.5269 368.58 32.8396C368.409 34.4954 368.235 36.1547 368.081 37.8139C368.057 38.0602 367.992 38.115 367.756 38.0979C366.342 37.9884 364.924 37.8892 363.509 37.7968C363.332 37.7866 363.294 37.7318 363.311 37.5573C363.554 34.9607 363.896 32.3777 364.06 29.7742C364.244 26.8731 364.336 23.9686 363.896 21.0811C363.728 19.9864 363.468 18.9155 362.942 17.9302C362.539 17.1673 362.013 16.531 361.118 16.3257C359.772 16.0144 358.511 16.5413 357.671 17.7626C356.967 18.7924 356.608 19.9624 356.297 21.153C355.808 23.0243 355.562 24.9402 355.248 26.8457C354.838 29.3158 354.384 31.7756 353.465 34.1191C352.891 35.5868 352.16 36.9655 351.008 38.0705C349.542 39.4766 347.817 40.3524 345.75 40.2361C341.551 40 338.227 37.6018 337.28 33.0859C336.829 30.934 336.887 28.7753 337.191 26.6165C337.926 21.4267 339.737 16.5823 341.903 11.8509C342.21 11.1838 342.552 10.5303 342.866 9.86662C342.945 9.7024 343.01 9.66135 343.184 9.75372C344.455 10.4277 345.726 11.0982 347.011 11.7517C347.267 11.8817 347.13 12.0014 347.062 12.1314C345.753 14.711 344.636 17.3726 343.703 20.1129C342.911 22.4359 342.255 24.7965 341.906 27.2289C341.657 28.9566 341.541 30.6911 342.009 32.4051C342.494 34.1841 343.539 35.2686 345.911 35.4704C346.666 35.5354 347.233 35.1078 347.728 34.5981C348.405 33.9001 348.784 33.0278 349.115 32.1348C349.785 30.3353 350.14 28.4605 350.458 26.5755C350.865 24.1807 351.138 21.7585 351.808 19.415C352.341 17.5539 353.058 15.7818 354.329 14.2867C356.044 12.2717 358.248 11.3582 360.868 11.5088C364.022 11.6867 366.086 13.428 367.391 16.2026C368.081 17.6668 368.436 19.2303 368.665 20.8211C368.918 22.4941 368.979 24.1909 369 25.8536Z" fill="black"/>
<path d="M327.365 13.9858C327.358 14.0508 327.352 14.0987 327.352 14.15C327.311 16.7569 327.28 19.3673 327.225 21.9742C327.17 24.4887 327.034 26.9998 326.822 29.5075C326.812 29.6204 326.808 29.7333 326.802 29.8428C326.764 30.616 326.767 30.6057 326.009 30.5304C324.758 30.4073 323.508 30.2978 322.254 30.1986C322.032 30.1815 321.994 30.1028 322.011 29.901C322.148 28.1904 322.281 26.4764 322.353 24.759C322.404 23.5342 322.469 22.306 322.483 21.0812C322.507 18.5872 322.616 16.0898 322.575 13.5958C322.551 12.241 322.421 10.8999 322.059 9.59305C322.005 9.3912 322.073 9.35014 322.234 9.30225C323.6 8.89171 324.967 8.48117 326.33 8.05353C326.545 7.98511 326.614 8.05353 326.631 8.24169C326.665 8.60434 326.873 8.76513 327.211 8.87461C328.062 9.15172 328.889 9.51778 329.788 9.64436C330.327 9.71963 330.864 9.72989 331.404 9.62726C332.22 9.47331 332.849 9.05593 333.317 8.36828C334.12 7.18798 334.626 5.87768 335.008 4.51607C335.08 4.2629 335.165 4.23211 335.401 4.30054C336.737 4.67344 338.076 5.03266 339.416 5.38846C339.61 5.43978 339.699 5.48425 339.627 5.73058C339.03 7.81747 338.244 9.812 336.891 11.5397C335.408 13.4316 333.419 14.3245 331.059 14.4613C329.856 14.5332 328.677 14.3587 327.519 14.02C327.471 14.0097 327.423 13.9995 327.365 13.9858Z" fill="black"/>
<path d="M352.686 2.60017C352.658 2.64465 352.628 2.69597 352.593 2.74728C351.565 4.32101 350.533 5.89131 349.512 7.46846C349.402 7.63609 349.331 7.6532 349.163 7.54372C347.974 6.75344 346.778 5.96658 345.579 5.1934C345.398 5.07708 345.415 5.00181 345.518 4.84786C346.546 3.28782 347.571 1.72436 348.593 0.157478C348.692 0.00352661 348.76 -0.0546328 348.945 0.0685283C350.133 0.862233 351.329 1.64225 352.525 2.42912C352.583 2.46675 352.672 2.4907 352.686 2.60017Z" fill="black"/>
<path d="M331.24 49.706C331.212 52.6961 330.457 55.5219 329.272 58.2452C329.039 58.7789 328.766 59.292 328.523 59.8223C328.435 60.0139 328.356 60.0447 328.161 59.942C326.921 59.2749 325.677 58.6146 324.427 57.9646C324.219 57.8551 324.208 57.773 324.311 57.5746C325.158 55.9359 325.841 54.2356 326.217 52.4224C326.559 50.77 326.651 49.1175 326.173 47.4754C325.814 46.2438 325.185 45.1867 324.075 44.4819C322.575 43.5274 320.166 43.4863 318.67 45.3714C318.089 46.1035 317.577 46.8733 317.098 47.6738C316.354 48.9294 315.65 50.2123 314.761 51.3789C312.629 54.174 309.814 55.758 306.312 56.0419C303.135 56.2985 300.309 55.409 297.965 53.1956C296.339 51.6595 295.396 49.7231 294.942 47.5575C294.234 44.1808 294.617 40.9239 296.209 37.8483C296.725 36.8528 297.378 35.929 297.972 34.9745C298.061 34.8309 298.095 34.7624 297.907 34.6564C295.232 33.1271 293.469 30.8281 292.601 27.9133C291.115 22.9184 292.434 18.577 295.97 14.8616C297.617 13.1305 299.626 11.9982 302 11.5705C304.525 11.1155 306.937 11.4952 309.24 12.6105C309.466 12.72 309.606 12.6995 309.797 12.5421C311.304 11.2694 312.824 10.0105 314.327 8.73438C314.532 8.5599 314.618 8.59411 314.772 8.78228C315.646 9.84967 316.531 10.9102 317.423 11.9639C317.58 12.1487 317.604 12.2342 317.396 12.4053C316.125 13.4487 314.871 14.5161 313.603 15.563C313.402 15.7272 313.378 15.8161 313.559 16.0248C315.076 17.7833 316.097 19.7949 316.354 22.1179C316.815 26.2917 315.578 29.8599 312.339 32.6208C309.722 34.8514 306.664 35.9564 303.227 35.9872C303.046 35.9906 302.93 36.0351 302.831 36.1993C302.076 37.4275 301.252 38.6146 300.559 39.877C298.994 42.7269 298.898 45.6519 300.391 48.5599C301.201 50.1371 302.602 50.9889 304.317 51.2318C307.084 51.6252 309.329 50.6536 311.017 48.4231C311.919 47.2291 312.585 45.888 313.371 44.6222C314.15 43.3666 314.997 42.1658 316.114 41.1805C317.734 39.7539 319.644 39.0833 321.786 39.0833C325.575 39.0799 328.879 41.3208 330.348 44.8582C330.994 46.408 331.253 48.0296 331.24 49.706ZM297.313 26.9725C298.433 29.8463 300.74 31.3823 303.692 31.2113C305.742 31.0916 307.556 30.356 309.162 29.0765C311.765 26.9999 312.206 23.5377 311.225 21.2387C310.303 19.0731 308.735 17.5028 306.534 16.6543C304.576 15.8983 302.598 15.9085 300.798 17.0751C298.246 18.731 296.899 21.1258 296.78 24.1843C296.78 25.149 296.961 26.0762 297.313 26.9725Z" fill="black"/>
</g>
<path d="M182.459 31.1582C182.393 32.0762 182.053 32.7988 181.439 33.3262C180.83 33.8535 180.025 34.1172 179.025 34.1172C177.932 34.1172 177.07 33.75 176.441 33.0156C175.816 32.2773 175.504 31.2656 175.504 29.9805V29.459C175.504 28.6387 175.648 27.916 175.938 27.291C176.227 26.666 176.639 26.1875 177.174 25.8555C177.713 25.5195 178.338 25.3516 179.049 25.3516C180.033 25.3516 180.826 25.6152 181.428 26.1426C182.029 26.6699 182.377 27.4102 182.471 28.3633H180.713C180.67 27.8125 180.516 27.4141 180.25 27.168C179.988 26.918 179.588 26.793 179.049 26.793C178.463 26.793 178.023 27.0039 177.73 27.4258C177.441 27.8438 177.293 28.4941 177.285 29.377V30.0215C177.285 30.9434 177.424 31.6172 177.701 32.043C177.982 32.4688 178.424 32.6816 179.025 32.6816C179.568 32.6816 179.973 32.5586 180.238 32.3125C180.508 32.0625 180.662 31.6777 180.701 31.1582H182.459ZM183.238 30.7715C183.238 30.1426 183.359 29.582 183.602 29.0898C183.844 28.5977 184.191 28.2168 184.645 27.9473C185.102 27.6777 185.631 27.543 186.232 27.543C187.088 27.543 187.785 27.8047 188.324 28.3281C188.867 28.8516 189.17 29.5625 189.232 30.4609L189.244 30.8945C189.244 31.8672 188.973 32.6484 188.43 33.2383C187.887 33.8242 187.158 34.1172 186.244 34.1172C185.33 34.1172 184.6 33.8242 184.053 33.2383C183.51 32.6523 183.238 31.8555 183.238 30.8477V30.7715ZM184.932 30.8945C184.932 31.4961 185.045 31.957 185.271 32.2773C185.498 32.5938 185.822 32.752 186.244 32.752C186.654 32.752 186.975 32.5957 187.205 32.2832C187.436 31.9668 187.551 31.4629 187.551 30.7715C187.551 30.1816 187.436 29.7246 187.205 29.4004C186.975 29.0762 186.65 28.9141 186.232 28.9141C185.818 28.9141 185.498 29.0762 185.271 29.4004C185.045 29.7207 184.932 30.2188 184.932 30.8945ZM191.846 27.6602L191.898 28.3926C192.352 27.8262 192.959 27.543 193.721 27.543C194.393 27.543 194.893 27.7402 195.221 28.1348C195.549 28.5293 195.717 29.1191 195.725 29.9043V34H194.031V29.9453C194.031 29.5859 193.953 29.3262 193.797 29.166C193.641 29.002 193.381 28.9199 193.018 28.9199C192.541 28.9199 192.184 29.123 191.945 29.5293V34H190.252V27.6602H191.846ZM202.92 34.1172C201.99 34.1172 201.232 33.832 200.646 33.2617C200.064 32.6914 199.773 31.9316 199.773 30.9824V30.8184C199.773 30.1816 199.896 29.6133 200.143 29.1133C200.389 28.6094 200.736 28.2227 201.186 27.9531C201.639 27.6797 202.154 27.543 202.732 27.543C203.6 27.543 204.281 27.8164 204.777 28.3633C205.277 28.9102 205.527 29.6855 205.527 30.6895V31.3809H201.49C201.545 31.7949 201.709 32.127 201.982 32.377C202.26 32.627 202.609 32.752 203.031 32.752C203.684 32.752 204.193 32.5156 204.561 32.043L205.393 32.9746C205.139 33.334 204.795 33.6152 204.361 33.8184C203.928 34.0176 203.447 34.1172 202.92 34.1172ZM202.727 28.9141C202.391 28.9141 202.117 29.0273 201.906 29.2539C201.699 29.4805 201.566 29.8047 201.508 30.2266H203.863V30.0918C203.855 29.7168 203.754 29.4277 203.559 29.2246C203.363 29.0176 203.086 28.9141 202.727 28.9141ZM208.281 34H206.582V25H208.281V34ZM216.232 29.248C216.002 29.2168 215.799 29.2012 215.623 29.2012C214.982 29.2012 214.562 29.418 214.363 29.8516V34H212.67V27.6602H214.27L214.316 28.416C214.656 27.834 215.127 27.543 215.729 27.543C215.916 27.543 216.092 27.5684 216.256 27.6191L216.232 29.248ZM219.854 34.1172C218.924 34.1172 218.166 33.832 217.58 33.2617C216.998 32.6914 216.707 31.9316 216.707 30.9824V30.8184C216.707 30.1816 216.83 29.6133 217.076 29.1133C217.322 28.6094 217.67 28.2227 218.119 27.9531C218.572 27.6797 219.088 27.543 219.666 27.543C220.533 27.543 221.215 27.8164 221.711 28.3633C222.211 28.9102 222.461 29.6855 222.461 30.6895V31.3809H218.424C218.479 31.7949 218.643 32.127 218.916 32.377C219.193 32.627 219.543 32.752 219.965 32.752C220.617 32.752 221.127 32.5156 221.494 32.043L222.326 32.9746C222.072 33.334 221.729 33.6152 221.295 33.8184C220.861 34.0176 220.381 34.1172 219.854 34.1172ZM219.66 28.9141C219.324 28.9141 219.051 29.0273 218.84 29.2539C218.633 29.4805 218.5 29.8047 218.441 30.2266H220.797V30.0918C220.789 29.7168 220.688 29.4277 220.492 29.2246C220.297 29.0176 220.02 28.9141 219.66 28.9141ZM226.861 32.248C226.861 32.041 226.758 31.8789 226.551 31.7617C226.348 31.6406 226.02 31.5332 225.566 31.4395C224.059 31.123 223.305 30.4824 223.305 29.5176C223.305 28.9551 223.537 28.4863 224.002 28.1113C224.471 27.7324 225.082 27.543 225.836 27.543C226.641 27.543 227.283 27.7324 227.764 28.1113C228.248 28.4902 228.49 28.9824 228.49 29.5879H226.797C226.797 29.3457 226.719 29.1465 226.562 28.9902C226.406 28.8301 226.162 28.75 225.83 28.75C225.545 28.75 225.324 28.8145 225.168 28.9434C225.012 29.0723 224.934 29.2363 224.934 29.4355C224.934 29.623 225.021 29.7754 225.197 29.8926C225.377 30.0059 225.678 30.1055 226.1 30.1914C226.521 30.2734 226.877 30.3672 227.166 30.4727C228.061 30.8008 228.508 31.3691 228.508 32.1777C228.508 32.7559 228.26 33.2246 227.764 33.584C227.268 33.9395 226.627 34.1172 225.842 34.1172C225.311 34.1172 224.838 34.0234 224.424 33.8359C224.014 33.6445 223.691 33.3848 223.457 33.0566C223.223 32.7246 223.105 32.3672 223.105 31.9844H224.711C224.727 32.2852 224.838 32.5156 225.045 32.6758C225.252 32.8359 225.529 32.916 225.877 32.916C226.201 32.916 226.445 32.8555 226.609 32.7344C226.777 32.6094 226.861 32.4473 226.861 32.248ZM235.311 30.8887C235.311 31.8652 235.088 32.6484 234.643 33.2383C234.201 33.8242 233.604 34.1172 232.85 34.1172C232.209 34.1172 231.691 33.8945 231.297 33.4492V36.4375H229.604V27.6602H231.174L231.232 28.2812C231.643 27.7891 232.178 27.543 232.838 27.543C233.619 27.543 234.227 27.832 234.66 28.4102C235.094 28.9883 235.311 29.7852 235.311 30.8008V30.8887ZM233.617 30.7656C233.617 30.1758 233.512 29.7207 233.301 29.4004C233.094 29.0801 232.791 28.9199 232.393 28.9199C231.861 28.9199 231.496 29.123 231.297 29.5293V32.125C231.504 32.543 231.873 32.752 232.404 32.752C233.213 32.752 233.617 32.0898 233.617 30.7656ZM240.039 34C239.961 33.8477 239.904 33.6582 239.869 33.4316C239.459 33.8887 238.926 34.1172 238.27 34.1172C237.648 34.1172 237.133 33.9375 236.723 33.5781C236.316 33.2188 236.113 32.7656 236.113 32.2188C236.113 31.5469 236.361 31.0312 236.857 30.6719C237.357 30.3125 238.078 30.1309 239.02 30.127H239.799V29.7637C239.799 29.4707 239.723 29.2363 239.57 29.0605C239.422 28.8848 239.186 28.7969 238.861 28.7969C238.576 28.7969 238.352 28.8652 238.188 29.002C238.027 29.1387 237.947 29.3262 237.947 29.5645H236.254C236.254 29.1973 236.367 28.8574 236.594 28.5449C236.82 28.2324 237.141 27.9883 237.555 27.8125C237.969 27.6328 238.434 27.543 238.949 27.543C239.73 27.543 240.35 27.7402 240.807 28.1348C241.268 28.5254 241.498 29.0762 241.498 29.7871V32.5352C241.502 33.1367 241.586 33.5918 241.75 33.9004V34H240.039ZM238.639 32.8223C238.889 32.8223 239.119 32.7676 239.33 32.6582C239.541 32.5449 239.697 32.3945 239.799 32.207V31.1172H239.166C238.318 31.1172 237.867 31.4102 237.812 31.9961L237.807 32.0957C237.807 32.3066 237.881 32.4805 238.029 32.6172C238.178 32.7539 238.381 32.8223 238.639 32.8223ZM244.586 34H242.887V25H244.586V34ZM245.723 30.7832C245.723 29.7949 245.943 29.0078 246.385 28.4219C246.83 27.8359 247.438 27.543 248.207 27.543C248.824 27.543 249.334 27.7734 249.736 28.2344V25H251.436V34H249.906L249.824 33.3262C249.402 33.8535 248.859 34.1172 248.195 34.1172C247.449 34.1172 246.85 33.8242 246.396 33.2383C245.947 32.6484 245.723 31.8301 245.723 30.7832ZM247.416 30.9062C247.416 31.5 247.52 31.9551 247.727 32.2715C247.934 32.5879 248.234 32.7461 248.629 32.7461C249.152 32.7461 249.521 32.5254 249.736 32.084V29.582C249.525 29.1406 249.16 28.9199 248.641 28.9199C247.824 28.9199 247.416 29.582 247.416 30.9062ZM252.484 30.7715C252.484 30.1426 252.605 29.582 252.848 29.0898C253.09 28.5977 253.438 28.2168 253.891 27.9473C254.348 27.6777 254.877 27.543 255.479 27.543C256.334 27.543 257.031 27.8047 257.57 28.3281C258.113 28.8516 258.416 29.5625 258.479 30.4609L258.49 30.8945C258.49 31.8672 258.219 32.6484 257.676 33.2383C257.133 33.8242 256.404 34.1172 255.49 34.1172C254.576 34.1172 253.846 33.8242 253.299 33.2383C252.756 32.6523 252.484 31.8555 252.484 30.8477V30.7715ZM254.178 30.8945C254.178 31.4961 254.291 31.957 254.518 32.2773C254.744 32.5938 255.068 32.752 255.49 32.752C255.9 32.752 256.221 32.5957 256.451 32.2832C256.682 31.9668 256.797 31.4629 256.797 30.7715C256.797 30.1816 256.682 29.7246 256.451 29.4004C256.221 29.0762 255.896 28.9141 255.479 28.9141C255.064 28.9141 254.744 29.0762 254.518 29.4004C254.291 29.7207 254.178 30.2188 254.178 30.8945ZM262.258 30.7832C262.258 29.7949 262.479 29.0078 262.92 28.4219C263.365 27.8359 263.973 27.543 264.742 27.543C265.359 27.543 265.869 27.7734 266.271 28.2344V25H267.971V34H266.441L266.359 33.3262C265.938 33.8535 265.395 34.1172 264.73 34.1172C263.984 34.1172 263.385 33.8242 262.932 33.2383C262.482 32.6484 262.258 31.8301 262.258 30.7832ZM263.951 30.9062C263.951 31.5 264.055 31.9551 264.262 32.2715C264.469 32.5879 264.77 32.7461 265.164 32.7461C265.688 32.7461 266.057 32.5254 266.271 32.084V29.582C266.061 29.1406 265.695 28.9199 265.176 28.9199C264.359 28.9199 263.951 29.582 263.951 30.9062ZM272.201 34.1172C271.271 34.1172 270.514 33.832 269.928 33.2617C269.346 32.6914 269.055 31.9316 269.055 30.9824V30.8184C269.055 30.1816 269.178 29.6133 269.424 29.1133C269.67 28.6094 270.018 28.2227 270.467 27.9531C270.92 27.6797 271.436 27.543 272.014 27.543C272.881 27.543 273.562 27.8164 274.059 28.3633C274.559 28.9102 274.809 29.6855 274.809 30.6895V31.3809H270.771C270.826 31.7949 270.99 32.127 271.264 32.377C271.541 32.627 271.891 32.752 272.312 32.752C272.965 32.752 273.475 32.5156 273.842 32.043L274.674 32.9746C274.42 33.334 274.076 33.6152 273.643 33.8184C273.209 34.0176 272.729 34.1172 272.201 34.1172ZM272.008 28.9141C271.672 28.9141 271.398 29.0273 271.188 29.2539C270.98 29.4805 270.848 29.8047 270.789 30.2266H273.145V30.0918C273.137 29.7168 273.035 29.4277 272.84 29.2246C272.645 29.0176 272.367 28.9141 272.008 28.9141Z" fill="black"/>
<defs>
<clipPath id="clip0">
<rect width="77" height="60" fill="white" transform="translate(292)"/>
</clipPath>
</defs>
</svg>
