<svg width="80" height="80" viewBox="0 0 80 80" fill="none" xmlns="http://www.w3.org/2000/svg">
<path d="M80 40C80 62.0914 62.0914 80 40 80C17.9086 80 0 62.0914 0 40C0 17.9086 17.9086 0 40 0C62.0914 0 80 17.9086 80 40Z" fill="#FE7F01"/>
<path d="M52 18H28C26.4087 18 24.8826 18.6321 23.7574 19.7574C22.6321 20.8826 22 22.4087 22 24V60C22.0001 60.3955 22.1174 60.7821 22.3372 61.1109C22.557 61.4397 22.8693 61.696 23.2347 61.8474C23.6001 61.9987 24.0022 62.0383 24.3901 61.9612C24.778 61.884 25.1343 61.6936 25.414 61.414L29.69 57.14L32.336 61.108C32.4986 61.3559 32.7144 61.5645 32.9676 61.7188C33.2208 61.8731 33.5051 61.9691 33.8 62C34.0947 62.0313 34.3927 61.9958 34.6718 61.896C34.9508 61.7963 35.2039 61.635 35.412 61.424L40 56.828L44.586 61.414C44.7953 61.6231 45.0484 61.7832 45.3271 61.8827C45.6057 61.9822 45.903 62.0186 46.1974 61.9893C46.4918 61.96 46.7761 61.8658 47.0297 61.7134C47.2833 61.561 47.5 61.3542 47.664 61.108L50.31 57.14L54.586 61.414C54.8657 61.6936 55.222 61.884 55.6099 61.9612C55.9978 62.0383 56.3999 61.9987 56.7653 61.8474C57.1307 61.696 57.443 61.4397 57.6628 61.1109C57.8826 60.7821 57.9999 60.3955 58 60V24C58 22.4087 57.3679 20.8826 56.2426 19.7574C55.1174 18.6321 53.5913 18 52 18ZM54 55.172L51.414 52.586C51.206 52.3748 50.953 52.2133 50.6739 52.1136C50.3948 52.0138 50.0967 51.9784 49.802 52.01C49.5078 52.0392 49.2237 52.1333 48.9702 52.2854C48.7167 52.4376 48.5001 52.6441 48.336 52.89L45.69 56.86L41.414 52.586C41.0389 52.2111 40.5303 52.0004 40 52.0004C39.4697 52.0004 38.9611 52.2111 38.586 52.586L34.31 56.86L31.664 52.89C31.4998 52.6439 31.283 52.4373 31.0293 52.2851C30.7756 52.1329 30.4913 52.0388 30.1969 52.0098C29.9025 51.9807 29.6053 52.0173 29.3267 52.1169C29.0482 52.2166 28.7952 52.3768 28.586 52.586L26 55.172V24C26 23.4696 26.2107 22.9609 26.5858 22.5858C26.9609 22.2107 27.4696 22 28 22H52C52.5304 22 53.0391 22.2107 53.4142 22.5858C53.7893 22.9609 54 23.4696 54 24V55.172ZM42 38C42 38.5304 41.7893 39.0391 41.4142 39.4142C41.0391 39.7893 40.5304 40 40 40H32C31.4696 40 30.9609 39.7893 30.5858 39.4142C30.2107 39.0391 30 38.5304 30 38C30 37.4696 30.2107 36.9609 30.5858 36.5858C30.9609 36.2107 31.4696 36 32 36H40C40.5304 36 41.0391 36.2107 41.4142 36.5858C41.7893 36.9609 42 37.4696 42 38ZM42 46C42 46.5304 41.7893 47.0391 41.4142 47.4142C41.0391 47.7893 40.5304 48 40 48H32C31.4696 48 30.9609 47.7893 30.5858 47.4142C30.2107 47.0391 30 46.5304 30 46C30 45.4696 30.2107 44.9609 30.5858 44.5858C30.9609 44.2107 31.4696 44 32 44H40C40.5304 44 41.0391 44.2107 41.4142 44.5858C41.7893 44.9609 42 45.4696 42 46ZM50 38C50 38.5304 49.7893 39.0391 49.4142 39.4142C49.0391 39.7893 48.5304 40 48 40H46C45.4696 40 44.9609 39.7893 44.5858 39.4142C44.2107 39.0391 44 38.5304 44 38C44 37.4696 44.2107 36.9609 44.5858 36.5858C44.9609 36.2107 45.4696 36 46 36H48C48.5304 36 49.0391 36.2107 49.4142 36.5858C49.7893 36.9609 50 37.4696 50 38ZM50 46C50 46.5304 49.7893 47.0391 49.4142 47.4142C49.0391 47.7893 48.5304 48 48 48H46C45.4696 48 44.9609 47.7893 44.5858 47.4142C44.2107 47.0391 44 46.5304 44 46C44 45.4696 44.2107 44.9609 44.5858 44.5858C44.9609 44.2107 45.4696 44 46 44H48C48.5304 44 49.0391 44.2107 49.4142 44.5858C49.7893 44.9609 50 45.4696 50 46ZM50 28C50 28.5304 49.7893 29.0391 49.4142 29.4142C49.0391 29.7893 48.5304 30 48 30H32C31.4696 30 30.9609 29.7893 30.5858 29.4142C30.2107 29.0391 30 28.5304 30 28C30 27.4696 30.2107 26.9609 30.5858 26.5858C30.9609 26.2107 31.4696 26 32 26H48C48.5304 26 49.0391 26.2107 49.4142 26.5858C49.7893 26.9609 50 27.4696 50 28Z" fill="white"/>
</svg>
