<svg width="80" height="80" viewBox="0 0 80 80" fill="none" xmlns="http://www.w3.org/2000/svg">
<path d="M80 40C80 62.0914 62.0914 80 40 80C17.9086 80 0 62.0914 0 40C0 17.9086 17.9086 0 40 0C62.0914 0 80 17.9086 80 40Z" fill="#FE7F01"/>
<path d="M60 24H20C19.4696 24 18.9609 24.2107 18.5858 24.5858C18.2107 24.9609 18 25.4696 18 26V54C18 54.5304 18.2107 55.0391 18.5858 55.4142C18.9609 55.7893 19.4696 56 20 56H60C60.5304 56 61.0391 55.7893 61.4142 55.4142C61.7893 55.0391 62 54.5304 62 54V26C62 25.4696 61.7893 24.9609 61.4142 24.5858C61.0391 24.2107 60.5304 24 60 24ZM58 48.368C57.1626 48.6652 56.402 49.1454 55.7737 49.7737C55.1454 50.402 54.6652 51.1626 54.368 52H25.632C25.3348 51.1626 24.8546 50.402 24.2263 49.7737C23.598 49.1454 22.8374 48.6652 22 48.368V31.632C22.8374 31.3348 23.598 30.8546 24.2263 30.2263C24.8546 29.598 25.3348 28.8374 25.632 28H54.368C54.6652 28.8374 55.1454 29.598 55.7737 30.2263C56.402 30.8546 57.1626 31.3348 58 31.632V48.368Z" fill="white"/>
<path d="M40 32C38.4177 32 36.871 32.4692 35.5554 33.3482C34.2398 34.2273 33.2145 35.4767 32.609 36.9385C32.0035 38.4003 31.845 40.0089 32.1537 41.5607C32.4624 43.1126 33.2243 44.538 34.3431 45.6569C35.462 46.7757 36.8874 47.5376 38.4393 47.8463C39.9911 48.155 41.5997 47.9965 43.0615 47.391C44.5233 46.7855 45.7727 45.7602 46.6518 44.4446C47.5308 43.129 48 41.5823 48 40C48 37.8783 47.1571 35.8434 45.6569 34.3431C44.1566 32.8429 42.1217 32 40 32ZM40 44C39.2089 44 38.4355 43.7654 37.7777 43.3259C37.1199 42.8864 36.6072 42.2616 36.3045 41.5307C36.0017 40.7998 35.9225 39.9956 36.0769 39.2196C36.2312 38.4437 36.6122 37.731 37.1716 37.1716C37.731 36.6122 38.4437 36.2312 39.2196 36.0769C39.9956 35.9225 40.7998 36.0017 41.5307 36.3045C42.2616 36.6072 42.8864 37.1199 43.3259 37.7777C43.7654 38.4355 44 39.2089 44 40C44 41.0609 43.5786 42.0783 42.8284 42.8284C42.0783 43.5786 41.0609 44 40 44ZM30 40C30 40.5304 29.7893 41.0391 29.4142 41.4142C29.0391 41.7893 28.5304 42 28 42H26C25.4696 42 24.9609 41.7893 24.5858 41.4142C24.2107 41.0391 24 40.5304 24 40C24 39.4696 24.2107 38.9609 24.5858 38.5858C24.9609 38.2107 25.4696 38 26 38H28C28.5304 38 29.0391 38.2107 29.4142 38.5858C29.7893 38.9609 30 39.4696 30 40ZM56 40C56 40.5304 55.7893 41.0391 55.4142 41.4142C55.0391 41.7893 54.5304 42 54 42H52C51.4696 42 50.9609 41.7893 50.5858 41.4142C50.2107 41.0391 50 40.5304 50 40C50 39.4696 50.2107 38.9609 50.5858 38.5858C50.9609 38.2107 51.4696 38 52 38H54C54.5304 38 55.0391 38.2107 55.4142 38.5858C55.7893 38.9609 56 39.4696 56 40Z" fill="white"/>
</svg>
