<svg width="80" height="80" viewBox="0 0 80 80" fill="none" xmlns="http://www.w3.org/2000/svg">
<path d="M80 40C80 62.0914 62.0914 80 40 80C17.9086 80 0 62.0914 0 40C0 17.9086 17.9086 0 40 0C62.0914 0 80 17.9086 80 40Z" fill="#FE7F01"/>
<path d="M48 22C47.6045 22.0001 47.2179 22.1174 46.8891 22.3372C46.5603 22.557 46.304 22.8693 46.1526 23.2347C46.0013 23.6001 45.9617 24.0022 46.0388 24.3901C46.116 24.778 46.3064 25.1343 46.586 25.414C47.1535 25.8802 47.5657 26.508 47.768 27.214C46.2996 26.1267 44.6009 25.3917 42.8031 25.0657C41.0053 24.7397 39.1566 24.8315 37.4 25.334C36.439 25.6635 35.6 26.2759 34.9933 27.0907C34.3865 27.9056 34.0403 28.8848 34 29.9C33.9 31.952 33.318 32 32.438 32.092C30.189 32.239 27.9657 31.5447 26.2 30.144L21.2 26.4C20.9029 26.1771 20.5495 26.0414 20.1796 26.0081C19.8097 25.9747 19.4378 26.045 19.1056 26.2111C18.7734 26.3773 18.494 26.6326 18.2987 26.9485C18.1034 27.2645 18 27.6286 18 28V34C18.0006 34.395 18.1175 34.781 18.336 35.11L21.762 40.248C20.5125 41.2528 19.5235 42.544 18.8788 44.0121C18.2342 45.4802 17.9528 47.0821 18.0586 48.682C18.1644 50.2819 18.6542 51.8328 19.4865 53.2033C20.3188 54.5738 21.4692 55.7235 22.8401 56.555C24.2111 57.3866 25.7622 57.8755 27.3622 57.9804C28.9622 58.0853 30.5639 57.803 32.0317 57.1575C33.4994 56.512 34.79 55.5223 35.7941 54.2722C36.7982 53.0221 37.4863 51.5484 37.8 49.976C39.267 50.0417 40.7368 50.0123 42.2 49.888C42.4922 51.4269 43.1418 52.8756 44.0965 54.1174C45.0511 55.3592 46.2842 56.3594 47.6962 57.0373C49.1082 57.7153 50.6598 58.0521 52.2258 58.0205C53.7919 57.989 55.3286 57.59 56.7122 56.8557C58.0958 56.1215 59.2875 55.0725 60.1914 53.7932C61.0953 52.514 61.6861 51.0403 61.9161 49.4909C62.1461 47.9415 62.0089 46.3598 61.5156 44.8731C61.0223 43.3865 60.1866 42.0365 59.076 40.932C62 38.432 62 33.82 62 32C62 24.09 52.842 22 48 22ZM28 54C26.8133 54 25.6533 53.6481 24.6666 52.9888C23.6799 52.3295 22.9108 51.3925 22.4567 50.2961C22.0026 49.1997 21.8838 47.9933 22.1153 46.8295C22.3468 45.6656 22.9182 44.5965 23.7574 43.7574C24.5965 42.9182 25.6656 42.3468 26.8295 42.1153C27.9933 41.8838 29.1997 42.0026 30.2961 42.4567C31.3925 42.9108 32.3295 43.6799 32.9888 44.6666C33.6481 45.6533 34 46.8133 34 48C34 49.5913 33.3679 51.1174 32.2426 52.2426C31.1174 53.3679 29.5913 54 28 54ZM52 54C50.4087 54 48.8826 53.3679 47.7574 52.2426C46.6321 51.1174 46 49.5913 46 48V47.958C46.0083 46.7731 46.3672 45.6173 47.0315 44.6361C47.6958 43.6549 48.6358 42.8925 49.7329 42.4448C50.8299 41.9971 52.035 41.8842 53.1961 42.1205C54.3572 42.3567 55.4223 42.9314 56.2573 43.7722C57.0922 44.6129 57.6595 45.6821 57.8876 46.8448C58.1157 48.0075 57.9945 49.2118 57.5391 50.3057C57.0838 51.3996 56.3148 52.3342 55.329 52.9917C54.3432 53.6491 53.1849 54 52 54V54ZM54.956 38.496C53.6409 38.0611 52.2487 37.9091 50.8708 38.0502C49.4928 38.1913 48.1603 38.6221 46.9606 39.3145C45.7609 40.0069 44.7212 40.9452 43.9097 42.0677C43.0982 43.1903 42.5333 44.4717 42.252 45.828C40.7729 45.9944 39.2832 46.0479 37.796 45.988C37.3295 43.7337 36.1009 41.7088 34.3168 40.254C32.5327 38.7992 30.302 38.0033 28 38C27.0993 38.0117 26.2044 38.1463 25.34 38.4L22 33.4V32L23.8 33.342C26.3634 35.3479 29.5845 36.3225 32.83 36.074C36.08 35.762 37.83 33.752 38.006 30.1C38.024 29.75 38.104 29.35 38.844 29.066C40.2293 28.7886 41.6616 28.8578 43.0137 29.2674C44.3657 29.677 45.5956 30.4144 46.594 31.414C46.8906 31.7109 47.2731 31.907 47.6873 31.9745C48.1015 32.0419 48.5265 31.9774 48.902 31.79C49.6206 31.4201 50.2473 30.894 50.7359 30.2503C51.2246 29.6066 51.5629 28.8616 51.726 28.07C51.8134 27.5302 51.8066 26.9794 51.706 26.442C54.546 27.054 58 28.516 58 32C58 35.678 57.462 38.046 54.956 38.496V38.496Z" fill="white"/>
</svg>
