<svg width="41" height="40" viewBox="0 0 41 40" fill="none" xmlns="http://www.w3.org/2000/svg">
<g clip-path="url(#clip0_286_7334)">
<path d="M40.333 20.0477C40.333 31.1217 31.3593 40.0955 20.2853 40.0955C9.30675 40 0.333008 31.0263 0.333008 20.0477C0.333008 9.06921 9.30675 0 20.2853 0C31.3593 0 40.333 8.97375 40.333 20.0477Z" fill="#286EE8"/>
<path fill-rule="evenodd" clip-rule="evenodd" d="M28.3038 9.25977C23.0532 9.25977 17.7071 9.25977 12.361 9.25977C10.4517 9.25977 9.49707 10.2144 9.49707 12.1237C9.49707 14.7013 9.49707 17.3743 9.49707 20.0474C9.49707 22.7204 9.49707 25.3934 9.49707 27.971C9.49707 29.7848 10.5472 30.8349 12.2656 30.8349C17.6116 30.8349 22.9577 30.8349 28.3038 30.8349C30.1176 30.8349 31.1677 29.7848 31.1677 27.971C31.1677 22.6249 31.1677 17.3743 31.1677 12.0283C31.1677 10.2144 30.1176 9.25977 28.3038 9.25977ZM26.5854 11.6464C28.6856 11.6464 28.6856 11.6464 28.6856 13.7466C28.6856 15.8469 28.6856 15.8469 26.5854 15.8469C24.4851 15.8469 24.4851 15.8469 24.4851 13.7466C24.4851 11.6464 24.4851 11.6464 26.5854 11.6464ZM20.3801 15.8469C22.6713 15.8469 24.5806 17.7562 24.5806 20.0474C24.5806 22.3385 22.6713 24.2478 20.3801 24.2478C17.9935 24.1524 16.0842 22.2431 16.1796 19.9519C16.1796 17.6607 18.089 15.8469 20.3801 15.8469ZM28.6856 27.1118C28.6856 28.1619 28.3992 28.4483 27.4446 28.4483C25.0579 28.4483 22.7668 28.4483 20.3801 28.4483C17.9935 28.4483 15.7023 28.4483 13.3157 28.4483C12.361 28.4483 12.0746 28.1619 12.0746 27.1118C12.0746 24.5342 12.0746 21.8612 12.0746 19.2836C12.0746 18.5199 12.2656 18.329 12.9338 18.4244C13.8885 18.5199 13.9839 18.4244 13.793 19.3791C13.4112 22.7204 15.7023 25.9662 19.0436 26.6345C22.4804 27.3027 25.8216 25.2979 26.7763 21.9567C26.9672 20.9065 27.0627 19.761 26.8718 18.8063C26.7763 18.4244 26.8718 18.329 27.2536 18.329C28.7811 18.2335 28.7811 18.2335 28.7811 19.761C28.6856 22.1476 28.6856 24.6297 28.6856 27.1118Z" fill="white"/>
</g>
<defs>
<clipPath id="clip0_286_7334">
<rect width="40" height="40" fill="white" transform="translate(0.333008)"/>
</clipPath>
</defs>
</svg>
