<svg width="37" height="34" viewBox="0 0 212 194" fill="none" xmlns="http://www.w3.org/2000/svg">
<path d="M210.967 40.278C212.056 32.4179 214.457 20.6207 203.972 12.8722C193.473 5.12377 171.708 12.2859 164.448 15.5248C164.392 15.5528 164.337 15.5947 164.267 15.6226C149.217 5.45883 129.964 -0.558436 106.23 0.0418951C82.5103 -0.558436 63.2718 5.44487 48.2217 15.6226C48.1519 15.5947 48.0961 15.5528 48.0262 15.5248C41.5064 13.3748 20.802 7.74847 8.48828 12.8722C-3.56019 17.8843 0.404775 32.4039 1.49374 40.278C2.58271 48.1382 9.80063 62.2529 10.9873 67.8234C10.9873 67.8234 11.0851 67.7955 11.2386 67.7397C4.98403 88.486 4.64896 111.019 9.80063 130.802C24.2225 186.298 106.23 193.935 106.23 193.935C106.23 193.935 188.224 186.298 202.66 130.802C207.798 111.033 207.477 88.486 201.222 67.7397C201.375 67.7815 201.473 67.8234 201.473 67.8234C202.66 62.239 209.878 48.1382 210.967 40.278Z" fill="black"/>
<path d="M165.37 68.1167C162.815 57.0734 152.805 49.8136 143.2 52.0334C137.224 53.4156 132.715 58.1624 130.774 64.2494C126.642 66.8462 120.415 70.504 117.707 70.895C117.26 70.9648 116.967 71.1044 116.799 71.3278C114.384 68.3261 111.047 65.9527 106.23 65.9527C101.414 65.9527 98.0771 68.3261 95.6619 71.3278C95.4943 71.1044 95.2012 70.9648 94.7544 70.895C91.6271 70.4482 83.8647 65.6735 79.9835 63.1744C77.8893 57.6179 73.5893 53.3458 67.9071 52.0334C58.232 49.7996 48.3057 57.0036 45.7368 68.1167C43.168 79.2437 48.92 90.0637 58.595 92.2974C65.0451 93.7913 71.5789 91.0689 76.0046 85.8195C76.0325 85.9591 76.0604 86.1126 76.1023 86.2523C78.7828 97.7981 68.8285 108.953 66.2038 118.209C63.5792 127.452 65.5477 131.165 69.401 135.661C72.975 139.849 72.249 142.306 73.6591 133.986C74.2734 138.718 75.1809 143.381 75.7393 147.332C77.0656 156.812 80.2767 158.055 83.9485 158.194C84.9956 158.236 85.8751 158.222 86.615 158.152L97.8538 164.156C103.299 165.901 109.148 165.915 114.607 164.211L126.167 158.166C126.837 158.208 127.605 158.222 128.498 158.194C132.17 158.041 135.367 156.812 136.708 147.332C137.266 143.381 138.174 138.704 138.788 133.986C140.198 142.306 139.472 139.849 143.046 135.661C146.899 131.151 148.868 127.452 146.243 118.209C143.674 109.163 134.139 98.3008 136.219 87.0201C140.603 91.4598 146.62 93.6656 152.498 92.2974C162.117 90.0776 167.925 79.16 165.37 68.1167Z" fill="white"/>
<path d="M200.225 40.0866C203.293 32.0058 201.427 23.8018 196.057 21.7626C190.686 19.7234 183.845 24.621 180.777 32.7019C177.709 40.7827 179.575 48.9866 184.945 51.0259C190.315 53.0651 197.156 48.1675 200.225 40.0866Z" fill="white"/>
<path d="M74.0762 73.7192C75.3071 71.0687 73.1698 67.4641 69.3024 65.6681C65.435 63.8722 61.3021 64.5649 60.0712 67.2154C58.8403 69.866 60.9777 73.4706 64.845 75.2665C68.7124 77.0625 72.8454 76.3698 74.0762 73.7192Z" fill="black"/>
<path d="M68.1724 75.3905C70.5737 75.3905 72.5143 73.4499 72.5143 71.0486C72.5143 70.4343 72.3887 69.8479 72.1513 69.3313C71.7465 69.08 71.3416 68.8567 70.9367 68.6752C71.4812 69.3174 71.8163 70.1411 71.8163 71.0486C71.8163 73.059 70.1828 74.6924 68.1724 74.6924C66.162 74.6924 64.5286 73.059 64.5286 71.0486C64.5286 69.6385 65.3243 68.4239 66.4971 67.8096C66.1481 67.8235 65.8409 67.8654 65.5617 67.9213C65.3662 67.9631 65.1847 68.019 65.0032 68.0748C64.2773 68.8427 63.8305 69.8898 63.8305 71.0346C63.8445 73.4499 65.7851 75.3905 68.1724 75.3905Z" fill="black"/>
<path d="M66.5109 67.8236C65.3381 68.4239 64.5424 69.6525 64.5424 71.0626C64.5424 73.073 66.1758 74.7065 68.1862 74.7065C70.1966 74.7065 71.8301 73.073 71.8301 71.0626C71.8301 70.1551 71.495 69.3314 70.9505 68.6892C69.2892 67.9492 67.6836 67.7678 66.5109 67.8236Z" fill="white"/>
<path d="M70.2945 70.881C70.2945 71.9002 69.4708 72.7378 68.4377 72.7378C67.4186 72.7378 66.5948 71.9141 66.5948 70.881C66.5948 69.8618 67.4186 69.0242 68.4377 69.0242C69.4569 69.0381 70.2945 69.8618 70.2945 70.881Z" fill="black"/>
<path d="M67.8653 69.3593C67.8653 69.8061 67.5023 70.1691 67.0555 70.1691C66.6088 70.1691 66.2458 69.8061 66.2458 69.3593C66.2458 68.9126 66.6088 68.5496 67.0555 68.5496C67.5023 68.5496 67.8653 68.9126 67.8653 69.3593Z" fill="white"/>
<path d="M149.666 75.2799C153.533 73.4839 155.67 69.8793 154.439 67.2288C153.209 64.5782 149.076 63.8855 145.208 65.6815C141.341 67.4774 139.204 71.082 140.434 73.7325C141.665 76.3831 145.798 77.0758 149.666 75.2799Z" fill="black"/>
<path d="M146.327 75.3905C143.926 75.3905 141.985 73.4499 141.985 71.0486C141.985 70.4343 142.111 69.8479 142.348 69.3313C142.753 69.08 143.158 68.8567 143.563 68.6752C143.018 69.3174 142.683 70.1411 142.683 71.0486C142.683 73.059 144.316 74.6924 146.327 74.6924C148.337 74.6924 149.971 73.059 149.971 71.0486C149.971 69.6385 149.175 68.4239 148.002 67.8096C148.351 67.8235 148.658 67.8654 148.938 67.9213C149.133 67.9631 149.315 68.019 149.496 68.0748C150.222 68.8427 150.669 69.8898 150.669 71.0346C150.655 73.4499 148.714 75.3905 146.327 75.3905Z" fill="black"/>
<path d="M147.988 67.8236C149.161 68.4239 149.957 69.6525 149.957 71.0626C149.957 73.073 148.324 74.7065 146.313 74.7065C144.303 74.7065 142.669 73.073 142.669 71.0626C142.669 70.1551 143.004 69.3314 143.549 68.6892C145.21 67.9492 146.816 67.7678 147.988 67.8236Z" fill="white"/>
<path d="M144.205 70.881C144.205 71.9002 145.028 72.7378 146.062 72.7378C147.081 72.7378 147.904 71.9141 147.904 70.881C147.904 69.8618 147.081 69.0242 146.062 69.0242C145.042 69.0381 144.205 69.8618 144.205 70.881Z" fill="black"/>
<path d="M146.634 69.3593C146.634 69.8061 146.997 70.1691 147.444 70.1691C147.891 70.1691 148.254 69.8061 148.254 69.3593C148.254 68.9126 147.891 68.5496 147.444 68.5496C146.997 68.5496 146.634 68.9126 146.634 69.3593Z" fill="white"/>
<path d="M28.9825 51.0274C34.3529 48.9882 36.219 40.7842 33.1506 32.7034C30.0821 24.6226 23.2411 19.7249 17.8707 21.7642C12.5003 23.8034 10.6343 32.0074 13.7027 40.0882C16.7711 48.169 23.6122 53.0667 28.9825 51.0274Z" fill="white"/>
<path d="M129.727 131.961C130.188 129.532 127.647 112.429 121.281 112.429C116.841 112.429 110.279 115.529 106.579 116.045C106.342 116.073 106.133 116.073 105.895 116.045C102.084 115.445 93.7771 111.033 89.5748 112.429C84.3673 114.16 82.2871 129.546 82.7478 131.961C82.7617 132.003 82.7757 132.045 82.7757 132.087C82.7478 132.394 82.7059 132.687 82.7059 132.994C82.7059 141.65 93.2326 148.672 106.23 148.672C119.228 148.672 129.755 141.65 129.755 132.994C129.755 132.701 129.713 132.408 129.685 132.115C129.699 132.059 129.713 132.017 129.727 131.961Z" fill="black"/>
</svg>
