<svg width="125" height="33" viewBox="0 0 125 33" fill="none" xmlns="http://www.w3.org/2000/svg">
<path d="M56.9722 5.71357C59.6557 5.74397 61.9758 6.73869 63.928 8.69989C65.8824 10.6589 66.8422 13.0719 66.8096 15.9409C66.7769 18.81 65.8041 21.2425 63.8954 23.2384C61.9867 25.2344 59.6536 26.216 56.896 26.1856C54.1407 26.1531 51.8076 25.1323 49.8989 23.1168C47.9924 21.1035 47.0522 18.7231 47.0848 15.9713C47.1022 14.4706 47.3917 13.0675 47.951 11.7601C48.5104 10.4548 49.2482 9.36449 50.1644 8.48705C51.0807 7.60961 52.1319 6.92547 53.3159 6.43246C54.502 5.93944 55.7208 5.69836 56.9722 5.71357ZM51.9012 15.8888C51.8816 17.5003 52.3887 18.8143 53.4203 19.8307C54.4519 20.8472 55.6098 21.3619 56.8982 21.3771C58.1845 21.3923 59.3532 20.9188 60.3957 19.9524C61.4404 18.9881 61.9736 17.6828 61.9932 16.0343C62.0128 14.388 61.5057 13.061 60.4741 12.0533C59.4424 11.0455 58.2846 10.5351 56.9962 10.5199C55.7077 10.5047 54.5412 10.9934 53.4965 11.9859C52.454 12.9785 51.9208 14.2794 51.9012 15.8888Z" fill="#232323"/>
<path d="M81.8705 21.503C82.5779 21.5117 83.0893 21.603 83.4049 21.7789C83.7205 21.9548 83.936 22.2067 84.0491 22.5325C84.1623 22.8583 84.2167 23.2775 84.2124 23.7835C84.2058 24.2896 84.1558 24.6979 84.0622 25.0041C83.9686 25.3103 83.8554 25.5449 83.7292 25.7056C83.6008 25.8663 83.4093 25.9836 83.1546 26.0509C82.863 26.1574 82.3994 26.2052 81.7661 26.1965L70.4509 26.0662C70.0331 26.0618 69.637 25.9489 69.2583 25.7273C68.4639 25.2669 68.0743 24.5458 68.0852 23.5685C68.0917 23.0972 68.2027 22.7193 68.4247 22.4326L76.9932 10.8848L70.7382 10.8109C70.3029 10.8066 69.9808 10.7892 69.7719 10.7588C69.563 10.7306 69.3149 10.6502 69.0254 10.5199C68.5031 10.2593 68.2484 9.57946 68.2593 8.47398C68.2724 7.31637 68.527 6.61269 69.0189 6.36509C69.2931 6.22392 69.5325 6.14139 69.7414 6.11533C69.9504 6.09144 70.2725 6.08058 70.7078 6.08492L81.642 6.21089C82.0599 6.21523 82.456 6.33034 82.8347 6.5497C83.2134 6.77123 83.505 7.06444 83.7096 7.42931C83.9142 7.79419 84.0121 8.21987 84.0078 8.70637C84.0012 9.19504 83.8881 9.58381 83.6683 9.8705L75.0976 21.4249L81.8705 21.503Z" fill="#232323"/>
<path d="M95.5423 6.15871C98.2258 6.18911 100.544 7.18383 102.498 9.14503C104.453 11.1041 105.412 13.5192 105.38 16.3861C105.347 19.2551 104.374 21.6876 102.465 23.6835C100.557 25.6795 98.2236 26.6612 95.4683 26.6286C92.7108 26.596 90.3799 25.5753 88.4712 23.5598C86.5625 21.5464 85.6244 19.1661 85.6571 16.4143C85.6745 14.9135 85.9618 13.5105 86.5211 12.203C87.0804 10.8977 87.8182 9.80746 88.7367 8.93002C89.653 8.05258 90.7042 7.36844 91.8881 6.87543C93.0721 6.38458 94.2909 6.14568 95.5423 6.15871ZM90.4735 16.3361C90.4539 17.9476 90.961 19.2594 91.9926 20.2759C93.0242 21.2923 94.1821 21.8071 95.4705 21.8223C96.7567 21.8375 97.9255 21.364 98.9702 20.3975C100.015 19.431 100.548 18.1257 100.565 16.4794C100.585 14.8332 100.078 13.5062 99.0463 12.4984C98.0169 11.4928 96.8569 10.9803 95.5684 10.9651C94.28 10.9499 93.1134 11.4385 92.0688 12.4311C91.0241 13.4236 90.4909 14.7267 90.4735 16.3361Z" fill="#232323"/>
<path d="M120.134 7.51619C120.31 7.20126 120.571 6.99277 120.917 6.88852C121.263 6.78427 121.694 6.73431 122.212 6.74083C122.73 6.74734 123.146 6.79512 123.462 6.89069C123.777 6.98408 124.012 7.09702 124.165 7.22516C124.317 7.3533 124.428 7.54442 124.498 7.79853C124.604 8.08956 124.652 8.55 124.646 9.18418L124.469 24.2505C124.465 24.6848 124.448 25.0019 124.417 25.2017C124.387 25.4016 124.297 25.6339 124.149 25.9054C123.888 26.3919 123.179 26.6265 122.019 26.6135C121.311 26.6069 120.822 26.5461 120.552 26.4332C120.28 26.3203 120.056 26.1465 119.877 25.9098C115.862 20.4323 113.217 16.8552 111.948 15.1764L111.844 24.1071C111.84 24.5415 111.822 24.8586 111.792 25.0562C111.763 25.256 111.672 25.4884 111.524 25.7599C111.263 26.2464 110.553 26.481 109.393 26.4679C108.268 26.4549 107.583 26.2008 107.334 25.71C107.193 25.4363 107.11 25.1909 107.084 24.9737C107.06 24.7565 107.049 24.4394 107.054 24.0224L107.23 8.87578C107.236 8.18947 107.33 7.68776 107.506 7.37067C107.683 7.05575 107.942 6.84508 108.288 6.74083C108.634 6.63658 109.078 6.5888 109.622 6.59531C110.166 6.60183 110.595 6.65612 110.912 6.76037C111.228 6.86245 111.45 6.97973 111.576 7.1057C111.648 7.16 111.853 7.39891 112.192 7.81808C115.957 13.0566 118.475 16.5143 119.744 18.1953L119.851 9.02129C119.866 8.33281 119.958 7.83111 120.134 7.51619Z" fill="#232323"/>
<path d="M35.0953 6.88223C35.2737 5.59431 35.6698 3.66134 33.9461 2.39297C32.2224 1.1246 28.6488 2.29741 27.4561 2.82952C27.4452 2.83386 27.4365 2.84037 27.4278 2.84689C24.9576 1.17672 21.7953 0.192862 17.8995 0.290596C14.0037 0.192862 10.8436 1.17672 8.37118 2.84689C8.36247 2.84255 8.35159 2.83386 8.34288 2.82952C7.15021 2.29741 3.57438 1.1246 1.85284 2.39297C0.129124 3.66134 0.52523 5.59431 0.703696 6.88223C0.884337 8.17015 2.0683 10.481 2.26418 11.3954C2.26418 11.3954 2.28159 11.391 2.30553 11.3824C1.27609 14.7813 1.22386 18.4757 2.0683 21.7161C4.43841 30.8076 17.9017 32.0586 17.9017 32.0586C17.9017 32.0586 31.3649 30.8076 33.7328 21.7161C34.5773 18.4757 34.5229 14.7835 33.4956 11.3845C33.5196 11.391 33.537 11.3976 33.537 11.3976C33.7328 10.4832 34.9168 8.17232 35.0953 6.88223Z" fill="black"/>
<path d="M27.6111 11.443C27.1911 9.6338 25.5479 8.44362 23.97 8.80632C22.9884 9.03219 22.2485 9.8119 21.9307 10.8088C21.2517 11.2323 20.2287 11.8339 19.7848 11.8969C19.7108 11.9078 19.6651 11.9316 19.6368 11.9686C19.2385 11.4755 18.6922 11.089 17.9 11.089C17.1078 11.089 16.5615 11.4777 16.1632 11.9686C16.1349 11.9338 16.0892 11.9078 16.0152 11.8969C15.5016 11.8231 14.2284 11.0412 13.5907 10.6329C13.2468 9.72285 12.5395 9.02133 11.608 8.80849C10.0192 8.44144 8.3891 9.62294 7.96688 11.4451C7.54465 13.2673 8.48921 15.0418 10.078 15.4088C11.1357 15.6521 12.2109 15.209 12.9356 14.3468C12.94 14.3707 12.9443 14.3945 12.9508 14.4184C13.3905 16.3101 11.756 18.1389 11.3251 19.6548C10.8941 21.1708 11.2184 21.7767 11.8496 22.5152C12.4372 23.2015 12.3175 23.6033 12.5504 22.2415C12.6527 23.0169 12.8007 23.7814 12.8921 24.4286C13.1097 25.9815 13.6364 26.1856 14.2393 26.2095C14.4112 26.216 14.5549 26.2139 14.6789 26.2008L16.5245 27.1847C17.419 27.4692 18.3788 27.4736 19.2755 27.1956L21.1733 26.2052C21.2843 26.2139 21.4084 26.216 21.5564 26.2095C22.1592 26.1856 22.6859 25.9815 22.9036 24.4286C22.995 23.7814 23.143 23.0147 23.2452 22.2415C23.4781 23.6033 23.3584 23.2015 23.9461 22.5152C24.5772 21.7767 24.9015 21.1708 24.4706 19.6548C24.0505 18.1736 22.4835 16.3927 22.8252 14.5444C23.5434 15.272 24.5337 15.6325 25.4978 15.4088C27.0757 15.0418 28.029 13.2543 27.6111 11.443Z" fill="white"/>
<path d="M33.3335 6.85155C33.8375 5.52717 33.5309 4.18258 32.6488 3.84831C31.7666 3.51404 30.643 4.31668 30.139 5.64106C29.6351 6.96544 29.9417 8.31004 30.8238 8.64431C31.706 8.97858 32.8296 8.17593 33.3335 6.85155Z" fill="white"/>
<path d="M5.21614 8.64608C6.09828 8.31181 6.40487 6.96721 5.90093 5.64283C5.39699 4.31845 4.27334 3.51581 3.3912 3.85008C2.50906 4.18434 2.20247 5.52894 2.70642 6.85332C3.21036 8.1777 4.334 8.98035 5.21614 8.64608Z" fill="white"/>
<path d="M12.6191 12.3637C12.8208 11.9295 12.4692 11.3383 11.8338 11.0432C11.1985 10.7482 10.5199 10.861 10.3183 11.2953C10.1166 11.7295 10.4682 12.3207 11.1035 12.6158C11.7389 12.9108 12.4174 12.798 12.6191 12.3637Z" fill="black"/>
<path d="M11.377 11.3975C11.1855 11.4975 11.0527 11.6973 11.0527 11.9275C11.0527 12.2576 11.3204 12.5248 11.6512 12.5248C11.9821 12.5248 12.2498 12.2576 12.2498 11.9275C12.2498 11.7798 12.1953 11.643 12.1039 11.5387C11.8341 11.4171 11.5707 11.3867 11.377 11.3975Z" fill="white"/>
<path d="M11.9988 11.8971C11.9988 12.0643 11.8639 12.2011 11.6941 12.2011C11.5265 12.2011 11.3916 12.0665 11.3916 11.8971C11.3916 11.7298 11.5265 11.593 11.6941 11.593C11.8617 11.5952 11.9988 11.7298 11.9988 11.8971Z" fill="black"/>
<path d="M11.5999 11.6474C11.5999 11.7212 11.5413 11.7799 11.4674 11.7799C11.3936 11.7799 11.335 11.7212 11.335 11.6474C11.335 11.5735 11.3936 11.5149 11.4674 11.5149C11.5413 11.5149 11.5999 11.5735 11.5999 11.6474Z" fill="white"/>
<path d="M25.0298 12.6168C25.6654 12.3222 26.0169 11.7315 25.8149 11.2975C25.6129 10.8634 24.9339 10.7502 24.2983 11.0448C23.6627 11.3393 23.3112 11.93 23.5132 12.3641C23.7152 12.7982 24.3942 12.9113 25.0298 12.6168Z" fill="black"/>
<path d="M24.7575 11.3975C24.949 11.4975 25.0818 11.6973 25.0818 11.9275C25.0818 12.2576 24.8141 12.5248 24.4833 12.5248C24.1525 12.5248 23.8848 12.2576 23.8848 11.9275C23.8848 11.7798 23.9392 11.643 24.0306 11.5387C24.3005 11.4171 24.5638 11.3867 24.7575 11.3975Z" fill="white"/>
<path d="M24.1348 11.8971C24.1348 12.0643 24.2697 12.2011 24.4395 12.2011C24.607 12.2011 24.742 12.0665 24.742 11.8971C24.742 11.7298 24.607 11.593 24.4395 11.593C24.2719 11.5952 24.1348 11.7298 24.1348 11.8971Z" fill="black"/>
<path d="M24.5332 11.6474C24.5332 11.7212 24.5918 11.7799 24.6657 11.7799C24.7395 11.7799 24.7982 11.7212 24.7982 11.6474C24.7982 11.5735 24.7395 11.5149 24.6657 11.5149C24.594 11.5149 24.5332 11.5735 24.5332 11.6474Z" fill="white"/>
<path d="M21.7558 21.9049C21.8319 21.5075 21.4141 18.7036 20.3694 18.7036C19.6403 18.7036 18.563 19.2118 17.9557 19.2965C17.9166 19.303 17.8818 19.303 17.8426 19.2965C17.2179 19.1988 15.8533 18.4734 15.1634 18.7036C14.3081 18.9881 13.9664 21.5075 14.0426 21.9049C14.0447 21.9114 14.0469 21.9179 14.0469 21.9266C14.0426 21.9766 14.036 22.0265 14.036 22.0765C14.036 23.4947 15.7663 24.6458 17.8992 24.6458C20.032 24.6458 21.7623 23.4947 21.7623 22.0765C21.7623 22.0287 21.7558 21.9809 21.7514 21.9332C21.7514 21.9223 21.7536 21.9136 21.7558 21.9049Z" fill="black"/>
</svg>
