<svg width="282" height="73" viewBox="0 0 282 73" fill="none" xmlns="http://www.w3.org/2000/svg">
<path d="M60.2515 28.1577L60.2514 28.1579C60.1133 29.1587 59.5634 30.6385 58.9448 32.1817C58.8461 32.4279 58.7457 32.6758 58.6463 32.921C58.4463 33.415 58.2505 33.8983 58.0812 34.3368C57.9825 34.5925 57.8879 34.8453 57.803 35.088L56.9287 34.8496L57.4501 36.5781C59.218 42.4399 59.3096 48.8091 57.86 54.3834L57.86 54.3836C55.8839 61.9863 49.25 66.4075 42.8593 68.9419C39.6861 70.2004 36.6341 70.9678 34.3721 71.4202C33.2426 71.6462 32.3137 71.7929 31.67 71.8828C31.3482 71.9277 31.098 71.9585 30.9298 71.9778C30.8663 71.9851 30.8146 71.9908 30.7751 71.995C30.7356 71.9908 30.6838 71.9851 30.6204 71.9778C30.4522 71.9585 30.2019 71.9277 29.8801 71.8828C29.2364 71.7929 28.3075 71.6462 27.178 71.4202C24.9159 70.9678 21.8637 70.2004 18.6903 68.9419C12.2992 66.4075 5.66415 61.9862 3.68624 54.3833C2.23654 48.8086 2.32466 42.4358 4.09606 36.5748L4.6738 34.6633L3.7175 35.011C3.63939 34.7908 3.55381 34.563 3.46495 34.3329C3.29445 33.8913 3.09712 33.4045 2.89552 32.9072C2.79746 32.6653 2.69838 32.4209 2.60089 32.1779C1.98187 30.6356 1.43094 29.1565 1.29084 28.1568C1.27547 28.0457 1.25975 27.9341 1.24396 27.822C0.91088 25.4565 0.548635 22.884 2.93013 21.128L2.93062 21.1276C4.10634 20.2596 6.08712 20.1479 8.28005 20.4992C10.3647 20.8332 12.3542 21.5381 13.368 21.9842C13.3721 21.9867 13.3764 21.9892 13.3809 21.9918C13.3961 22.0006 13.4161 22.0117 13.4399 22.0236L13.9632 22.2852L14.4477 21.9573C18.6421 19.1179 24.0335 17.4209 30.7461 17.5896L30.7712 17.5903L30.7963 17.5896C37.5091 17.4209 42.9042 19.118 47.0944 21.957L47.6848 22.357L48.1924 21.9763C49.2116 21.5298 51.189 20.8312 53.261 20.4992C55.453 20.1479 57.4344 20.2594 58.6123 21.128C60.9938 22.884 60.6316 25.4565 60.2985 27.822C60.2826 27.9344 60.2669 28.0463 60.2515 28.1577Z" fill="#232323" stroke="white" stroke-width="2"/>
<path d="M47.9791 36.3932C47.2348 33.1807 44.323 31.0673 41.527 31.7113C39.7877 32.1124 38.4765 33.4969 37.9134 35.2671C36.7101 36.0191 34.8976 37.0874 34.1108 37.1992C33.9797 37.2185 33.8987 37.2609 33.8486 37.3265C33.1428 36.451 32.1748 35.7646 30.771 35.7646C29.3672 35.7646 28.3992 36.4549 27.6935 37.3265C27.6433 37.2648 27.5623 37.2185 27.4312 37.1992C26.5211 37.0681 24.265 35.6797 23.135 34.9547C22.5257 33.3388 21.2723 32.0931 19.6216 31.7152C16.8063 31.0634 13.9178 33.1614 13.1696 36.3971C12.4214 39.6327 14.0952 42.7836 16.9105 43.4353C18.7848 43.8673 20.6899 43.0805 21.9742 41.5494C21.9819 41.5919 21.9896 41.6343 22.0012 41.6767C22.7802 45.0358 19.8839 48.283 19.1203 50.9749C18.3567 53.6668 18.9313 54.7428 20.0497 56.054C21.091 57.2727 20.8789 57.9862 21.2915 55.5681C21.4728 56.9449 21.7351 58.3024 21.897 59.4517C22.2827 62.2091 23.216 62.5717 24.2843 62.6141C24.5889 62.6257 24.8435 62.6218 25.0633 62.5987L28.3337 64.3457C29.9187 64.8509 31.6195 64.8586 33.2084 64.365L36.5713 62.6064C36.768 62.6218 36.9878 62.6257 37.2501 62.6141C38.3183 62.5717 39.2516 62.2091 39.6373 59.4517C39.7993 58.3024 40.0615 56.9411 40.2428 55.5681C40.6554 57.9862 40.4433 57.2727 41.4846 56.054C42.603 54.7428 43.1776 53.6668 42.414 50.9749C41.6697 48.3447 38.893 45.1823 39.4985 41.9004C40.7711 43.1924 42.5259 43.8325 44.2343 43.4353C47.0304 42.7836 48.7195 39.6096 47.9791 36.3932Z" fill="white"/>
<path d="M58.1213 28.24C59.0143 25.8883 58.471 23.5007 56.9079 22.9071C55.3447 22.3136 53.3536 23.7388 52.4606 26.0905C51.5677 28.4422 52.1109 30.8298 53.6741 31.4234C55.2372 32.0169 57.2283 30.5917 58.1213 28.24Z" fill="white"/>
<path d="M8.29654 31.4268C9.85969 30.8333 10.403 28.4457 9.50998 26.094C8.61699 23.7423 6.6259 22.3171 5.06275 22.9106C3.4996 23.5042 2.95633 25.8918 3.84932 28.2435C4.7423 30.5952 6.73339 32.0204 8.29654 31.4268Z" fill="white"/>
<path d="M21.4171 38.0247C21.7751 37.2539 21.1523 36.2051 20.026 35.682C18.8997 35.159 17.6965 35.3599 17.3386 36.1307C16.9806 36.9015 17.6034 37.9504 18.7297 38.4734C19.856 38.9964 21.0592 38.7955 21.4171 38.0247Z" fill="black"/>
<path d="M19.2143 36.3132C18.8749 36.4906 18.6396 36.8454 18.6396 37.2542C18.6396 37.8404 19.114 38.3148 19.7002 38.3148C20.2864 38.3148 20.7608 37.8404 20.7608 37.2542C20.7608 36.992 20.6644 36.749 20.5024 36.5639C20.0242 36.3479 19.5575 36.2939 19.2143 36.3132Z" fill="white"/>
<path d="M20.3172 37.2001C20.3172 37.497 20.0781 37.74 19.7773 37.74C19.4803 37.74 19.2412 37.5009 19.2412 37.2001C19.2412 36.9031 19.4803 36.6602 19.7773 36.6602C20.0742 36.664 20.3172 36.9031 20.3172 37.2001Z" fill="black"/>
<path d="M19.6121 36.7558C19.6121 36.8869 19.508 36.991 19.3769 36.991C19.2457 36.991 19.1416 36.8869 19.1416 36.7558C19.1416 36.6246 19.2457 36.5205 19.3769 36.5205C19.508 36.5205 19.6121 36.6246 19.6121 36.7558Z" fill="white"/>
<path d="M43.4068 38.4791C44.5331 37.9561 45.1559 36.9072 44.798 36.1364C44.44 35.3656 43.2368 35.1647 42.1106 35.6877C40.9843 36.2108 40.3615 37.2596 40.7194 38.0304C41.0774 38.8012 42.2806 39.0021 43.4068 38.4791Z" fill="black"/>
<path d="M42.9244 36.3122C43.2638 36.4896 43.499 36.8444 43.499 37.2532C43.499 37.8394 43.0247 38.3138 42.4385 38.3138C41.8523 38.3138 41.3779 37.8394 41.3779 37.2532C41.3779 36.991 41.4743 36.748 41.6363 36.5629C42.1145 36.3469 42.5812 36.2929 42.9244 36.3122Z" fill="white"/>
<path d="M41.8223 37.1991C41.8223 37.4961 42.0614 37.739 42.3622 37.739C42.6591 37.739 42.8983 37.4999 42.8983 37.1991C42.8983 36.9021 42.6591 36.6592 42.3622 36.6592C42.0652 36.663 41.8223 36.9021 41.8223 37.1991Z" fill="black"/>
<path d="M42.5273 36.7548C42.5273 36.8859 42.6315 36.99 42.7626 36.99C42.8937 36.99 42.9978 36.8859 42.9978 36.7548C42.9978 36.6237 42.8937 36.5195 42.7626 36.5195C42.6353 36.5195 42.5273 36.6237 42.5273 36.7548Z" fill="white"/>
<path d="M37.606 54.9704C37.7409 54.2646 37.0005 49.2858 35.1493 49.2858C33.8574 49.2858 31.9484 50.1882 30.8724 50.3386C30.803 50.3502 30.7413 50.3502 30.6718 50.3386C29.565 50.1651 27.1469 48.877 25.9244 49.2858C24.4088 49.791 23.8033 54.2646 23.9382 54.9704C23.9421 54.9819 23.946 54.9935 23.946 55.0089C23.9382 55.0976 23.9267 55.1863 23.9267 55.275C23.9267 57.7934 26.9927 59.8374 30.7721 59.8374C34.5516 59.8374 37.6175 57.7934 37.6175 55.275C37.6175 55.1902 37.606 55.1053 37.5983 55.0205C37.5983 55.0012 37.6021 54.9858 37.606 54.9704Z" fill="#232323"/>
<path d="M100.447 16.786C107.523 16.786 113.667 19.3439 118.879 24.4597C124.09 29.5755 126.696 35.9344 126.696 43.5364C126.696 51.0906 124.21 57.5452 119.237 62.9C114.265 68.2071 108.145 70.8606 100.878 70.8606C93.6103 70.8606 87.4187 68.231 82.3029 62.9717C77.2349 57.7125 74.7009 51.4492 74.7009 44.1819C74.7009 40.2136 75.4181 36.5082 76.8524 33.0658C78.2868 29.5755 80.1992 26.659 82.5898 24.3163C84.9804 21.9735 87.7295 20.1328 90.8372 18.7941C93.945 17.4554 97.1483 16.786 100.447 16.786ZM87.3948 43.8233C87.3948 48.0785 88.7575 51.5448 91.4827 54.2223C94.2558 56.8519 97.3396 58.1667 100.734 58.1667C104.129 58.1667 107.189 56.8758 109.914 54.294C112.639 51.7122 114.002 48.2459 114.002 43.895C114.002 39.5442 112.615 36.054 109.842 33.4243C107.117 30.7947 104.057 29.4799 100.662 29.4799C97.2679 29.4799 94.2079 30.8186 91.4827 33.4961C88.7575 36.1257 87.3948 39.5681 87.3948 43.8233ZM166.598 57.7364C168.463 57.7364 169.802 57.9755 170.615 58.4536C171.475 58.8839 172.049 59.5293 172.336 60.3899C172.67 61.2505 172.838 62.3502 172.838 63.6889C172.838 65.0276 172.718 66.1034 172.479 66.9162C172.24 67.729 171.953 68.3505 171.619 68.7808C171.284 69.2111 170.782 69.5219 170.113 69.7131C169.348 70 168.128 70.1434 166.455 70.1434L136.621 70.1434C135.521 70.1434 134.469 69.8566 133.465 69.2828C131.361 68.0875 130.31 66.199 130.31 63.6172C130.31 62.3741 130.596 61.3701 131.17 60.6051L153.402 29.8385L136.908 29.8385C135.76 29.8385 134.899 29.8146 134.326 29.7668C133.8 29.6712 133.154 29.456 132.389 29.1213C131.003 28.452 130.31 26.659 130.31 23.7426C130.31 20.6826 130.955 18.818 132.246 18.1486C132.963 17.7661 133.585 17.551 134.111 17.5032C134.684 17.4076 135.545 17.3597 136.692 17.3597L165.523 17.3597C166.622 17.3597 167.674 17.6466 168.678 18.2203C169.682 18.7941 170.447 19.5591 170.973 20.5153C171.547 21.4715 171.834 22.5951 171.834 23.886C171.834 25.1769 171.547 26.2048 170.973 26.9698L148.741 57.7364L166.598 57.7364ZM202.14 16.786C209.216 16.786 215.36 19.3439 220.571 24.4597C225.782 29.5755 228.388 35.9344 228.388 43.5364C228.388 51.0906 225.902 57.5452 220.93 62.9C215.957 68.2071 209.837 70.8606 202.57 70.8606C195.303 70.8606 189.111 68.231 183.995 62.9717C178.927 57.7125 176.393 51.4492 176.393 44.1819C176.393 40.2136 177.111 36.5082 178.545 33.0658C179.979 29.5755 181.892 26.659 184.282 24.3163C186.673 21.9735 189.422 20.1328 192.53 18.7941C195.637 17.4554 198.841 16.786 202.14 16.786ZM189.087 43.8233C189.087 48.0785 190.45 51.5448 193.175 54.2223C195.948 56.8519 199.032 58.1667 202.427 58.1667C205.821 58.1667 208.881 56.8758 211.606 54.294C214.332 51.7122 215.694 48.2459 215.694 43.895C215.694 39.5442 214.308 36.054 211.535 33.4243C208.809 30.7947 205.749 29.4799 202.355 29.4799C198.96 29.4799 195.9 30.8186 193.175 33.4961C190.45 36.1257 189.087 39.5681 189.087 43.8233ZM267 19.6547C267.478 18.7941 268.171 18.2203 269.08 17.9335C269.988 17.6466 271.112 17.5032 272.45 17.5032C273.837 17.5032 274.937 17.6227 275.749 17.8618C276.61 18.1008 277.232 18.3877 277.614 18.7224C278.044 19.057 278.355 19.5591 278.546 20.2284C278.833 20.9934 278.977 22.2126 278.977 23.886L278.977 63.6889C278.977 64.8364 278.929 65.6731 278.833 66.199C278.785 66.7249 278.57 67.3465 278.188 68.0636C277.518 69.3545 275.654 70 272.594 70C270.729 70 269.438 69.8566 268.721 69.5697C268.004 69.2828 267.406 68.8286 266.928 68.2071C256.171 53.8637 249.095 44.4927 245.7 40.094L245.7 63.6889C245.7 64.8364 245.652 65.6731 245.557 66.199C245.509 66.7249 245.294 67.3465 244.911 68.0636C244.242 69.3545 242.377 70 239.317 70C236.353 70 234.536 69.3545 233.867 68.0636C233.484 67.3465 233.245 66.701 233.149 66.1273C233.102 65.5535 233.078 64.7169 233.078 63.6172L233.078 23.5991C233.078 21.7823 233.293 20.4675 233.723 19.6547C234.201 18.7941 234.895 18.2203 235.803 17.9335C236.711 17.6466 237.883 17.5032 239.317 17.5032C240.751 17.5032 241.875 17.6466 242.688 17.9335C243.548 18.1725 244.146 18.4594 244.481 18.7941C244.672 18.9375 245.222 19.5591 246.13 20.6587C256.218 34.3806 262.96 43.4408 266.354 47.8395L266.354 23.5991C266.354 21.7823 266.57 20.4675 267 19.6547Z" fill="white"/>
</svg>
