<svg width="138" height="69" viewBox="0 0 138 69" fill="none" xmlns="http://www.w3.org/2000/svg">
<path d="M68.9966 41.504L86.4508 23.6002L90.7093 9.82869L89.8606 6.48506L68.8287 1.86133L47.8516 7.56754L50.3448 21.8217L57.7414 33.8304L68.9966 41.504Z" fill="#174902"/>
<path d="M68.9957 43.6426C68.611 43.6426 68.2282 43.536 67.9 43.3314C53.7556 34.5054 45.5819 21.3181 45.4669 7.14102C45.4575 6.31211 46.0629 5.58288 46.9266 5.36953L68.496 0.0603318C68.8222 -0.0201106 69.1673 -0.0201106 69.5049 0.0603318L91.0743 5.36778C91.938 5.58113 92.534 6.31211 92.534 7.13927C92.4284 21.3076 84.2453 34.5037 70.1009 43.3296C69.7633 43.536 69.3805 43.6426 68.9957 43.6426ZM49.433 8.52078C50.029 20.5784 57.0767 31.7896 68.9957 39.617C80.9129 31.7896 87.9625 20.5784 88.5584 8.52078L68.9957 3.70298L49.433 8.52078Z" fill="#5CE529"/>
<path d="M65.86 13.4866C65.86 11.8813 67.2687 10.575 69 10.575C70.7313 10.575 72.1401 11.8813 72.1401 13.4866V15.7967H73.4395V13.4866C73.4395 11.2168 71.448 9.37012 69 9.37012C66.5521 9.37012 64.5605 11.2168 64.5605 13.4866V15.7967H65.86V13.4866Z" fill="#5CE529"/>
<path d="M62.1787 17.002V28.2481H75.8234V17.002H62.1787ZM68.4626 24.8153L65.9147 22.4528L66.8332 21.6011L68.4626 23.1121L70.8898 20.8614L71.8083 21.7131L68.4626 24.8153Z" fill="#5CE529"/>
<path d="M49.677 60.8794C49.6404 61.3526 49.4515 61.7248 49.1122 61.9967C48.7729 62.2685 48.3246 62.4045 47.7692 62.4045C47.1611 62.4045 46.6837 62.2145 46.335 61.8354C45.9864 61.4563 45.8125 60.9343 45.8125 60.2729V60.0045C45.8125 59.5818 45.8924 59.2097 46.0531 58.8873C46.2138 58.5648 46.4431 58.3182 46.742 58.1456C47.0408 57.9731 47.3876 57.8877 47.7824 57.8877C48.3293 57.8877 48.7701 58.0236 49.1047 58.2955C49.4393 58.5674 49.6319 58.9483 49.6846 59.4398H48.7071C48.6836 59.1557 48.5981 58.95 48.4515 58.8228C48.3049 58.6947 48.0822 58.6311 47.7824 58.6311C47.4572 58.6311 47.2128 58.7391 47.0512 58.9552C46.8895 59.1714 46.8068 59.5069 46.8021 59.9618V60.2938C46.8021 60.7688 46.8801 61.1165 47.0352 61.3352C47.1903 61.5539 47.4356 61.6646 47.7692 61.6646C48.0709 61.6646 48.2964 61.601 48.4449 61.4729C48.5934 61.3448 48.6789 61.147 48.7006 60.8794H49.677Z" fill="#FBFBFB"/>
<path d="M51.8779 62.404C51.361 62.404 50.9409 62.2567 50.6157 61.963C50.2915 61.6693 50.1289 61.278 50.1289 60.7883V60.7037C50.1289 60.376 50.1975 60.0823 50.3338 59.8235C50.471 59.5647 50.6646 59.366 50.9146 59.2257C51.1655 59.0853 51.4512 59.0156 51.7727 59.0156C52.2548 59.0156 52.6335 59.1568 52.9108 59.4383C53.188 59.7198 53.3262 60.1198 53.3262 60.6366V60.9931H51.0838C51.1138 61.2066 51.2059 61.3774 51.3591 61.5064C51.5123 61.6354 51.7059 61.6999 51.9399 61.6999C52.3027 61.6999 52.5856 61.5778 52.7895 61.3347L53.2519 61.8149C53.111 61.9996 52.9202 62.1443 52.6786 62.248C52.4371 62.3517 52.1711 62.404 51.8779 62.404ZM51.7708 59.7198C51.5838 59.7198 51.4324 59.7782 51.3168 59.8958C51.2003 60.0135 51.1261 60.1808 51.0941 60.3996H52.4033V60.329C52.3986 60.1346 52.3422 59.9847 52.2341 59.8784C52.1251 59.7721 51.971 59.7198 51.7708 59.7198Z" fill="#FBFBFB"/>
<path d="M55.8415 59.896C55.7137 59.8804 55.601 59.8716 55.5032 59.8716C55.147 59.8716 54.9139 59.9832 54.803 60.2072V62.3449H53.8613V59.0777H54.7504L54.7767 59.4673C54.9656 59.1675 55.2269 59.0176 55.5615 59.0176C55.6658 59.0176 55.7635 59.0307 55.8547 59.0568L55.8415 59.896Z" fill="#FBFBFB"/>
<path d="M57.5828 58.2734V59.0769H58.1852V59.7166H57.5828V61.3471C57.5828 61.4682 57.6081 61.5545 57.6579 61.6068C57.7078 61.6591 57.8036 61.6852 57.9446 61.6852C58.0489 61.6852 58.141 61.6782 58.2209 61.6643V62.3257C58.0367 62.378 57.8469 62.4042 57.6514 62.4042C56.9916 62.4042 56.6552 62.0948 56.642 61.4769V59.7166H56.1279V59.0769H56.642V58.2734H57.5828Z" fill="#FBFBFB"/>
<path d="M58.7031 58.2318C58.7031 58.1011 58.7501 57.993 58.845 57.9085C58.939 57.824 59.0678 57.7812 59.2313 57.7812C59.392 57.7812 59.5198 57.824 59.6157 57.9085C59.7116 57.993 59.7585 58.1011 59.7585 58.2318C59.7585 58.3643 59.7106 58.4732 59.6138 58.5577C59.517 58.6423 59.3901 58.685 59.2313 58.685C59.0725 58.685 58.9456 58.6423 58.8488 58.5577C58.7511 58.4732 58.7031 58.3643 58.7031 58.2318ZM59.7031 62.3433H58.7586V59.0762H59.7031V62.3433Z" fill="#FBFBFB"/>
<path d="M60.7354 62.3432V59.7167H60.2109V59.077H60.7354V58.799C60.7354 58.433 60.8491 58.148 61.0756 57.9458C61.3021 57.7437 61.6197 57.6426 62.0276 57.6426C62.1582 57.6426 62.3171 57.6626 62.506 57.7027L62.4966 58.379C62.4186 58.3607 62.3227 58.3519 62.2099 58.3519C61.8566 58.3519 61.6789 58.5062 61.6789 58.8138V59.0761H62.3791V59.7158H61.6789V62.3424H60.7354V62.3432Z" fill="#FBFBFB"/>
<path d="M62.8613 58.2318C62.8613 58.1011 62.9083 57.993 63.0032 57.9085C63.0972 57.824 63.226 57.7812 63.3895 57.7812C63.5502 57.7812 63.678 57.824 63.7739 57.9085C63.8698 57.993 63.9167 58.1011 63.9167 58.2318C63.9167 58.3643 63.8688 58.4732 63.772 58.5577C63.6752 58.6423 63.5483 58.685 63.3895 58.685C63.2307 58.685 63.1038 58.6423 63.007 58.5577C62.9102 58.4732 62.8613 58.3643 62.8613 58.2318ZM63.8613 62.3433H62.9168V59.0762H63.8613V62.3433Z" fill="#FBFBFB"/>
<path d="M66.101 61.7008C66.2749 61.7008 66.4159 61.6564 66.5239 61.5684C66.632 61.4795 66.6893 61.3618 66.6931 61.2154H67.5756C67.5737 61.4368 67.5079 61.6398 67.3801 61.8237C67.2523 62.0076 67.0766 62.1505 66.8538 62.2525C66.6311 62.3544 66.3858 62.405 66.1161 62.405C65.6123 62.405 65.2148 62.2568 64.9244 61.9597C64.634 61.6625 64.4883 61.2529 64.4883 60.7291V60.6716C64.4883 60.1688 64.633 59.767 64.9215 59.4673C65.2101 59.1675 65.6067 59.0176 66.1104 59.0176C66.5512 59.0176 66.9046 59.1335 67.1705 59.3662C67.4365 59.5989 67.5718 59.9082 67.5756 60.2943H66.6931C66.6884 60.1243 66.632 59.9858 66.5239 59.8803C66.4159 59.774 66.2721 59.7209 66.0944 59.7209C65.8755 59.7209 65.7101 59.7949 65.5982 59.9431C65.4864 60.0912 65.4309 60.3318 65.4309 60.6638V60.7544C65.4309 61.0908 65.4864 61.3331 65.5973 61.4804C65.7072 61.6276 65.8755 61.7008 66.101 61.7008Z" fill="#FBFBFB"/>
<path d="M70.154 62.3427C70.1107 62.2642 70.0788 62.1666 70.06 62.0499C69.8316 62.2852 69.5356 62.4028 69.1709 62.4028C68.826 62.4028 68.5394 62.3104 68.3129 62.1248C68.0864 61.9392 67.9727 61.7065 67.9727 61.4242C67.9727 61.0782 68.1108 60.8124 68.3881 60.6268C68.6644 60.442 69.0647 60.3479 69.5882 60.3461H70.0215V60.1588C70.0215 60.008 69.9801 59.8869 69.8965 59.7963C69.8128 59.7056 69.6812 59.6603 69.5008 59.6603C69.342 59.6603 69.2179 59.6952 69.1277 59.7657C69.0375 59.8363 68.9924 59.9331 68.9924 60.0559H68.0516C68.0516 59.8668 68.1146 59.6917 68.2405 59.5305C68.3664 59.3692 68.5441 59.2429 68.7743 59.1514C69.0046 59.0599 69.263 59.0137 69.5497 59.0137C69.9839 59.0137 70.3288 59.1148 70.5835 59.3169C70.8382 59.5191 70.966 59.8032 70.966 60.1701V61.5862C70.9678 61.8965 71.0148 62.1309 71.106 62.2895V62.3409H70.154V62.3427ZM69.3758 61.7361C69.5149 61.7361 69.6427 61.7074 69.7602 61.6499C69.8777 61.5923 69.9641 61.5157 70.0205 61.4189V60.8577H69.669C69.1982 60.8577 68.9472 61.0085 68.9172 61.3109L68.9144 61.3623C68.9144 61.4712 68.9557 61.561 69.0384 61.6307C69.1211 61.7004 69.232 61.7361 69.3758 61.7361Z" fill="#FBFBFB"/>
<path d="M71.541 60.6866C71.541 60.1777 71.6641 59.7716 71.9104 59.4701C72.1566 59.1685 72.494 59.0169 72.9216 59.0169C73.2646 59.0169 73.5475 59.1354 73.7712 59.3733V57.707H74.7157V62.3451H73.8661L73.8201 61.9982C73.5861 62.2701 73.2844 62.4061 72.915 62.4061C72.5006 62.4061 72.1679 62.2545 71.9169 61.952C71.666 61.6479 71.541 61.2261 71.541 60.6866ZM72.4818 60.752C72.4818 61.0588 72.5391 61.2932 72.6547 61.457C72.7694 61.62 72.9366 61.7019 73.1566 61.7019C73.4479 61.7019 73.6528 61.5878 73.7721 61.3603V60.0688C73.6547 59.8413 73.4517 59.7271 73.1631 59.7271C72.7083 59.7271 72.4818 60.0688 72.4818 60.752Z" fill="#FBFBFB"/>
<path d="M75.2988 60.6793C75.2988 60.3551 75.3665 60.0666 75.5009 59.813C75.6353 59.5594 75.8289 59.3633 76.0817 59.2239C76.3345 59.0853 76.6277 59.0156 76.9623 59.0156C77.4379 59.0156 77.826 59.1507 78.1267 59.42C78.4275 59.6893 78.5948 60.0562 78.6295 60.5189L78.6361 60.742C78.6361 61.2431 78.4848 61.6449 78.1831 61.9481C77.8814 62.2514 77.4764 62.4022 76.9689 62.4022C76.4614 62.4022 76.0554 62.2514 75.7528 61.949C75.4501 61.6475 75.2988 61.2361 75.2988 60.7167V60.6793ZM76.2396 60.7411C76.2396 61.0514 76.3026 61.2893 76.4285 61.4531C76.5544 61.617 76.7349 61.6998 76.9689 61.6998C77.1973 61.6998 77.3749 61.6187 77.5027 61.4566C77.6305 61.2945 77.6944 61.0348 77.6944 60.6784C77.6944 60.3743 77.6305 60.1381 77.5027 59.9708C77.3749 59.8034 77.1944 59.7198 76.9623 59.7198C76.7321 59.7198 76.5544 59.8026 76.4285 59.969C76.3026 60.1355 76.2396 60.3926 76.2396 60.7411Z" fill="#FBFBFB"/>
<path d="M83.3972 61.1904C83.3972 61.0196 83.3323 60.888 83.2017 60.7965C83.0711 60.705 82.837 60.6083 82.4987 60.5063C82.1604 60.4044 81.8916 60.3042 81.6942 60.2057C81.1557 59.9364 80.8869 59.573 80.8869 59.1155C80.8869 58.8776 80.9593 58.6658 81.1031 58.4802C81.2478 58.2937 81.4546 58.1482 81.7252 58.0436C81.9959 57.939 82.2985 57.8867 82.635 57.8867C82.9733 57.8867 83.275 57.9434 83.54 58.0575C83.8051 58.1708 84.0109 58.332 84.1575 58.5394C84.3041 58.7469 84.3774 58.9822 84.3774 59.2462H83.4009C83.4009 59.0449 83.3323 58.888 83.1961 58.7765C83.0588 58.6649 82.8671 58.6092 82.6199 58.6092C82.3812 58.6092 82.1951 58.6562 82.0636 58.7495C81.932 58.8427 81.8653 58.9665 81.8653 59.119C81.8653 59.2619 81.9433 59.3813 82.0983 59.478C82.2534 59.5747 82.4818 59.6654 82.7835 59.7499C83.3389 59.905 83.744 60.0968 83.9977 60.3268C84.2515 60.556 84.3784 60.8419 84.3784 61.1843C84.3784 61.5652 84.2233 61.8632 83.9131 62.0793C83.603 62.2955 83.1848 62.4035 82.6594 62.4035C82.2948 62.4035 81.963 62.3416 81.6632 62.2179C81.3634 62.0942 81.135 61.9242 80.9781 61.709C80.8211 61.4937 80.7422 61.2436 80.7422 60.9604H81.7224C81.7224 61.4458 82.0354 61.688 82.6604 61.688C82.8925 61.688 83.0739 61.6445 83.2045 61.5565C83.3323 61.4693 83.3972 61.3473 83.3972 61.1904Z" fill="#FBFBFB"/>
<path d="M87.4968 61.1904C87.4968 61.0196 87.432 60.888 87.3013 60.7965C87.1707 60.705 86.9367 60.6083 86.5983 60.5063C86.26 60.4044 85.9912 60.3042 85.7938 60.2057C85.2553 59.9364 84.9865 59.573 84.9865 59.1155C84.9865 58.8776 85.0589 58.6658 85.2027 58.4802C85.3474 58.2937 85.5542 58.1482 85.8249 58.0436C86.0955 57.939 86.3982 57.8867 86.7346 57.8867C87.073 57.8867 87.3746 57.9434 87.6397 58.0575C87.9047 58.1708 88.1105 58.332 88.2571 58.5394C88.4037 58.7469 88.4771 58.9822 88.4771 59.2462H87.5006C87.5006 59.0449 87.432 58.888 87.2957 58.7765C87.1585 58.6649 86.9667 58.6092 86.7196 58.6092C86.4809 58.6092 86.2948 58.6562 86.1632 58.7495C86.0316 58.8427 85.9649 58.9665 85.9649 59.119C85.9649 59.2619 86.0429 59.3813 86.198 59.478C86.353 59.5747 86.5814 59.6654 86.8831 59.7499C87.4385 59.905 87.8436 60.0968 88.0974 60.3268C88.3511 60.556 88.478 60.8419 88.478 61.1843C88.478 61.5652 88.3229 61.8632 88.0128 62.0793C87.7026 62.2955 87.2844 62.4035 86.759 62.4035C86.3944 62.4035 86.0626 62.3416 85.7628 62.2179C85.463 62.0942 85.2346 61.9242 85.0777 61.709C84.9207 61.4937 84.8418 61.2436 84.8418 60.9604H85.822C85.822 61.4458 86.135 61.688 86.76 61.688C86.9921 61.688 87.1735 61.6445 87.3041 61.5565C87.432 61.4693 87.4968 61.3473 87.4968 61.1904Z" fill="#FBFBFB"/>
<path d="M90.1142 61.6154H92.1884V62.3431H89.1377V57.9473H90.1142V61.6154Z" fill="#FBFBFB"/>
</svg>
