<svg width="41" height="40" viewBox="0 0 41 40" fill="none" xmlns="http://www.w3.org/2000/svg">
<g clip-path="url(#clip0_286_7329)">
<path d="M40.667 20.0477C40.667 31.1217 31.6932 40 20.7147 40C9.64074 40 0.666992 31.0263 0.666992 20.0477C0.666992 8.97375 9.64074 0 20.7147 0C31.6932 0 40.667 8.97375 40.667 20.0477Z" fill="#286EE8"/>
<path fill-rule="evenodd" clip-rule="evenodd" d="M8.59082 28.1624C10.5001 28.2579 12.314 27.9715 14.0323 27.2078C14.7961 26.8259 15.5598 26.444 16.2281 25.8712C15.3689 25.8712 14.6051 25.6803 13.9369 25.2985C12.7913 24.7257 11.9321 23.771 11.4548 22.53C11.3593 22.2436 11.3593 22.2436 11.6457 22.2436C12.5049 22.339 13.0777 22.339 13.555 22.1481C13.1732 21.9572 12.6958 21.8617 12.314 21.6708C10.5956 20.7161 9.64094 19.1887 9.45001 17.1839C9.45001 16.993 9.45001 16.8975 9.7364 16.993C10.3092 17.3748 10.9775 17.4703 11.8366 17.5658C11.4548 17.2794 11.1684 16.993 10.9775 16.802C9.45001 15.1791 9.16361 12.697 10.1183 10.7877C10.2137 10.5968 10.3092 10.5968 10.5001 10.7877C12.8868 13.5562 15.9417 15.2746 19.6648 15.8474C20.0467 15.9428 20.4285 15.9428 20.8104 16.0383C21.0968 16.0383 21.0968 15.9428 21.0968 15.7519C20.7149 13.5562 21.6696 11.3605 23.6744 10.2149C25.6791 9.06934 28.2567 9.4512 29.8796 10.9786C30.0705 11.1696 30.2615 11.265 30.4524 11.1696C31.407 10.9786 32.3617 10.5968 33.2209 10.1195C33.3164 10.1195 33.3164 10.024 33.4118 10.024C33.03 11.1696 32.3617 12.1242 31.2161 12.7925C32.2662 12.697 33.1254 12.4106 34.0801 12.1242C34.0801 12.2197 33.9846 12.3152 33.9846 12.4106C33.3164 13.2698 32.5526 14.0335 31.6934 14.6063C31.598 14.7973 31.5025 14.8927 31.5025 15.0837C31.598 18.9023 30.3569 22.339 27.8748 25.3939C25.5837 28.067 22.6242 29.6899 19.092 30.2627C15.3689 30.8354 11.8366 30.1672 8.59082 28.2579C8.59082 28.1624 8.59082 28.1624 8.59082 28.1624Z" fill="white"/>
</g>
<defs>
<clipPath id="clip0_286_7329">
<rect width="40" height="40" fill="white" transform="translate(0.666992)"/>
</clipPath>
</defs>
</svg>
