<svg width="27" height="25" viewBox="0 0 27 25" fill="none" xmlns="http://www.w3.org/2000/svg">
<path d="M26.6667 12.1504C26.6667 18.862 20.6842 24.3008 13.3015 24.3008C5.9825 24.2429 0 18.8042 0 12.1504C0 5.43875 5.9825 0 13.3015 0C20.6842 0 26.6667 5.43875 26.6667 12.1504Z" fill="#5CE529"/>
<path fill-rule="evenodd" clip-rule="evenodd" d="M21.2571 10.415C20.3661 7.05921 17.1839 4.74487 13.3017 4.68701C12.7925 4.68701 12.2197 4.74487 11.7742 4.86059C6.36454 5.84418 3.62786 11.225 6.23725 15.5644C6.30089 15.6801 6.30089 15.7958 6.30089 15.9115C5.91903 17.0687 5.60081 18.2259 5.21895 19.383C5.15531 19.5566 5.15531 19.5566 5.40988 19.4988C6.7464 19.1516 8.01927 18.8623 9.35579 18.573C9.48307 18.573 9.54672 18.573 9.674 18.573C11.3287 19.3252 13.1108 19.5566 15.0201 19.2673C19.4115 18.5152 22.2754 14.4072 21.2571 10.415ZM14.4473 18.1102C14.0654 18.168 13.7472 18.2259 13.5563 18.168C12.0925 18.168 10.9469 17.8787 9.86493 17.358C9.73765 17.2423 9.61036 17.2423 9.48307 17.2423C8.71935 17.4159 8.01927 17.5894 7.31919 17.763C7.1919 17.8209 7.12826 17.763 7.1919 17.6473C7.38283 17.0687 7.57376 16.4323 7.7647 15.7958C7.7647 15.6223 7.7647 15.5065 7.63741 15.333C6.17361 13.1922 6.23725 10.5307 7.89198 8.50567C9.61036 6.42276 11.9652 5.55489 14.7655 6.13347C17.5022 6.6542 19.2842 8.27423 19.9206 10.7621C20.8116 14.1758 18.2659 17.5316 14.4473 18.1102Z" fill="white"/>
<path fill-rule="evenodd" clip-rule="evenodd" d="M15.4659 15.564C15.2113 15.564 14.8931 15.564 14.6385 15.4483C12.7292 14.9855 11.3291 13.944 10.2471 12.5554C9.80163 12.0347 9.41977 11.4561 9.29248 10.8197C9.10155 10.0675 9.35612 9.3732 9.99256 8.85248C10.2471 8.6789 10.8199 8.56319 11.0745 8.6789C11.1381 8.73676 11.2018 8.79462 11.2654 8.85248C11.52 9.43106 11.7746 9.89393 11.9655 10.4147C12.0292 10.5304 11.9655 10.6461 11.9019 10.7039C11.8382 10.9354 11.6473 11.109 11.4564 11.3404C11.2654 11.4561 11.2654 11.5718 11.3927 11.7454C12.0928 12.729 12.9838 13.4811 14.193 13.8862C14.384 13.944 14.5113 13.944 14.6385 13.8283C14.8295 13.5969 15.0204 13.3654 15.275 13.134C15.4023 12.9604 15.5296 12.9604 15.7205 13.0183C16.1023 13.1919 16.4842 13.3654 16.8661 13.4811C16.9934 13.539 17.057 13.539 17.1206 13.5969C17.5025 13.7704 17.5025 13.8283 17.5025 14.1754C17.4389 14.9276 16.8024 15.3326 16.0387 15.5062C15.7841 15.6219 15.6568 15.6219 15.4659 15.564Z" fill="white"/>
</svg>
