<svg width="252" height="60" viewBox="0 0 252 60" fill="none" xmlns="http://www.w3.org/2000/svg">
<g clip-path="url(#clip0)">
<path d="M25.393 32.9961H27.2051V34.9948H25.393V32.9961Z" fill="white"/>
<path d="M23.5781 34.9943H21.4201C19.9196 41.4143 13.9865 45.2769 8.16802 43.6218C2.34766 41.9667 -1.15412 35.4223 0.346373 29.0044C1.84686 22.5866 7.77809 18.7219 13.5984 20.377C18.4038 21.7432 21.7623 26.5229 21.7642 31.9962C21.7642 32.3336 21.7508 32.6667 21.7259 32.9956H23.5762V34.9943H23.5781ZM10.8861 21.9962C5.88002 21.9962 1.82201 26.4723 1.82201 31.9941C1.82201 37.5159 5.88002 41.992 10.8861 41.992C15.8922 41.992 19.9502 37.5159 19.9502 31.9941C19.9464 26.4765 15.8903 22.0026 10.8861 21.9962Z" fill="white"/>
<path d="M15.015 32.8267L12.6983 34.5303V38.9937C12.6983 39.5461 12.2931 39.9931 11.7923 39.9931C11.5228 39.9931 11.2686 39.8603 11.0965 39.6326L6.56447 33.6342C6.24335 33.2105 6.29687 32.5801 6.68107 32.2259C6.70592 32.2027 6.73268 32.1816 6.75944 32.1626L8.76073 30.691L6.4861 26.5101C6.22806 26.0357 6.36759 25.4221 6.79767 25.1375C6.93912 25.0447 7.09968 24.9941 7.26406 24.9941H13.6101C14.0535 24.9941 14.432 25.3483 14.5046 25.8291L15.4107 31.8274C15.4661 32.2195 15.3132 32.6075 15.015 32.8267ZM12.8379 26.995H8.86204L10.7582 30.4801C11.0067 30.9376 10.8863 31.5301 10.4829 31.8274L8.60208 33.2105L10.8863 36.2318V33.9948C10.8863 33.6595 11.0373 33.3475 11.2896 33.162L13.5221 31.5217L12.8379 26.995Z" fill="white"/>
<path d="M48.8227 50.752C49.1189 51.1968 49.031 51.823 48.6258 52.1498C48.5971 52.173 48.5684 52.1941 48.5378 52.2131L47.7733 52.6917C48.6793 55.559 47.305 58.6942 44.7054 59.6936C42.1058 60.6929 39.2635 59.177 38.3575 56.3096C38.2867 56.0882 38.2294 55.8605 38.1854 55.6307L37.8834 55.6392H37.8605C37.3597 55.6392 36.9545 55.1922 36.9545 54.6398C36.9545 54.6187 36.9545 54.5976 36.9564 54.5765C37.0711 52.5588 37.9465 50.6866 39.3705 49.4132L39.1316 48.3843L34.4428 55.0551C33.5808 56.2738 32.2599 56.9864 30.8589 56.9927H27.6782L27.9057 57.9921H29.9222V59.9908H27.2023C26.7856 59.9908 26.4243 59.6788 26.323 59.2339L25.8145 56.9927H10.7944C9.54428 59.6999 6.5414 60.7773 4.08709 59.3963C1.63279 58.0174 0.656044 54.7052 1.90804 51.998C3.15813 49.2909 6.16102 48.2135 8.61532 49.5945C9.22507 49.936 9.76219 50.4125 10.198 50.9944H10.4637C9.33593 48.3758 6.49743 47.2605 4.12341 48.5044C3.33207 48.9177 2.66116 49.565 2.18138 50.3725C1.90996 50.8363 1.3499 50.9712 0.929382 50.6718C0.508865 50.3725 0.386532 49.7547 0.657959 49.2909C0.65987 49.2866 0.663689 49.2824 0.665604 49.2761C2.65351 45.9259 6.7249 44.9877 9.76219 47.1783C11.0123 48.0807 11.947 49.4258 12.4115 50.9944H29.9184C30.2051 50.9944 30.4747 50.8447 30.6467 50.5917L37.3444 40.6697L35.5381 32.8899L32.5084 32.9088H32.5027C32.302 32.9088 32.1051 32.835 31.9465 32.698L31.7247 34.1633C31.6521 34.6461 31.2736 34.9982 30.8302 34.9982H29.0181V32.9995H30.0637L30.7556 28.4138L28.7008 19.565C28.5976 19.1201 28.7811 18.6562 29.1481 18.437L31.8127 16.8473L29.9643 8.88606L24.6963 10.3746C23.2417 10.7857 21.7604 9.81796 21.3876 8.21349C21.0149 6.60902 21.8922 4.97503 23.3469 4.5639L39.1507 0.0920454C40.6053 -0.31487 42.0848 0.650764 42.4594 2.25523C42.8303 3.8597 41.9529 5.49158 40.5002 5.90482C40.4964 5.90482 40.4945 5.90693 40.4906 5.90693L35.2322 7.39333L40.4448 29.8454L42.2779 29.7378C43.8949 29.6451 45.3476 30.8215 45.7529 32.5525L46.7621 36.9021C47.1597 38.6331 46.3989 40.4336 44.9424 41.2116L43.289 42.0887L44.6347 47.8888C46.3148 48.2051 47.8172 49.2318 48.8227 50.752ZM44.8296 55.0214L45.858 56.1557C46.225 55.4072 46.332 54.5344 46.1581 53.7037L44.6461 54.6524C44.6404 54.7178 44.6328 54.7853 44.6194 54.8506C44.6958 54.8949 44.7666 54.9539 44.8296 55.0214ZM43.0673 57.99C43.5948 57.99 44.1128 57.8466 44.5754 57.5683L43.5471 56.434C43.4859 56.3666 43.4324 56.2864 43.3903 56.2021C43.1762 56.2506 42.9545 56.2506 42.7404 56.2021C42.6984 56.2864 42.6468 56.3644 42.5837 56.434L41.5611 57.562C42.0236 57.8445 42.5416 57.99 43.0673 57.99ZM40.2804 56.1515L40.8194 55.5569L40.051 55.578C40.1122 55.7762 40.1886 55.9681 40.2804 56.1515ZM5.44805 51.1378C3.76979 51.6881 2.81407 53.6362 3.31296 55.4874C3.37604 55.7193 3.46014 55.9428 3.56336 56.1536L4.59172 55.0193C4.62039 54.9898 4.64906 54.9603 4.68156 54.935C4.35661 53.8576 4.61083 52.6706 5.3391 51.8673C5.37541 51.8272 5.41173 51.7914 5.44805 51.7534V51.1378ZM5.79976 56.5184L4.84785 57.5683C5.78829 58.1313 6.92369 58.1313 7.86221 57.5662L7.33847 56.9906H7.2601C6.7421 56.9906 6.23557 56.8283 5.79976 56.5184ZM32.1013 51.783C31.5871 52.542 30.7786 52.9911 29.9184 52.9932H7.26201C6.76121 52.9932 6.35599 53.4401 6.35599 53.9925C6.35599 54.5449 6.76121 54.9919 7.26201 54.9919H30.8646C31.7056 54.9898 32.497 54.5597 33.015 53.8302L38.5658 45.9301L37.9217 43.1576L32.1013 51.783ZM30.6314 19.8201L33.2042 30.8996L35.0736 30.8869L32.2752 18.8397L30.6314 19.8201ZM32.1682 10.324L33.9248 9.8285L33.4756 7.89091L31.719 8.38637L32.1682 10.324ZM38.9462 3.24828C39.0704 3.78169 39.5598 4.10427 40.0434 3.96934L40.0491 3.96723C40.5346 3.83019 40.8271 3.28412 40.7009 2.7507C40.5747 2.21728 40.0816 1.89259 39.598 2.03175C39.1144 2.16668 38.8219 2.71275 38.9462 3.24828ZM37.568 4.66932C37.2202 4.10006 37.0596 3.41695 37.115 2.73383L23.7941 6.49938C23.3086 6.63643 23.0162 7.18039 23.1404 7.71591C23.2647 8.25144 23.7578 8.57402 24.2433 8.43697L37.568 4.66932ZM34.374 11.764L32.6174 12.2594L40.4314 45.9048C40.4333 45.9133 40.4352 45.9196 40.4371 45.928L40.9972 48.3379C41.5572 48.0807 42.1479 47.9099 42.75 47.8319L34.374 11.764ZM44.1568 39.4089C44.8373 39.0463 45.1928 38.2051 45.0074 37.3975L43.9982 33.048C43.8166 32.2742 43.1858 31.7345 42.4613 31.7324C42.4327 31.7324 42.404 31.7324 42.3772 31.7345L40.9073 31.8209L42.8322 40.1131L44.1568 39.4089ZM38.9385 53.6067H38.9672L42.8188 53.4992L46.1676 51.3992L46.6627 51.0893C44.6882 49.1749 41.6815 49.3879 39.9459 51.5658C39.4738 52.154 39.1297 52.8519 38.9385 53.6067Z" fill="white"/>
</g>
<g clip-path="url(#clip1)">
<path d="M135.123 27.3206C133.6 27.3206 132.085 27.5537 130.634 28.0126L127.029 19.5473H127.995L128.79 22.7175C128.947 23.3456 129.513 23.7873 130.165 23.7873H138.664C139.378 23.7873 139.98 23.2573 140.071 22.5482L141.488 11.244C141.584 10.4686 141.035 9.76194 140.258 9.66625C140.199 9.65889 140.14 9.65643 140.083 9.65643H127.334C126.552 9.65643 125.917 10.2895 125.917 11.0698C125.917 11.1851 125.932 11.3004 125.959 11.4133L127.289 16.7231H125.826L124.572 13.7787L125.873 8.58417C126.062 7.82597 125.6 7.06042 124.842 6.87148C124.729 6.84449 124.614 6.82977 124.498 6.82977H118.832C118.753 6.82977 118.674 6.83713 118.595 6.85185C117.826 4.64106 115.403 3.47065 113.187 4.23866C110.971 5.00667 109.798 7.42356 110.568 9.63435C111.338 11.8451 113.76 13.0156 115.976 12.2475C117.203 11.8231 118.167 10.8587 118.595 9.63435C118.674 9.64907 118.753 9.65398 118.832 9.65643H122.683L121.751 13.3762L111.485 32.0023C110.123 34.1567 108.057 35.7736 105.634 36.5809L105.639 36.5932C104.766 36.4411 103.871 36.495 103.025 36.7502L96.8222 17.1574C97.2009 17.0445 97.5674 16.8973 97.9191 16.7231L103.883 13.7468C104.582 13.3983 104.867 12.5493 104.518 11.85C103.416 9.6319 101.146 8.23329 98.6667 8.2431H89.0848C88.3027 8.2431 87.6682 8.87616 87.6682 9.65643V10.4024C87.6633 13.9897 90.3588 17.0102 93.9323 17.4175L97.2034 27.7476L97.1665 27.7819C95.954 26.6287 94.6013 25.6325 93.1404 24.813C93.2708 24.4866 93.3372 24.1382 93.3372 23.7873V20.9606C93.3347 19.4001 92.0681 18.1364 90.5039 18.134H74.921C73.3568 18.1364 72.0902 19.4001 72.0878 20.9606V23.7873C72.0878 24.386 72.2796 24.9675 72.6338 25.4485C69.3012 27.5832 66.6844 30.665 65.1202 34.2941C64.8054 35.0081 65.1301 35.8424 65.8458 36.1564C66.5615 36.4705 67.3977 36.1466 67.7125 35.4326C67.7149 35.4252 67.7174 35.4203 67.7198 35.413C68.1379 34.4462 68.6446 33.5211 69.2324 32.6452L70.9786 34.0389C66.4828 40.8945 68.406 50.0886 75.2776 54.5764C82.1493 59.0642 91.3647 57.1429 95.863 50.2873C97.1837 48.2728 97.9953 45.9688 98.224 43.5715H99.1807C99.9628 46.5945 103.054 48.4127 106.084 47.6299C108.113 47.1073 109.687 45.5099 110.177 43.4758C112.84 43.0759 115.137 41.4049 116.335 38.9978L121.033 29.6222C121.953 27.7721 123.846 26.6042 125.917 26.6115H126.962L128.03 29.1168C120.814 33.028 118.143 42.0355 122.063 49.2347C125.984 56.4338 135.012 59.0985 142.228 55.1873C149.444 51.2761 152.115 42.2686 148.195 35.0694C145.592 30.2945 140.575 27.3182 135.123 27.3206ZM132.998 20.9606H131.271L130.563 18.134H132.998V20.9606ZM135.831 12.4806H138.475L138.121 15.3073H135.831V12.4806ZM135.831 18.134H137.767L137.412 20.9606H135.831V18.134ZM132.998 12.4806V15.3073H130.165C130.064 15.3073 129.96 15.3196 129.862 15.3392L129.146 12.4806H132.998ZM114.584 9.65398C113.802 9.65398 113.167 9.02092 113.167 8.24065C113.167 7.46037 113.802 6.82731 114.584 6.82731C115.366 6.82731 116.001 7.46037 116.001 8.24065C115.998 9.02092 115.366 9.65398 114.584 9.65398ZM92.8502 14.1933C91.6205 13.5848 90.7646 12.4193 90.5531 11.0673H98.6667C99.562 11.0649 100.428 11.3863 101.102 11.9727L96.6525 14.1933C95.4547 14.7871 94.0479 14.7871 92.8502 14.1933ZM95.0637 29.6885L93.4159 31.1828C90.7302 28.7389 87.2353 27.3673 83.6003 27.3255L83.4159 25.1123H83.4183C85.7326 25.1074 88.0224 25.5736 90.1473 26.4864C91.9599 27.2642 93.6225 28.3487 95.0637 29.6885ZM81.6746 38.2961C81.5024 38.3721 81.3377 38.4629 81.1778 38.5611L74.9727 33.6095C76.6303 31.9753 78.7307 30.8564 81.013 30.3902L81.6746 38.2961ZM83.4183 40.7473C84.2004 40.7473 84.8349 41.3804 84.8349 42.1606C84.8349 42.9409 84.2004 43.574 83.4183 43.574C82.6362 43.574 82.0017 42.9409 82.0017 42.1606C82.0042 41.3804 82.6362 40.7473 83.4183 40.7473ZM84.498 38.058L83.8389 30.1571C86.5934 30.2504 89.2299 31.2883 91.3081 33.0942L85.4301 38.4236C85.135 38.2666 84.8227 38.1439 84.498 38.058ZM74.921 20.9606H90.5039L90.5064 23.5812C85.7597 21.7851 80.5088 21.8587 75.8138 23.7873H74.921V20.9606ZM76.6574 26.4987C77.9166 25.9564 79.2398 25.5687 80.5949 25.3454L80.7794 27.5611C77.7223 28.1132 74.9136 29.6075 72.7518 31.8355L71.0056 30.4418C72.5993 28.7561 74.5226 27.4163 76.6574 26.4987ZM83.4183 54.1715C76.773 54.1764 71.3819 48.8053 71.377 42.1754C71.3745 39.9253 72.0066 37.7219 73.1994 35.8154L79.4045 40.7669C78.6741 42.9924 79.8915 45.3873 82.1222 46.116C84.2865 46.8227 86.6254 45.7013 87.4223 43.574H95.3711C94.6505 49.615 89.5177 54.1642 83.4183 54.1715ZM87.4247 40.7473C87.3977 40.6688 87.3682 40.5927 87.3362 40.5167L93.2142 35.1872C94.3947 36.8287 95.1375 38.7426 95.3736 40.7473H87.4247ZM99.1807 40.7473H98.224C97.9658 38.036 96.9623 35.4498 95.3244 33.2733L96.9722 31.779C98.5536 33.8254 99.6456 36.2055 100.162 38.7377C99.7046 39.3364 99.3701 40.0186 99.1807 40.7473ZM104.668 44.9873C103.104 44.9873 101.834 43.7212 101.834 42.1606C101.834 40.6001 103.104 39.334 104.668 39.334C106.232 39.334 107.501 40.6001 107.501 42.1606C107.499 43.7212 106.232 44.9848 104.668 44.9873ZM118.499 28.361L113.802 37.7366C113.074 39.2015 111.719 40.259 110.118 40.6148C109.867 39.7413 109.409 38.9414 108.785 38.2813C110.88 37.1428 112.644 35.4841 113.91 33.4672C113.925 33.4451 113.937 33.423 113.95 33.3985L122.919 17.1255L125.76 23.7922C122.673 23.8364 119.869 25.6006 118.499 28.361ZM135.123 54.1715C128.475 54.174 123.084 48.8004 123.081 42.168C123.079 37.8593 125.393 33.8769 129.144 31.7398L132.253 39.0371C130.524 40.6197 130.41 43.2992 131.997 45.0241C133.583 46.7491 136.269 46.8619 137.998 45.2793C139.727 43.6967 139.84 41.0172 138.254 39.2923C137.449 38.4163 136.313 37.9206 135.123 37.9206C135.034 37.9206 134.946 37.9231 134.86 37.9305L131.751 30.6307C138.133 28.7708 144.818 32.4268 146.682 38.7966C148.546 45.164 144.882 51.8331 138.497 53.693C137.403 54.012 136.266 54.174 135.123 54.1715ZM133.706 42.1606C133.706 41.3804 134.341 40.7473 135.123 40.7473C135.905 40.7473 136.539 41.3804 136.539 42.1606C136.539 42.9409 135.905 43.574 135.123 43.574C134.341 43.5715 133.709 42.9409 133.706 42.1606Z" fill="white"/>
</g>
<path d="M166.103 45.0093L170.126 34.9552C171.323 31.9545 173.121 29.2328 175.406 26.9534C175.418 26.9414 175.43 26.9335 175.438 26.9215H173.524C171.745 26.9175 170.302 25.4789 170.298 23.6977V10.089C170.302 8.31173 171.741 6.86917 173.524 6.86519H177.108C178.887 6.86917 180.33 8.30774 180.334 10.089V15.7078C180.793 15.5444 181.279 15.4608 181.766 15.4608H187.5C189.872 15.4647 191.798 17.3855 191.798 19.7565V21.1871H198.529L194.533 18.5252C193.19 17.6286 192.827 15.8154 193.724 14.4725C194.454 13.3766 195.829 12.9064 197.081 13.3208C201.332 14.7395 205.782 15.4608 210.264 15.4568H211.866C212.66 15.4568 213.298 16.0983 213.298 16.8874C213.298 17.0029 213.282 17.1225 213.254 17.2341L211.862 22.7931C211.854 23.4865 211.795 24.1759 211.687 24.8613C211.356 26.8418 210.567 27.9974 209.342 28.3043C204.693 29.4639 204.693 32.0223 204.693 34.0785C204.693 36.4496 206.615 38.3743 208.992 38.3743C208.992 38.3743 208.992 38.3743 208.996 38.3743H220.998C224.267 31.4205 225.216 23.602 223.709 16.0665L223.442 14.7315L222.736 14.0262H215.447C213.469 14.0262 211.862 12.4242 211.862 10.4437C211.862 8.46316 213.465 6.8612 215.447 6.8612H222.995L228.426 4.15143C228.613 4.05977 228.817 4.00797 229.028 4.00398C229.04 4.00398 229.056 4 229.068 4H233.366C234.16 4 234.798 4.64158 234.798 5.4306V12.5916C234.798 13.3846 234.156 14.0222 233.366 14.0222H231.054L234.539 24.4668L236.875 25.6344C237.362 25.8774 237.669 26.3716 237.669 26.9135V29.7787H238.638C244.667 29.7787 250.022 33.6362 251.924 39.3586C252.175 40.1077 251.768 40.9207 251.019 41.1717C250.871 41.2195 250.72 41.2435 250.564 41.2435H248.215C250.592 46.5714 248.196 52.8158 242.864 55.1908C237.533 57.5659 231.285 55.1709 228.909 49.843C228.502 48.9305 228.227 47.9661 228.091 46.9738H211.201L209 50.2734V57H206.133V49.839C206.133 49.5561 206.216 49.2811 206.372 49.046L207.751 46.9738H195.997C195.207 52.752 189.88 56.7968 184.094 56.0077C179.393 55.3662 175.697 51.6721 175.055 46.9738H167.431C166.637 46.9738 166 46.3323 166 45.5432C166 45.3599 166.035 45.1766 166.103 45.0093ZM190.366 44.1086C194.326 44.1086 197.532 40.9008 197.532 36.9477C197.532 32.9946 194.322 29.7867 190.366 29.7867C185.342 29.7787 180.573 32.0103 177.364 35.8757L170.493 44.1126H190.366V44.1086ZM183.05 46.9738C183.839 48.3407 185.586 48.8109 186.953 48.0259C187.392 47.7748 187.755 47.4122 188.006 46.9738H183.05ZM177.467 10.089C177.467 9.88977 177.308 9.73038 177.108 9.73038H173.524C173.324 9.73038 173.165 9.88977 173.165 10.089V23.6977C173.165 23.8969 173.324 24.0563 173.524 24.0563H177.108C177.308 24.0563 177.467 23.8969 177.467 23.6977V10.089ZM188.935 19.7565C188.935 18.9675 188.293 18.3259 187.503 18.3259H181.77C180.98 18.3259 180.338 18.9675 180.338 19.7565V21.1871H188.939V19.7565H188.935ZM196.176 16.0386C196.144 16.0266 196.112 16.0465 196.104 16.0744C196.104 16.0784 196.1 16.0864 196.1 16.0904C196.1 16.1103 196.108 16.1262 196.124 16.1382L202.636 20.4778C203.329 20.9401 204.143 21.1871 204.976 21.1871H209.311L210.028 18.322C205.319 18.302 200.646 17.5289 196.176 16.0386ZM221.899 9.73038H220.467V11.161H221.899V9.73038ZM214.733 10.4477C214.733 10.8422 215.052 11.165 215.451 11.165H217.6V9.73436H215.451C215.052 9.73038 214.733 10.0492 214.733 10.4477ZM224.766 12.0018L225.152 12.3883L227.633 11.5635V7.74985L224.766 9.18045V12.0018ZM231.931 6.86519H230.5V11.161H231.931V6.86519ZM238.562 53.2382C242.817 53.2342 246.262 49.7872 246.266 45.5392C246.274 44.009 245.815 42.5107 244.954 41.2435H242.346C244.723 43.3356 244.954 46.9539 242.86 49.3289C240.767 51.704 237.146 51.9351 234.77 49.843C233.534 48.7551 232.824 47.189 232.824 45.5432C232.824 45.4237 232.828 45.3041 232.836 45.1886L230.93 46.6072C231.468 50.4049 234.722 53.2342 238.562 53.2382ZM238.562 42.6741C236.979 42.6741 235.695 43.9572 235.695 45.5392C235.695 47.1213 236.979 48.4044 238.562 48.4044C240.145 48.4044 241.429 47.1213 241.429 45.5392C241.425 43.9572 240.145 42.678 238.562 42.6741ZM229.487 44.1086L236.812 38.6612C237.059 38.4779 237.358 38.3783 237.669 38.3783H248.379C246.417 34.8396 242.685 32.6439 238.634 32.6479H237.342C235.185 32.6439 233.075 33.2696 231.265 34.4451L226.967 44.1047H229.487V44.1086ZM228.817 32.9109C228.921 32.6758 229.088 32.4686 229.303 32.3211C230.95 31.1655 232.824 30.3805 234.802 30.0138V27.8022L232.728 26.7661C232.39 26.5947 232.13 26.2998 232.011 25.9372L228.163 14.4047L226.424 14.9826L226.528 15.5046C228.219 23.9607 227.042 32.7356 223.187 40.4465C222.943 40.9326 222.449 41.2395 221.903 41.2395H209.003C205.048 41.2395 201.838 38.0356 201.838 34.0825V34.0785C201.838 31.8708 201.838 27.2921 208.521 25.5626C208.685 25.3235 208.832 24.7377 208.92 24.0523H189.334C184.872 24.0523 180.593 25.8217 177.439 28.9777C175.426 30.9822 173.847 33.3811 172.794 36.0192L172.128 37.6769L175.163 34.0347C178.919 29.5197 184.493 26.9095 190.37 26.9175C195.909 26.9135 200.399 31.3966 200.403 36.9317C200.403 39.6335 199.314 42.2198 197.38 44.1086H223.837L228.817 32.9109ZM185.53 53.2382C189.23 53.2342 192.404 50.6041 193.098 46.9698H191.08C190.291 50.0343 187.165 51.8793 184.098 51.0863C182.077 50.5643 180.498 48.9862 179.979 46.9698H177.962C178.655 50.6041 181.829 53.2342 185.53 53.2382Z" fill="white"/>
<defs>
<clipPath id="clip0">
<rect width="49" height="60" fill="white" transform="matrix(-1 0 0 1 49 0)"/>
</clipPath>
<clipPath id="clip1">
<rect width="85" height="53" fill="white" transform="translate(65 4)"/>
</clipPath>
</defs>
</svg>
