<svg width="44" height="40" viewBox="0 0 44 40" fill="none" xmlns="http://www.w3.org/2000/svg">
<path d="M43.507 8.30636C43.7312 6.68505 44.2288 4.2517 42.0634 2.65499C39.898 1.05828 35.4086 2.53469 33.9103 3.20454C33.8966 3.21001 33.8857 3.21821 33.8747 3.22641C30.7715 1.1239 26.7989 -0.11465 21.9049 0.00838464C17.0108 -0.11465 13.0409 1.1239 9.93501 3.22641C9.92408 3.22095 9.91041 3.21001 9.89947 3.20454C8.40119 2.53469 3.90907 1.05828 1.7464 2.65499C-0.419004 4.2517 0.0786013 6.68505 0.302797 8.30636C0.529727 9.92768 2.01707 12.8368 2.26314 13.9878C2.26314 13.9878 2.28502 13.9823 2.31509 13.9714C1.02186 18.2503 0.956246 22.901 2.01707 26.9802C4.9945 38.4252 21.9076 40 21.9076 40C21.9076 40 38.8207 38.4252 41.7954 26.9802C42.8562 22.901 42.7879 18.253 41.4974 13.9741C41.5275 13.9823 41.5494 13.9905 41.5494 13.9905C41.7954 12.8395 43.2828 9.93042 43.507 8.30636Z" fill="#222222"/>
<path d="M34.1052 14.0476C33.5775 11.7701 31.5133 10.2719 29.531 10.7284C28.298 11.0128 27.3684 11.9943 26.9692 13.2493C26.1162 13.7824 24.8311 14.5398 24.2734 14.6191C24.1804 14.6327 24.123 14.6628 24.0875 14.7093C23.5871 14.0886 22.9009 13.602 21.9056 13.602C20.9104 13.602 20.2242 14.0914 19.7238 14.7093C19.6883 14.6655 19.6309 14.6327 19.5379 14.6191C18.8927 14.5261 17.2932 13.5418 16.4921 13.0278C16.0602 11.8822 15.1716 10.9991 14.0014 10.7312C12.0055 10.2691 9.95765 11.7565 9.42724 14.0504C8.89683 16.3443 10.0834 18.578 12.0793 19.0401C13.4081 19.3463 14.7587 18.7886 15.6692 17.7031C15.6746 17.7332 15.6801 17.7633 15.6883 17.7933C16.2406 20.1747 14.1873 22.4769 13.6459 24.3853C13.1046 26.2936 13.512 27.0565 14.3049 27.9861C15.0431 28.85 14.8927 29.3558 15.1852 27.6416C15.3137 28.6176 15.4997 29.58 15.6145 30.3948C15.8879 32.3497 16.5496 32.6067 17.3069 32.6367C17.5229 32.645 17.7033 32.6422 17.8592 32.6258L20.1777 33.8644C21.3014 34.2225 22.5071 34.228 23.6336 33.878L26.0177 32.6313C26.1572 32.6422 26.313 32.645 26.4989 32.6367C27.2563 32.6067 27.9179 32.3497 28.1913 30.3948C28.3062 29.58 28.4921 28.6149 28.6206 27.6416C28.9131 29.3558 28.7628 28.85 29.501 27.9861C30.2939 27.0565 30.7012 26.2936 30.1599 24.3853C29.6322 22.5206 27.6637 20.2786 28.0929 17.9519C28.9952 18.8678 30.2392 19.3217 31.4504 19.0401C33.4326 18.578 34.6301 16.3279 34.1052 14.0476Z" fill="white"/>
<path d="M41.2941 8.26876C41.9272 6.60154 41.5421 4.90887 40.4339 4.48807C39.3257 4.06728 37.9141 5.0777 37.2811 6.74491C36.648 8.41213 37.0331 10.1048 38.1413 10.5256C39.2495 10.9464 40.6611 9.93597 41.2941 8.26876Z" fill="white"/>
<path d="M5.97294 10.5275C7.08113 10.1068 7.46628 8.41408 6.8332 6.74687C6.20012 5.07965 4.78855 4.06923 3.68037 4.49003C2.57219 4.91083 2.18704 6.6035 2.82011 8.27071C3.45319 9.93793 4.86476 10.9483 5.97294 10.5275Z" fill="white"/>
<path d="M15.2729 15.2049C15.5266 14.6584 15.0851 13.9148 14.2866 13.544C13.4881 13.1733 12.6351 13.3157 12.3814 13.8621C12.1276 14.4086 12.5692 15.1521 13.3676 15.5229C14.1661 15.8937 15.0191 15.7513 15.2729 15.2049Z" fill="black"/>
<path d="M13.7121 13.9928C13.4715 14.1186 13.3047 14.3701 13.3047 14.6599C13.3047 15.0755 13.641 15.4118 14.0566 15.4118C14.4721 15.4118 14.8084 15.0755 14.8084 14.6599C14.8084 14.474 14.7401 14.3018 14.6253 14.1705C14.2862 14.0174 13.9554 13.9791 13.7121 13.9928Z" fill="white"/>
<path d="M14.4933 14.6211C14.4933 14.8316 14.3238 15.0038 14.1105 15.0038C13.9 15.0038 13.7305 14.8343 13.7305 14.6211C13.7305 14.4105 13.9 14.2383 14.1105 14.2383C14.321 14.241 14.4933 14.4105 14.4933 14.6211Z" fill="black"/>
<path d="M13.9937 14.3055C13.9937 14.3984 13.9199 14.4722 13.8269 14.4722C13.734 14.4722 13.6602 14.3984 13.6602 14.3055C13.6602 14.2125 13.734 14.1387 13.8269 14.1387C13.9199 14.1387 13.9937 14.2125 13.9937 14.3055Z" fill="white"/>
<path d="M30.8628 15.5282C31.6612 15.1574 32.1028 14.4138 31.849 13.8674C31.5952 13.3209 30.7422 13.1785 29.9438 13.5493C29.1453 13.9201 28.7038 14.6637 28.9575 15.2102C29.2113 15.7566 30.0643 15.899 30.8628 15.5282Z" fill="black"/>
<path d="M30.5202 13.9948C30.7608 14.1205 30.9276 14.3721 30.9276 14.6619C30.9276 15.0775 30.5913 15.4138 30.1757 15.4138C29.7601 15.4138 29.4238 15.0775 29.4238 14.6619C29.4238 14.476 29.4922 14.3037 29.607 14.1725C29.946 14.0194 30.2769 13.9811 30.5202 13.9948Z" fill="white"/>
<path d="M29.7383 14.623C29.7383 14.8335 29.9078 15.0058 30.1211 15.0058C30.3316 15.0058 30.5011 14.8363 30.5011 14.623C30.5011 14.4125 30.3316 14.2402 30.1211 14.2402C29.9105 14.243 29.7383 14.4125 29.7383 14.623Z" fill="black"/>
<path d="M30.2383 14.3074C30.2383 14.4004 30.3121 14.4742 30.4051 14.4742C30.498 14.4742 30.5718 14.4004 30.5718 14.3074C30.5718 14.2144 30.498 14.1406 30.4051 14.1406C30.3148 14.1406 30.2383 14.2144 30.2383 14.3074Z" fill="white"/>
<path d="M26.7515 27.2194C26.8471 26.719 26.3222 23.1893 25.0098 23.1893C24.0939 23.1893 22.7405 23.8291 21.9777 23.9357C21.9285 23.9439 21.8848 23.9439 21.8356 23.9357C21.0509 23.8127 19.3366 22.8995 18.4699 23.1893C17.3954 23.5475 16.9661 26.719 17.0618 27.2194C17.0646 27.2276 17.0673 27.2358 17.0673 27.2467C17.0618 27.3096 17.0536 27.3725 17.0536 27.4354C17.0536 29.2207 19.2272 30.6698 21.9066 30.6698C24.5861 30.6698 26.7597 29.2207 26.7597 27.4354C26.7597 27.3752 26.7515 27.3151 26.746 27.2549C26.746 27.2412 26.7487 27.2303 26.7515 27.2194Z" fill="black"/>
</svg>
