<svg width="24" height="24" viewBox="0 0 24 24"  xmlns="http://www.w3.org/2000/svg" fill="#FE8A02">
<path d="M22 3H2C1.73478 3 1.48043 3.10536 1.29289 3.29289C1.10536 3.48043 1 3.73478 1 4V20C1 20.2652 1.10536 20.5196 1.29289 20.7071C1.48043 20.8946 1.73478 21 2 21H22C22.2652 21 22.5196 20.8946 22.7071 20.7071C22.8946 20.5196 23 20.2652 23 20V4C23 3.73478 22.8946 3.48043 22.7071 3.29289C22.5196 3.10536 22.2652 3 22 3V3ZM21 19H3V5H21V19ZM4.132 7.5C4.1975 7.38585 4.28488 7.28574 4.38915 7.20543C4.49342 7.12512 4.61251 7.06618 4.7396 7.03199C4.86669 6.9978 4.99928 6.98904 5.12977 7.0062C5.26026 7.02336 5.38607 7.06611 5.5 7.132L12 10.848L18.5 7.132C18.7302 6.99939 19.0037 6.96366 19.2602 7.03268C19.5168 7.10169 19.7354 7.26979 19.868 7.5C20.0006 7.73021 20.0363 8.00367 19.9673 8.26022C19.8983 8.51677 19.7302 8.73539 19.5 8.868L12.5 12.868C12.3489 12.9543 12.178 12.9997 12.004 12.9997C11.83 12.9997 11.6591 12.9543 11.508 12.868L4.508 8.868C4.39318 8.80317 4.29231 8.71628 4.2112 8.61231C4.13009 8.50835 4.07034 8.38937 4.03539 8.26223C4.00045 8.13508 3.99099 8.00228 4.00757 7.87146C4.02415 7.74065 4.06644 7.61441 4.132 7.5V7.5ZM8.707 13.289C8.89447 13.4765 8.99979 13.7308 8.99979 13.996C8.99979 14.2612 8.89447 14.5155 8.707 14.703L6.707 16.703C6.5184 16.8852 6.2658 16.986 6.0036 16.9837C5.7414 16.9814 5.49059 16.8762 5.30518 16.6908C5.11977 16.5054 5.0146 16.2546 5.01233 15.9924C5.01005 15.7302 5.11084 15.4776 5.293 15.289L7.293 13.289C7.48106 13.1021 7.73566 12.9975 8.00083 12.9982C8.26599 12.999 8.52 13.105 8.707 13.293V13.289ZM18.707 15.289C18.8025 15.3812 18.8787 15.4916 18.9311 15.6136C18.9835 15.7356 19.0111 15.8668 19.0123 15.9996C19.0134 16.1324 18.9881 16.2641 18.9378 16.387C18.8875 16.5098 18.8133 16.6215 18.7194 16.7154C18.6255 16.8093 18.5138 16.8835 18.391 16.9338C18.2681 16.9841 18.1364 17.0094 18.0036 17.0083C17.8708 17.0071 17.7396 16.9795 17.6176 16.9271C17.4956 16.8747 17.3852 16.7985 17.293 16.703L15.293 14.703C15.1108 14.5144 15.01 14.2618 15.0123 13.9996C15.0146 13.7374 15.1198 13.4866 15.3052 13.3012C15.4906 13.1158 15.7414 13.0106 16.0036 13.0083C16.2658 13.006 16.5184 13.1068 16.707 13.289L18.707 15.289Z" />
</svg>
