<svg width="308" height="267" viewBox="0 0 308 267" fill="none" xmlns="http://www.w3.org/2000/svg">
<g clip-path="url(#clip0_8:3315)">
<path d="M135.532 267C210.384 267 271.063 266.45 271.063 265.771C271.063 265.092 210.384 264.542 135.532 264.542C60.6796 264.542 0 265.092 0 265.771C0 266.45 60.6796 267 135.532 267Z" fill="#6077BD"/>
<path d="M113.268 236.354C113.268 252.616 99.3898 265.771 82.2586 265.771C65.1275 265.771 51.249 252.616 51.249 236.354C51.249 220.091 65.1275 206.936 82.2586 206.936C99.3898 206.864 113.268 220.091 113.268 236.354Z" fill="black"/>
<path d="M301.35 236.354C301.35 252.616 287.471 265.771 270.34 265.771C253.209 265.771 239.331 252.616 239.331 236.354C239.331 220.091 253.209 206.936 270.34 206.936C287.471 206.864 301.35 220.091 301.35 236.354Z" fill="black"/>
<path d="M238.174 117.092L255.161 115.141V120.2H238.174V117.092Z" fill="#0F1D5B"/>
<path d="M176.299 56.9561C176.299 56.9561 185.262 97.9385 214.32 103.721C239.114 108.636 249.739 113.695 249.739 113.695L238.824 117.309C238.824 117.309 189.383 117.309 180.564 109.214C171.745 101.191 168.565 92.1561 168.565 92.1561L176.299 56.9561Z" fill="white" stroke="#0059AC" stroke-miterlimit="10"/>
<path d="M163.144 127.428L226.103 142.535L222.417 227.463C222.417 227.463 227.332 226.523 230.151 226.523C232.898 226.523 234.922 224.138 234.922 224.138C234.922 224.138 233.548 232.089 231.163 232.089C228.777 232.089 218.875 238.233 218.875 238.233L206.08 160.46L147.314 143.185L163.144 127.428Z" fill="#2A417F"/>
<path d="M82.2589 263.025C66.718 263.025 54.0684 251.098 54.0684 236.354C54.0684 221.681 66.718 209.682 82.2589 209.682C97.7999 209.682 110.449 221.609 110.449 236.354C110.449 251.026 97.7999 263.025 82.2589 263.025Z" fill="black"/>
<path d="M270.34 263.025C254.8 263.025 242.15 251.098 242.15 236.354C242.15 221.681 254.8 209.682 270.34 209.682C285.881 209.682 298.531 221.609 298.531 236.354C298.531 251.026 285.881 263.025 270.34 263.025Z" fill="black"/>
<path d="M82.2586 251.821C72.8618 251.821 65.1997 244.882 65.1997 236.354C65.1997 227.825 72.8618 220.886 82.2586 220.886C91.6555 220.886 99.3175 227.825 99.3175 236.354C99.2452 244.882 91.6555 251.821 82.2586 251.821Z" fill="white"/>
<path d="M270.341 251.821C260.944 251.821 253.282 244.882 253.282 236.354C253.282 227.825 260.944 220.886 270.341 220.886C279.737 220.886 287.4 227.825 287.4 236.354C287.327 244.882 279.737 251.821 270.341 251.821Z" fill="white"/>
<path d="M253.282 236.354C253.282 227.825 260.944 220.886 270.341 220.886C270.558 220.886 270.774 220.886 270.991 220.886C272.075 220.091 273.087 219.585 274.099 219.296C274.533 219.223 277.858 217.922 285.737 217.922C289.062 217.922 292.243 218.139 294.989 218.428C277.063 196.166 239.331 208.165 239.331 236.354C239.331 241.847 240.921 246.979 243.668 251.388C249.523 248.28 252.92 244.015 254.438 241.919C253.715 240.184 253.282 238.305 253.282 236.354Z" fill="#18287D"/>
<path d="M270.991 220.886C270.774 220.886 270.558 220.886 270.341 220.886C260.944 220.886 253.282 227.825 253.282 236.354C253.282 238.305 253.715 240.184 254.438 241.847C255.017 241.052 255.306 240.546 255.306 240.473C258.703 235.197 265.209 224.933 270.991 220.886Z" fill="#546EAF"/>
<path d="M82.2589 206.864C63.3929 206.864 48.8639 222.693 51.5384 240.546H65.8505C65.4168 239.245 65.2 237.8 65.2 236.354C65.2 227.825 72.862 220.886 82.2589 220.886C91.6557 220.886 99.3178 227.825 99.3178 236.354C99.3178 237.8 99.1009 239.245 98.6672 240.546H107.197L111.895 245.244C118.111 226.307 103.293 206.864 82.2589 206.864Z" fill="#18287D"/>
<path d="M99.2453 236.354C99.2453 227.825 91.5832 220.886 82.1864 220.886C72.7895 220.886 65.1274 227.825 65.1274 236.354C65.1274 237.799 65.3443 239.245 65.778 240.546H98.5224C99.0284 239.172 99.2453 237.799 99.2453 236.354Z" fill="#546EAF"/>
<path d="M239.331 235.197L236.873 236.353L232.102 124.031L230.584 122.297L232.97 122.224L234.126 123.525L239.331 235.197Z" fill="#2846A6"/>
<path d="M234.126 123.525L239.331 235.197L273.521 200.214L239.114 123.092L234.126 123.525Z" fill="#FB8603"/>
<path d="M104.161 169.134L102.064 171.23L60.7182 202.382L56.9595 219.729C56.9595 219.729 105.1 222.187 112.979 225.295C120.858 228.475 122.593 249.942 122.593 249.942H229.717C238.536 249.942 246.631 245.388 251.33 237.944C257.112 228.692 265.425 217.199 272.003 215.176C283.351 211.706 299.832 214.814 299.832 214.814L308.072 209.538C308.072 209.538 290.435 187.999 266.292 199.057C242.15 210.044 249.161 236.353 225.525 238.088C209.044 239.317 177.673 238.666 159.602 238.45C151.362 238.377 176.227 180.048 176.227 180.048L176.95 169.206H104.161V169.134Z" fill="#CDC3FE"/>
<path d="M122.521 250.014C233.837 247.991 231.885 251.749 241.788 246.184C245.186 244.304 248.149 241.558 250.318 238.305C254.727 231.439 262.678 219.44 269.979 215.682C271.569 214.814 274.027 214.308 275.834 214.019C283.062 212.79 292.531 213.513 299.832 214.887C291.881 213.73 280.677 213.007 273.087 215.32C264.919 217.416 256.173 231.511 251.402 239.028C246.704 246.111 239.042 250.376 230.729 250.737C222.705 250.737 160.108 250.665 122.521 250.014Z" fill="#DDDFFE"/>
<path d="M96.4985 162.195V165.158H182.877V156.774L102.787 155.979C99.3176 155.907 96.4985 158.726 96.4985 162.195Z" fill="#2846A6"/>
<path d="M102.064 171.23L99.9683 165.158H178.324V171.23H102.064Z" fill="#719DFF"/>
<path d="M94.8361 196.672C94.2578 196.455 93.6072 196.311 93.029 196.166C67.2238 189.227 42.5751 209.755 44.9604 236.354H108.931L122.593 250.014C122.521 250.014 118.906 204.406 94.8361 196.672Z" fill="#719DFF"/>
<path d="M251.98 85.145C251.98 80.9528 250.968 77.5557 249.74 77.5557C248.511 77.5557 247.499 80.9528 247.499 85.145C247.499 89.1204 248.366 92.3007 249.523 92.7343L238.825 120.634L241.499 121.502L249.884 92.662C251.041 92.4452 251.98 89.1926 251.98 85.145Z" fill="#18287D"/>
<path d="M234.126 123.525L232.97 122.224L241.716 121.574L239.114 123.092L234.126 123.525Z" fill="#2846A6"/>
<path d="M232.03 112.033L223.862 115.864L224.801 122.586L232.97 122.224L232.03 112.033Z" fill="#2846A6"/>
<path d="M253.932 138.632C254.582 144.631 251.33 149.907 246.631 150.413C241.933 150.919 237.523 146.51 236.873 140.511C236.222 134.512 239.475 129.236 244.173 128.73C248.872 128.224 253.281 132.633 253.932 138.632Z" fill="#18287D"/>
<path d="M253.932 138.632C254.583 144.631 251.908 149.835 247.86 150.269C243.812 150.702 240.054 146.221 239.403 140.294C238.752 134.295 241.427 129.163 245.475 128.657C249.45 128.151 253.209 132.633 253.932 138.632Z" fill="#FFDA88"/>
<path d="M240.054 140.15C239.548 135.741 241.21 129.814 245.547 129.308C249.667 128.874 252.703 133.934 253.281 138.704C253.932 144.27 251.474 149.112 247.788 149.546C243.595 149.98 240.56 144.92 240.054 140.15Z" fill="white" stroke="#0059AC" stroke-miterlimit="10"/>
<path d="M163.144 127.429L158.518 125.26C158.518 125.26 179.335 80.3024 177.022 60.2087C176.01 51.3184 168.999 46.4757 167.987 46.2588C163.144 45.1024 151.217 41.8498 143.7 48.7886C134.664 57.1007 122.521 101.769 122.521 113.19C122.521 124.61 122.521 124.61 122.521 124.61C122.521 124.61 124.617 139.716 130.038 148.823C138.061 141.089 152.157 131.548 163.144 127.429Z" fill="white" stroke="#0059AC" stroke-miterlimit="10"/>
<path d="M158.59 125.26C158.59 125.26 159.53 123.236 160.975 119.911C153.675 112.9 165.023 60.5701 151.94 51.9689C151.94 51.9689 146.302 48.644 140.23 55.7274C134.303 62.6662 134.736 123.381 152.157 132.705C155.988 130.537 159.747 128.73 163.216 127.429L158.59 125.26Z" fill="#719DFF"/>
<path d="M196.394 232.378C194.081 230.282 214.321 147.016 214.321 147.016L163.144 127.428C152.157 131.548 141.893 137.475 133.941 145.209C137.339 150.919 140.519 155.69 141.676 155.906C144.784 156.412 186.564 161.761 186.564 161.761V238.739H190.901H203.84C203.84 238.739 207.815 237.871 207.815 236.281C207.815 234.691 198.635 234.474 196.394 232.378Z" fill="#4F80FF"/>
<path d="M153.314 51.8965C153.314 51.8965 147.82 48.7885 141.893 55.4382C136.038 62.0879 136.544 121.212 154.615 128.007C172.686 134.801 210.996 120.128 210.996 120.128V113.334C210.996 113.334 169.288 122.008 162.132 115.502C154.976 109.07 166.035 59.9918 153.314 51.8965Z" fill="white" stroke="#0059AC" stroke-miterlimit="10"/>
<path d="M162.132 115.575C153.819 107.769 167.408 49.8728 149.048 51.2461C168.637 48.644 155.482 108.13 162.132 115.575Z" fill="#719DFF"/>
<path d="M155.843 45.8251L168.927 34.5496C168.927 34.5496 176.372 34.9832 177.528 38.6695C178.54 41.9221 170.228 49.3668 165.746 55.2215C164.734 56.5225 162.783 56.8116 161.409 55.7997C158.518 53.6313 154.615 49.8005 155.843 45.8251Z" fill="white" stroke="#0059AC" stroke-miterlimit="10"/>
<path d="M177.528 38.6695C176.372 34.911 168.927 34.5496 168.927 34.5496L167.047 36.1397C167.192 37.8021 167.842 44.0904 169.288 48.2826C169.505 48.8609 169.794 49.4391 170.228 49.8728C174.276 45.4637 178.251 41.0547 177.528 38.6695Z" fill="#719DFF"/>
<path d="M174.709 27.2493L168.926 34.5495C168.926 34.5495 169.505 41.4883 171.095 45.8974C172.685 50.3064 182.299 52.3302 185.768 49.2222C186.347 48.644 186.78 48.2103 186.78 48.2103C185.913 47.343 184.323 45.4637 184.178 43.2953C184.178 43.2953 186.274 44.8132 188.877 45.4637C188.877 45.3192 190.394 42.2834 190.394 42.2834L192.202 43.0785C192.202 43.0785 195.599 31.8752 195.599 27.3939C195.527 22.8403 179.624 21.3224 174.709 27.2493Z" fill="white" stroke="#0059AC" stroke-miterlimit="10"/>
<path d="M218.368 83.0489C218.73 78.8567 220.031 75.5319 221.26 75.6764C222.489 75.821 223.211 79.2904 222.778 83.4826C222.416 87.3857 221.26 90.566 220.103 90.8551L228.271 119.622L225.525 120.273L219.742 90.8551C218.658 90.4937 218.007 87.0966 218.368 83.0489Z" fill="#18287D"/>
<path d="M208.104 117.092L228.416 117.309V120.562L209.477 125.26L208.104 117.092Z" fill="#0F1D5B"/>
<path d="M222.344 115.358C220.392 113.985 217.573 113.262 215.622 113.262C213.67 113.262 214.393 113.262 212.08 113.262C209.767 113.262 206.731 114.274 206.731 114.274C202.466 115.936 209.983 124.465 210.273 124.754C210.562 125.043 211.718 124.971 212.802 124.971C213.887 124.971 214.465 123.381 214.465 123.381C214.465 123.381 214.393 124.248 214.537 124.465C214.971 125.116 217.067 124.899 218.007 124.899C218.802 124.899 218.947 123.67 218.947 123.309C218.947 123.309 219.019 123.959 219.091 124.176C219.236 124.61 220.681 124.682 221.766 124.393C223.139 123.887 223.862 116.37 222.344 115.358Z" fill="white" stroke="#0059AC" stroke-miterlimit="10"/>
<path d="M243.017 114.346C243.017 114.346 241.138 114.924 240.632 117.092C240.198 119.261 240.343 121.574 241.355 121.574C242.294 121.574 243.017 121.14 243.017 121.14C243.017 121.14 243.885 121.863 244.68 121.863C245.475 121.863 246.921 121.502 246.921 121.502C246.921 121.502 247.499 121.863 248.583 121.863C249.595 121.863 250.101 121.502 250.101 121.502C250.101 121.502 250.39 121.863 251.402 121.863C252.414 121.863 253.426 116.442 251.113 114.274C248.655 112.25 243.017 114.346 243.017 114.346Z" fill="white" stroke="#0059AC" stroke-miterlimit="10"/>
<path d="M161.481 40.9824C161.481 40.9824 163.578 36.1397 163.578 29.996C163.578 23.8522 165.24 18.7927 170.517 18.7927C175.794 18.7927 176.083 17.9253 181.215 14.8173C192.78 7.8062 205.213 23.3463 195.31 26.382C185.407 29.4177 183.528 22.9126 180.42 25.7315C177.312 28.5504 177.962 33.3931 172.541 36.4288C167.12 39.5368 161.481 40.9824 161.481 40.9824Z" fill="#18287D"/>
<path d="M241.716 112.467V121.574L232.97 122.224L232.03 112.033L241.716 112.467Z" fill="#DDDFFE"/>
<path d="M195.455 28.1889C196.467 31.5861 206.586 31.5861 206.297 25.0809H207.67C207.309 32.598 196.25 31.8752 195.455 28.1889Z" fill="#18287D"/>
<path d="M207.598 31.9474C201.165 38.5248 194.37 32.092 195.671 27.972C194.659 32.0197 201.309 37.5129 206.658 31.0078L207.598 31.9474Z" fill="#18287D"/>
<path d="M185.046 32.7425C185.046 32.7425 188.154 31.6583 189.889 32.5257C191.624 33.4653 191.768 33.6821 191.19 34.1881C190.612 34.694 189.744 33.5376 188.226 33.1762C186.781 32.8148 185.046 32.7425 185.046 32.7425Z" fill="#18287D"/>
<path d="M203.984 16.4074C201.31 4.4813 186.347 -4.9873 171.168 2.89115C153.097 12.2875 159.819 32.8148 159.819 32.8148C159.819 32.8148 169.794 38.5972 172.469 36.4288C172.469 36.4288 176.589 24.4304 182.155 23.6353C187.721 22.8403 195.672 27.6107 197.262 29.2008C198.997 30.8633 206.225 26.2374 203.984 16.4074Z" fill="#FF9739"/>
<path d="M204.418 20.6719C199.575 10.9864 186.419 4.55358 173.191 11.4201C162.493 16.9856 160.469 26.4542 160.614 33.2485C162.927 34.5495 170.3 38.3081 172.613 36.5011C172.613 36.5011 176.733 24.5027 182.299 23.7076C187.865 22.9125 195.816 27.683 197.406 29.2731C198.707 30.6464 204.056 27.5384 204.418 20.6719Z" fill="#FB8603"/>
<path d="M174.348 53.2699C167.12 48.3549 168.999 39.1031 168.204 32.6703C168.059 31.6583 168.782 30.791 169.794 30.6464C174.854 30.0682 168.638 45.03 176.372 50.3064C178.396 51.6074 176.372 54.5709 174.348 53.2699Z" fill="#18287D"/>
</g>
<defs>
<clipPath id="clip0_8:3315">
<rect width="308" height="267" fill="white"/>
</clipPath>
</defs>
</svg>
